# Blender 4.0.2
# www.blender.org
o 5acc4fcc744412676e1389c5b7bb40c23a2ec944da431a5bf08751bef4e100b
v -300.000000 31.500000 300.000000
v -300.000000 0.000000 300.000000
v -300.000000 0.000000 -300.000000
v -300.000000 31.500000 -300.000000
v -276.816345 11.510000 300.000000
v -273.291565 31.500000 300.000000
v -241.183655 11.510000 300.000000
v -196.816345 11.510000 300.000000
v -193.291580 31.500000 300.000000
v -244.708420 31.500000 300.000000
v 166.708420 31.500000 300.000000
v -161.183655 11.510000 300.000000
v -164.708420 31.500000 300.000000
v 163.183655 11.510000 300.000000
v 246.708420 31.500000 300.000000
v 198.816345 11.510000 300.000000
v 195.291580 31.500000 300.000000
v 243.183655 11.510000 300.000000
v 300.000000 0.000000 300.000000
v 278.816345 11.510000 300.000000
v 300.000000 31.500000 300.000000
v 275.291565 31.500000 300.000000
v -273.291565 31.500000 -300.000000
v -276.816345 11.510000 -300.000000
v -241.183655 11.510000 -300.000000
v -196.816345 11.510000 -300.000000
v -193.291580 31.500000 -300.000000
v -244.708420 31.500000 -300.000000
v 166.708420 31.500000 -300.000000
v -161.183655 11.510000 -300.000000
v -164.708420 31.500000 -300.000000
v 163.183655 11.510000 -300.000000
v 246.708420 31.500000 -300.000000
v 198.816345 11.510000 -300.000000
v 195.291580 31.500000 -300.000000
v 243.183655 11.510000 -300.000000
v 300.000000 0.000000 -300.000000
v 278.816345 11.510000 -300.000000
v 300.000000 31.500000 -300.000000
v 275.291565 31.500000 -300.000000
vn -1.0000 -0.0000 -0.0000
vn -0.0000 -0.0000 1.0000
vn -0.0000 1.0000 -0.0000
vn -0.0000 -0.0000 -1.0000
vn -0.0000 -1.0000 -0.0000
vn 1.0000 -0.0000 -0.0000
vn -0.9848 -0.1736 -0.0000
vn 0.9848 -0.1736 -0.0000
s 0
f 3//1 2//1 1//1
f 4//1 3//1 1//1
f 1//2 2//2 5//2
f 1//2 5//2 6//2
f 5//2 2//2 7//2
f 7//2 2//2 8//2
f 10//2 7//2 9//2
f 7//2 8//2 9//2
f 13//2 12//2 11//2
f 12//2 14//2 11//2
f 17//2 16//2 15//2
f 16//2 18//2 15//2
f 20//2 18//2 19//2
f 18//2 16//2 19//2
f 22//2 20//2 21//2
f 20//2 19//2 21//2
f 8//2 2//2 19//2
f 12//2 8//2 19//2
f 14//2 12//2 19//2
f 16//2 14//2 19//2
f 4//3 1//3 6//3
f 23//3 4//3 6//3
f 24//4 3//4 4//4
f 23//4 24//4 4//4
f 25//4 3//4 24//4
f 26//4 3//4 25//4
f 27//4 25//4 28//4
f 27//4 26//4 25//4
f 29//4 30//4 31//4
f 29//4 32//4 30//4
f 33//4 34//4 35//4
f 33//4 36//4 34//4
f 37//4 36//4 38//4
f 37//4 34//4 36//4
f 39//4 38//4 40//4
f 39//4 37//4 38//4
f 37//4 3//4 26//4
f 37//4 26//4 30//4
f 37//4 30//4 32//4
f 37//4 32//4 34//4
f 2//5 3//5 37//5
f 19//5 2//5 37//5
f 21//6 19//6 37//6
f 21//6 37//6 39//6
f 39//3 40//3 22//3
f 39//3 22//3 21//3
f 38//7 20//7 22//7
f 40//7 38//7 22//7
f 36//3 18//3 20//3
f 38//3 36//3 20//3
f 33//8 15//8 18//8
f 36//8 33//8 18//8
f 33//3 35//3 17//3
f 33//3 17//3 15//3
f 34//7 16//7 17//7
f 35//7 34//7 17//7
f 32//3 14//3 16//3
f 34//3 32//3 16//3
f 29//8 11//8 14//8
f 32//8 29//8 14//8
f 29//3 31//3 13//3
f 29//3 13//3 11//3
f 30//7 12//7 13//7
f 31//7 30//7 13//7
f 26//3 8//3 12//3
f 30//3 26//3 12//3
f 27//8 9//8 8//8
f 26//8 27//8 8//8
f 27//3 28//3 10//3
f 27//3 10//3 9//3
f 25//7 7//7 10//7
f 28//7 25//7 10//7
f 24//3 5//3 7//3
f 25//3 24//3 7//3
f 24//8 23//8 6//8
f 24//8 6//8 5//8
o 5b6359e4a2dbc0a621ecfc38573fcaaf7de46ce9cd2ed621e808662c158c34b
v -300.000000 31.500000 300.000000
v -300.000000 0.000000 300.000000
v -300.000000 0.000000 -300.000000
v -300.000000 31.500000 -300.000000
v 300.000000 31.500000 300.000000
v 300.000000 0.000000 300.000000
v 300.000000 0.000000 -300.000000
v 300.000000 31.500000 -300.000000
vn -1.0000 -0.0000 -0.0000
vn 1.0000 -0.0000 -0.0000
vn -0.0000 -0.0000 1.0000
vn -0.0000 -0.0000 -1.0000
vn -0.0000 -1.0000 -0.0000
vn -0.0000 1.0000 -0.0000
s 0
f 43//9 42//9 41//9
f 44//9 43//9 41//9
f 45//10 46//10 47//10
f 45//10 47//10 48//10
f 42//11 46//11 45//11
f 41//11 42//11 45//11
f 48//12 47//12 43//12
f 48//12 43//12 44//12
f 42//13 43//13 47//13
f 46//13 42//13 47//13
f 48//14 44//14 41//14
f 48//14 41//14 45//14
o 9a45f7c015ad672ca7701a3f0790c6e5de89ed70e0fa13a89178066d51c4629
v 95.000000 81.510002 300.000000
v 95.000000 61.509998 300.000000
v 45.000000 61.509998 300.000000
v 45.000000 81.510002 300.000000
v 95.000000 61.509998 -300.000000
v 45.000000 61.509998 -300.000000
v 95.000000 81.510002 -300.000000
v 45.000000 81.510002 -300.000000
vn -0.0000 -0.0000 1.0000
vn -0.0000 -1.0000 -0.0000
vn 1.0000 -0.0000 -0.0000
vn -0.0000 1.0000 -0.0000
vn -1.0000 -0.0000 -0.0000
vn -0.0000 -0.0000 -1.0000
s 0
f 51//15 50//15 49//15
f 52//15 51//15 49//15
f 51//16 54//16 53//16
f 50//16 51//16 53//16
f 49//17 50//17 53//17
f 55//17 49//17 53//17
f 55//18 52//18 49//18
f 55//18 56//18 52//18
f 56//19 54//19 51//19
f 52//19 56//19 51//19
f 55//20 53//20 54//20
f 55//20 54//20 56//20
o 9cf1527a9d7a3ad3e82c3a9c253b2530c9cf89f7f88020c42e890b3c5eba4f7
v 160.000000 81.510002 300.000000
v 160.000000 61.509998 300.000000
v 120.000000 61.509998 300.000000
v 120.000000 81.510002 300.000000
v 120.000000 61.509998 -300.000000
v 160.000000 61.509998 -300.000000
v 160.000000 81.510002 -300.000000
v 120.000000 81.510002 -300.000000
vn -0.0000 -0.0000 1.0000
vn -0.0000 -1.0000 -0.0000
vn 1.0000 -0.0000 -0.0000
vn -0.0000 1.0000 -0.0000
vn -1.0000 -0.0000 -0.0000
vn -0.0000 -0.0000 -1.0000
s 0
f 59//21 58//21 57//21
f 60//21 59//21 57//21
f 58//22 59//22 61//22
f 58//22 61//22 62//22
f 57//23 58//23 62//23
f 63//23 57//23 62//23
f 64//24 60//24 57//24
f 63//24 64//24 57//24
f 64//25 61//25 59//25
f 60//25 64//25 59//25
f 63//26 62//26 61//26
f 63//26 61//26 64//26
o 123e80014ba78d82fdb4909c136fe7aef25c8ee4e4c87a90784dcfcc6823eb9
v -111.526543 41.509998 300.000000
v -164.708420 31.500000 300.000000
v -170.000000 61.509998 300.000000
v -101.473457 41.509998 300.000000
v -108.000000 61.509998 300.000000
v 107.000000 61.509998 300.000000
v -105.000000 61.509998 300.000000
v 103.473457 41.509998 300.000000
v 166.708420 31.500000 300.000000
v 113.526543 41.509998 300.000000
v 172.000000 61.509998 300.000000
v 110.000000 61.509998 300.000000
v 166.708420 31.500000 -300.000000
v -164.708420 31.500000 -300.000000
v 172.000000 61.509998 -300.000000
v 110.000000 61.509998 -300.000000
v 113.526543 41.509998 -300.000000
v 103.473457 41.509998 -300.000000
v 107.000000 61.509998 -300.000000
v -105.000000 61.509998 -300.000000
v -101.473457 41.509998 -300.000000
v -111.526543 41.509998 -300.000000
v -108.000000 61.509998 -300.000000
v -170.000000 61.509998 -300.000000
vn -0.0000 -0.0000 1.0000
vn -0.0000 -1.0000 -0.0000
vn 0.9848 -0.1736 -0.0000
vn -0.0000 1.0000 -0.0000
vn -0.9848 -0.1736 -0.0000
vn -0.0000 -0.0000 -1.0000
s 0
f 67//27 66//27 65//27
f 65//27 66//27 68//27
f 67//27 65//27 69//27
f 71//27 68//27 70//27
f 68//27 72//27 70//27
f 74//27 72//27 73//27
f 76//27 74//27 75//27
f 74//27 73//27 75//27
f 72//27 66//27 73//27
f 68//27 66//27 72//27
f 66//28 78//28 77//28
f 73//28 66//28 77//28
f 79//29 75//29 73//29
f 77//29 79//29 73//29
f 80//30 76//30 75//30
f 79//30 80//30 75//30
f 81//31 74//31 76//31
f 80//31 81//31 76//31
f 81//30 82//30 72//30
f 81//30 72//30 74//30
f 83//29 70//29 72//29
f 82//29 83//29 72//29
f 83//30 84//30 71//30
f 83//30 71//30 70//30
f 85//31 68//31 71//31
f 84//31 85//31 71//31
f 85//30 86//30 65//30
f 85//30 65//30 68//30
f 87//29 69//29 65//29
f 86//29 87//29 65//29
f 87//30 88//30 67//30
f 87//30 67//30 69//30
f 78//31 66//31 67//31
f 88//31 78//31 67//31
f 86//32 78//32 88//32
f 85//32 78//32 86//32
f 87//32 86//32 88//32
f 83//32 85//32 84//32
f 83//32 82//32 85//32
f 77//32 82//32 81//32
f 79//32 81//32 80//32
f 79//32 77//32 81//32
f 77//32 78//32 82//32
f 82//32 78//32 85//32
o 950dc6dcc95a01b39b31e57785e05645b851a1b2166e2e87287467527ecaf6d
v -45.000000 81.510002 300.000000
v -45.000000 61.509998 300.000000
v -95.000000 61.509998 300.000000
v -95.000000 81.510002 300.000000
v -45.000000 61.509998 -300.000000
v -95.000000 61.509998 -300.000000
v -45.000000 81.510002 -300.000000
v -95.000000 81.510002 -300.000000
vn -0.0000 -0.0000 1.0000
vn -0.0000 -1.0000 -0.0000
vn 1.0000 -0.0000 -0.0000
vn -0.0000 1.0000 -0.0000
vn -1.0000 -0.0000 -0.0000
vn -0.0000 -0.0000 -1.0000
s 0
f 91//33 90//33 89//33
f 92//33 91//33 89//33
f 91//34 94//34 93//34
f 90//34 91//34 93//34
f 89//35 90//35 93//35
f 95//35 89//35 93//35
f 95//36 92//36 89//36
f 95//36 96//36 92//36
f 96//37 94//37 91//37
f 92//37 96//37 91//37
f 95//38 93//38 94//38
f 95//38 94//38 96//38
o 3087e49a9010daa69035742f05cf84a13aae9483c7c63a00a9526f0345ffb15
v 300.000000 81.510002 300.000000
v 300.000000 61.509998 300.000000
v 280.000000 61.509998 300.000000
v 280.000000 81.510002 300.000000
v 300.000000 61.509998 -300.000000
v 280.000000 61.509998 -300.000000
v 300.000000 81.510002 -300.000000
v 280.000000 81.510002 -300.000000
vn -0.0000 -0.0000 1.0000
vn -0.0000 -1.0000 -0.0000
vn 1.0000 -0.0000 -0.0000
vn -0.0000 1.0000 -0.0000
vn -1.0000 -0.0000 -0.0000
vn -0.0000 -0.0000 -1.0000
s 0
f 99//39 98//39 97//39
f 100//39 99//39 97//39
f 99//40 102//40 101//40
f 98//40 99//40 101//40
f 97//41 98//41 101//41
f 97//41 101//41 103//41
f 103//42 104//42 100//42
f 103//42 100//42 97//42
f 104//43 102//43 99//43
f 100//43 104//43 99//43
f 103//44 101//44 102//44
f 103//44 102//44 104//44
o 4923da6a8e0df7433fc489d1c34c26581fc883dbff8c9a162e9031bf9cbd023
v -120.000000 81.510002 300.000000
v -120.000000 61.509998 300.000000
v -160.000000 61.509998 300.000000
v -160.000000 81.510002 300.000000
v -160.000000 61.509998 -300.000000
v -120.000000 61.509998 -300.000000
v -120.000000 81.510002 -300.000000
v -160.000000 81.510002 -300.000000
vn -0.0000 -0.0000 1.0000
vn -0.0000 -1.0000 -0.0000
vn 1.0000 -0.0000 -0.0000
vn -0.0000 1.0000 -0.0000
vn -1.0000 -0.0000 -0.0000
vn -0.0000 -0.0000 -1.0000
s 0
f 107//45 106//45 105//45
f 108//45 107//45 105//45
f 106//46 107//46 109//46
f 106//46 109//46 110//46
f 105//47 106//47 110//47
f 111//47 105//47 110//47
f 112//48 108//48 105//48
f 111//48 112//48 105//48
f 112//49 109//49 107//49
f 108//49 112//49 107//49
f 111//50 110//50 109//50
f 111//50 109//50 112//50
o 12712c427703a1ead946f91ffa482ba8707d8d77d2880778002003e674114e2
v 300.000000 61.509998 300.000000
v 300.000000 31.500000 300.000000
v 275.291565 31.500000 300.000000
v 270.000000 61.509998 300.000000
v 300.000000 31.500000 -300.000000
v 275.291565 31.500000 -300.000000
v 300.000000 61.509998 -300.000000
v 270.000000 61.509998 -300.000000
vn -0.0000 -0.0000 1.0000
vn -0.0000 -1.0000 -0.0000
vn 1.0000 -0.0000 -0.0000
vn -0.0000 1.0000 -0.0000
vn -0.9848 -0.1736 -0.0000
vn -0.0000 -0.0000 -1.0000
s 0
f 115//51 114//51 113//51
f 116//51 115//51 113//51
f 115//52 118//52 117//52
f 114//52 115//52 117//52
f 113//53 114//53 117//53
f 113//53 117//53 119//53
f 119//54 120//54 116//54
f 119//54 116//54 113//54
f 118//55 115//55 116//55
f 120//55 118//55 116//55
f 119//56 117//56 118//56
f 119//56 118//56 120//56
o 12784fe6ee96b9dc8742d9e6eac83a9818107659d4e3b0d9a830f06ee96243c
v -188.000000 61.509998 300.000000
v -193.291580 31.500000 300.000000
v -244.708420 31.500000 300.000000
v -250.000000 61.509998 300.000000
v -193.291580 31.500000 -300.000000
v -244.708420 31.500000 -300.000000
v -188.000000 61.509998 -300.000000
v -250.000000 61.509998 -300.000000
vn -0.0000 -0.0000 1.0000
vn -0.0000 -1.0000 -0.0000
vn 0.9848 -0.1736 -0.0000
vn -0.0000 1.0000 -0.0000
vn -0.9848 -0.1736 -0.0000
vn -0.0000 -0.0000 -1.0000
s 0
f 123//57 122//57 121//57
f 124//57 123//57 121//57
f 123//58 126//58 125//58
f 122//58 123//58 125//58
f 127//59 121//59 122//59
f 125//59 127//59 122//59
f 127//60 128//60 124//60
f 127//60 124//60 121//60
f 126//61 123//61 124//61
f 128//61 126//61 124//61
f 127//62 125//62 126//62
f 127//62 126//62 128//62
o 51338e8e8f57ea37ae5422175ff0d8fef493130053c7a577b7f7e11bd690277
v 252.000000 61.509998 300.000000
v 246.708420 31.500000 300.000000
v 195.291580 31.500000 300.000000
v 190.000000 61.509998 300.000000
v 246.708420 31.500000 -300.000000
v 195.291580 31.500000 -300.000000
v 252.000000 61.509998 -300.000000
v 190.000000 61.509998 -300.000000
vn -0.0000 -0.0000 1.0000
vn -0.0000 -1.0000 -0.0000
vn 0.9848 -0.1736 -0.0000
vn -0.0000 1.0000 -0.0000
vn -0.9848 -0.1736 -0.0000
vn -0.0000 -0.0000 -1.0000
s 0
f 131//63 130//63 129//63
f 132//63 131//63 129//63
f 131//64 134//64 133//64
f 130//64 131//64 133//64
f 133//65 135//65 129//65
f 133//65 129//65 130//65
f 136//66 132//66 129//66
f 135//66 136//66 129//66
f 134//67 131//67 132//67
f 136//67 134//67 132//67
f 135//68 133//68 134//68
f 135//68 134//68 136//68
o af16f548c7d6d2bbc833e27bb8f611274f1d2f380bae374a6f80e86b2534bbe
v -300.000000 0.000000 300.000000
v -300.000000 -60.000000 300.000000
v -300.000000 -60.000000 -300.000000
v -300.000000 0.000000 -300.000000
v 300.000000 0.000000 300.000000
v 300.000000 -60.000000 300.000000
v 300.000000 -60.000000 -300.000000
v 300.000000 0.000000 -300.000000
vn -1.0000 -0.0000 -0.0000
vn 1.0000 -0.0000 -0.0000
vn -0.0000 -0.0000 1.0000
vn -0.0000 -0.0000 -1.0000
vn -0.0000 -1.0000 -0.0000
vn -0.0000 1.0000 -0.0000
s 0
f 139//69 138//69 137//69
f 140//69 139//69 137//69
f 141//70 142//70 143//70
f 141//70 143//70 144//70
f 138//71 142//71 141//71
f 137//71 138//71 141//71
f 144//72 143//72 139//72
f 144//72 139//72 140//72
f 138//73 139//73 143//73
f 142//73 138//73 143//73
f 144//74 140//74 137//74
f 144//74 137//74 141//74
o af99035525b5cefc80e6a862fca3fffc7a5ee15381cd76c113da4241cfd0bcc
v -200.000000 81.510002 300.000000
v -200.000000 61.509998 300.000000
v -240.000000 61.509998 300.000000
v -240.000000 81.510002 300.000000
v -240.000000 61.509998 -300.000000
v -200.000000 61.509998 -300.000000
v -200.000000 81.510002 -300.000000
v -240.000000 81.510002 -300.000000
vn -0.0000 -0.0000 1.0000
vn -0.0000 -1.0000 -0.0000
vn 1.0000 -0.0000 -0.0000
vn -0.0000 1.0000 -0.0000
vn -1.0000 -0.0000 -0.0000
vn -0.0000 -0.0000 -1.0000
s 0
f 147//75 146//75 145//75
f 148//75 147//75 145//75
f 146//76 147//76 149//76
f 146//76 149//76 150//76
f 145//77 146//77 150//77
f 151//77 145//77 150//77
f 152//78 148//78 145//78
f 151//78 152//78 145//78
f 152//79 149//79 147//79
f 148//79 152//79 147//79
f 151//80 150//80 149//80
f 151//80 149//80 152//80
o b3265aa144afe440b4ae6d0ec7f1cf313a858e2a53a860a0307d7f2d406c053
v 240.000000 81.510002 300.000000
v 240.000000 61.509998 300.000000
v 200.000000 61.509998 300.000000
v 200.000000 81.510002 300.000000
v 200.000000 61.509998 -300.000000
v 240.000000 61.509998 -300.000000
v 240.000000 81.510002 -300.000000
v 200.000000 81.510002 -300.000000
vn -0.0000 -0.0000 1.0000
vn -0.0000 -1.0000 -0.0000
vn 1.0000 -0.0000 -0.0000
vn -0.0000 1.0000 -0.0000
vn -1.0000 -0.0000 -0.0000
vn -0.0000 -0.0000 -1.0000
s 0
f 155//81 154//81 153//81
f 156//81 155//81 153//81
f 154//82 155//82 157//82
f 154//82 157//82 158//82
f 153//83 154//83 158//83
f 159//83 153//83 158//83
f 160//84 156//84 153//84
f 159//84 160//84 153//84
f 160//85 157//85 155//85
f 156//85 160//85 155//85
f 159//86 158//86 157//86
f 159//86 157//86 160//86
o d5703f68d09c33f0c44638d3caf19c7747a815ff8a91a1a44059207be52bfba
v -300.000000 81.510002 300.000000
v -300.000000 61.509998 300.000000
v -300.000000 61.509998 -300.000000
v -300.000000 81.510002 -300.000000
v -280.000000 81.510002 -300.000000
v -280.000000 81.510002 300.000000
v -280.000000 61.509998 -300.000000
v -280.000000 61.509998 300.000000
vn -1.0000 -0.0000 -0.0000
vn -0.0000 1.0000 -0.0000
vn -0.0000 -1.0000 -0.0000
vn -0.0000 -0.0000 1.0000
vn 1.0000 -0.0000 -0.0000
vn -0.0000 -0.0000 -1.0000
s 0
f 163//87 162//87 161//87
f 164//87 163//87 161//87
f 165//88 164//88 161//88
f 165//88 161//88 166//88
f 162//89 163//89 167//89
f 168//89 162//89 167//89
f 162//90 168//90 166//90
f 161//90 162//90 166//90
f 166//91 168//91 167//91
f 165//91 166//91 167//91
f 165//92 167//92 163//92
f 165//92 163//92 164//92
o d8100ab1c2f4a3e4eece6079775d4bfa03771f32545e172afcfa5da1322f47d
v 25.000000 81.510002 300.000000
v 25.000000 61.509998 300.000000
v -25.000000 61.509998 300.000000
v -25.000000 81.510002 300.000000
v 25.000000 61.509998 -300.000000
v -25.000000 61.509998 -300.000000
v 25.000000 81.510002 -300.000000
v -25.000000 81.510002 -300.000000
vn -0.0000 -0.0000 1.0000
vn -0.0000 -1.0000 -0.0000
vn 1.0000 -0.0000 -0.0000
vn -0.0000 1.0000 -0.0000
vn -1.0000 -0.0000 -0.0000
vn -0.0000 -0.0000 -1.0000
s 0
f 171//93 170//93 169//93
f 172//93 171//93 169//93
f 171//94 174//94 173//94
f 170//94 171//94 173//94
f 169//95 170//95 173//95
f 175//95 169//95 173//95
f 175//96 172//96 169//96
f 175//96 176//96 172//96
f 176//97 174//97 171//97
f 172//97 176//97 171//97
f 175//98 173//98 174//98
f 175//98 174//98 176//98
o f40d6dce190182e8c31223abafb709d8697b37035ceb4f5b1b4ffb1115e938d
v -300.000000 61.509998 300.000000
v -300.000000 31.500000 300.000000
v -300.000000 31.500000 -300.000000
v -300.000000 61.509998 -300.000000
v -273.291565 31.500000 300.000000
v -268.000000 61.509998 300.000000
v -268.000000 61.509998 -300.000000
v -273.291565 31.500000 -300.000000
vn -1.0000 -0.0000 -0.0000
vn -0.0000 -0.0000 1.0000
vn -0.0000 1.0000 -0.0000
vn -0.0000 -0.0000 -1.0000
vn -0.0000 -1.0000 -0.0000
vn 0.9848 -0.1736 -0.0000
s 0
f 179//99 178//99 177//99
f 180//99 179//99 177//99
f 178//100 181//100 177//100
f 177//100 181//100 182//100
f 180//101 177//101 182//101
f 183//101 180//101 182//101
f 180//102 184//102 179//102
f 183//102 184//102 180//102
f 181//103 178//103 179//103
f 181//103 179//103 184//103
f 183//104 182//104 181//104
f 184//104 183//104 181//104
o f79c704ad804141c5ceb7672b346747779a82557441102e7210a533946f2d10
v -300.000000 61.509998 300.000000
v -300.000000 31.500000 300.000000
v -300.000000 31.500000 -300.000000
v -300.000000 61.509998 -300.000000
v 300.000000 61.509998 300.000000
v 300.000000 31.500000 300.000000
v 300.000000 31.500000 -300.000000
v 300.000000 61.509998 -300.000000
vn -1.0000 -0.0000 -0.0000
vn 1.0000 -0.0000 -0.0000
vn -0.0000 -0.0000 1.0000
vn -0.0000 -0.0000 -1.0000
vn -0.0000 -1.0000 -0.0000
vn -0.0000 1.0000 -0.0000
s 0
f 187//105 186//105 185//105
f 188//105 187//105 185//105
f 189//106 190//106 191//106
f 189//106 191//106 192//106
f 186//107 190//107 189//107
f 185//107 186//107 189//107
f 192//108 191//108 187//108
f 192//108 187//108 188//108
f 186//109 187//109 191//109
f 190//109 186//109 191//109
f 192//110 188//110 185//110
f 192//110 185//110 189//110
