# Blender 4.0.2
# www.blender.org
o 022f062b88d9142351431088e4bd3a1b7e459b3f670e807b713885d29d06b8d
v -170.000000 120.000000 1600.000000
v -170.000000 80.000000 1555.000000
v -170.000000 120.000000 1555.000000
v -170.000000 80.000000 1600.000000
v -150.000000 120.000000 1575.000000
v -150.000000 120.000000 1600.000000
v 150.000000 120.000000 1575.000000
v 150.000000 120.000000 1600.000000
v 170.000000 120.000000 1600.000000
v 170.000000 120.000000 1555.000000
v 170.000000 80.000000 1555.000000
v -150.000000 80.000000 1575.000000
v -150.000000 80.000000 1600.000000
v 150.000000 80.000000 1575.000000
v 150.000000 80.000000 1600.000000
v 170.000000 80.000000 1600.000000
vn -1.0000 -0.0000 -0.0000
vn -0.0000 1.0000 -0.0000
vn -0.0000 -0.0000 -1.0000
vn -0.0000 -1.0000 -0.0000
vn -0.0000 -0.0000 1.0000
vn 1.0000 -0.0000 -0.0000
s 0
f 3//1 2//1 1//1
f 1//1 2//1 4//1
f 5//2 3//2 1//2
f 5//2 1//2 6//2
f 7//2 8//2 9//2
f 10//2 7//2 9//2
f 10//2 3//2 5//2
f 10//2 5//2 7//2
f 10//3 11//3 2//3
f 3//3 10//3 2//3
f 4//4 2//4 12//4
f 13//4 4//4 12//4
f 16//4 15//4 14//4
f 16//4 14//4 11//4
f 12//4 2//4 11//4
f 14//4 12//4 11//4
f 4//5 13//5 6//5
f 1//5 4//5 6//5
f 9//6 11//6 10//6
f 16//6 11//6 9//6
f 15//5 16//5 9//5
f 8//5 15//5 9//5
f 14//1 15//1 8//1
f 14//1 8//1 7//1
f 12//5 14//5 7//5
f 12//5 7//5 5//5
f 13//6 12//6 5//6
f 13//6 5//6 6//6
