# Blender 4.0.2
# www.blender.org
o 056be62ea10cfb6942b01ac0598dbc45e16addedafa23407b7d2411c6086613
v -1600.000000 160.000000 1493.933960
v -1600.000000 80.000000 1493.933960
v -1600.000000 80.000000 1475.914551
v -1600.000000 160.000000 1475.914551
v -1370.000000 120.000000 1263.933960
v -1370.000000 80.000000 1263.933960
v -1361.066040 120.000000 1255.000000
v -1361.066040 80.000000 1255.000000
v -1351.066040 80.000000 1245.000000
v -1351.066040 120.000000 1245.000000
v -1261.066040 120.000000 1155.000000
v -1251.066040 120.000000 1145.000000
v -1261.066040 80.000000 1155.000000
v -1251.066040 80.000000 1145.000000
v -1151.066040 120.000000 1045.000000
v -1161.066040 120.000000 1055.000000
v -1161.066040 80.000000 1055.000000
v -1151.066040 80.000000 1045.000000
v -1051.066040 120.000000 945.000000
v -1061.066040 120.000000 955.000000
v -1061.066040 80.000000 955.000000
v -1051.066040 80.000000 945.000000
v -770.000000 80.000000 663.933960
v -1030.000000 120.000000 923.933960
v -1030.000000 80.000000 923.933960
v -770.000000 120.000000 663.933960
v -751.066040 120.000000 645.000000
v -761.066040 120.000000 655.000000
v -761.066040 80.000000 655.000000
v -751.066040 80.000000 645.000000
v -661.066040 120.000000 555.000000
v -661.066040 80.000000 555.000000
v -651.066040 80.000000 545.000000
v -651.066040 120.000000 545.000000
v -561.066040 120.000000 455.000000
v -561.066040 80.000000 455.000000
v -551.066040 80.000000 445.000000
v -551.066040 120.000000 445.000000
v -461.066010 120.000000 355.000000
v -461.066010 80.000000 355.000000
v -451.066010 80.000000 345.000000
v -451.066010 120.000000 345.000000
v -170.000000 80.000000 63.933983
v -430.000000 120.000000 323.933990
v -430.000000 80.000000 323.933990
v -170.000000 120.000000 63.933983
v -161.066025 120.000000 55.000000
v -161.066025 80.000000 55.000000
v -151.066025 80.000000 45.000000
v -151.066025 120.000000 45.000000
v -51.066017 120.000000 -55.000000
v -61.066017 120.000000 -45.000000
v -61.066017 80.000000 -45.000000
v -51.066017 80.000000 -55.000000
v 48.933983 120.000000 -155.000000
v 38.933983 120.000000 -145.000000
v 38.933983 80.000000 -145.000000
v 48.933983 80.000000 -155.000000
v 148.933975 120.000000 -255.000000
v 138.933975 120.000000 -245.000000
v 138.933975 80.000000 -245.000000
v 148.933975 80.000000 -255.000000
v 430.000000 120.000000 -536.066040
v 170.000000 120.000000 -276.066010
v 170.000000 80.000000 -276.066010
v 430.000000 80.000000 -536.066040
v 448.933990 120.000000 -555.000000
v 438.933990 120.000000 -545.000000
v 438.933990 80.000000 -545.000000
v 448.933990 80.000000 -555.000000
v 538.933960 120.000000 -645.000000
v 538.933960 80.000000 -645.000000
v 548.933960 80.000000 -655.000000
v 548.933960 120.000000 -655.000000
v 648.933960 120.000000 -755.000000
v 638.933960 120.000000 -745.000000
v 638.933960 80.000000 -745.000000
v 648.933960 80.000000 -755.000000
v 738.933960 120.000000 -845.000000
v 738.933960 80.000000 -845.000000
v 748.933960 80.000000 -855.000000
v 748.933960 120.000000 -855.000000
v 1030.000000 80.000000 -1136.066040
v 770.000000 120.000000 -876.066040
v 770.000000 80.000000 -876.066040
v 1030.000000 120.000000 -1136.066040
v 1048.933960 120.000000 -1155.000000
v 1038.933960 120.000000 -1145.000000
v 1038.933960 80.000000 -1145.000000
v 1048.933960 80.000000 -1155.000000
v 1138.933960 120.000000 -1245.000000
v 1138.933960 80.000000 -1245.000000
v 1148.933960 80.000000 -1255.000000
v 1148.933960 120.000000 -1255.000000
v 1238.933960 120.000000 -1345.000000
v 1238.933960 80.000000 -1345.000000
v 1248.933960 80.000000 -1355.000000
v 1248.933960 120.000000 -1355.000000
v 1348.933960 120.000000 -1455.000000
v 1338.933960 120.000000 -1445.000000
v 1338.933960 80.000000 -1445.000000
v 1348.933960 80.000000 -1455.000000
v 1493.933960 80.000000 -1600.000000
v 1370.000000 120.000000 -1476.066040
v 1370.000000 80.000000 -1476.066040
v 1493.933960 160.000000 -1600.000000
v -1370.000000 80.000000 1255.000000
v -1369.085449 80.000000 1245.000000
v -1369.085449 120.000000 1245.000000
v -1269.085449 120.000000 1145.000000
v -1279.085449 120.000000 1155.000000
v -1279.085449 80.000000 1155.000000
v -1269.085449 80.000000 1145.000000
v -1169.085449 120.000000 1045.000000
v -1179.085449 120.000000 1055.000000
v -1179.085449 80.000000 1055.000000
v -1169.085449 80.000000 1045.000000
v -1069.085449 120.000000 945.000000
v -1079.085449 120.000000 955.000000
v -1079.085449 80.000000 955.000000
v -1069.085449 80.000000 945.000000
v -800.000000 80.000000 675.914490
v -1030.000000 120.000000 905.914490
v -1030.000000 80.000000 905.914490
v -800.000000 160.000000 675.914490
v 675.914490 160.000000 -800.000000
v 623.223328 160.000000 -800.000000
v -800.000000 160.000000 623.223328
v 1475.914551 160.000000 -1600.000000
v 1475.914551 80.000000 -1600.000000
v 1370.000000 80.000000 -1494.085449
v 1370.000000 120.000000 -1494.085449
v 1330.914551 120.000000 -1455.000000
v 1330.914551 80.000000 -1455.000000
v 1320.914551 80.000000 -1445.000000
v 1320.914551 120.000000 -1445.000000
v 1230.914551 120.000000 -1355.000000
v 1230.914551 80.000000 -1355.000000
v 1220.914551 80.000000 -1345.000000
v 1220.914551 120.000000 -1345.000000
v 1130.914551 120.000000 -1255.000000
v 1130.914551 80.000000 -1255.000000
v 1120.914551 80.000000 -1245.000000
v 1120.914551 120.000000 -1245.000000
v 1030.914551 120.000000 -1155.000000
v 1030.914551 80.000000 -1155.000000
v 770.000000 80.000000 -894.085510
v 1030.000000 80.000000 -1145.000000
v 1030.000000 120.000000 -1145.000000
v 770.000000 120.000000 -894.085510
v 730.914490 120.000000 -855.000000
v 730.914490 80.000000 -855.000000
v 720.914490 80.000000 -845.000000
v 720.914490 120.000000 -845.000000
v 675.914490 120.000000 -800.000000
v 623.223328 120.000000 -800.000000
v 578.223328 120.000000 -755.000000
v 578.223328 80.000000 -755.000000
v 568.223328 80.000000 -745.000000
v 568.223328 120.000000 -745.000000
v 478.223297 120.000000 -655.000000
v 478.223297 80.000000 -655.000000
v 468.223297 80.000000 -645.000000
v 468.223297 120.000000 -645.000000
v 430.000000 120.000000 -606.776672
v 430.000000 120.000000 -555.000000
v 430.000000 80.000000 -555.000000
v 170.000000 80.000000 -345.000000
v 430.000000 80.000000 -545.000000
v 430.000000 80.000000 -606.776672
v 168.223297 80.000000 -345.000000
v 430.000000 120.000000 -545.000000
v 170.000000 120.000000 -345.000000
v 168.223297 120.000000 -345.000000
v 78.223305 120.000000 -255.000000
v 78.223305 80.000000 -255.000000
v 68.223305 80.000000 -245.000000
v 68.223305 120.000000 -245.000000
v -21.776695 120.000000 -155.000000
v -21.776695 80.000000 -155.000000
v -31.776695 80.000000 -145.000000
v -31.776695 120.000000 -145.000000
v -121.776695 120.000000 -55.000000
v -121.776695 80.000000 -55.000000
v -131.776703 80.000000 -45.000000
v -131.776703 120.000000 -45.000000
v -170.000000 120.000000 45.000000
v -170.000000 120.000000 -6.776695
v -170.000000 80.000000 45.000000
v -430.000000 80.000000 255.000000
v -170.000000 80.000000 55.000000
v -170.000000 80.000000 -6.776695
v -431.776703 80.000000 255.000000
v -170.000000 120.000000 55.000000
v -430.000000 120.000000 255.000000
v -431.776703 120.000000 255.000000
v -521.776672 120.000000 345.000000
v -521.776672 80.000000 345.000000
v -531.776672 80.000000 355.000000
v -531.776672 120.000000 355.000000
v -621.776672 120.000000 445.000000
v -621.776672 80.000000 445.000000
v -631.776672 80.000000 455.000000
v -631.776672 120.000000 455.000000
v -721.776672 120.000000 545.000000
v -721.776672 80.000000 545.000000
v -731.776672 80.000000 555.000000
v -731.776672 120.000000 555.000000
v -770.000000 120.000000 645.000000
v -770.000000 120.000000 593.223328
v -770.000000 80.000000 645.000000
v -770.000000 80.000000 655.000000
v -800.000000 80.000000 623.223328
v -770.000000 80.000000 593.223328
v -770.000000 120.000000 655.000000
v -1370.000000 120.000000 1255.000000
vn -1.0000 -0.0000 -0.0000
vn 0.7071 -0.0000 0.7071
vn 0.7071 -0.0001 0.7071
vn 0.7072 0.0001 0.7071
vn 0.7071 0.0001 0.7071
vn 0.7071 -0.0005 0.7071
vn 0.7071 -0.0002 0.7071
vn -0.0000 -1.0000 -0.0000
vn -0.7071 -0.0000 -0.7071
vn -0.0000 1.0000 -0.0000
vn -0.0000 -0.0000 -1.0000
vn -0.0000 -0.0000 1.0000
vn 1.0000 -0.0000 -0.0000
s 0
f 3//1 2//1 1//1
f 3//1 1//1 4//1
f 5//2 1//2 2//2
f 5//2 2//2 6//2
f 7//2 8//2 9//2
f 7//2 1//2 5//2
f 10//2 7//2 9//2
f 10//2 1//2 7//2
f 11//2 1//2 10//2
f 12//2 11//2 13//2
f 12//2 13//2 14//2
f 15//2 16//2 17//2
f 15//2 17//2 18//2
f 19//2 20//2 21//2
f 19//2 21//2 22//2
f 23//2 24//2 25//2
f 26//2 24//2 23//2
f 27//2 28//2 29//2
f 27//2 29//2 30//2
f 31//2 32//2 33//2
f 34//2 31//2 33//2
f 35//2 36//2 37//2
f 38//2 35//2 37//2
f 39//2 40//2 41//2
f 42//2 39//2 41//2
f 43//2 44//2 45//2
f 46//2 44//2 43//2
f 47//2 48//2 49//2
f 50//2 47//2 49//2
f 51//2 52//2 53//2
f 51//2 53//2 54//2
f 55//2 56//2 57//2
f 55//2 57//2 58//2
f 59//2 60//2 61//2
f 59//2 61//2 62//2
f 63//2 64//2 65//2
f 63//2 65//2 66//2
f 67//2 68//2 69//2
f 67//2 69//2 70//2
f 71//2 72//2 73//2
f 74//2 71//2 73//2
f 75//2 76//2 77//2
f 75//2 77//2 78//2
f 79//2 80//2 81//2
f 82//2 79//2 81//2
f 83//2 84//2 85//2
f 86//2 84//2 83//2
f 87//2 88//2 89//2
f 87//2 89//2 90//2
f 91//2 92//2 93//2
f 94//2 91//2 93//2
f 95//2 96//2 97//2
f 98//2 95//2 97//2
f 99//2 100//2 101//2
f 99//2 101//2 102//2
f 103//2 104//2 105//2
f 106//2 104//2 103//2
f 106//2 100//2 99//2
f 106//2 94//2 95//2
f 106//2 98//2 100//2
f 106//2 95//2 98//2
f 106//2 99//2 104//2
f 106//2 1//2 11//2
f 106//2 11//2 12//2
f 106//2 12//2 16//2
f 106//2 16//2 15//2
f 106//2 15//2 20//2
f 106//2 20//2 19//2
f 106//3 19//3 24//3
f 106//2 24//2 26//2
f 106//4 26//4 28//4
f 106//2 28//2 27//2
f 106//2 27//2 31//2
f 106//2 31//2 34//2
f 106//2 34//2 35//2
f 106//2 35//2 38//2
f 106//2 38//2 39//2
f 106//2 39//2 42//2
f 106//2 42//2 44//2
f 106//2 44//2 46//2
f 106//5 46//5 47//5
f 106//2 47//2 50//2
f 106//2 50//2 52//2
f 106//2 52//2 51//2
f 106//2 51//2 56//2
f 106//2 56//2 55//2
f 106//2 55//2 60//2
f 106//2 60//2 59//2
f 106//2 59//2 64//2
f 106//2 64//2 63//2
f 106//6 63//6 68//6
f 106//2 68//2 67//2
f 106//2 67//2 71//2
f 106//2 71//2 74//2
f 106//2 74//2 76//2
f 106//2 76//2 75//2
f 106//2 75//2 79//2
f 106//2 79//2 82//2
f 106//2 82//2 84//2
f 106//2 84//2 86//2
f 106//7 86//7 88//7
f 106//2 88//2 87//2
f 106//2 87//2 91//2
f 106//2 91//2 94//2
f 2//8 3//8 6//8
f 6//8 3//8 107//8
f 8//8 107//8 108//8
f 107//8 3//8 108//8
f 8//8 108//8 9//8
f 3//9 4//9 109//9
f 108//9 3//9 109//9
f 112//9 111//9 110//9
f 113//9 112//9 110//9
f 116//9 115//9 114//9
f 117//9 116//9 114//9
f 120//9 119//9 118//9
f 121//9 120//9 118//9
f 124//9 123//9 122//9
f 122//9 123//9 125//9
f 109//9 4//9 125//9
f 111//9 109//9 125//9
f 110//9 111//9 125//9
f 115//9 110//9 125//9
f 114//9 115//9 125//9
f 119//9 114//9 125//9
f 118//9 119//9 125//9
f 123//9 118//9 125//9
f 125//10 4//10 1//10
f 126//10 127//10 128//10
f 126//10 128//10 125//10
f 106//10 129//10 126//10
f 1//10 106//10 125//10
f 125//10 106//10 126//10
f 130//11 129//11 106//11
f 103//11 130//11 106//11
f 105//8 131//8 130//8
f 105//8 130//8 103//8
f 105//1 104//1 132//1
f 131//1 105//1 132//1
f 132//8 104//8 99//8
f 132//8 99//8 133//8
f 134//11 133//11 99//11
f 102//11 134//11 99//11
f 101//8 135//8 134//8
f 101//8 134//8 102//8
f 100//12 136//12 135//12
f 100//12 135//12 101//12
f 136//8 100//8 98//8
f 136//8 98//8 137//8
f 138//11 137//11 98//11
f 97//11 138//11 98//11
f 96//8 139//8 138//8
f 96//8 138//8 97//8
f 95//12 140//12 139//12
f 95//12 139//12 96//12
f 140//8 95//8 94//8
f 140//8 94//8 141//8
f 142//11 141//11 94//11
f 93//11 142//11 94//11
f 92//8 143//8 142//8
f 92//8 142//8 93//8
f 91//12 144//12 92//12
f 144//12 143//12 92//12
f 144//8 91//8 87//8
f 144//8 87//8 145//8
f 146//11 145//11 87//11
f 90//11 146//11 87//11
f 85//8 147//8 83//8
f 83//8 147//8 148//8
f 89//8 148//8 146//8
f 148//8 147//8 146//8
f 89//8 146//8 90//8
f 88//12 149//12 89//12
f 149//12 148//12 89//12
f 149//8 88//8 86//8
f 148//13 149//13 86//13
f 83//13 148//13 86//13
f 147//1 84//1 150//1
f 147//1 85//1 84//1
f 150//8 84//8 82//8
f 150//8 82//8 151//8
f 152//11 151//11 82//11
f 81//11 152//11 82//11
f 80//8 153//8 152//8
f 80//8 152//8 81//8
f 154//12 153//12 80//12
f 79//12 154//12 80//12
f 154//8 79//8 155//8
f 156//8 155//8 75//8
f 155//8 79//8 75//8
f 156//8 75//8 157//8
f 75//11 158//11 157//11
f 78//11 158//11 75//11
f 159//8 158//8 77//8
f 77//8 158//8 78//8
f 160//12 159//12 76//12
f 76//12 159//12 77//12
f 160//8 76//8 74//8
f 160//8 74//8 161//8
f 74//11 162//11 161//11
f 73//11 162//11 74//11
f 163//8 162//8 72//8
f 72//8 162//8 73//8
f 164//12 163//12 71//12
f 71//12 163//12 72//12
f 164//8 71//8 67//8
f 165//8 164//8 67//8
f 165//8 67//8 166//8
f 70//11 167//11 166//11
f 70//11 166//11 67//11
f 65//8 168//8 66//8
f 66//8 168//8 169//8
f 69//8 169//8 167//8
f 169//8 168//8 167//8
f 69//8 167//8 70//8
f 168//8 171//8 170//8
f 167//8 168//8 170//8
f 172//12 169//12 69//12
f 68//12 172//12 69//12
f 172//8 68//8 63//8
f 169//13 172//13 63//13
f 66//13 169//13 63//13
f 168//1 64//1 173//1
f 168//1 65//1 64//1
f 64//8 174//8 173//8
f 59//8 175//8 174//8
f 59//8 174//8 64//8
f 59//11 62//11 176//11
f 175//11 59//11 176//11
f 177//8 176//8 61//8
f 61//8 176//8 62//8
f 177//12 61//12 60//12
f 177//12 60//12 178//12
f 55//8 179//8 178//8
f 55//8 178//8 60//8
f 55//11 58//11 180//11
f 179//11 55//11 180//11
f 181//8 180//8 57//8
f 57//8 180//8 58//8
f 181//12 57//12 56//12
f 181//12 56//12 182//12
f 51//8 183//8 182//8
f 51//8 182//8 56//8
f 51//11 54//11 183//11
f 183//11 54//11 184//11
f 185//8 184//8 53//8
f 53//8 184//8 54//8
f 185//12 53//12 52//12
f 185//12 52//12 186//12
f 50//8 187//8 188//8
f 50//8 188//8 186//8
f 52//8 50//8 186//8
f 187//11 50//11 49//11
f 187//11 49//11 189//11
f 45//8 190//8 43//8
f 43//8 190//8 191//8
f 48//8 191//8 189//8
f 191//8 190//8 189//8
f 48//8 189//8 49//8
f 190//8 193//8 192//8
f 189//8 190//8 192//8
f 48//12 47//12 194//12
f 191//12 48//12 194//12
f 46//8 194//8 47//8
f 46//13 43//13 191//13
f 194//13 46//13 191//13
f 195//1 190//1 44//1
f 44//1 190//1 45//1
f 44//8 196//8 195//8
f 42//8 197//8 196//8
f 42//8 196//8 44//8
f 42//11 41//11 197//11
f 197//11 41//11 198//11
f 199//8 198//8 40//8
f 40//8 198//8 41//8
f 199//12 40//12 39//12
f 199//12 39//12 200//12
f 38//8 201//8 200//8
f 38//8 200//8 39//8
f 38//11 37//11 201//11
f 201//11 37//11 202//11
f 203//8 202//8 36//8
f 36//8 202//8 37//8
f 203//12 36//12 35//12
f 203//12 35//12 204//12
f 34//8 205//8 204//8
f 34//8 204//8 35//8
f 34//11 33//11 206//11
f 205//11 34//11 206//11
f 207//8 206//8 32//8
f 32//8 206//8 33//8
f 207//12 32//12 31//12
f 207//12 31//12 208//12
f 27//8 209//8 210//8
f 27//8 210//8 208//8
f 27//8 208//8 31//8
f 27//11 30//11 211//11
f 209//11 27//11 211//11
f 25//8 124//8 122//8
f 25//8 122//8 23//8
f 23//8 122//8 212//8
f 29//8 212//8 211//8
f 122//8 213//8 211//8
f 212//8 122//8 211//8
f 29//8 211//8 30//8
f 211//8 213//8 214//8
f 212//12 29//12 28//12
f 212//12 28//12 215//12
f 26//8 215//8 28//8
f 215//13 26//13 23//13
f 215//13 23//13 212//13
f 123//1 124//1 25//1
f 24//1 123//1 25//1
f 19//8 118//8 123//8
f 24//8 19//8 123//8
f 118//11 19//11 22//11
f 118//11 22//11 121//11
f 21//8 120//8 121//8
f 21//8 121//8 22//8
f 120//12 20//12 119//12
f 120//12 21//12 20//12
f 15//8 114//8 119//8
f 20//8 15//8 119//8
f 114//11 15//11 18//11
f 114//11 18//11 117//11
f 17//8 116//8 117//8
f 17//8 117//8 18//8
f 17//12 16//12 115//12
f 116//12 17//12 115//12
f 12//8 110//8 115//8
f 16//8 12//8 115//8
f 110//11 12//11 113//11
f 12//11 14//11 113//11
f 13//8 112//8 113//8
f 13//8 113//8 14//8
f 13//12 11//12 111//12
f 112//12 13//12 111//12
f 10//8 109//8 111//8
f 10//8 111//8 11//8
f 109//11 10//11 108//11
f 10//11 9//11 108//11
f 107//12 7//12 216//12
f 107//12 8//12 7//12
f 5//8 216//8 7//8
f 216//13 5//13 6//13
f 216//13 6//13 107//13
f 213//1 122//1 128//1
f 122//1 125//1 128//1
f 213//9 128//9 210//9
f 214//9 213//9 210//9
f 206//9 207//9 208//9
f 210//9 128//9 208//9
f 208//9 128//9 205//9
f 206//9 208//9 205//9
f 205//9 128//9 204//9
f 203//9 204//9 201//9
f 202//9 203//9 201//9
f 204//9 128//9 201//9
f 198//9 199//9 200//9
f 198//9 200//9 197//9
f 193//9 196//9 188//9
f 192//9 193//9 188//9
f 184//9 185//9 186//9
f 184//9 186//9 183//9
f 181//9 182//9 179//9
f 180//9 181//9 179//9
f 177//9 178//9 175//9
f 176//9 177//9 175//9
f 171//9 174//9 170//9
f 170//9 174//9 165//9
f 163//9 164//9 161//9
f 162//9 163//9 161//9
f 158//9 159//9 160//9
f 158//9 160//9 157//9
f 161//9 164//9 127//9
f 164//9 165//9 127//9
f 157//9 160//9 127//9
f 160//9 161//9 127//9
f 156//9 157//9 127//9
f 201//9 128//9 127//9
f 200//9 201//9 127//9
f 197//9 200//9 127//9
f 196//9 197//9 127//9
f 188//9 196//9 127//9
f 186//9 188//9 127//9
f 183//9 186//9 127//9
f 182//9 183//9 127//9
f 179//9 182//9 127//9
f 178//9 179//9 127//9
f 175//9 178//9 127//9
f 174//9 175//9 127//9
f 165//9 174//9 127//9
f 156//11 127//11 155//11
f 155//11 127//11 126//11
f 155//9 126//9 154//9
f 153//9 154//9 151//9
f 152//9 153//9 151//9
f 154//9 126//9 151//9
f 151//9 126//9 150//9
f 147//9 150//9 146//9
f 146//9 150//9 145//9
f 143//9 144//9 141//9
f 142//9 143//9 141//9
f 138//9 139//9 140//9
f 138//9 140//9 137//9
f 135//9 136//9 133//9
f 134//9 135//9 133//9
f 131//9 132//9 130//9
f 132//9 133//9 129//9
f 133//9 136//9 129//9
f 130//9 132//9 129//9
f 150//9 126//9 129//9
f 145//9 150//9 129//9
f 144//9 145//9 129//9
f 141//9 144//9 129//9
f 140//9 141//9 129//9
f 137//9 140//9 129//9
f 136//9 137//9 129//9
f 167//13 170//13 165//13
f 167//13 165//13 166//13
f 171//12 168//12 173//12
f 171//12 173//12 174//12
f 187//13 189//13 192//13
f 188//13 187//13 192//13
f 193//12 190//12 195//12
f 193//12 195//12 196//12
f 209//13 211//13 214//13
f 210//13 209//13 214//13
