# Blender 4.0.2
# www.blender.org
o 0c373cc37d34dc867757bb591a0edebca2aa769e916f5de543268f7e4c30015
v 79.720421 160.000000 1600.000000
v 61.700935 120.000000 1600.000000
v 61.700935 160.000000 1600.000000
v 79.720421 120.000000 1600.000000
v 106.700935 120.000000 1555.000000
v 106.700935 80.000000 1555.000000
v 116.700935 80.000000 1545.000000
v 116.700935 120.000000 1545.000000
v 170.000000 120.000000 1491.700928
v 430.000000 120.000000 1231.700928
v 170.000000 80.000000 1491.700928
v 430.000000 80.000000 1231.700928
v 516.700928 120.000000 1145.000000
v 506.700928 120.000000 1155.000000
v 506.700928 80.000000 1155.000000
v 516.700928 80.000000 1145.000000
v 616.700928 120.000000 1045.000000
v 606.700928 120.000000 1055.000000
v 606.700928 80.000000 1055.000000
v 616.700928 80.000000 1045.000000
v 716.700928 120.000000 945.000000
v 706.700928 120.000000 955.000000
v 706.700928 80.000000 955.000000
v 716.700928 80.000000 945.000000
v 1030.000000 120.000000 631.700928
v 770.000000 120.000000 891.700928
v 770.000000 80.000000 891.700928
v 1030.000000 80.000000 631.700928
v 1106.700928 120.000000 555.000000
v 1106.700928 80.000000 555.000000
v 1116.700928 80.000000 545.000000
v 1116.700928 120.000000 545.000000
v 1216.700928 120.000000 445.000000
v 1206.700928 120.000000 455.000000
v 1206.700928 80.000000 455.000000
v 1216.700928 80.000000 445.000000
v 1306.700928 120.000000 355.000000
v 1306.700928 80.000000 355.000000
v 1316.700928 80.000000 345.000000
v 1316.700928 120.000000 345.000000
v 1600.000000 80.000000 61.700935
v 1370.000000 120.000000 291.700928
v 1370.000000 80.000000 291.700928
v 1600.000000 160.000000 61.700935
v 124.720421 120.000000 1555.000000
v 134.720413 120.000000 1545.000000
v 124.720421 80.000000 1555.000000
v 134.720413 80.000000 1545.000000
v 170.000000 120.000000 1509.720459
v 434.720428 120.000000 1245.000000
v 170.000000 80.000000 1509.720459
v 434.720428 80.000000 1245.000000
v 534.720398 120.000000 1145.000000
v 524.720398 120.000000 1155.000000
v 524.720398 80.000000 1155.000000
v 534.720398 80.000000 1145.000000
v 624.720398 120.000000 1055.000000
v 624.720398 80.000000 1055.000000
v 634.720398 80.000000 1045.000000
v 634.720398 120.000000 1045.000000
v 734.720398 120.000000 945.000000
v 724.720398 120.000000 955.000000
v 724.720398 80.000000 955.000000
v 734.720398 80.000000 945.000000
v 1034.720459 80.000000 645.000000
v 770.000000 120.000000 909.720398
v 770.000000 80.000000 909.720398
v 1034.720459 120.000000 645.000000
v 1124.720459 120.000000 555.000000
v 1124.720459 80.000000 555.000000
v 1134.720459 80.000000 545.000000
v 1134.720459 120.000000 545.000000
v 1224.720459 120.000000 455.000000
v 1224.720459 80.000000 455.000000
v 1234.720459 80.000000 445.000000
v 1234.720459 120.000000 445.000000
v 1324.720459 120.000000 355.000000
v 1324.720459 80.000000 355.000000
v 1334.720459 80.000000 345.000000
v 1334.720459 120.000000 345.000000
v 1600.000000 80.000000 79.720421
v 1370.000000 120.000000 309.720428
v 1370.000000 80.000000 309.720428
v 1600.000000 160.000000 79.720421
v 1030.000000 120.000000 645.000000
v 1030.000000 80.000000 645.000000
v 430.000000 120.000000 1245.000000
v 430.000000 80.000000 1245.000000
vn -0.0000 -0.0000 1.0000
vn -0.7071 -0.0000 -0.7071
vn -0.0000 -1.0000 -0.0000
vn 0.7071 -0.0000 0.7071
vn -0.0000 1.0000 -0.0000
vn 1.0000 -0.0000 -0.0000
vn -1.0000 -0.0000 -0.0000
vn -0.0000 -0.0000 -1.0000
s 0
f 3//1 2//1 1//1
f 2//1 4//1 1//1
f 2//2 3//2 5//2
f 7//2 6//2 5//2
f 7//2 5//2 8//2
f 5//2 3//2 8//2
f 8//2 3//2 9//2
f 11//2 9//2 10//2
f 12//2 11//2 10//2
f 9//2 3//2 10//2
f 15//2 14//2 13//2
f 16//2 15//2 13//2
f 19//2 18//2 17//2
f 20//2 19//2 17//2
f 23//2 22//2 21//2
f 24//2 23//2 21//2
f 27//2 26//2 25//2
f 28//2 27//2 25//2
f 31//2 30//2 29//2
f 31//2 29//2 32//2
f 35//2 34//2 33//2
f 36//2 35//2 33//2
f 39//2 38//2 37//2
f 39//2 37//2 40//2
f 43//2 42//2 41//2
f 41//2 42//2 44//2
f 10//2 3//2 44//2
f 14//2 10//2 44//2
f 13//2 14//2 44//2
f 18//2 13//2 44//2
f 17//2 18//2 44//2
f 22//2 17//2 44//2
f 21//2 22//2 44//2
f 26//2 21//2 44//2
f 25//2 26//2 44//2
f 29//2 25//2 44//2
f 32//2 29//2 44//2
f 34//2 32//2 44//2
f 33//2 34//2 44//2
f 37//2 33//2 44//2
f 40//2 37//2 44//2
f 42//2 40//2 44//2
f 4//3 2//3 5//3
f 4//3 5//3 45//3
f 45//4 1//4 4//4
f 46//4 45//4 47//4
f 46//4 47//4 48//4
f 46//4 1//4 45//4
f 49//4 1//4 46//4
f 50//4 49//4 51//4
f 50//4 51//4 52//4
f 50//4 1//4 49//4
f 53//4 54//4 55//4
f 53//4 55//4 56//4
f 57//4 58//4 59//4
f 60//4 57//4 59//4
f 61//4 62//4 63//4
f 61//4 63//4 64//4
f 65//4 66//4 67//4
f 68//4 66//4 65//4
f 69//4 70//4 71//4
f 72//4 69//4 71//4
f 73//4 74//4 75//4
f 76//4 73//4 75//4
f 77//4 78//4 79//4
f 80//4 77//4 79//4
f 81//4 82//4 83//4
f 84//4 82//4 81//4
f 84//4 1//4 50//4
f 84//4 50//4 54//4
f 84//4 54//4 53//4
f 84//4 53//4 57//4
f 84//4 57//4 60//4
f 84//4 60//4 62//4
f 84//4 62//4 61//4
f 84//4 61//4 66//4
f 84//4 66//4 68//4
f 84//4 68//4 69//4
f 84//4 69//4 72//4
f 84//4 72//4 73//4
f 84//4 73//4 76//4
f 84//4 76//4 77//4
f 84//4 77//4 80//4
f 84//4 80//4 82//4
f 44//5 3//5 1//5
f 44//5 1//5 84//5
f 44//6 81//6 41//6
f 44//6 84//6 81//6
f 83//3 43//3 81//3
f 81//3 43//3 41//3
f 43//7 82//7 42//7
f 43//7 83//7 82//7
f 82//3 80//3 40//3
f 42//3 82//3 40//3
f 39//8 40//8 80//8
f 79//8 39//8 80//8
f 78//3 38//3 39//3
f 78//3 39//3 79//3
f 77//1 37//1 78//1
f 37//1 38//1 78//1
f 37//3 77//3 76//3
f 37//3 76//3 33//3
f 36//8 33//8 76//8
f 75//8 36//8 76//8
f 74//3 35//3 36//3
f 74//3 36//3 75//3
f 73//1 34//1 74//1
f 34//1 35//1 74//1
f 34//3 73//3 72//3
f 34//3 72//3 32//3
f 71//8 32//8 72//8
f 71//8 31//8 32//8
f 70//3 30//3 31//3
f 70//3 31//3 71//3
f 69//1 29//1 70//1
f 29//1 30//1 70//1
f 29//3 69//3 68//3
f 25//3 29//3 68//3
f 25//3 68//3 85//3
f 86//6 28//6 25//6
f 86//6 25//6 85//6
f 67//3 27//3 86//3
f 67//3 86//3 65//3
f 86//3 27//3 28//3
f 27//7 66//7 26//7
f 27//7 67//7 66//7
f 66//3 61//3 21//3
f 26//3 66//3 21//3
f 24//8 21//8 61//8
f 64//8 24//8 61//8
f 63//3 23//3 24//3
f 63//3 24//3 64//3
f 62//1 22//1 23//1
f 62//1 23//1 63//1
f 22//3 62//3 60//3
f 22//3 60//3 17//3
f 20//8 17//8 60//8
f 59//8 20//8 60//8
f 58//3 19//3 20//3
f 58//3 20//3 59//3
f 57//1 18//1 19//1
f 57//1 19//1 58//1
f 18//3 57//3 53//3
f 18//3 53//3 13//3
f 56//8 16//8 13//8
f 56//8 13//8 53//8
f 55//3 15//3 16//3
f 55//3 16//3 56//3
f 54//1 14//1 15//1
f 54//1 15//1 55//1
f 14//3 54//3 50//3
f 10//3 14//3 50//3
f 10//3 50//3 87//3
f 88//6 12//6 10//6
f 88//6 10//6 87//6
f 51//3 11//3 88//3
f 51//3 88//3 52//3
f 88//3 11//3 12//3
f 11//7 49//7 9//7
f 11//7 51//7 49//7
f 49//3 46//3 8//3
f 49//3 8//3 9//3
f 8//8 46//8 48//8
f 8//8 48//8 7//8
f 47//3 6//3 7//3
f 47//3 7//3 48//3
f 6//1 47//1 45//1
f 6//1 45//1 5//1
f 65//8 85//8 68//8
f 65//8 86//8 85//8
f 52//8 88//8 87//8
f 52//8 87//8 50//8
