# Blender 4.0.2
# www.blender.org
o 12f4f97384a1e40c5356058d992f8d21af042710c565f0d473414ab5219f35e
v -61.700935 280.000000 -1600.000000
v 738.299072 280.000000 -800.000000
v 738.299072 315.000000 -800.000000
v -61.700935 315.000000 -1600.000000
v -132.411621 280.000000 -1600.000000
v 667.588379 280.000000 -800.000000
v -132.411621 315.000000 -1600.000000
v 667.588379 315.000000 -800.000000
vn 0.7071 -0.0000 -0.7071
vn -0.0000 -1.0000 -0.0000
vn -0.0000 -0.0000 -1.0000
vn -0.0000 1.0000 -0.0000
vn -0.0000 -0.0000 1.0000
vn -0.7071 -0.0000 0.7071
s 0
f 3//1 2//1 1//1
f 4//1 3//1 1//1
f 6//2 5//2 1//2
f 2//2 6//2 1//2
f 4//3 1//3 5//3
f 4//3 5//3 7//3
f 4//4 7//4 8//4
f 3//4 4//4 8//4
f 6//5 2//5 3//5
f 8//5 6//5 3//5
f 7//6 5//6 8//6
f 8//6 5//6 6//6
