# Blender 4.0.2
# www.blender.org
o 12ffbda602fee22dd75ac1a45452647b464cba5e2f214b28f8b4f0647e50462
v -716.116516 315.000000 -1600.000000
v -716.116516 280.000000 -1600.000000
v -786.827209 280.000000 -1600.000000
v -786.827209 315.000000 -1600.000000
v 1600.000000 280.000000 716.116516
v 1600.000000 280.000000 786.827209
v 1600.000000 315.000000 716.116516
v 1600.000000 315.000000 786.827209
vn -0.0000 -0.0000 -1.0000
vn -0.0000 -1.0000 -0.0000
vn 0.7071 -0.0000 -0.7071
vn -0.0000 1.0000 -0.0000
vn -0.7071 -0.0000 0.7071
vn 1.0000 -0.0000 -0.0000
s 0
f 1//1 2//1 3//1
f 1//1 3//1 4//1
f 3//2 2//2 5//2
f 6//2 3//2 5//2
f 7//3 5//3 2//3
f 1//3 7//3 2//3
f 7//4 1//4 4//4
f 7//4 4//4 8//4
f 4//5 3//5 8//5
f 8//5 3//5 6//5
f 6//6 5//6 7//6
f 8//6 6//6 7//6
