# Blender 4.0.2
# www.blender.org
o 15b075a10ff8f12a3275b8ac36958e6aa0a59bffffa7ae7f0ae6ebb602eea58
v -450.000000 80.000000 -1075.000000
v -750.000000 80.000000 -1075.000000
v -750.000000 120.000000 -1075.000000
v -450.000000 120.000000 -1075.000000
v -450.000000 80.000000 -1125.000000
v -450.000000 120.000000 -1125.000000
v -750.000000 80.000000 -1125.000000
v -750.000000 120.000000 -1125.000000
vn -0.0000 -0.0000 1.0000
vn 1.0000 -0.0000 -0.0000
vn -0.0000 -0.0000 -1.0000
vn -1.0000 -0.0000 -0.0000
vn -0.0000 -1.0000 -0.0000
vn -0.0000 1.0000 -0.0000
s 0
f 3//1 2//1 1//1
f 4//1 3//1 1//1
f 4//2 1//2 5//2
f 6//2 4//2 5//2
f 6//3 5//3 7//3
f 8//3 6//3 7//3
f 8//4 7//4 2//4
f 3//4 8//4 2//4
f 1//5 2//5 5//5
f 2//5 7//5 5//5
f 6//6 3//6 4//6
f 6//6 8//6 3//6
