# Blender 4.0.2
# www.blender.org
o 16848f065a0160772fe3e3cf5fb7a92e02b64650a182f39416e3d184627231c
v 775.000000 120.000000 1445.315308
v 775.000000 80.000000 1336.055542
v 775.000000 120.000000 1336.055542
v 775.000000 80.000000 1445.315308
v 1375.000000 120.000000 736.055542
v 1600.000000 160.000000 511.055542
v 1600.000000 80.000000 511.055542
v 1375.000000 80.000000 736.055542
v 1025.000000 120.000000 1086.055542
v 1025.000000 80.000000 1086.055542
v 511.055542 160.000000 1600.000000
v 666.055542 120.000000 1445.000000
v 656.055542 120.000000 1455.000000
v 566.055542 120.000000 1545.000000
v 556.055542 120.000000 1555.000000
v 511.055542 120.000000 1600.000000
v 1370.000000 120.000000 741.055542
v 1366.055542 120.000000 745.000000
v 1356.055542 120.000000 755.000000
v 1266.055542 120.000000 845.000000
v 1256.055542 120.000000 855.000000
v 1166.055542 120.000000 945.000000
v 1156.055542 120.000000 955.000000
v 1066.055542 120.000000 1045.000000
v 1056.055542 120.000000 1055.000000
v 1030.000000 120.000000 1081.055542
v 770.000000 120.000000 1341.055542
v 766.055542 120.000000 1345.000000
v 756.055542 120.000000 1355.000000
v 770.000000 120.000000 1445.000000
v 765.315308 120.000000 1455.000000
v 770.000000 120.000000 1355.000000
v 770.000000 120.000000 1345.000000
v 665.315308 120.000000 1555.000000
v 620.315308 160.000000 1600.000000
v 620.315308 120.000000 1600.000000
v 675.315308 120.000000 1545.000000
v 1025.000000 120.000000 1195.315308
v 1025.000000 80.000000 1195.315308
v 1600.000000 80.000000 620.315308
v 1375.000000 120.000000 845.315308
v 1375.000000 80.000000 845.315308
v 1600.000000 160.000000 620.315308
v 1030.000000 120.000000 1190.315308
v 1065.315308 120.000000 1155.000000
v 1075.315308 120.000000 1145.000000
v 1165.315308 120.000000 1055.000000
v 1175.315308 120.000000 1045.000000
v 1265.315308 120.000000 955.000000
v 1275.315308 120.000000 945.000000
v 1365.315308 120.000000 855.000000
v 770.000000 80.000000 1445.000000
v 658.984497 80.000000 1445.000000
v 770.000000 80.000000 1455.000000
v 770.000000 80.000000 1457.386353
v 770.000000 80.000000 1355.000000
v 758.984497 80.000000 1345.000000
v 748.984497 80.000000 1355.000000
v 770.000000 80.000000 1345.000000
v 770.000000 80.000000 1333.984497
v 1030.000000 80.000000 1197.386353
v 1030.000000 80.000000 1155.000000
v 1072.386353 80.000000 1155.000000
v 1030.000000 80.000000 1145.000000
v 1082.386353 80.000000 1145.000000
v 1030.000000 80.000000 1073.984497
v 648.984497 80.000000 1455.000000
v 1600.000000 160.000000 503.984497
v 503.984497 160.000000 1600.000000
v 503.984497 120.000000 1600.000000
v 548.984497 120.000000 1555.000000
v 648.984497 120.000000 1455.000000
v 558.984497 120.000000 1545.000000
v 748.984497 120.000000 1355.000000
v 658.984497 120.000000 1445.000000
v 758.984497 120.000000 1345.000000
v 770.000000 120.000000 1333.984497
v 1030.000000 120.000000 1155.000000
v 1030.000000 120.000000 1145.000000
v 1048.984497 120.000000 1055.000000
v 1030.000000 120.000000 1073.984497
v 1148.984497 120.000000 955.000000
v 1058.984497 120.000000 1045.000000
v 1248.984497 120.000000 855.000000
v 1158.984497 120.000000 945.000000
v 1370.000000 120.000000 845.000000
v 1370.000000 120.000000 755.000000
v 1370.000000 120.000000 745.000000
v 1348.984497 120.000000 755.000000
v 1258.984497 120.000000 845.000000
v 1358.984497 120.000000 745.000000
v 1370.000000 120.000000 733.984497
v 1370.000000 80.000000 845.000000
v 1258.984497 80.000000 845.000000
v 1370.000000 80.000000 855.000000
v 1370.000000 80.000000 857.386353
v 1370.000000 80.000000 755.000000
v 1358.984497 80.000000 745.000000
v 1348.984497 80.000000 755.000000
v 1370.000000 80.000000 745.000000
v 1370.000000 80.000000 733.984497
v 1600.000000 80.000000 627.386353
v 1600.000000 80.000000 503.984497
v 1248.984497 80.000000 855.000000
v 770.000000 120.000000 1455.000000
v 1370.000000 120.000000 857.386353
v 1370.000000 120.000000 855.000000
v 1282.386353 120.000000 945.000000
v 1182.386353 120.000000 1045.000000
v 1272.386353 120.000000 955.000000
v 1082.386353 120.000000 1145.000000
v 1172.386353 120.000000 1055.000000
v 1072.386353 120.000000 1155.000000
v 1030.000000 120.000000 1197.386353
v 770.000000 120.000000 1457.386353
v 682.386353 120.000000 1545.000000
v 672.386353 120.000000 1555.000000
v 627.386353 120.000000 1600.000000
v 627.386353 160.000000 1600.000000
v 1600.000000 160.000000 627.386353
v 548.984497 80.000000 1555.000000
v 558.984497 80.000000 1545.000000
v 1048.984497 80.000000 1055.000000
v 1058.984497 80.000000 1045.000000
v 1148.984497 80.000000 955.000000
v 1158.984497 80.000000 945.000000
v 672.386353 80.000000 1555.000000
v 682.386353 80.000000 1545.000000
v 1172.386353 80.000000 1055.000000
v 1182.386353 80.000000 1045.000000
v 1272.386353 80.000000 955.000000
v 1282.386353 80.000000 945.000000
vn 1.0000 -0.0000 -0.0000
vn 0.7071 -0.0000 0.7071
vn 0.7071 -0.0004 0.7071
vn 0.7071 -0.0006 0.7071
vn 0.7071 0.0001 0.7071
vn -0.0000 1.0000 -0.0000
vn -0.7071 -0.0000 -0.7071
vn -0.7071 0.0001 -0.7071
vn -0.7071 0.0002 -0.7071
vn -0.0000 -1.0000 -0.0000
vn -0.0000 -0.0000 1.0000
vn -1.0000 -0.0000 -0.0000
vn -0.0000 -0.0000 -1.0000
s 0
f 1//1 2//1 3//1
f 4//1 2//1 1//1
f 7//2 6//2 5//2
f 8//2 7//2 5//2
f 10//2 9//2 3//2
f 2//2 10//2 3//2
f 13//2 12//2 11//2
f 14//2 13//2 11//2
f 15//2 14//2 11//2
f 16//2 15//2 11//2
f 5//2 6//2 11//2
f 17//3 5//3 11//3
f 18//4 17//4 11//4
f 19//2 18//2 11//2
f 20//2 19//2 11//2
f 21//2 20//2 11//2
f 22//2 21//2 11//2
f 23//2 22//2 11//2
f 24//2 23//2 11//2
f 25//2 24//2 11//2
f 26//5 25//5 11//5
f 9//3 26//3 11//3
f 3//2 9//2 11//2
f 27//2 3//2 11//2
f 28//2 27//2 11//2
f 29//2 28//2 11//2
f 12//2 29//2 11//2
f 31//6 1//6 30//6
f 30//6 1//6 32//6
f 31//6 30//6 12//6
f 31//6 12//6 13//6
f 32//6 33//6 28//6
f 32//6 28//6 29//6
f 32//6 1//6 3//6
f 33//6 32//6 3//6
f 33//6 3//6 27//6
f 36//7 35//7 34//7
f 34//7 35//7 37//7
f 37//7 35//7 31//7
f 31//8 35//8 1//8
f 4//7 1//7 38//7
f 39//7 4//7 38//7
f 42//7 41//7 40//7
f 40//7 41//7 43//7
f 1//7 35//7 43//7
f 38//7 1//7 43//7
f 44//9 38//9 43//9
f 45//7 44//7 43//7
f 46//7 45//7 43//7
f 47//7 46//7 43//7
f 48//7 47//7 43//7
f 49//7 48//7 43//7
f 50//8 49//8 43//8
f 51//7 50//7 43//7
f 41//7 51//7 43//7
f 54//10 53//10 52//10
f 55//10 54//10 4//10
f 54//10 52//10 4//10
f 58//10 57//10 56//10
f 4//10 52//10 56//10
f 56//10 57//10 59//10
f 59//10 60//10 2//10
f 4//10 56//10 2//10
f 56//10 59//10 2//10
f 55//10 4//10 61//10
f 61//10 39//10 62//10
f 62//10 64//10 63//10
f 63//10 64//10 65//10
f 10//10 60//10 66//10
f 53//10 54//10 67//10
f 10//10 66//10 64//10
f 60//10 10//10 2//10
f 62//10 39//10 10//10
f 64//10 62//10 10//10
f 61//10 4//10 39//10
f 11//6 6//6 68//6
f 69//6 11//6 68//6
f 70//11 16//11 69//11
f 69//11 16//11 11//11
f 71//10 15//10 16//10
f 71//10 16//10 70//10
f 34//6 37//6 14//6
f 34//6 14//6 15//6
f 72//10 13//10 14//10
f 72//10 14//10 73//10
f 74//10 29//10 12//10
f 74//10 12//10 75//10
f 27//10 28//10 76//10
f 77//10 27//10 76//10
f 10//12 39//12 38//12
f 10//12 38//12 9//12
f 38//6 44//6 78//6
f 45//6 46//6 79//6
f 78//6 45//6 79//6
f 79//6 9//6 38//6
f 78//6 79//6 38//6
f 9//6 79//6 26//6
f 80//10 25//10 26//10
f 81//10 80//10 26//10
f 25//6 47//6 24//6
f 47//6 48//6 24//6
f 82//10 23//10 24//10
f 82//10 24//10 83//10
f 23//6 49//6 22//6
f 49//6 50//6 22//6
f 84//10 21//10 22//10
f 84//10 22//10 85//10
f 51//6 41//6 86//6
f 86//6 41//6 87//6
f 21//6 51//6 20//6
f 51//6 86//6 20//6
f 19//6 87//6 18//6
f 87//6 88//6 18//6
f 17//6 88//6 5//6
f 87//6 41//6 5//6
f 88//6 87//6 5//6
f 89//10 19//10 20//10
f 89//10 20//10 90//10
f 17//10 18//10 91//10
f 92//10 17//10 91//10
f 42//1 8//1 5//1
f 42//1 5//1 41//1
f 95//10 94//10 93//10
f 96//10 95//10 42//10
f 95//10 93//10 42//10
f 99//10 98//10 97//10
f 42//10 93//10 97//10
f 97//10 98//10 100//10
f 100//10 101//10 8//10
f 97//10 100//10 8//10
f 96//10 42//10 102//10
f 7//10 101//10 103//10
f 94//10 95//10 104//10
f 102//10 42//10 40//10
f 97//10 8//10 42//10
f 101//10 7//10 8//10
f 7//1 103//1 68//1
f 6//1 7//1 68//1
f 59//12 33//12 27//12
f 60//12 27//12 77//12
f 60//12 59//12 27//12
f 57//13 76//13 28//13
f 59//13 28//13 33//13
f 59//13 57//13 28//13
f 29//11 74//11 58//11
f 32//11 29//11 56//11
f 29//11 58//11 56//11
f 56//12 30//12 32//12
f 56//12 52//12 30//12
f 53//13 75//13 12//13
f 52//13 12//13 30//13
f 52//13 53//13 12//13
f 13//11 72//11 67//11
f 31//11 13//11 54//11
f 105//11 31//11 54//11
f 13//11 67//11 54//11
f 107//10 106//10 51//10
f 51//10 106//10 108//10
f 51//10 108//10 50//10
f 49//10 110//10 109//10
f 49//10 109//10 48//10
f 47//10 112//10 111//10
f 47//10 111//10 46//10
f 45//10 113//10 44//10
f 44//10 113//10 114//10
f 105//10 115//10 31//10
f 31//10 115//10 116//10
f 31//10 116//10 37//10
f 34//10 117//10 118//10
f 36//10 34//10 118//10
f 36//11 118//11 119//11
f 35//11 36//11 119//11
f 119//6 120//6 43//6
f 35//6 119//6 43//6
f 120//1 102//1 43//1
f 102//1 40//1 43//1
f 70//7 69//7 71//7
f 122//7 121//7 71//7
f 122//7 71//7 73//7
f 71//7 69//7 73//7
f 53//7 67//7 72//7
f 73//7 69//7 72//7
f 53//7 72//7 75//7
f 72//7 69//7 75//7
f 57//7 58//7 74//7
f 57//7 74//7 76//7
f 60//7 77//7 81//7
f 66//7 60//7 81//7
f 124//7 123//7 80//7
f 124//7 80//7 83//7
f 125//7 82//7 85//7
f 126//7 125//7 85//7
f 104//7 84//7 90//7
f 94//7 104//7 90//7
f 99//7 89//7 91//7
f 98//7 99//7 91//7
f 101//7 92//7 103//7
f 103//7 92//7 68//7
f 75//7 69//7 68//7
f 74//7 75//7 68//7
f 76//7 74//7 68//7
f 77//7 76//7 68//7
f 81//7 77//7 68//7
f 80//7 81//7 68//7
f 83//7 80//7 68//7
f 82//7 83//7 68//7
f 85//7 82//7 68//7
f 84//7 85//7 68//7
f 90//7 84//7 68//7
f 89//7 90//7 68//7
f 91//7 89//7 68//7
f 92//7 91//7 68//7
f 66//1 81//1 26//1
f 64//1 26//1 79//1
f 64//1 66//1 26//1
f 46//13 64//13 79//13
f 65//13 46//13 111//13
f 65//13 64//13 46//13
f 117//2 119//2 118//2
f 117//2 127//2 128//2
f 116//2 117//2 128//2
f 116//2 119//2 117//2
f 115//2 119//2 116//2
f 114//2 115//2 55//2
f 114//2 55//2 61//2
f 113//2 63//2 65//2
f 111//2 113//2 65//2
f 109//2 112//2 129//2
f 109//2 129//2 130//2
f 110//2 131//2 132//2
f 108//2 110//2 132//2
f 102//2 106//2 96//2
f 120//2 106//2 102//2
f 120//2 119//2 115//2
f 120//2 115//2 114//2
f 120//2 114//2 113//2
f 120//2 113//2 111//2
f 120//2 111//2 112//2
f 120//2 112//2 109//2
f 120//2 109//2 110//2
f 120//2 110//2 108//2
f 120//2 108//2 106//2
f 45//11 78//11 62//11
f 113//11 45//11 63//11
f 45//11 62//11 63//11
f 62//1 78//1 44//1
f 61//1 44//1 114//1
f 61//1 62//1 44//1
f 54//12 115//12 105//12
f 54//12 55//12 115//12
f 15//11 71//11 121//11
f 34//11 15//11 127//11
f 117//11 34//11 127//11
f 15//11 121//11 127//11
f 122//13 73//13 14//13
f 128//13 14//13 37//13
f 128//13 37//13 116//13
f 128//13 122//13 14//13
f 25//11 80//11 123//11
f 47//11 25//11 129//11
f 112//11 47//11 129//11
f 25//11 123//11 129//11
f 124//13 83//13 24//13
f 130//13 24//13 48//13
f 130//13 48//13 109//13
f 130//13 124//13 24//13
f 23//11 82//11 125//11
f 49//11 23//11 131//11
f 110//11 49//11 131//11
f 23//11 125//11 131//11
f 126//13 85//13 22//13
f 132//13 22//13 50//13
f 132//13 50//13 108//13
f 132//13 126//13 22//13
f 21//11 84//11 104//11
f 51//11 21//11 95//11
f 107//11 51//11 95//11
f 21//11 104//11 95//11
f 100//12 88//12 17//12
f 101//12 17//12 92//12
f 101//12 100//12 17//12
f 98//13 91//13 18//13
f 100//13 18//13 88//13
f 100//13 98//13 18//13
f 19//11 89//11 99//11
f 87//11 19//11 97//11
f 19//11 99//11 97//11
f 97//12 86//12 87//12
f 97//12 93//12 86//12
f 94//13 90//13 20//13
f 93//13 20//13 86//13
f 93//13 94//13 20//13
f 96//12 106//12 107//12
f 95//12 96//12 107//12
f 125//10 126//10 131//10
f 131//10 126//10 132//10
f 123//10 124//10 129//10
f 129//10 124//10 130//10
f 121//10 122//10 127//10
f 127//10 122//10 128//10
