# Blender 4.0.2
# www.blender.org
o 16df221b0d735a2103c0e22f89ce61eddb643934a75f6bdaea44ac149aca751
v 425.000000 80.000000 1544.634155
v 425.000000 80.000000 1600.000000
v 425.000000 120.000000 1600.000000
v 425.000000 120.000000 1544.634155
v 1375.000000 120.000000 594.634216
v 1600.000000 160.000000 369.634186
v 1600.000000 80.000000 369.634186
v 1375.000000 80.000000 594.634216
v 775.000000 80.000000 1194.634155
v 1025.000000 120.000000 944.634216
v 1025.000000 80.000000 944.634216
v 775.000000 120.000000 1194.634155
v 369.634186 80.000000 1600.000000
v 369.634186 160.000000 1600.000000
v 614.634216 120.000000 1355.000000
v 524.634216 120.000000 1445.000000
v 514.634216 120.000000 1455.000000
v 430.000000 120.000000 1539.634155
v 1370.000000 120.000000 599.634216
v 1324.634155 120.000000 645.000000
v 1314.634155 120.000000 655.000000
v 1224.634155 120.000000 745.000000
v 1214.634155 120.000000 755.000000
v 1124.634155 120.000000 845.000000
v 1114.634155 120.000000 855.000000
v 1030.000000 120.000000 939.634216
v 770.000000 120.000000 1199.634155
v 724.634216 120.000000 1245.000000
v 714.634216 120.000000 1255.000000
v 624.634216 120.000000 1345.000000
v 430.000000 120.000000 1555.000000
v 430.000000 120.000000 1600.000000
v 430.000000 120.000000 1545.000000
v 523.893921 120.000000 1555.000000
v 533.893921 120.000000 1545.000000
v 430.000000 80.000000 1600.000000
v 430.000000 80.000000 1555.000000
v 362.563141 80.000000 1600.000000
v 430.000000 80.000000 1545.000000
v 430.000000 80.000000 1532.563110
v 530.965027 80.000000 1555.000000
v 540.965027 80.000000 1545.000000
v 1600.000000 160.000000 362.563141
v 362.563141 160.000000 1600.000000
v 507.563141 120.000000 1455.000000
v 430.000000 120.000000 1532.563110
v 633.893921 120.000000 1445.000000
v 623.893921 120.000000 1455.000000
v 607.563110 120.000000 1355.000000
v 517.563110 120.000000 1445.000000
v 733.893921 120.000000 1345.000000
v 723.893921 120.000000 1355.000000
v 707.563110 120.000000 1255.000000
v 617.563110 120.000000 1345.000000
v 770.000000 120.000000 1255.000000
v 775.000000 120.000000 1303.893921
v 770.000000 120.000000 1308.893921
v 770.000000 120.000000 1245.000000
v 717.563110 120.000000 1245.000000
v 770.000000 120.000000 1192.563110
v 775.000000 80.000000 1303.893921
v 770.000000 80.000000 1255.000000
v 717.563110 80.000000 1245.000000
v 707.563110 80.000000 1255.000000
v 770.000000 80.000000 1245.000000
v 770.000000 80.000000 1192.563110
v 1030.000000 80.000000 1055.964966
v 770.000000 80.000000 1315.964966
v 1030.000000 80.000000 1055.000000
v 1025.000000 80.000000 1053.893921
v 1030.000000 80.000000 1045.000000
v 1030.964966 80.000000 1055.000000
v 1040.964966 80.000000 1045.000000
v 1030.000000 80.000000 955.000000
v 1030.000000 80.000000 945.000000
v 1030.000000 80.000000 932.563110
v 1130.964966 80.000000 955.000000
v 1140.964966 80.000000 945.000000
v 1025.000000 120.000000 1053.893921
v 1030.000000 120.000000 1045.000000
v 1033.893921 120.000000 1045.000000
v 1030.000000 120.000000 955.000000
v 1030.000000 120.000000 945.000000
v 1123.893921 120.000000 955.000000
v 1133.893921 120.000000 945.000000
v 1107.563110 120.000000 855.000000
v 1030.000000 120.000000 932.563110
v 1233.893921 120.000000 845.000000
v 1223.893921 120.000000 855.000000
v 1207.563110 120.000000 755.000000
v 1117.563110 120.000000 845.000000
v 1333.893921 120.000000 745.000000
v 1323.893921 120.000000 755.000000
v 1307.563110 120.000000 655.000000
v 1217.563110 120.000000 745.000000
v 1370.000000 120.000000 655.000000
v 1375.000000 120.000000 703.893921
v 1370.000000 120.000000 708.893921
v 1370.000000 120.000000 645.000000
v 1317.563110 120.000000 645.000000
v 1370.000000 120.000000 592.563110
v 1375.000000 80.000000 703.893921
v 1370.000000 80.000000 655.000000
v 1317.563110 80.000000 645.000000
v 1307.563110 80.000000 655.000000
v 1370.000000 80.000000 645.000000
v 1370.000000 80.000000 592.563110
v 1600.000000 80.000000 485.964996
v 1370.000000 80.000000 715.965027
v 1600.000000 80.000000 362.563141
v 1600.000000 80.000000 478.893951
v 530.965027 120.000000 1555.000000
v 478.893951 160.000000 1600.000000
v 478.893951 120.000000 1600.000000
v 1600.000000 160.000000 478.893951
v 540.965027 120.000000 1545.000000
v 507.563141 80.000000 1455.000000
v 517.563110 80.000000 1445.000000
v 607.563110 80.000000 1355.000000
v 617.563110 80.000000 1345.000000
v 1107.563110 80.000000 855.000000
v 1117.563110 80.000000 845.000000
v 1207.563110 80.000000 755.000000
v 1217.563110 80.000000 745.000000
v 485.964996 160.000000 1600.000000
v 485.964996 120.000000 1600.000000
v 630.965027 120.000000 1455.000000
v 640.965027 120.000000 1445.000000
v 630.965027 80.000000 1455.000000
v 640.965027 80.000000 1445.000000
v 730.965027 120.000000 1355.000000
v 730.965027 80.000000 1355.000000
v 740.965027 80.000000 1345.000000
v 740.965027 120.000000 1345.000000
v 1030.000000 120.000000 1055.964966
v 770.000000 120.000000 1315.964966
v 1030.964966 120.000000 1055.000000
v 1040.964966 120.000000 1045.000000
v 1140.964966 120.000000 945.000000
v 1130.964966 120.000000 955.000000
v 1230.964966 120.000000 855.000000
v 1230.964966 80.000000 855.000000
v 1240.964966 80.000000 845.000000
v 1240.964966 120.000000 845.000000
v 1340.964966 120.000000 745.000000
v 1330.964966 120.000000 755.000000
v 1330.964966 80.000000 755.000000
v 1340.964966 80.000000 745.000000
v 1370.000000 120.000000 715.965027
v 1600.000000 160.000000 485.964996
v 1030.000000 120.000000 1055.000000
vn -1.0000 -0.0000 -0.0000
vn 0.7071 -0.0000 0.7071
vn -0.0000 1.0000 -0.0000
vn -0.0000 -0.0000 1.0000
vn -0.0000 -1.0000 -0.0000
vn 1.0000 -0.0000 -0.0000
vn -0.7071 -0.0000 -0.7071
vn -0.7071 -0.0004 -0.7071
vn -0.7071 0.0001 -0.7071
vn -0.0000 -0.0000 -1.0000
vn 0.7071 -0.0001 0.7071
vn 0.7071 0.0002 0.7071
s 0
f 1//1 2//1 3//1
f 1//1 3//1 4//1
f 7//2 6//2 5//2
f 8//2 7//2 5//2
f 11//2 10//2 9//2
f 9//2 10//2 12//2
f 1//2 4//2 13//2
f 16//2 15//2 14//2
f 17//2 16//2 14//2
f 18//2 17//2 14//2
f 4//2 18//2 14//2
f 13//2 4//2 14//2
f 5//2 6//2 14//2
f 19//2 5//2 14//2
f 20//2 19//2 14//2
f 21//2 20//2 14//2
f 22//2 21//2 14//2
f 23//2 22//2 14//2
f 24//2 23//2 14//2
f 25//2 24//2 14//2
f 26//2 25//2 14//2
f 10//2 26//2 14//2
f 12//2 10//2 14//2
f 27//2 12//2 14//2
f 28//2 27//2 14//2
f 29//2 28//2 14//2
f 30//2 29//2 14//2
f 15//2 30//2 14//2
f 3//3 32//3 31//3
f 31//3 34//3 33//3
f 31//3 33//3 4//3
f 3//3 31//3 4//3
f 4//3 33//3 18//3
f 34//3 35//3 33//3
f 2//4 36//4 32//4
f 3//4 2//4 32//4
f 36//5 2//5 37//5
f 13//5 38//5 1//5
f 37//5 1//5 39//5
f 1//5 38//5 40//5
f 39//5 1//5 40//5
f 37//5 39//5 41//5
f 37//5 2//5 1//5
f 41//5 39//5 42//5
f 14//3 6//3 43//3
f 44//3 14//3 43//3
f 44//4 38//4 14//4
f 38//4 13//4 14//4
f 45//5 17//5 18//5
f 46//5 45//5 18//5
f 48//3 47//3 16//3
f 48//3 16//3 17//3
f 49//5 15//5 16//5
f 49//5 16//5 50//5
f 52//3 51//3 30//3
f 52//3 30//3 15//3
f 53//5 29//5 30//5
f 53//5 30//5 54//5
f 57//3 56//3 55//3
f 58//3 12//3 27//3
f 55//3 58//3 28//3
f 55//3 28//3 29//3
f 58//3 56//3 12//3
f 55//3 56//3 58//3
f 27//5 28//5 59//5
f 60//5 27//5 59//5
f 61//6 9//6 12//6
f 61//6 12//6 56//6
f 64//5 63//5 62//5
f 62//5 63//5 65//5
f 65//5 66//5 9//5
f 68//5 61//5 67//5
f 67//5 70//5 69//5
f 72//5 69//5 71//5
f 69//5 70//5 71//5
f 72//5 71//5 73//5
f 71//5 70//5 74//5
f 74//5 70//5 11//5
f 74//5 11//5 75//5
f 75//5 11//5 76//5
f 74//5 75//5 77//5
f 61//5 68//5 62//5
f 77//5 75//5 78//5
f 11//5 66//5 76//5
f 62//5 9//5 61//5
f 65//5 9//5 62//5
f 66//5 11//5 9//5
f 67//5 61//5 70//5
f 11//1 70//1 79//1
f 11//1 79//1 10//1
f 79//3 81//3 80//3
f 79//3 80//3 82//3
f 82//3 84//3 83//3
f 83//3 26//3 10//3
f 82//3 83//3 10//3
f 79//3 82//3 10//3
f 84//3 85//3 83//3
f 86//5 25//5 26//5
f 87//5 86//5 26//5
f 89//3 88//3 24//3
f 89//3 24//3 25//3
f 90//5 23//5 24//5
f 90//5 24//5 91//5
f 93//3 92//3 22//3
f 93//3 22//3 23//3
f 94//5 21//5 22//5
f 94//5 22//5 95//5
f 98//3 97//3 96//3
f 99//3 5//3 19//3
f 96//3 99//3 20//3
f 96//3 20//3 21//3
f 96//3 97//3 5//3
f 99//3 96//3 5//3
f 19//5 20//5 100//5
f 101//5 19//5 100//5
f 102//6 8//6 5//6
f 102//6 5//6 97//6
f 105//5 104//5 103//5
f 103//5 104//5 106//5
f 106//5 107//5 8//5
f 109//5 102//5 108//5
f 7//5 107//5 110//5
f 102//5 109//5 103//5
f 108//5 102//5 111//5
f 106//5 8//5 102//5
f 103//5 106//5 102//5
f 107//5 7//5 8//5
f 7//6 110//6 6//6
f 6//6 110//6 43//6
f 32//6 36//6 31//6
f 31//6 36//6 37//6
f 31//4 37//4 34//4
f 112//4 34//4 41//4
f 34//4 37//4 41//4
f 114//7 113//7 34//7
f 34//7 113//7 35//7
f 35//7 113//7 48//7
f 48//7 113//7 47//7
f 61//7 56//7 79//7
f 70//7 61//7 79//7
f 102//7 97//7 111//7
f 111//7 97//7 115//7
f 47//7 113//7 115//7
f 52//7 47//7 115//7
f 51//7 52//7 115//7
f 57//7 51//7 115//7
f 56//8 57//8 115//8
f 79//7 56//7 115//7
f 81//7 79//7 115//7
f 84//7 81//7 115//7
f 85//7 84//7 115//7
f 89//7 85//7 115//7
f 88//7 89//7 115//7
f 93//7 88//7 115//7
f 92//7 93//7 115//7
f 98//7 92//7 115//7
f 97//9 98//9 115//9
f 35//10 39//10 33//10
f 42//10 35//10 116//10
f 42//10 39//10 35//10
f 40//6 46//6 18//6
f 39//6 18//6 33//6
f 39//6 40//6 18//6
f 38//7 44//7 46//7
f 40//7 38//7 46//7
f 118//7 117//7 45//7
f 46//7 44//7 45//7
f 118//7 45//7 50//7
f 45//7 44//7 50//7
f 50//7 44//7 49//7
f 119//7 49//7 54//7
f 120//7 119//7 54//7
f 63//7 64//7 53//7
f 63//7 53//7 59//7
f 66//7 60//7 87//7
f 76//7 66//7 87//7
f 122//7 121//7 86//7
f 122//7 86//7 91//7
f 123//7 90//7 95//7
f 124//7 123//7 95//7
f 104//7 105//7 94//7
f 104//7 94//7 100//7
f 107//7 101//7 110//7
f 110//7 101//7 43//7
f 49//7 44//7 43//7
f 54//7 49//7 43//7
f 53//7 54//7 43//7
f 59//7 53//7 43//7
f 60//7 59//7 43//7
f 87//7 60//7 43//7
f 86//7 87//7 43//7
f 91//7 86//7 43//7
f 90//7 91//7 43//7
f 95//7 90//7 43//7
f 94//7 95//7 43//7
f 100//7 94//7 43//7
f 101//7 100//7 43//7
f 112//2 125//2 126//2
f 112//2 41//2 42//2
f 116//2 112//2 42//2
f 116//2 125//2 112//2
f 127//2 125//2 116//2
f 128//2 127//2 129//2
f 128//2 129//2 130//2
f 128//2 125//2 127//2
f 131//2 132//2 133//2
f 134//2 131//2 133//2
f 135//2 136//2 68//2
f 135//2 68//2 67//2
f 137//2 72//2 73//2
f 138//2 137//2 73//2
f 139//2 140//2 77//2
f 139//2 77//2 78//2
f 141//2 142//2 143//2
f 144//2 141//2 143//2
f 145//2 146//2 147//2
f 145//2 147//2 148//2
f 108//2 149//2 109//2
f 150//2 149//2 108//2
f 150//2 125//2 128//2
f 150//2 128//2 131//2
f 150//2 131//2 134//2
f 150//11 134//11 136//11
f 150//2 136//2 135//2
f 150//12 135//12 137//12
f 150//2 137//2 138//2
f 150//2 138//2 140//2
f 150//2 140//2 139//2
f 150//2 139//2 141//2
f 150//2 141//2 144//2
f 150//2 144//2 146//2
f 150//2 146//2 145//2
f 150//2 145//2 149//2
f 17//4 45//4 117//4
f 48//4 17//4 129//4
f 127//4 48//4 129//4
f 17//4 117//4 129//4
f 118//10 50//10 16//10
f 130//10 16//10 47//10
f 130//10 47//10 128//10
f 130//10 118//10 16//10
f 15//4 49//4 119//4
f 52//4 15//4 132//4
f 131//4 52//4 132//4
f 15//4 119//4 132//4
f 120//10 54//10 30//10
f 133//10 30//10 51//10
f 133//10 51//10 134//10
f 133//10 120//10 30//10
f 29//4 53//4 64//4
f 55//4 29//4 62//4
f 29//4 64//4 62//4
f 68//1 136//1 57//1
f 62//1 57//1 55//1
f 62//1 68//1 57//1
f 27//1 65//1 58//1
f 66//1 27//1 60//1
f 66//1 65//1 27//1
f 63//10 59//10 28//10
f 65//10 28//10 58//10
f 65//10 63//10 28//10
f 76//6 87//6 26//6
f 75//6 26//6 83//6
f 75//6 76//6 26//6
f 85//10 75//10 83//10
f 78//10 85//10 139//10
f 78//10 75//10 85//10
f 67//6 69//6 151//6
f 67//6 151//6 135//6
f 82//4 74//4 84//4
f 140//4 84//4 77//4
f 84//4 74//4 77//4
f 137//4 151//4 72//4
f 151//4 69//4 72//4
f 71//6 74//6 82//6
f 71//6 82//6 80//6
f 71//10 80//10 81//10
f 73//10 81//10 138//10
f 73//10 71//10 81//10
f 25//4 86//4 121//4
f 89//4 25//4 142//4
f 141//4 89//4 142//4
f 25//4 121//4 142//4
f 122//10 91//10 24//10
f 143//10 24//10 88//10
f 143//10 88//10 144//10
f 143//10 122//10 24//10
f 23//4 90//4 123//4
f 93//4 23//4 147//4
f 146//4 93//4 147//4
f 23//4 123//4 147//4
f 124//10 95//10 22//10
f 148//10 22//10 92//10
f 148//10 92//10 145//10
f 148//10 124//10 22//10
f 21//4 94//4 105//4
f 96//4 21//4 103//4
f 21//4 105//4 103//4
f 109//1 149//1 98//1
f 103//1 98//1 96//1
f 103//1 109//1 98//1
f 19//1 106//1 99//1
f 107//1 19//1 101//1
f 107//1 106//1 19//1
f 104//10 100//10 20//10
f 106//10 20//10 99//10
f 106//10 104//10 20//10
f 150//6 108//6 115//6
f 108//6 111//6 115//6
f 34//5 126//5 114//5
f 34//5 112//5 126//5
f 98//5 149//5 145//5
f 98//5 145//5 92//5
f 93//5 146//5 144//5
f 93//5 144//5 88//5
f 89//5 141//5 139//5
f 89//5 139//5 85//5
f 84//5 140//5 138//5
f 84//5 138//5 81//5
f 57//5 136//5 134//5
f 57//5 134//5 51//5
f 52//5 131//5 128//5
f 52//5 128//5 47//5
f 48//5 127//5 116//5
f 48//5 116//5 35//5
f 114//4 126//4 125//4
f 113//4 114//4 125//4
f 125//3 150//3 115//3
f 113//3 125//3 115//3
f 123//5 124//5 147//5
f 147//5 124//5 148//5
f 121//5 122//5 142//5
f 142//5 122//5 143//5
f 119//5 120//5 132//5
f 132//5 120//5 133//5
f 117//5 118//5 129//5
f 129//5 118//5 130//5
f 151//5 137//5 135//5
