# Blender 4.0.2
# www.blender.org
o 189f7b36edc14c1d82bc5384fa7fbe4d94fcd9ee49185d471cc1ceb4424fa72
v 503.984497 160.000000 1600.000000
v 485.964996 120.000000 1600.000000
v 485.964996 160.000000 1600.000000
v 503.984497 120.000000 1600.000000
v 530.965027 120.000000 1555.000000
v 530.965027 80.000000 1555.000000
v 540.965027 80.000000 1545.000000
v 540.965027 120.000000 1545.000000
v 630.965027 120.000000 1455.000000
v 640.965027 120.000000 1445.000000
v 630.965027 80.000000 1455.000000
v 640.965027 80.000000 1445.000000
v 730.965027 120.000000 1355.000000
v 730.965027 80.000000 1355.000000
v 740.965027 80.000000 1345.000000
v 740.965027 120.000000 1345.000000
v 1030.000000 120.000000 1055.964966
v 770.000000 120.000000 1315.964966
v 770.000000 80.000000 1315.964966
v 1030.000000 80.000000 1055.964966
v 1030.964966 120.000000 1055.000000
v 1030.964966 80.000000 1055.000000
v 1040.964966 80.000000 1045.000000
v 1040.964966 120.000000 1045.000000
v 1140.964966 120.000000 945.000000
v 1130.964966 120.000000 955.000000
v 1130.964966 80.000000 955.000000
v 1140.964966 80.000000 945.000000
v 1230.964966 120.000000 855.000000
v 1230.964966 80.000000 855.000000
v 1240.964966 80.000000 845.000000
v 1240.964966 120.000000 845.000000
v 1340.964966 120.000000 745.000000
v 1330.964966 120.000000 755.000000
v 1330.964966 80.000000 755.000000
v 1340.964966 80.000000 745.000000
v 1600.000000 80.000000 485.964996
v 1370.000000 120.000000 715.965027
v 1370.000000 80.000000 715.965027
v 1600.000000 160.000000 485.964996
v 548.984497 120.000000 1555.000000
v 548.984497 80.000000 1555.000000
v 558.984497 80.000000 1545.000000
v 558.984497 120.000000 1545.000000
v 648.984497 120.000000 1455.000000
v 648.984497 80.000000 1455.000000
v 658.984497 80.000000 1445.000000
v 658.984497 120.000000 1445.000000
v 748.984497 120.000000 1355.000000
v 748.984497 80.000000 1355.000000
v 758.984497 80.000000 1345.000000
v 758.984497 120.000000 1345.000000
v 1030.000000 120.000000 1073.984497
v 770.000000 120.000000 1333.984497
v 770.000000 80.000000 1333.984497
v 1030.000000 80.000000 1073.984497
v 1048.984497 120.000000 1055.000000
v 1048.984497 80.000000 1055.000000
v 1058.984497 80.000000 1045.000000
v 1058.984497 120.000000 1045.000000
v 1158.984497 120.000000 945.000000
v 1148.984497 120.000000 955.000000
v 1148.984497 80.000000 955.000000
v 1158.984497 80.000000 945.000000
v 1258.984497 120.000000 845.000000
v 1248.984497 120.000000 855.000000
v 1248.984497 80.000000 855.000000
v 1258.984497 80.000000 845.000000
v 1358.984497 120.000000 745.000000
v 1348.984497 120.000000 755.000000
v 1348.984497 80.000000 755.000000
v 1358.984497 80.000000 745.000000
v 1600.000000 80.000000 503.984497
v 1370.000000 120.000000 733.984497
v 1370.000000 80.000000 733.984497
v 1600.000000 160.000000 503.984497
vn -0.0000 -0.0000 1.0000
vn -0.7071 -0.0000 -0.7071
vn -0.7071 0.0001 -0.7071
vn -0.0000 -1.0000 -0.0000
vn 0.7071 -0.0000 0.7071
vn -0.0000 1.0000 -0.0000
vn 1.0000 -0.0000 -0.0000
vn -1.0000 -0.0000 -0.0000
vn -0.0000 -0.0000 -1.0000
s 0
f 3//1 2//1 1//1
f 2//1 4//1 1//1
f 2//2 3//2 5//2
f 7//2 6//2 5//2
f 7//2 5//2 8//2
f 5//2 3//2 8//2
f 8//2 3//2 9//2
f 11//2 9//2 10//2
f 12//2 11//2 10//2
f 9//2 3//2 10//2
f 15//2 14//2 13//2
f 15//2 13//2 16//2
f 19//2 18//2 17//2
f 20//2 19//2 17//2
f 23//2 22//2 21//2
f 23//2 21//2 24//2
f 27//2 26//2 25//2
f 28//2 27//2 25//2
f 31//2 30//2 29//2
f 31//2 29//2 32//2
f 35//2 34//2 33//2
f 36//2 35//2 33//2
f 39//2 38//2 37//2
f 37//2 38//2 40//2
f 10//2 3//2 40//2
f 13//2 10//2 40//2
f 16//2 13//2 40//2
f 18//3 16//3 40//3
f 17//2 18//2 40//2
f 21//2 17//2 40//2
f 24//2 21//2 40//2
f 26//2 24//2 40//2
f 25//2 26//2 40//2
f 29//2 25//2 40//2
f 32//2 29//2 40//2
f 34//2 32//2 40//2
f 33//2 34//2 40//2
f 38//2 33//2 40//2
f 5//4 41//4 4//4
f 5//4 4//4 2//4
f 41//5 1//5 4//5
f 41//5 42//5 43//5
f 44//5 41//5 43//5
f 44//5 1//5 41//5
f 45//5 46//5 47//5
f 45//5 1//5 44//5
f 48//5 45//5 47//5
f 48//5 1//5 45//5
f 49//5 50//5 51//5
f 52//5 49//5 51//5
f 53//5 54//5 55//5
f 53//5 55//5 56//5
f 57//5 58//5 59//5
f 60//5 57//5 59//5
f 61//5 62//5 63//5
f 61//5 63//5 64//5
f 65//5 66//5 67//5
f 65//5 67//5 68//5
f 69//5 70//5 71//5
f 69//5 71//5 72//5
f 73//5 74//5 75//5
f 76//5 74//5 73//5
f 76//5 1//5 48//5
f 76//5 48//5 49//5
f 76//5 49//5 52//5
f 76//5 52//5 54//5
f 76//5 54//5 53//5
f 76//5 53//5 57//5
f 76//5 57//5 60//5
f 76//5 60//5 62//5
f 76//5 62//5 61//5
f 76//5 61//5 66//5
f 76//5 66//5 65//5
f 76//5 65//5 70//5
f 76//5 70//5 69//5
f 76//5 69//5 74//5
f 40//6 3//6 1//6
f 40//6 1//6 76//6
f 40//7 73//7 37//7
f 40//7 76//7 73//7
f 75//4 39//4 73//4
f 73//4 39//4 37//4
f 75//8 74//8 38//8
f 39//8 75//8 38//8
f 74//4 69//4 33//4
f 38//4 74//4 33//4
f 36//9 33//9 69//9
f 72//9 36//9 69//9
f 71//4 35//4 36//4
f 71//4 36//4 72//4
f 70//1 34//1 35//1
f 70//1 35//1 71//1
f 34//4 70//4 65//4
f 34//4 65//4 32//4
f 31//9 32//9 65//9
f 68//9 31//9 65//9
f 67//4 30//4 31//4
f 67//4 31//4 68//4
f 66//1 29//1 30//1
f 66//1 30//1 67//1
f 29//4 66//4 61//4
f 29//4 61//4 25//4
f 28//9 25//9 61//9
f 64//9 28//9 61//9
f 63//4 27//4 28//4
f 63//4 28//4 64//4
f 62//1 26//1 27//1
f 62//1 27//1 63//1
f 26//4 62//4 60//4
f 26//4 60//4 24//4
f 23//9 24//9 60//9
f 59//9 23//9 60//9
f 58//4 22//4 23//4
f 58//4 23//4 59//4
f 57//1 21//1 22//1
f 57//1 22//1 58//1
f 21//4 57//4 53//4
f 17//4 21//4 53//4
f 56//7 20//7 17//7
f 56//7 17//7 53//7
f 55//4 19//4 56//4
f 56//4 19//4 20//4
f 55//8 54//8 18//8
f 19//8 55//8 18//8
f 54//4 52//4 16//4
f 18//4 54//4 16//4
f 15//9 16//9 52//9
f 51//9 15//9 52//9
f 50//4 14//4 15//4
f 50//4 15//4 51//4
f 49//1 13//1 14//1
f 49//1 14//1 50//1
f 13//4 49//4 48//4
f 13//4 48//4 10//4
f 12//9 10//9 48//9
f 47//9 12//9 48//9
f 46//4 11//4 12//4
f 46//4 12//4 47//4
f 9//1 11//1 46//1
f 45//1 9//1 46//1
f 9//4 45//4 44//4
f 9//4 44//4 8//4
f 43//9 7//9 8//9
f 43//9 8//9 44//9
f 42//4 6//4 7//4
f 42//4 7//4 43//4
f 5//1 6//1 42//1
f 41//1 5//1 42//1
