# Blender 4.0.2
# www.blender.org
o 1a345db9c0f6e5e0110c5a9c54ab93bf6b0e644be69b9d1d3c6d08d0d88a5f7
v -1370.000000 120.000000 -1557.422119
v -1327.422119 160.000000 -1600.000000
v -1327.422119 120.000000 -1600.000000
v -1375.000000 120.000000 -1552.422119
v -1600.000000 80.000000 -1327.422119
v -1375.000000 80.000000 -1552.422119
v -1600.000000 160.000000 -1327.422119
v -1375.000000 80.000000 -1443.162354
v -1375.000000 120.000000 -1443.162354
v -1370.000000 120.000000 -1564.493164
v -1334.493164 120.000000 -1600.000000
v -1370.000000 120.000000 -1555.000000
v -1370.000000 120.000000 -1545.000000
v -1370.000000 120.000000 -1455.000000
v -1273.162354 120.000000 -1545.000000
v -1363.162354 120.000000 -1455.000000
v -1263.162354 120.000000 -1555.000000
v -1334.493164 160.000000 -1600.000000
v -1600.000000 160.000000 -1334.493164
v -1600.000000 80.000000 -1334.493164
v -1370.000000 80.000000 -1441.091309
v -1600.000000 80.000000 -1218.162354
v -1600.000000 80.000000 -1211.091309
v -1370.000000 80.000000 -1445.000000
v -1370.000000 80.000000 -1455.000000
v -1366.091309 80.000000 -1445.000000
v -1356.091309 80.000000 -1455.000000
v -1370.000000 80.000000 -1545.000000
v -1370.000000 80.000000 -1555.000000
v -1370.000000 80.000000 -1564.493164
v -1266.091309 80.000000 -1545.000000
v -1256.091309 80.000000 -1555.000000
v -1600.000000 160.000000 -1218.162354
v -1218.162354 160.000000 -1600.000000
v -1218.162354 120.000000 -1600.000000
v -1356.091309 120.000000 -1455.000000
v -1266.091309 120.000000 -1545.000000
v -1256.091309 120.000000 -1555.000000
v -1370.000000 120.000000 -1441.091309
v -1600.000000 160.000000 -1211.091309
v -1366.091309 120.000000 -1445.000000
v -1211.091309 160.000000 -1600.000000
v -1211.091309 120.000000 -1600.000000
v -1370.000000 120.000000 -1445.000000
vn 0.7071 -0.0000 0.7071
vn -1.0000 -0.0000 -0.0000
vn -0.0000 -1.0000 -0.0000
vn -0.0000 1.0000 -0.0000
vn -0.0000 -0.0000 -1.0000
vn -0.7071 -0.0000 -0.7071
vn 1.0000 -0.0000 -0.0000
vn -0.0000 -0.0000 1.0000
s 0
f 3//1 2//1 1//1
f 1//1 2//1 4//1
f 6//1 4//1 5//1
f 5//1 4//1 7//1
f 4//1 2//1 7//1
f 6//2 8//2 9//2
f 6//2 9//2 4//2
f 1//3 10//3 11//3
f 3//3 1//3 11//3
f 1//4 4//4 12//4
f 12//4 4//4 13//4
f 13//4 4//4 14//4
f 12//4 13//4 15//4
f 16//4 14//4 9//4
f 14//4 4//4 9//4
f 15//4 17//4 12//4
f 18//5 3//5 11//5
f 2//5 3//5 18//5
f 18//4 19//4 7//4
f 2//4 18//4 7//4
f 19//2 20//2 7//2
f 20//2 5//2 7//2
f 23//3 22//3 21//3
f 21//3 8//3 24//3
f 26//3 24//3 25//3
f 24//3 8//3 25//3
f 26//3 25//3 27//3
f 28//3 25//3 6//3
f 25//3 8//3 6//3
f 28//3 6//3 29//3
f 29//3 6//3 30//3
f 28//3 29//3 31//3
f 6//3 20//3 30//3
f 20//3 6//3 5//3
f 21//3 22//3 8//3
f 31//3 29//3 32//3
f 22//6 33//6 9//6
f 8//6 22//6 9//6
f 15//6 16//6 34//6
f 17//6 15//6 34//6
f 35//6 17//6 34//6
f 9//6 33//6 34//6
f 16//6 9//6 34//6
f 10//6 18//6 11//6
f 20//6 10//6 30//6
f 19//6 10//6 20//6
f 19//6 18//6 10//6
f 1//7 12//7 29//7
f 10//7 1//7 30//7
f 1//7 29//7 30//7
f 16//5 36//5 27//5
f 14//5 16//5 25//5
f 16//5 27//5 25//5
f 13//7 14//7 28//7
f 14//7 25//7 28//7
f 31//8 37//8 15//8
f 28//8 15//8 13//8
f 28//8 31//8 15//8
f 17//5 38//5 32//5
f 12//5 17//5 29//5
f 17//5 32//5 29//5
f 39//1 40//1 23//1
f 39//1 23//1 21//1
f 36//1 41//1 26//1
f 36//1 26//1 27//1
f 38//1 37//1 31//1
f 38//1 31//1 32//1
f 42//1 36//1 37//1
f 42//1 38//1 43//1
f 42//1 37//1 38//1
f 42//1 40//1 39//1
f 42//1 39//1 41//1
f 42//1 41//1 36//1
f 24//8 41//8 44//8
f 24//8 26//8 41//8
f 39//7 21//7 24//7
f 44//7 39//7 24//7
f 22//2 23//2 33//2
f 33//2 23//2 40//2
f 34//4 33//4 40//4
f 42//4 34//4 40//4
f 42//5 43//5 35//5
f 42//5 35//5 34//5
f 38//3 17//3 35//3
f 43//3 38//3 35//3
f 36//3 15//3 37//3
f 36//3 16//3 15//3
f 39//3 44//3 41//3
