# Blender 4.0.2
# www.blender.org
o 279bfa96032103fa128e34d97682e8677fa89596877766c546933a553dc1ad3
v -1600.000000 160.000000 -79.720421
v -1600.000000 160.000000 -61.700935
v -1600.000000 80.000000 -61.700935
v -1600.000000 80.000000 -79.720421
v -106.700935 120.000000 -1555.000000
v -61.700935 160.000000 -1600.000000
v -61.700935 120.000000 -1600.000000
v -116.700935 120.000000 -1545.000000
v -106.700935 80.000000 -1555.000000
v -116.700935 80.000000 -1545.000000
v -170.000000 120.000000 -1491.700928
v -430.000000 80.000000 -1231.700928
v -170.000000 80.000000 -1491.700928
v -430.000000 120.000000 -1231.700928
v -516.700928 120.000000 -1145.000000
v -506.700928 120.000000 -1155.000000
v -506.700928 80.000000 -1155.000000
v -516.700928 80.000000 -1145.000000
v -616.700928 120.000000 -1045.000000
v -606.700928 120.000000 -1055.000000
v -606.700928 80.000000 -1055.000000
v -616.700928 80.000000 -1045.000000
v -716.700928 120.000000 -945.000000
v -706.700928 120.000000 -955.000000
v -706.700928 80.000000 -955.000000
v -716.700928 80.000000 -945.000000
v -1030.000000 120.000000 -631.700928
v -770.000000 120.000000 -891.700928
v -770.000000 80.000000 -891.700928
v -1030.000000 80.000000 -631.700928
v -1116.700928 120.000000 -545.000000
v -1106.700928 120.000000 -555.000000
v -1106.700928 80.000000 -555.000000
v -1116.700928 80.000000 -545.000000
v -1216.700928 120.000000 -445.000000
v -1206.700928 120.000000 -455.000000
v -1206.700928 80.000000 -455.000000
v -1216.700928 80.000000 -445.000000
v -1306.700928 120.000000 -355.000000
v -1306.700928 80.000000 -355.000000
v -1316.700928 80.000000 -345.000000
v -1316.700928 120.000000 -345.000000
v -1370.000000 120.000000 -291.700928
v -1370.000000 80.000000 -291.700928
v -1370.000000 80.000000 -309.720428
v -1370.000000 120.000000 -309.720428
v -1324.720459 120.000000 -355.000000
v -1334.720459 120.000000 -345.000000
v -1334.720459 80.000000 -345.000000
v -1324.720459 80.000000 -355.000000
v -1224.720459 120.000000 -455.000000
v -1234.720459 120.000000 -445.000000
v -1234.720459 80.000000 -445.000000
v -1224.720459 80.000000 -455.000000
v -1124.720459 120.000000 -555.000000
v -1134.720459 120.000000 -545.000000
v -1134.720459 80.000000 -545.000000
v -1124.720459 80.000000 -555.000000
v -770.000000 120.000000 -909.720398
v -1034.720459 120.000000 -645.000000
v -1034.720459 80.000000 -645.000000
v -770.000000 80.000000 -909.720398
v -724.720398 120.000000 -955.000000
v -734.720398 120.000000 -945.000000
v -734.720398 80.000000 -945.000000
v -724.720398 80.000000 -955.000000
v -624.720398 120.000000 -1055.000000
v -634.720398 120.000000 -1045.000000
v -634.720398 80.000000 -1045.000000
v -624.720398 80.000000 -1055.000000
v -534.720398 120.000000 -1145.000000
v -534.720398 80.000000 -1145.000000
v -524.720398 80.000000 -1155.000000
v -524.720398 120.000000 -1155.000000
v -170.000000 120.000000 -1509.720459
v -434.720428 120.000000 -1245.000000
v -434.720428 80.000000 -1245.000000
v -170.000000 80.000000 -1509.720459
v -124.720421 120.000000 -1555.000000
v -134.720413 120.000000 -1545.000000
v -134.720413 80.000000 -1545.000000
v -124.720421 80.000000 -1555.000000
v -79.720421 160.000000 -1600.000000
v -79.720421 120.000000 -1600.000000
v -1030.000000 120.000000 -645.000000
v -1030.000000 80.000000 -645.000000
v -430.000000 120.000000 -1245.000000
v -430.000000 80.000000 -1245.000000
vn -1.0000 -0.0000 -0.0000
vn 0.7071 -0.0000 0.7071
vn -0.0000 -1.0000 -0.0000
vn -0.7071 -0.0000 -0.7071
vn -0.7071 -0.0001 -0.7071
vn -0.0000 1.0000 -0.0000
vn -0.0000 -0.0000 -1.0000
vn 1.0000 -0.0000 -0.0000
vn -0.0000 -0.0000 1.0000
s 0
f 3//1 2//1 1//1
f 4//1 3//1 1//1
f 7//2 6//2 5//2
f 9//2 5//2 8//2
f 10//2 9//2 8//2
f 5//2 6//2 8//2
f 8//2 6//2 11//2
f 13//2 11//2 12//2
f 12//2 11//2 14//2
f 11//2 6//2 14//2
f 17//2 16//2 15//2
f 18//2 17//2 15//2
f 21//2 20//2 19//2
f 22//2 21//2 19//2
f 25//2 24//2 23//2
f 26//2 25//2 23//2
f 29//2 28//2 27//2
f 30//2 29//2 27//2
f 33//2 32//2 31//2
f 34//2 33//2 31//2
f 37//2 36//2 35//2
f 38//2 37//2 35//2
f 41//2 40//2 39//2
f 41//2 39//2 42//2
f 44//2 43//2 3//2
f 3//2 43//2 2//2
f 14//2 6//2 2//2
f 16//2 14//2 2//2
f 15//2 16//2 2//2
f 20//2 15//2 2//2
f 19//2 20//2 2//2
f 24//2 19//2 2//2
f 23//2 24//2 2//2
f 28//2 23//2 2//2
f 27//2 28//2 2//2
f 32//2 27//2 2//2
f 31//2 32//2 2//2
f 36//2 31//2 2//2
f 35//2 36//2 2//2
f 39//2 35//2 2//2
f 42//2 39//2 2//2
f 43//2 42//2 2//2
f 3//3 4//3 44//3
f 44//3 4//3 45//3
f 4//4 1//4 46//4
f 45//4 4//4 46//4
f 49//4 48//4 47//4
f 50//4 49//4 47//4
f 53//4 52//4 51//4
f 54//4 53//4 51//4
f 57//4 56//4 55//4
f 58//4 57//4 55//4
f 61//4 60//4 59//4
f 62//4 61//4 59//4
f 65//4 64//4 63//4
f 66//4 65//4 63//4
f 69//4 68//4 67//4
f 70//4 69//4 67//4
f 73//4 72//4 71//4
f 73//4 71//4 74//4
f 77//4 76//4 75//4
f 78//4 77//4 75//4
f 81//4 80//4 79//4
f 82//4 81//4 79//4
f 75//4 76//4 83//4
f 79//4 80//4 83//4
f 80//4 75//4 83//4
f 84//4 79//4 83//4
f 46//4 1//4 83//4
f 48//4 46//4 83//4
f 47//4 48//4 83//4
f 52//4 47//4 83//4
f 51//4 52//4 83//4
f 56//4 51//4 83//4
f 55//4 56//4 83//4
f 60//4 55//4 83//4
f 59//4 60//4 83//4
f 64//5 59//5 83//5
f 63//4 64//4 83//4
f 68//4 63//4 83//4
f 67//4 68//4 83//4
f 71//4 67//4 83//4
f 74//4 71//4 83//4
f 76//4 74//4 83//4
f 6//6 1//6 2//6
f 6//6 83//6 1//6
f 6//7 84//7 83//7
f 6//7 7//7 84//7
f 43//8 44//8 45//8
f 46//8 43//8 45//8
f 42//3 46//3 48//3
f 43//3 46//3 42//3
f 49//9 42//9 48//9
f 49//9 41//9 42//9
f 41//3 49//3 50//3
f 41//3 50//3 40//3
f 47//7 39//7 50//7
f 39//7 40//7 50//7
f 39//3 47//3 52//3
f 39//3 52//3 35//3
f 53//9 35//9 52//9
f 53//9 38//9 35//9
f 38//3 53//3 54//3
f 38//3 54//3 37//3
f 51//7 36//7 37//7
f 51//7 37//7 54//7
f 36//3 51//3 56//3
f 31//3 36//3 56//3
f 57//9 31//9 56//9
f 57//9 34//9 31//9
f 34//3 57//3 58//3
f 34//3 58//3 33//3
f 55//7 32//7 58//7
f 32//7 33//7 58//7
f 32//3 55//3 60//3
f 27//3 60//3 85//3
f 27//3 32//3 60//3
f 85//1 86//1 30//1
f 27//1 85//1 30//1
f 30//3 86//3 29//3
f 86//3 61//3 62//3
f 29//3 86//3 62//3
f 59//8 28//8 29//8
f 59//8 29//8 62//8
f 28//3 59//3 64//3
f 28//3 64//3 23//3
f 65//9 26//9 23//9
f 65//9 23//9 64//9
f 26//3 65//3 66//3
f 26//3 66//3 25//3
f 63//7 24//7 25//7
f 63//7 25//7 66//7
f 24//3 63//3 68//3
f 24//3 68//3 19//3
f 22//9 19//9 68//9
f 69//9 22//9 68//9
f 22//3 69//3 70//3
f 22//3 70//3 21//3
f 67//7 20//7 21//7
f 67//7 21//7 70//7
f 20//3 67//3 71//3
f 20//3 71//3 15//3
f 18//9 15//9 71//9
f 72//9 18//9 71//9
f 18//3 72//3 73//3
f 18//3 73//3 17//3
f 74//7 16//7 17//7
f 74//7 17//7 73//7
f 14//3 76//3 87//3
f 16//3 74//3 76//3
f 16//3 76//3 14//3
f 87//1 88//1 12//1
f 14//1 87//1 12//1
f 12//3 88//3 13//3
f 88//3 77//3 78//3
f 13//3 88//3 78//3
f 11//8 13//8 78//8
f 75//8 11//8 78//8
f 8//3 11//3 75//3
f 8//3 75//3 80//3
f 81//9 10//9 8//9
f 81//9 8//9 80//9
f 10//3 81//3 82//3
f 10//3 82//3 9//3
f 5//7 9//7 82//7
f 79//7 5//7 82//7
f 5//3 79//3 84//3
f 5//3 84//3 7//3
f 88//9 87//9 76//9
f 77//9 88//9 76//9
f 86//9 85//9 60//9
f 61//9 86//9 60//9
