# Blender 4.0.2
# www.blender.org
o 2b0d6b1e0829cf1698de1da7e3a85125991066e9efb339343b1f864bbfca324
v -1475.914551 315.000000 -1600.000000
v -1475.914551 280.000000 -1600.000000
v -1546.625122 280.000000 -1600.000000
v -1546.625122 315.000000 -1600.000000
v -746.625183 280.000000 -800.000000
v -675.914490 280.000000 -800.000000
v -675.914490 315.000000 -800.000000
v -746.625183 315.000000 -800.000000
vn -0.0000 -0.0000 -1.0000
vn -0.0000 -1.0000 -0.0000
vn 0.7071 -0.0000 -0.7071
vn -0.0000 1.0000 -0.0000
vn -0.7071 -0.0000 0.7071
vn -0.0000 -0.0000 1.0000
s 0
f 1//1 2//1 3//1
f 1//1 3//1 4//1
f 5//2 3//2 2//2
f 6//2 5//2 2//2
f 7//3 6//3 1//3
f 1//3 6//3 2//3
f 1//4 4//4 8//4
f 1//4 8//4 7//4
f 4//5 3//5 8//5
f 8//5 3//5 5//5
f 5//6 6//6 7//6
f 8//6 5//6 7//6
