# Blender 4.0.2
# www.blender.org
o 31a2bdb94bd912723aca904e4ece1025f7e0dd24dfcc4d3900c600ef3024abc
v 1600.000000 315.000000 698.097046
v 800.000000 280.000000 -101.902962
v 800.000000 315.000000 -101.902962
v 1600.000000 280.000000 698.097046
v 1600.000000 280.000000 627.386353
v 800.000000 280.000000 -172.613632
v 1600.000000 315.000000 627.386353
v 800.000000 315.000000 -172.613632
vn -0.7071 -0.0000 0.7071
vn -0.0000 -1.0000 -0.0000
vn 1.0000 -0.0000 -0.0000
vn -0.0000 1.0000 -0.0000
vn -1.0000 -0.0000 -0.0000
vn 0.7071 -0.0000 -0.7071
s 0
f 3//1 2//1 1//1
f 1//1 2//1 4//1
f 4//2 2//2 5//2
f 5//2 2//2 6//2
f 1//3 4//3 5//3
f 1//3 5//3 7//3
f 7//4 3//4 1//4
f 8//4 3//4 7//4
f 8//5 6//5 2//5
f 8//5 2//5 3//5
f 7//6 5//6 8//6
f 8//6 5//6 6//6
