# Blender 4.0.2
# www.blender.org
o 31b20fa853de05a94004928fa21e078dd49beed11ff1f6daf989edfad376c68
v -1600.000000 315.000000 -716.116516
v -1600.000000 280.000000 -716.116516
v -1600.000000 280.000000 -786.827209
v -1600.000000 315.000000 -786.827209
v 716.116516 315.000000 1600.000000
v 786.827209 315.000000 1600.000000
v 786.827209 280.000000 1600.000000
v 716.116516 280.000000 1600.000000
vn -1.0000 -0.0000 -0.0000
vn -0.0000 1.0000 -0.0000
vn 0.7071 -0.0000 -0.7071
vn -0.0000 -1.0000 -0.0000
vn -0.7071 -0.0000 0.7071
vn -0.0000 -0.0000 1.0000
s 0
f 3//1 2//1 1//1
f 4//1 3//1 1//1
f 4//2 1//2 5//2
f 4//2 5//2 6//2
f 6//3 7//3 4//3
f 4//3 7//3 3//3
f 8//4 2//4 3//4
f 7//4 8//4 3//4
f 1//5 2//5 8//5
f 5//5 1//5 8//5
f 8//6 7//6 6//6
f 5//6 8//6 6//6
