# Blender 4.0.2
# www.blender.org
o 35822a9a204e9d51736764cb16346cb00816989bb61e8cc04a0b64347fe16d5
v -1600.000000 160.000000 -645.405823
v -1600.000000 160.000000 -627.386353
v -1600.000000 80.000000 -627.386353
v -1600.000000 80.000000 -645.405823
v -672.386353 120.000000 -1555.000000
v -627.386353 160.000000 -1600.000000
v -627.386353 120.000000 -1600.000000
v -672.386353 80.000000 -1555.000000
v -682.386353 80.000000 -1545.000000
v -682.386353 120.000000 -1545.000000
v -770.000000 120.000000 -1457.386353
v -1030.000000 120.000000 -1197.386353
v -770.000000 80.000000 -1457.386353
v -1030.000000 80.000000 -1197.386353
v -1082.386353 120.000000 -1145.000000
v -1072.386353 120.000000 -1155.000000
v -1072.386353 80.000000 -1155.000000
v -1082.386353 80.000000 -1145.000000
v -1182.386353 120.000000 -1045.000000
v -1172.386353 120.000000 -1055.000000
v -1172.386353 80.000000 -1055.000000
v -1182.386353 80.000000 -1045.000000
v -1282.386353 120.000000 -945.000000
v -1272.386353 120.000000 -955.000000
v -1272.386353 80.000000 -955.000000
v -1282.386353 80.000000 -945.000000
v -1370.000000 120.000000 -857.386353
v -1370.000000 80.000000 -857.386353
v -1370.000000 80.000000 -875.405823
v -1370.000000 120.000000 -875.405823
v -1290.405884 120.000000 -955.000000
v -1300.405884 120.000000 -945.000000
v -1300.405884 80.000000 -945.000000
v -1290.405884 80.000000 -955.000000
v -1190.405884 120.000000 -1055.000000
v -1200.405884 120.000000 -1045.000000
v -1200.405884 80.000000 -1045.000000
v -1190.405884 80.000000 -1055.000000
v -1090.405884 120.000000 -1155.000000
v -1100.405884 120.000000 -1145.000000
v -1100.405884 80.000000 -1145.000000
v -1090.405884 80.000000 -1155.000000
v -770.000000 120.000000 -1475.405884
v -1030.000000 120.000000 -1215.405884
v -1030.000000 80.000000 -1215.405884
v -770.000000 80.000000 -1475.405884
v -690.405823 120.000000 -1555.000000
v -700.405823 120.000000 -1545.000000
v -700.405823 80.000000 -1545.000000
v -690.405823 80.000000 -1555.000000
v -645.405823 160.000000 -1600.000000
v -645.405823 120.000000 -1600.000000
vn -1.0000 -0.0000 -0.0000
vn 0.7071 -0.0000 0.7071
vn -0.0000 -1.0000 -0.0000
vn -0.7071 -0.0000 -0.7071
vn -0.0000 1.0000 -0.0000
vn -0.0000 -0.0000 -1.0000
vn 1.0000 -0.0000 -0.0000
vn -0.0000 -0.0000 1.0000
s 0
f 3//1 2//1 1//1
f 4//1 3//1 1//1
f 7//2 6//2 5//2
f 9//2 8//2 5//2
f 9//2 5//2 10//2
f 5//2 6//2 10//2
f 10//2 6//2 11//2
f 13//2 11//2 12//2
f 14//2 13//2 12//2
f 17//2 16//2 15//2
f 18//2 17//2 15//2
f 21//2 20//2 19//2
f 22//2 21//2 19//2
f 25//2 24//2 23//2
f 26//2 25//2 23//2
f 28//2 27//2 3//2
f 3//2 27//2 2//2
f 11//2 6//2 2//2
f 12//2 11//2 2//2
f 16//2 12//2 2//2
f 15//2 16//2 2//2
f 20//2 15//2 2//2
f 19//2 20//2 2//2
f 24//2 19//2 2//2
f 23//2 24//2 2//2
f 27//2 23//2 2//2
f 3//3 4//3 28//3
f 28//3 4//3 29//3
f 4//4 1//4 30//4
f 29//4 4//4 30//4
f 33//4 32//4 31//4
f 34//4 33//4 31//4
f 37//4 36//4 35//4
f 38//4 37//4 35//4
f 41//4 40//4 39//4
f 42//4 41//4 39//4
f 45//4 44//4 43//4
f 46//4 45//4 43//4
f 49//4 48//4 47//4
f 50//4 49//4 47//4
f 48//4 43//4 51//4
f 52//4 47//4 51//4
f 47//4 48//4 51//4
f 30//4 1//4 51//4
f 32//4 30//4 51//4
f 31//4 32//4 51//4
f 36//4 31//4 51//4
f 35//4 36//4 51//4
f 40//4 35//4 51//4
f 39//4 40//4 51//4
f 44//4 39//4 51//4
f 43//4 44//4 51//4
f 6//5 1//5 2//5
f 6//5 51//5 1//5
f 6//6 52//6 51//6
f 6//6 7//6 52//6
f 27//7 28//7 29//7
f 30//7 27//7 29//7
f 27//3 30//3 32//3
f 23//3 27//3 32//3
f 26//8 23//8 32//8
f 33//8 26//8 32//8
f 26//3 33//3 34//3
f 26//3 34//3 25//3
f 31//6 24//6 25//6
f 31//6 25//6 34//6
f 24//3 31//3 36//3
f 24//3 36//3 19//3
f 37//8 19//8 36//8
f 37//8 22//8 19//8
f 22//3 37//3 38//3
f 22//3 38//3 21//3
f 35//6 20//6 38//6
f 20//6 21//6 38//6
f 20//3 35//3 40//3
f 15//3 20//3 40//3
f 41//8 15//8 40//8
f 41//8 18//8 15//8
f 18//3 41//3 42//3
f 18//3 42//3 17//3
f 39//6 16//6 42//6
f 16//6 17//6 42//6
f 12//3 39//3 44//3
f 16//3 39//3 12//3
f 44//1 45//1 14//1
f 12//1 44//1 14//1
f 14//3 45//3 13//3
f 13//3 45//3 46//3
f 11//7 13//7 46//7
f 43//7 11//7 46//7
f 11//3 43//3 48//3
f 10//3 11//3 48//3
f 49//8 9//8 10//8
f 49//8 10//8 48//8
f 9//3 49//3 50//3
f 9//3 50//3 8//3
f 47//6 5//6 8//6
f 47//6 8//6 50//6
f 5//3 47//3 52//3
f 7//3 5//3 52//3
