# Blender 4.0.2
# www.blender.org
o 3586bce3037c4dd77666f5a01aa3b95f0385c6ebad221b71fca7d79edcc8f21
v -910.229065 160.000000 1600.000000
v -928.248535 160.000000 1600.000000
v -928.248535 80.000000 1600.000000
v -910.229065 80.000000 1600.000000
v -770.000000 120.000000 1441.751465
v -770.000000 80.000000 1441.751465
v -683.248535 120.000000 1355.000000
v -683.248535 80.000000 1355.000000
v -673.248535 80.000000 1345.000000
v -673.248535 120.000000 1345.000000
v -583.248535 120.000000 1255.000000
v -583.248535 80.000000 1255.000000
v -573.248535 80.000000 1245.000000
v -573.248535 120.000000 1245.000000
v -483.248566 120.000000 1155.000000
v -483.248566 80.000000 1155.000000
v -473.248566 80.000000 1145.000000
v -473.248566 120.000000 1145.000000
v -170.000000 120.000000 841.751465
v -430.000000 120.000000 1101.751465
v -430.000000 80.000000 1101.751465
v -170.000000 80.000000 841.751465
v -83.248558 120.000000 755.000000
v -83.248558 80.000000 755.000000
v -73.248558 80.000000 745.000000
v -73.248558 120.000000 745.000000
v 26.751442 120.000000 645.000000
v 16.751442 120.000000 655.000000
v 16.751442 80.000000 655.000000
v 26.751442 80.000000 645.000000
v 126.751442 120.000000 545.000000
v 116.751442 120.000000 555.000000
v 116.751442 80.000000 555.000000
v 126.751442 80.000000 545.000000
v 430.000000 120.000000 241.751450
v 170.000000 120.000000 501.751434
v 170.000000 80.000000 501.751434
v 430.000000 80.000000 241.751450
v 516.751465 120.000000 155.000000
v 516.751465 80.000000 155.000000
v 526.751465 80.000000 145.000000
v 526.751465 120.000000 145.000000
v 616.751465 120.000000 55.000000
v 616.751465 80.000000 55.000000
v 626.751465 80.000000 45.000000
v 626.751465 120.000000 45.000000
v 716.751465 120.000000 -45.000000
v 716.751465 80.000000 -45.000000
v 726.751465 80.000000 -55.000000
v 726.751465 120.000000 -55.000000
v 1030.000000 120.000000 -358.248566
v 770.000000 120.000000 -98.248558
v 770.000000 80.000000 -98.248558
v 1030.000000 80.000000 -358.248566
v 1126.751465 120.000000 -455.000000
v 1116.751465 120.000000 -445.000000
v 1116.751465 80.000000 -445.000000
v 1126.751465 80.000000 -455.000000
v 1216.751465 120.000000 -545.000000
v 1216.751465 80.000000 -545.000000
v 1226.751465 80.000000 -555.000000
v 1226.751465 120.000000 -555.000000
v 1316.751465 120.000000 -645.000000
v 1316.751465 80.000000 -645.000000
v 1326.751465 80.000000 -655.000000
v 1326.751465 120.000000 -655.000000
v 1600.000000 80.000000 -928.248535
v 1370.000000 120.000000 -698.248535
v 1370.000000 80.000000 -698.248535
v 1600.000000 160.000000 -928.248535
v -770.000000 80.000000 1455.000000
v -770.000000 80.000000 1459.770874
v -770.000000 80.000000 1445.000000
v -765.229065 80.000000 1455.000000
v -755.229065 80.000000 1445.000000
v -155.229080 120.000000 845.000000
v -110.229073 160.000000 800.000000
v -110.229073 120.000000 800.000000
v -165.229080 120.000000 855.000000
v -155.229080 80.000000 845.000000
v -165.229080 80.000000 855.000000
v -170.000000 120.000000 859.770935
v -430.000000 80.000000 1119.770874
v -170.000000 80.000000 859.770935
v -430.000000 120.000000 1119.770874
v -465.229065 120.000000 1155.000000
v -455.229065 120.000000 1145.000000
v -455.229065 80.000000 1145.000000
v -465.229065 80.000000 1155.000000
v -565.229065 120.000000 1255.000000
v -555.229065 120.000000 1245.000000
v -555.229065 80.000000 1245.000000
v -565.229065 80.000000 1255.000000
v -655.229065 120.000000 1345.000000
v -655.229065 80.000000 1345.000000
v -665.229065 80.000000 1355.000000
v -665.229065 120.000000 1355.000000
v -765.229065 120.000000 1455.000000
v -755.229065 120.000000 1445.000000
v -770.000000 120.000000 1459.770874
v 800.000000 160.000000 -110.229073
v -57.537880 160.000000 800.000000
v 800.000000 160.000000 -57.537880
v 1600.000000 160.000000 -910.229065
v 1600.000000 80.000000 -910.229065
v 1370.000000 80.000000 -680.229065
v 1370.000000 120.000000 -680.229065
v 1344.770874 120.000000 -655.000000
v 1344.770874 80.000000 -655.000000
v 1334.770874 80.000000 -645.000000
v 1334.770874 120.000000 -645.000000
v 1244.770874 120.000000 -555.000000
v 1244.770874 80.000000 -555.000000
v 1234.770874 80.000000 -545.000000
v 1234.770874 120.000000 -545.000000
v 1144.770874 120.000000 -455.000000
v 1144.770874 80.000000 -455.000000
v 1134.770874 80.000000 -445.000000
v 1134.770874 120.000000 -445.000000
v 1044.770874 120.000000 -355.000000
v 1030.000000 120.000000 -355.000000
v 1030.000000 80.000000 -355.000000
v 770.000000 80.000000 -55.000000
v 770.000000 80.000000 -45.000000
v 800.000000 80.000000 -57.537880
v 770.000000 80.000000 -27.537880
v 800.000000 80.000000 -110.229073
v 1030.000000 80.000000 -345.000000
v 1030.000000 80.000000 -340.229065
v 1034.770874 80.000000 -345.000000
v 1044.770874 80.000000 -355.000000
v 770.000000 120.000000 -55.000000
v 770.000000 120.000000 -45.000000
v 770.000000 120.000000 -27.537880
v 697.462097 120.000000 45.000000
v 697.462097 80.000000 45.000000
v 687.462097 80.000000 55.000000
v 687.462097 120.000000 55.000000
v 597.462097 120.000000 145.000000
v 597.462097 80.000000 145.000000
v 587.462097 80.000000 155.000000
v 587.462097 120.000000 155.000000
v 497.462128 120.000000 245.000000
v 430.000000 120.000000 245.000000
v 430.000000 80.000000 245.000000
v 170.000000 80.000000 545.000000
v 170.000000 80.000000 555.000000
v 430.000000 80.000000 312.462128
v 170.000000 80.000000 572.462097
v 430.000000 80.000000 255.000000
v 487.462128 80.000000 255.000000
v 497.462128 80.000000 245.000000
v 170.000000 120.000000 545.000000
v 170.000000 120.000000 555.000000
v 97.462120 120.000000 645.000000
v 170.000000 120.000000 572.462097
v 97.462120 80.000000 645.000000
v 87.462120 80.000000 655.000000
v 87.462120 120.000000 655.000000
v -2.537880 120.000000 745.000000
v -2.537880 80.000000 745.000000
v -12.537880 80.000000 755.000000
v -12.537880 120.000000 755.000000
v -170.000000 120.000000 845.000000
v -57.537880 120.000000 800.000000
v -170.000000 80.000000 845.000000
v -170.000000 80.000000 855.000000
v -770.000000 120.000000 1445.000000
v -770.000000 120.000000 1455.000000
v -170.000000 120.000000 855.000000
v 1034.770874 120.000000 -345.000000
v 1030.000000 120.000000 -340.229065
v 487.462128 120.000000 255.000000
v 430.000000 120.000000 312.462128
v 1030.000000 120.000000 -345.000000
v 430.000000 120.000000 255.000000
vn -0.0000 -0.0000 1.0000
vn -0.7071 -0.0000 -0.7071
vn -0.0000 -1.0000 -0.0000
vn 0.7071 -0.0000 0.7071
vn 0.7071 -0.0001 0.7071
vn -0.0000 1.0000 -0.0000
vn 1.0000 -0.0000 -0.0000
vn -1.0000 -0.0000 -0.0000
vn -0.0000 -0.0000 -1.0000
vn 0.7071 0.0001 0.7071
s 0
f 1//1 2//1 3//1
f 1//1 3//1 4//1
f 3//2 2//2 5//2
f 6//2 3//2 5//2
f 9//2 8//2 7//2
f 5//2 2//2 7//2
f 9//2 7//2 10//2
f 7//2 2//2 10//2
f 13//2 12//2 11//2
f 13//2 11//2 14//2
f 17//2 16//2 15//2
f 17//2 15//2 18//2
f 21//2 20//2 19//2
f 22//2 21//2 19//2
f 25//2 24//2 23//2
f 25//2 23//2 26//2
f 29//2 28//2 27//2
f 30//2 29//2 27//2
f 33//2 32//2 31//2
f 34//2 33//2 31//2
f 37//2 36//2 35//2
f 38//2 37//2 35//2
f 41//2 40//2 39//2
f 41//2 39//2 42//2
f 45//2 44//2 43//2
f 45//2 43//2 46//2
f 49//2 48//2 47//2
f 49//2 47//2 50//2
f 53//2 52//2 51//2
f 54//2 53//2 51//2
f 57//2 56//2 55//2
f 58//2 57//2 55//2
f 61//2 60//2 59//2
f 61//2 59//2 62//2
f 65//2 64//2 63//2
f 65//2 63//2 66//2
f 69//2 68//2 67//2
f 67//2 68//2 70//2
f 68//2 66//2 70//2
f 66//2 63//2 70//2
f 10//2 2//2 70//2
f 11//2 10//2 70//2
f 14//2 11//2 70//2
f 15//2 14//2 70//2
f 18//2 15//2 70//2
f 20//2 18//2 70//2
f 19//2 20//2 70//2
f 23//2 19//2 70//2
f 26//2 23//2 70//2
f 28//2 26//2 70//2
f 27//2 28//2 70//2
f 32//2 27//2 70//2
f 31//2 32//2 70//2
f 36//2 31//2 70//2
f 35//2 36//2 70//2
f 39//2 35//2 70//2
f 42//2 39//2 70//2
f 43//2 42//2 70//2
f 46//2 43//2 70//2
f 47//2 46//2 70//2
f 50//2 47//2 70//2
f 52//2 50//2 70//2
f 51//2 52//2 70//2
f 56//2 51//2 70//2
f 55//2 56//2 70//2
f 59//2 55//2 70//2
f 62//2 59//2 70//2
f 63//2 62//2 70//2
f 4//3 3//3 71//3
f 72//3 4//3 71//3
f 74//3 71//3 73//3
f 71//3 3//3 73//3
f 73//3 3//3 6//3
f 74//3 73//3 75//3
f 78//4 77//4 76//4
f 80//4 76//4 79//4
f 81//4 80//4 79//4
f 76//4 77//4 79//4
f 79//4 77//4 82//4
f 84//4 82//4 83//4
f 83//4 82//4 85//4
f 82//4 77//4 85//4
f 88//4 87//4 86//4
f 89//4 88//4 86//4
f 92//4 91//4 90//4
f 93//4 92//4 90//4
f 96//4 95//4 94//4
f 96//4 94//4 97//4
f 75//4 99//4 98//4
f 74//4 75//4 98//4
f 72//4 100//4 4//4
f 100//4 98//4 1//4
f 98//4 99//4 1//4
f 4//4 100//4 1//4
f 85//4 77//4 1//4
f 87//5 85//5 1//5
f 86//4 87//4 1//4
f 91//4 86//4 1//4
f 90//4 91//4 1//4
f 94//4 90//4 1//4
f 97//4 94//4 1//4
f 99//4 97//4 1//4
f 77//6 2//6 1//6
f 101//6 77//6 102//6
f 101//6 102//6 103//6
f 70//6 101//6 104//6
f 70//6 2//6 77//6
f 70//6 77//6 101//6
f 70//7 105//7 67//7
f 70//7 104//7 105//7
f 106//3 69//3 105//3
f 105//3 69//3 67//3
f 69//8 107//8 68//8
f 69//8 106//8 107//8
f 68//3 107//3 108//3
f 68//3 108//3 66//3
f 109//9 66//9 108//9
f 109//9 65//9 66//9
f 110//3 64//3 65//3
f 110//3 65//3 109//3
f 111//1 63//1 110//1
f 63//1 64//1 110//1
f 63//3 111//3 112//3
f 63//3 112//3 62//3
f 61//9 62//9 112//9
f 113//9 61//9 112//9
f 114//3 60//3 61//3
f 114//3 61//3 113//3
f 115//1 59//1 114//1
f 59//1 60//1 114//1
f 59//3 115//3 116//3
f 59//3 116//3 55//3
f 117//9 55//9 116//9
f 117//9 58//9 55//9
f 118//3 57//3 58//3
f 118//3 58//3 117//3
f 119//1 56//1 57//1
f 119//1 57//1 118//1
f 56//3 119//3 120//3
f 56//3 120//3 51//3
f 51//3 120//3 121//3
f 54//7 51//7 121//7
f 122//7 54//7 121//7
f 124//3 49//3 123//3
f 126//3 124//3 125//3
f 124//3 123//3 125//3
f 125//3 123//3 53//3
f 125//3 53//3 127//3
f 129//3 127//3 128//3
f 130//3 128//3 122//3
f 128//3 127//3 122//3
f 122//3 127//3 54//3
f 130//3 122//3 131//3
f 49//3 124//3 48//3
f 127//3 53//3 54//3
f 52//8 123//8 132//8
f 53//8 123//8 52//8
f 52//3 132//3 50//3
f 132//9 49//9 50//9
f 123//9 49//9 132//9
f 47//1 48//1 133//1
f 133//1 48//1 124//1
f 133//3 134//3 47//3
f 47//3 134//3 135//3
f 47//3 135//3 46//3
f 135//9 45//9 46//9
f 136//9 45//9 135//9
f 44//3 45//3 137//3
f 137//3 45//3 136//3
f 43//1 44//1 138//1
f 138//1 44//1 137//1
f 43//3 138//3 139//3
f 43//3 139//3 42//3
f 140//9 41//9 42//9
f 140//9 42//9 139//9
f 40//3 41//3 141//3
f 141//3 41//3 140//3
f 39//1 40//1 141//1
f 142//1 39//1 141//1
f 39//3 142//3 143//3
f 39//3 143//3 35//3
f 35//3 143//3 144//3
f 145//7 38//7 35//7
f 145//7 35//7 144//7
f 147//3 34//3 146//3
f 149//3 147//3 148//3
f 146//3 37//3 148//3
f 147//3 146//3 148//3
f 148//3 37//3 150//3
f 150//3 37//3 145//3
f 145//3 37//3 38//3
f 150//3 145//3 151//3
f 151//3 145//3 152//3
f 34//3 147//3 33//3
f 37//8 153//8 36//8
f 37//8 146//8 153//8
f 153//3 31//3 36//3
f 153//9 146//9 31//9
f 31//9 146//9 34//9
f 33//1 147//1 154//1
f 33//1 154//1 32//1
f 155//3 27//3 32//3
f 156//3 32//3 154//3
f 156//3 155//3 32//3
f 155//9 157//9 27//9
f 27//9 157//9 30//9
f 29//3 30//3 158//3
f 158//3 30//3 157//3
f 28//1 158//1 159//1
f 29//1 158//1 28//1
f 160//3 26//3 28//3
f 160//3 28//3 159//3
f 160//9 161//9 26//9
f 26//9 161//9 25//9
f 24//3 25//3 162//3
f 162//3 25//3 161//3
f 23//1 162//1 163//1
f 24//1 162//1 23//1
f 78//3 19//3 23//3
f 76//3 164//3 19//3
f 76//3 19//3 78//3
f 165//3 78//3 23//3
f 163//3 165//3 23//3
f 164//7 166//7 22//7
f 19//7 164//7 22//7
f 83//3 21//3 84//3
f 84//3 21//3 167//3
f 81//3 167//3 166//3
f 167//3 21//3 166//3
f 166//3 21//3 22//3
f 81//3 166//3 80//3
f 20//8 21//8 83//8
f 85//8 20//8 83//8
f 87//3 18//3 20//3
f 85//3 87//3 20//3
f 18//9 87//9 88//9
f 18//9 88//9 17//9
f 89//3 16//3 17//3
f 89//3 17//3 88//3
f 89//1 86//1 15//1
f 16//1 89//1 15//1
f 91//3 14//3 15//3
f 91//3 15//3 86//3
f 14//9 91//9 92//9
f 14//9 92//9 13//9
f 93//3 12//3 13//3
f 93//3 13//3 92//3
f 93//1 90//1 11//1
f 12//1 93//1 11//1
f 94//3 10//3 11//3
f 94//3 11//3 90//3
f 94//9 95//9 9//9
f 10//9 94//9 9//9
f 96//3 8//3 9//3
f 96//3 9//3 95//3
f 96//1 97//1 7//1
f 8//1 96//1 7//1
f 99//3 168//3 5//3
f 99//3 5//3 7//3
f 99//3 7//3 97//3
f 168//7 73//7 6//7
f 5//7 168//7 6//7
f 168//9 99//9 75//9
f 168//9 75//9 73//9
f 74//1 98//1 169//1
f 71//1 74//1 169//1
f 169//7 100//7 72//7
f 169//7 72//7 71//7
f 165//1 77//1 78//1
f 102//1 77//1 165//1
f 100//3 169//3 98//3
f 170//7 82//7 84//7
f 170//7 84//7 167//7
f 82//3 170//3 79//3
f 167//1 81//1 79//1
f 167//1 79//1 170//1
f 164//9 76//9 80//9
f 164//9 80//9 166//9
f 105//4 104//4 107//4
f 106//4 105//4 107//4
f 109//4 108//4 111//4
f 110//4 109//4 111//4
f 113//4 112//4 115//4
f 114//4 113//4 115//4
f 117//4 116//4 119//4
f 118//4 117//4 119//4
f 130//4 131//4 120//4
f 130//4 120//4 171//4
f 129//4 172//4 127//4
f 127//4 172//4 101//4
f 107//4 104//4 101//4
f 108//4 107//4 101//4
f 111//4 108//4 101//4
f 112//4 111//4 101//4
f 115//4 112//4 101//4
f 116//4 115//4 101//4
f 119//4 116//4 101//4
f 120//4 119//4 101//4
f 171//4 120//4 101//4
f 172//10 171//10 101//10
f 101//7 125//7 127//7
f 101//7 103//7 125//7
f 125//4 103//4 134//4
f 126//4 125//4 134//4
f 134//4 103//4 135//4
f 136//4 135//4 138//4
f 137//4 136//4 138//4
f 135//4 103//4 138//4
f 138//4 103//4 139//4
f 140//4 139//4 142//4
f 141//4 140//4 142//4
f 152//4 143//4 173//4
f 151//4 152//4 173//4
f 148//4 174//4 149//4
f 149//4 174//4 156//4
f 157//4 155//4 159//4
f 158//4 157//4 159//4
f 162//4 161//4 160//4
f 162//4 160//4 163//4
f 160//4 159//4 102//4
f 165//4 163//4 102//4
f 159//4 155//4 102//4
f 163//4 160//4 102//4
f 139//4 103//4 102//4
f 142//4 139//4 102//4
f 143//4 142//4 102//4
f 173//4 143//4 102//4
f 174//4 173//4 102//4
f 156//4 174//4 102//4
f 155//4 156//4 102//4
f 122//9 121//9 120//9
f 131//9 122//9 120//9
f 171//1 175//1 128//1
f 171//1 128//1 130//1
f 128//7 175//7 172//7
f 129//7 128//7 172//7
f 126//8 134//8 133//8
f 124//8 126//8 133//8
f 152//9 145//9 144//9
f 152//9 144//9 143//9
f 147//8 156//8 154//8
f 147//8 149//8 156//8
f 176//1 150//1 173//1
f 173//1 150//1 151//1
f 148//7 150//7 176//7
f 148//7 176//7 174//7
f 175//3 171//3 172//3
f 176//3 173//3 174//3
