# Blender 4.0.2
# www.blender.org
o 3ae52fd31a7ff9d602ebeabb9528bc9d294351cc3f05f57ab55dda11d5fffd5
v -1600.000000 280.000000 1069.669922
v -1600.000000 280.000000 998.959229
v -1600.000000 315.000000 998.959229
v -1600.000000 315.000000 1069.669922
v -998.959229 315.000000 1600.000000
v -1069.669922 315.000000 1600.000000
v -998.959229 280.000000 1600.000000
v -1069.669922 280.000000 1600.000000
vn -1.0000 -0.0000 -0.0000
vn -0.0000 1.0000 -0.0000
vn 0.7071 -0.0000 -0.7071
vn -0.0000 -1.0000 -0.0000
vn -0.7071 -0.0000 0.7071
vn -0.0000 -0.0000 1.0000
s 0
f 3//1 2//1 1//1
f 3//1 1//1 4//1
f 5//2 3//2 4//2
f 5//2 4//2 6//2
f 5//3 7//3 2//3
f 3//3 5//3 2//3
f 1//4 2//4 7//4
f 8//4 1//4 7//4
f 4//5 1//5 6//5
f 6//5 1//5 8//5
f 8//6 7//6 5//6
f 6//6 8//6 5//6
