# Blender 4.0.2
# www.blender.org
o 41d509cc9e1fd190cec87aaed0ee02607ba2bbf7876a82a85e987973d4154d9
v -1600.000000 280.000000 1600.000000
v -1600.000000 280.000000 1564.644653
v -1600.000000 315.000000 1564.644653
v -1600.000000 315.000000 1600.000000
v -1564.644653 315.000000 1600.000000
v -1564.644653 280.000000 1600.000000
vn -1.0000 -0.0000 -0.0000
vn -0.0000 -0.0000 1.0000
vn -0.0000 1.0000 -0.0000
vn 0.7071 -0.0000 -0.7071
vn -0.0000 -1.0000 -0.0000
s 0
f 3//1 2//1 1//1
f 3//1 1//1 4//1
f 1//2 6//2 5//2
f 4//2 1//2 5//2
f 5//3 3//3 4//3
f 5//4 6//4 2//4
f 3//4 5//4 2//4
f 1//5 2//5 6//5
