# Blender 4.0.2
# www.blender.org
o 4600d2d018a78012be52d0df4ea48938a9371d6d1aa7042d55b1962f8318b7a
v -1600.000000 315.000000 980.939758
v -1600.000000 280.000000 980.939758
v -1600.000000 280.000000 910.229065
v -1600.000000 315.000000 910.229065
v -910.229065 315.000000 1600.000000
v -980.939758 315.000000 1600.000000
v -910.229065 280.000000 1600.000000
v -980.939758 280.000000 1600.000000
vn -1.0000 -0.0000 -0.0000
vn -0.0000 1.0000 -0.0000
vn 0.7071 -0.0000 -0.7071
vn -0.0000 -1.0000 -0.0000
vn -0.7071 -0.0000 0.7071
vn -0.0000 -0.0000 1.0000
s 0
f 3//1 2//1 1//1
f 4//1 3//1 1//1
f 5//2 4//2 1//2
f 5//2 1//2 6//2
f 5//3 7//3 3//3
f 4//3 5//3 3//3
f 2//4 3//4 7//4
f 8//4 2//4 7//4
f 1//5 2//5 8//5
f 6//5 1//5 8//5
f 8//6 7//6 5//6
f 6//6 8//6 5//6
