# Blender 4.0.2
# www.blender.org
o 4c2ab22cfe1f651b128be2e3ee7c36cd8ffaef74d27b28a92f3c723b94af6b7
v -1600.000000 280.000000 698.097046
v -1600.000000 280.000000 627.386353
v -1600.000000 315.000000 627.386353
v -1600.000000 315.000000 698.097046
v -627.386353 315.000000 1600.000000
v -698.097046 315.000000 1600.000000
v -627.386353 280.000000 1600.000000
v -698.097046 280.000000 1600.000000
vn -1.0000 -0.0000 -0.0000
vn -0.0000 1.0000 -0.0000
vn 0.7071 -0.0000 -0.7071
vn -0.0000 -1.0000 -0.0000
vn -0.7071 -0.0000 0.7071
vn -0.0000 -0.0000 1.0000
s 0
f 3//1 2//1 1//1
f 3//1 1//1 4//1
f 5//2 3//2 4//2
f 5//2 4//2 6//2
f 5//3 7//3 3//3
f 3//3 7//3 2//3
f 1//4 2//4 7//4
f 8//4 1//4 7//4
f 4//5 1//5 6//5
f 6//5 1//5 8//5
f 8//6 7//6 5//6
f 6//6 8//6 5//6
