# Blender 4.0.2
# www.blender.org
o 5771dcc1ed61573125bd97d0e625c13b1bbfde91f98990de096b02104e5bcb9
v -1475.914551 160.000000 1600.000000
v -1493.933960 160.000000 1600.000000
v -1493.933960 80.000000 1600.000000
v -1475.914551 80.000000 1600.000000
v 1370.000000 120.000000 -1263.933960
v 1600.000000 160.000000 -1493.933960
v 1600.000000 80.000000 -1493.933960
v 1370.000000 80.000000 -1263.933960
v 1361.066040 120.000000 -1255.000000
v 1361.066040 80.000000 -1255.000000
v 1351.066040 80.000000 -1245.000000
v 1351.066040 120.000000 -1245.000000
v 1261.066040 120.000000 -1155.000000
v 1261.066040 80.000000 -1155.000000
v 1251.066040 80.000000 -1145.000000
v 1251.066040 120.000000 -1145.000000
v 1151.066040 120.000000 -1045.000000
v 1161.066040 120.000000 -1055.000000
v 1161.066040 80.000000 -1055.000000
v 1151.066040 80.000000 -1045.000000
v 1051.066040 120.000000 -945.000000
v 1061.066040 120.000000 -955.000000
v 1061.066040 80.000000 -955.000000
v 1051.066040 80.000000 -945.000000
v 770.000000 120.000000 -663.933960
v 1030.000000 120.000000 -923.933960
v 1030.000000 80.000000 -923.933960
v 770.000000 80.000000 -663.933960
v 761.066040 120.000000 -655.000000
v 761.066040 80.000000 -655.000000
v 751.066040 80.000000 -645.000000
v 751.066040 120.000000 -645.000000
v 651.066040 120.000000 -545.000000
v 661.066040 120.000000 -555.000000
v 661.066040 80.000000 -555.000000
v 651.066040 80.000000 -545.000000
v 551.066040 120.000000 -445.000000
v 561.066040 120.000000 -455.000000
v 561.066040 80.000000 -455.000000
v 551.066040 80.000000 -445.000000
v 451.066010 120.000000 -345.000000
v 461.066010 120.000000 -355.000000
v 461.066010 80.000000 -355.000000
v 451.066010 80.000000 -345.000000
v 170.000000 120.000000 -63.933983
v 430.000000 120.000000 -323.933990
v 430.000000 80.000000 -323.933990
v 170.000000 80.000000 -63.933983
v 151.066025 120.000000 -45.000000
v 161.066025 120.000000 -55.000000
v 161.066025 80.000000 -55.000000
v 151.066025 80.000000 -45.000000
v 61.066017 120.000000 45.000000
v 61.066017 80.000000 45.000000
v 51.066017 80.000000 55.000000
v 51.066017 120.000000 55.000000
v -48.933983 120.000000 155.000000
v -38.933983 120.000000 145.000000
v -38.933983 80.000000 145.000000
v -48.933983 80.000000 155.000000
v -138.933975 120.000000 245.000000
v -138.933975 80.000000 245.000000
v -148.933975 80.000000 255.000000
v -148.933975 120.000000 255.000000
v -430.000000 120.000000 536.066040
v -170.000000 120.000000 276.066010
v -170.000000 80.000000 276.066010
v -430.000000 80.000000 536.066040
v -438.933990 120.000000 545.000000
v -438.933990 80.000000 545.000000
v -448.933990 80.000000 555.000000
v -448.933990 120.000000 555.000000
v -548.933960 120.000000 655.000000
v -538.933960 120.000000 645.000000
v -538.933960 80.000000 645.000000
v -548.933960 80.000000 655.000000
v -638.933960 120.000000 745.000000
v -638.933960 80.000000 745.000000
v -648.933960 80.000000 755.000000
v -648.933960 120.000000 755.000000
v -748.933960 120.000000 855.000000
v -738.933960 120.000000 845.000000
v -738.933960 80.000000 845.000000
v -748.933960 80.000000 855.000000
v -1030.000000 80.000000 1136.066040
v -770.000000 120.000000 876.066040
v -770.000000 80.000000 876.066040
v -1030.000000 120.000000 1136.066040
v -1048.933960 120.000000 1155.000000
v -1038.933960 120.000000 1145.000000
v -1038.933960 80.000000 1145.000000
v -1048.933960 80.000000 1155.000000
v -1148.933960 120.000000 1255.000000
v -1138.933960 120.000000 1245.000000
v -1138.933960 80.000000 1245.000000
v -1148.933960 80.000000 1255.000000
v -1238.933960 120.000000 1345.000000
v -1238.933960 80.000000 1345.000000
v -1248.933960 80.000000 1355.000000
v -1248.933960 120.000000 1355.000000
v -1348.933960 120.000000 1455.000000
v -1338.933960 120.000000 1445.000000
v -1338.933960 80.000000 1445.000000
v -1348.933960 80.000000 1455.000000
v -1370.000000 120.000000 1476.066040
v -1370.000000 80.000000 1476.066040
v -1370.000000 80.000000 1494.085449
v -720.914490 120.000000 845.000000
v -675.914490 160.000000 800.000000
v -675.914490 120.000000 800.000000
v -720.914490 80.000000 845.000000
v -730.914490 80.000000 855.000000
v -730.914490 120.000000 855.000000
v -770.000000 120.000000 894.085510
v -1030.914551 120.000000 1155.000000
v -770.000000 80.000000 894.085510
v -1030.914551 80.000000 1155.000000
v -1130.914551 120.000000 1255.000000
v -1120.914551 120.000000 1245.000000
v -1120.914551 80.000000 1245.000000
v -1130.914551 80.000000 1255.000000
v -1230.914551 120.000000 1355.000000
v -1220.914551 120.000000 1345.000000
v -1220.914551 80.000000 1345.000000
v -1230.914551 80.000000 1355.000000
v -1330.914551 120.000000 1455.000000
v -1320.914551 120.000000 1445.000000
v -1320.914551 80.000000 1445.000000
v -1330.914551 80.000000 1455.000000
v -1370.000000 120.000000 1494.085449
v 800.000000 160.000000 -675.914490
v -623.223328 160.000000 800.000000
v 800.000000 160.000000 -623.223328
v 1600.000000 160.000000 -1475.914551
v 1600.000000 80.000000 -1475.914551
v -1030.000000 80.000000 1145.000000
v -1030.000000 120.000000 1145.000000
v -623.223328 120.000000 800.000000
v -578.223328 120.000000 755.000000
v -578.223328 80.000000 755.000000
v -568.223328 80.000000 745.000000
v -568.223328 120.000000 745.000000
v -478.223297 120.000000 655.000000
v -478.223297 80.000000 655.000000
v -468.223297 80.000000 645.000000
v -468.223297 120.000000 645.000000
v -430.000000 120.000000 606.776672
v -430.000000 120.000000 555.000000
v -430.000000 80.000000 555.000000
v -430.000000 80.000000 545.000000
v -170.000000 80.000000 345.000000
v -430.000000 80.000000 606.776672
v -168.223297 80.000000 345.000000
v -430.000000 120.000000 545.000000
v -170.000000 120.000000 345.000000
v -168.223297 120.000000 345.000000
v -78.223305 120.000000 255.000000
v -78.223305 80.000000 255.000000
v -68.223305 80.000000 245.000000
v -68.223305 120.000000 245.000000
v 21.776695 120.000000 155.000000
v 21.776695 80.000000 155.000000
v 31.776695 80.000000 145.000000
v 31.776695 120.000000 145.000000
v 121.776695 120.000000 55.000000
v 121.776695 80.000000 55.000000
v 131.776703 80.000000 45.000000
v 131.776703 120.000000 45.000000
v 170.000000 120.000000 6.776695
v 170.000000 120.000000 -45.000000
v 170.000000 80.000000 -45.000000
v 170.000000 80.000000 -55.000000
v 430.000000 80.000000 -255.000000
v 170.000000 80.000000 6.776695
v 431.776703 80.000000 -255.000000
v 170.000000 120.000000 -55.000000
v 430.000000 120.000000 -255.000000
v 431.776703 120.000000 -255.000000
v 521.776672 120.000000 -345.000000
v 521.776672 80.000000 -345.000000
v 531.776672 80.000000 -355.000000
v 531.776672 120.000000 -355.000000
v 621.776672 120.000000 -445.000000
v 621.776672 80.000000 -445.000000
v 631.776672 80.000000 -455.000000
v 631.776672 120.000000 -455.000000
v 721.776672 120.000000 -545.000000
v 721.776672 80.000000 -545.000000
v 731.776672 80.000000 -555.000000
v 731.776672 120.000000 -555.000000
v 770.000000 120.000000 -593.223328
v 770.000000 120.000000 -645.000000
v 770.000000 80.000000 -645.000000
v 800.000000 80.000000 -623.223328
v 770.000000 80.000000 -593.223328
v 770.000000 80.000000 -655.000000
v 800.000000 80.000000 -675.914490
v 1030.000000 80.000000 -905.914490
v 770.000000 120.000000 -655.000000
v 1030.000000 120.000000 -905.914490
v 1069.085449 120.000000 -945.000000
v 1069.085449 80.000000 -945.000000
v 1079.085449 80.000000 -955.000000
v 1079.085449 120.000000 -955.000000
v 1169.085449 120.000000 -1045.000000
v 1169.085449 80.000000 -1045.000000
v 1179.085449 80.000000 -1055.000000
v 1179.085449 120.000000 -1055.000000
v 1269.085449 120.000000 -1145.000000
v 1269.085449 80.000000 -1145.000000
v 1279.085449 80.000000 -1155.000000
v 1279.085449 120.000000 -1155.000000
v 1369.085449 120.000000 -1245.000000
v 1369.085449 80.000000 -1245.000000
v 1370.000000 80.000000 -1255.000000
v 1370.000000 120.000000 -1255.000000
vn -0.0000 -0.0000 1.0000
vn -0.7071 -0.0000 -0.7071
vn -0.7071 -0.0001 -0.7071
vn -0.7072 0.0001 -0.7071
vn -0.7071 0.0001 -0.7071
vn -0.7071 -0.0005 -0.7071
vn -0.7071 -0.0002 -0.7071
vn -0.0000 -1.0000 -0.0000
vn 0.7071 -0.0000 0.7071
vn -0.0000 1.0000 -0.0000
vn 1.0000 -0.0000 -0.0000
vn -0.0000 -0.0000 -1.0000
vn -1.0000 -0.0000 -0.0000
s 0
f 1//1 2//1 3//1
f 1//1 3//1 4//1
f 5//2 6//2 7//2
f 5//2 7//2 8//2
f 9//2 10//2 11//2
f 9//2 6//2 5//2
f 12//2 9//2 11//2
f 12//2 6//2 9//2
f 13//2 14//2 15//2
f 13//2 6//2 12//2
f 16//2 13//2 15//2
f 17//2 18//2 19//2
f 17//2 19//2 20//2
f 21//2 22//2 23//2
f 21//2 23//2 24//2
f 25//2 26//2 27//2
f 25//2 27//2 28//2
f 29//2 30//2 31//2
f 32//2 29//2 31//2
f 33//2 34//2 35//2
f 33//2 35//2 36//2
f 37//2 38//2 39//2
f 37//2 39//2 40//2
f 41//2 42//2 43//2
f 41//2 43//2 44//2
f 45//2 46//2 47//2
f 45//2 47//2 48//2
f 49//2 50//2 51//2
f 49//2 51//2 52//2
f 53//2 54//2 55//2
f 56//2 53//2 55//2
f 57//2 58//2 59//2
f 57//2 59//2 60//2
f 61//2 62//2 63//2
f 64//2 61//2 63//2
f 65//2 66//2 67//2
f 65//2 67//2 68//2
f 69//2 70//2 71//2
f 72//2 69//2 71//2
f 73//2 74//2 75//2
f 73//2 75//2 76//2
f 77//2 78//2 79//2
f 80//2 77//2 79//2
f 81//2 82//2 83//2
f 81//2 83//2 84//2
f 85//2 86//2 87//2
f 88//2 86//2 85//2
f 89//2 90//2 91//2
f 89//2 91//2 92//2
f 93//2 94//2 95//2
f 93//2 95//2 96//2
f 97//2 98//2 99//2
f 100//2 97//2 99//2
f 101//2 102//2 103//2
f 101//2 103//2 104//2
f 3//2 105//2 106//2
f 2//2 105//2 3//2
f 2//2 102//2 101//2
f 2//2 93//2 97//2
f 2//2 100//2 102//2
f 2//2 97//2 100//2
f 2//2 101//2 105//2
f 2//2 6//2 13//2
f 2//2 13//2 16//2
f 2//2 16//2 18//2
f 2//2 18//2 17//2
f 2//2 17//2 22//2
f 2//2 22//2 21//2
f 2//3 21//3 26//3
f 2//2 26//2 25//2
f 2//4 25//4 29//4
f 2//2 29//2 32//2
f 2//2 32//2 34//2
f 2//2 34//2 33//2
f 2//2 33//2 38//2
f 2//2 38//2 37//2
f 2//2 37//2 42//2
f 2//2 42//2 41//2
f 2//2 41//2 46//2
f 2//2 46//2 45//2
f 2//5 45//5 50//5
f 2//2 50//2 49//2
f 2//2 49//2 53//2
f 2//2 53//2 56//2
f 2//2 56//2 58//2
f 2//2 58//2 57//2
f 2//2 57//2 61//2
f 2//2 61//2 64//2
f 2//2 64//2 66//2
f 2//2 66//2 65//2
f 2//6 65//6 69//6
f 2//2 69//2 72//2
f 2//2 72//2 74//2
f 2//2 74//2 73//2
f 2//2 73//2 77//2
f 2//2 77//2 80//2
f 2//2 80//2 82//2
f 2//2 82//2 81//2
f 2//2 81//2 86//2
f 2//2 86//2 88//2
f 2//7 88//7 90//7
f 2//2 90//2 89//2
f 2//2 89//2 94//2
f 2//2 94//2 93//2
f 4//8 3//8 107//8
f 107//8 3//8 106//8
f 110//9 109//9 108//9
f 112//9 111//9 108//9
f 112//9 108//9 113//9
f 108//9 109//9 113//9
f 113//9 109//9 114//9
f 116//9 114//9 115//9
f 117//9 116//9 115//9
f 120//9 119//9 118//9
f 121//9 120//9 118//9
f 124//9 123//9 122//9
f 125//9 124//9 122//9
f 128//9 127//9 126//9
f 129//9 128//9 126//9
f 107//9 130//9 4//9
f 130//9 126//9 1//9
f 126//9 127//9 1//9
f 4//9 130//9 1//9
f 114//9 109//9 1//9
f 115//9 114//9 1//9
f 119//9 115//9 1//9
f 118//9 119//9 1//9
f 123//9 118//9 1//9
f 122//9 123//9 1//9
f 127//9 122//9 1//9
f 109//10 2//10 1//10
f 131//10 109//10 132//10
f 131//10 132//10 133//10
f 6//10 131//10 134//10
f 6//10 2//10 109//10
f 6//10 109//10 131//10
f 6//11 135//11 7//11
f 6//11 134//11 135//11
f 130//11 107//11 106//11
f 105//11 130//11 106//11
f 130//8 105//8 101//8
f 126//8 130//8 101//8
f 104//1 126//1 101//1
f 104//1 129//1 126//1
f 129//8 104//8 103//8
f 129//8 103//8 128//8
f 102//12 127//12 103//12
f 127//12 128//12 103//12
f 127//8 102//8 100//8
f 127//8 100//8 122//8
f 99//1 122//1 100//1
f 99//1 125//1 122//1
f 125//8 99//8 98//8
f 125//8 98//8 124//8
f 97//12 123//12 98//12
f 123//12 124//12 98//12
f 123//8 97//8 93//8
f 118//8 123//8 93//8
f 96//1 118//1 93//1
f 96//1 121//1 118//1
f 121//8 96//8 95//8
f 121//8 95//8 120//8
f 94//12 119//12 95//12
f 119//12 120//12 95//12
f 119//8 94//8 89//8
f 115//8 119//8 89//8
f 92//1 115//1 89//1
f 92//1 117//1 115//1
f 117//8 92//8 91//8
f 117//8 91//8 136//8
f 136//8 85//8 116//8
f 117//8 136//8 116//8
f 116//8 85//8 87//8
f 90//12 137//12 136//12
f 90//12 136//12 91//12
f 137//8 90//8 88//8
f 88//13 85//13 136//13
f 137//13 88//13 136//13
f 86//11 114//11 116//11
f 86//11 116//11 87//11
f 114//8 86//8 81//8
f 113//8 114//8 81//8
f 84//1 112//1 113//1
f 84//1 113//1 81//1
f 112//8 84//8 83//8
f 112//8 83//8 111//8
f 108//12 111//12 83//12
f 82//12 108//12 83//12
f 110//8 82//8 80//8
f 108//8 82//8 110//8
f 138//8 110//8 80//8
f 139//8 138//8 80//8
f 80//1 140//1 139//1
f 79//1 140//1 80//1
f 79//8 78//8 140//8
f 140//8 78//8 141//8
f 142//12 141//12 77//12
f 77//12 141//12 78//12
f 142//8 77//8 73//8
f 142//8 73//8 143//8
f 73//1 144//1 143//1
f 76//1 144//1 73//1
f 76//8 75//8 144//8
f 144//8 75//8 145//8
f 146//12 145//12 75//12
f 74//12 146//12 75//12
f 146//8 74//8 72//8
f 147//8 72//8 148//8
f 147//8 146//8 72//8
f 71//1 149//1 148//1
f 71//1 148//1 72//1
f 149//8 71//8 70//8
f 149//8 70//8 150//8
f 152//8 149//8 151//8
f 150//8 68//8 151//8
f 149//8 150//8 151//8
f 152//8 151//8 153//8
f 151//8 68//8 67//8
f 154//12 150//12 70//12
f 69//12 154//12 70//12
f 154//8 69//8 65//8
f 154//13 65//13 68//13
f 154//13 68//13 150//13
f 155//11 151//11 67//11
f 66//11 155//11 67//11
f 156//8 155//8 66//8
f 156//8 66//8 64//8
f 157//8 156//8 64//8
f 64//1 158//1 157//1
f 63//1 158//1 64//1
f 63//8 62//8 158//8
f 158//8 62//8 159//8
f 160//12 159//12 61//12
f 61//12 159//12 62//12
f 160//8 61//8 57//8
f 161//8 160//8 57//8
f 57//1 162//1 161//1
f 60//1 162//1 57//1
f 60//8 59//8 162//8
f 162//8 59//8 163//8
f 164//12 163//12 58//12
f 58//12 163//12 59//12
f 164//8 58//8 56//8
f 164//8 56//8 165//8
f 56//1 166//1 165//1
f 55//1 166//1 56//1
f 55//8 54//8 166//8
f 166//8 54//8 167//8
f 168//12 167//12 53//12
f 53//12 167//12 54//12
f 169//8 49//8 170//8
f 168//8 53//8 49//8
f 168//8 49//8 169//8
f 171//1 170//1 49//1
f 52//1 171//1 49//1
f 171//8 52//8 51//8
f 171//8 51//8 172//8
f 174//8 171//8 173//8
f 172//8 48//8 173//8
f 171//8 172//8 173//8
f 174//8 173//8 175//8
f 173//8 48//8 47//8
f 176//12 172//12 51//12
f 50//12 176//12 51//12
f 176//8 50//8 45//8
f 48//13 176//13 45//13
f 48//13 172//13 176//13
f 173//11 47//11 46//11
f 173//11 46//11 177//11
f 41//8 179//8 178//8
f 46//8 41//8 178//8
f 46//8 178//8 177//8
f 41//1 44//1 179//1
f 179//1 44//1 180//1
f 44//8 43//8 180//8
f 180//8 43//8 181//8
f 181//12 43//12 42//12
f 181//12 42//12 182//12
f 37//8 183//8 182//8
f 37//8 182//8 42//8
f 37//1 40//1 184//1
f 183//1 37//1 184//1
f 40//8 39//8 184//8
f 184//8 39//8 185//8
f 186//12 39//12 38//12
f 185//12 39//12 186//12
f 33//8 187//8 186//8
f 33//8 186//8 38//8
f 33//1 36//1 188//1
f 187//1 33//1 188//1
f 36//8 35//8 188//8
f 188//8 35//8 189//8
f 189//12 35//12 34//12
f 189//12 34//12 190//12
f 32//8 192//8 191//8
f 32//8 191//8 190//8
f 32//8 190//8 34//8
f 32//1 31//1 193//1
f 192//1 32//1 193//1
f 193//8 31//8 30//8
f 195//8 193//8 194//8
f 193//8 30//8 196//8
f 196//8 28//8 197//8
f 194//8 193//8 197//8
f 193//8 196//8 197//8
f 198//8 197//8 27//8
f 197//8 28//8 27//8
f 196//12 30//12 29//12
f 196//12 29//12 199//12
f 25//8 199//8 29//8
f 28//13 199//13 25//13
f 28//13 196//13 199//13
f 198//11 27//11 26//11
f 198//11 26//11 200//11
f 21//8 201//8 200//8
f 26//8 21//8 200//8
f 201//1 21//1 24//1
f 201//1 24//1 202//1
f 202//8 24//8 23//8
f 202//8 23//8 203//8
f 23//12 22//12 204//12
f 203//12 23//12 204//12
f 17//8 205//8 204//8
f 17//8 204//8 22//8
f 205//1 17//1 20//1
f 205//1 20//1 206//1
f 206//8 20//8 19//8
f 206//8 19//8 207//8
f 19//12 18//12 208//12
f 207//12 19//12 208//12
f 16//8 209//8 208//8
f 16//8 208//8 18//8
f 209//1 16//1 15//1
f 209//1 15//1 210//1
f 210//8 15//8 14//8
f 210//8 14//8 211//8
f 14//12 13//12 212//12
f 211//12 14//12 212//12
f 12//8 213//8 212//8
f 12//8 212//8 13//8
f 213//1 12//1 11//1
f 213//1 11//1 214//1
f 214//8 11//8 10//8
f 214//8 10//8 215//8
f 215//8 8//8 135//8
f 214//8 215//8 135//8
f 135//8 8//8 7//8
f 215//12 9//12 216//12
f 215//12 10//12 9//12
f 5//8 216//8 9//8
f 8//13 216//13 5//13
f 8//13 215//13 216//13
f 132//1 109//1 110//1
f 132//1 110//1 138//1
f 135//9 134//9 213//9
f 214//9 135//9 213//9
f 211//9 212//9 209//9
f 210//9 211//9 209//9
f 206//9 207//9 208//9
f 206//9 208//9 205//9
f 203//9 204//9 201//9
f 202//9 203//9 201//9
f 198//9 200//9 197//9
f 197//9 200//9 131//9
f 213//9 134//9 131//9
f 212//9 213//9 131//9
f 209//9 212//9 131//9
f 208//9 209//9 131//9
f 205//9 208//9 131//9
f 204//9 205//9 131//9
f 201//9 204//9 131//9
f 200//9 201//9 131//9
f 133//11 194//11 197//11
f 131//11 133//11 197//11
f 194//9 133//9 191//9
f 195//9 194//9 191//9
f 188//9 189//9 190//9
f 191//9 133//9 190//9
f 188//9 190//9 187//9
f 190//9 133//9 187//9
f 187//9 133//9 186//9
f 185//9 186//9 183//9
f 184//9 185//9 183//9
f 186//9 133//9 183//9
f 181//9 182//9 179//9
f 180//9 181//9 179//9
f 175//9 178//9 169//9
f 174//9 175//9 169//9
f 166//9 167//9 168//9
f 166//9 168//9 165//9
f 162//9 163//9 164//9
f 162//9 164//9 161//9
f 158//9 159//9 160//9
f 158//9 160//9 157//9
f 153//9 156//9 152//9
f 152//9 156//9 147//9
f 145//9 146//9 143//9
f 144//9 145//9 143//9
f 141//9 142//9 139//9
f 140//9 141//9 139//9
f 143//9 146//9 132//9
f 139//9 142//9 132//9
f 146//9 147//9 132//9
f 142//9 143//9 132//9
f 138//9 139//9 132//9
f 183//9 133//9 132//9
f 182//9 183//9 132//9
f 179//9 182//9 132//9
f 178//9 179//9 132//9
f 169//9 178//9 132//9
f 168//9 169//9 132//9
f 165//9 168//9 132//9
f 164//9 165//9 132//9
f 161//9 164//9 132//9
f 160//9 161//9 132//9
f 157//9 160//9 132//9
f 156//9 157//9 132//9
f 147//9 156//9 132//9
f 148//13 149//13 152//13
f 147//13 148//13 152//13
f 155//12 156//12 153//12
f 155//12 153//12 151//12
f 171//13 169//13 170//13
f 171//13 174//13 169//13
f 175//12 173//12 177//12
f 175//12 177//12 178//12
f 193//13 191//13 192//13
f 193//13 195//13 191//13
