# Blender 4.0.2
# www.blender.org
o 5f016fca5ad3cd729bd68d4b26dffddcd1f23fa76f73ad5de6e9f66ac7ddb66
v 775.000000 120.000000 1586.736694
v 775.000000 80.000000 1477.476929
v 775.000000 120.000000 1477.476929
v 775.000000 80.000000 1586.736694
v 1375.000000 120.000000 877.476929
v 1600.000000 160.000000 652.476929
v 1600.000000 80.000000 652.476929
v 1375.000000 80.000000 877.476929
v 1025.000000 120.000000 1227.476929
v 1025.000000 80.000000 1227.476929
v 652.476929 160.000000 1600.000000
v 770.000000 120.000000 1482.476929
v 707.476929 120.000000 1545.000000
v 697.476929 120.000000 1555.000000
v 652.476929 120.000000 1600.000000
v 1370.000000 120.000000 882.476929
v 1307.476929 120.000000 945.000000
v 1297.476929 120.000000 955.000000
v 1207.476929 120.000000 1045.000000
v 1197.476929 120.000000 1055.000000
v 1107.476929 120.000000 1145.000000
v 1097.476929 120.000000 1155.000000
v 1030.000000 120.000000 1222.476929
v 770.000000 120.000000 1555.000000
v 770.000000 120.000000 1591.736694
v 770.000000 120.000000 1545.000000
v 761.736633 160.000000 1600.000000
v 761.736633 120.000000 1600.000000
v 1025.000000 120.000000 1336.736694
v 1025.000000 80.000000 1336.736694
v 1600.000000 80.000000 761.736633
v 1375.000000 120.000000 986.736633
v 1375.000000 80.000000 986.736633
v 1600.000000 160.000000 761.736633
v 1030.000000 120.000000 1331.736694
v 1106.736694 120.000000 1255.000000
v 1116.736694 120.000000 1245.000000
v 1206.736694 120.000000 1155.000000
v 1216.736694 120.000000 1145.000000
v 1306.736694 120.000000 1055.000000
v 1316.736694 120.000000 1045.000000
v 1370.000000 120.000000 991.736633
v 770.000000 80.000000 1555.000000
v 770.000000 80.000000 1598.807739
v 770.000000 80.000000 1545.000000
v 700.405823 80.000000 1545.000000
v 770.000000 80.000000 1475.405884
v 1030.000000 80.000000 1338.807739
v 1030.000000 80.000000 1255.000000
v 1030.000000 80.000000 1245.000000
v 1030.000000 80.000000 1215.405884
v 1113.807739 80.000000 1255.000000
v 690.405823 80.000000 1555.000000
v 1123.807739 80.000000 1245.000000
v 1600.000000 160.000000 645.405823
v 645.405823 160.000000 1600.000000
v 645.405823 120.000000 1600.000000
v 690.405823 120.000000 1555.000000
v 770.000000 120.000000 1475.405884
v 700.405823 120.000000 1545.000000
v 1030.000000 120.000000 1255.000000
v 1030.000000 120.000000 1245.000000
v 1090.405884 120.000000 1155.000000
v 1030.000000 120.000000 1215.405884
v 1190.405884 120.000000 1055.000000
v 1100.405884 120.000000 1145.000000
v 1290.405884 120.000000 955.000000
v 1200.405884 120.000000 1045.000000
v 1370.000000 120.000000 955.000000
v 1370.000000 120.000000 945.000000
v 1370.000000 120.000000 875.405823
v 1300.405884 120.000000 945.000000
v 1370.000000 80.000000 955.000000
v 1370.000000 80.000000 998.807739
v 1370.000000 80.000000 945.000000
v 1300.405884 80.000000 945.000000
v 1370.000000 80.000000 875.405823
v 1600.000000 80.000000 768.807739
v 1600.000000 80.000000 645.405823
v 1290.405884 80.000000 955.000000
v 770.000000 120.000000 1598.807739
v 1323.807739 120.000000 1045.000000
v 1370.000000 120.000000 998.807739
v 1223.807739 120.000000 1145.000000
v 1313.807739 120.000000 1055.000000
v 1123.807739 120.000000 1245.000000
v 1213.807739 120.000000 1155.000000
v 1030.000000 120.000000 1338.807739
v 1113.807739 120.000000 1255.000000
v 768.807739 120.000000 1600.000000
v 768.807739 160.000000 1600.000000
v 1600.000000 160.000000 768.807739
v 1090.405884 80.000000 1155.000000
v 1100.405884 80.000000 1145.000000
v 1190.405884 80.000000 1055.000000
v 1200.405884 80.000000 1045.000000
v 1213.807739 80.000000 1155.000000
v 1223.807739 80.000000 1145.000000
v 1313.807739 80.000000 1055.000000
v 1323.807739 80.000000 1045.000000
vn 1.0000 -0.0000 -0.0000
vn 0.7071 -0.0000 0.7071
vn 0.7071 -0.0004 0.7071
vn -0.0000 1.0000 -0.0000
vn -0.7071 -0.0000 -0.7071
vn -0.7071 -0.0001 -0.7071
vn -0.0000 -1.0000 -0.0000
vn -0.0000 -0.0000 1.0000
vn -1.0000 -0.0000 -0.0000
vn -0.0000 -0.0000 -1.0000
s 0
f 1//1 2//1 3//1
f 4//1 2//1 1//1
f 7//2 6//2 5//2
f 8//2 7//2 5//2
f 10//2 9//2 2//2
f 2//2 9//2 3//2
f 12//2 3//2 11//2
f 13//2 12//2 11//2
f 14//2 13//2 11//2
f 15//2 14//2 11//2
f 5//2 6//2 11//2
f 16//3 5//3 11//3
f 17//2 16//2 11//2
f 18//2 17//2 11//2
f 19//2 18//2 11//2
f 20//2 19//2 11//2
f 21//2 20//2 11//2
f 22//2 21//2 11//2
f 23//2 22//2 11//2
f 9//3 23//3 11//3
f 3//2 9//2 11//2
f 25//4 1//4 24//4
f 12//4 26//4 3//4
f 24//4 26//4 13//4
f 13//4 14//4 24//4
f 24//4 1//4 3//4
f 26//4 24//4 3//4
f 25//5 28//5 27//5
f 1//5 25//5 27//5
f 4//5 1//5 29//5
f 30//5 4//5 29//5
f 1//5 27//5 29//5
f 33//5 32//5 31//5
f 31//5 32//5 34//5
f 29//5 27//5 34//5
f 35//5 29//5 34//5
f 36//5 35//5 34//5
f 37//5 36//5 34//5
f 38//5 37//5 34//5
f 39//5 38//5 34//5
f 40//5 39//5 34//5
f 41//5 40//5 34//5
f 42//5 41//5 34//5
f 32//6 42//6 34//6
f 4//7 44//7 43//7
f 43//7 46//7 45//7
f 4//7 43//7 45//7
f 45//7 47//7 2//7
f 44//7 4//7 48//7
f 48//7 30//7 49//7
f 50//7 49//7 10//7
f 50//7 10//7 51//7
f 49//7 50//7 52//7
f 46//7 43//7 53//7
f 52//7 50//7 54//7
f 10//7 47//7 51//7
f 45//7 2//7 4//7
f 47//7 10//7 2//7
f 49//7 30//7 10//7
f 48//7 4//7 30//7
f 11//4 6//4 55//4
f 56//4 11//4 55//4
f 56//8 57//8 11//8
f 57//8 15//8 11//8
f 58//7 14//7 15//7
f 58//7 15//7 57//7
f 59//7 12//7 13//7
f 59//7 13//7 60//7
f 10//9 30//9 29//9
f 10//9 29//9 9//9
f 29//4 35//4 61//4
f 61//4 36//4 62//4
f 61//4 62//4 9//4
f 9//4 62//4 23//4
f 61//4 9//4 29//4
f 36//4 37//4 62//4
f 63//7 22//7 23//7
f 64//7 63//7 23//7
f 22//4 38//4 21//4
f 38//4 39//4 21//4
f 65//7 20//7 21//7
f 65//7 21//7 66//7
f 40//4 41//4 19//4
f 40//4 19//4 20//4
f 67//7 18//7 19//7
f 67//7 19//7 68//7
f 42//4 32//4 69//4
f 16//4 70//4 5//4
f 69//4 70//4 17//4
f 17//4 18//4 69//4
f 69//4 32//4 5//4
f 70//4 69//4 5//4
f 71//7 16//7 17//7
f 71//7 17//7 72//7
f 32//1 8//1 5//1
f 33//1 8//1 32//1
f 33//7 74//7 73//7
f 73//7 76//7 75//7
f 33//7 73//7 75//7
f 75//7 77//7 8//7
f 74//7 33//7 78//7
f 7//7 77//7 79//7
f 76//7 73//7 80//7
f 78//7 33//7 31//7
f 75//7 8//7 33//7
f 77//7 7//7 8//7
f 7//1 79//1 6//1
f 6//1 79//1 55//1
f 12//9 45//9 26//9
f 47//9 12//9 59//9
f 47//9 45//9 12//9
f 46//10 60//10 13//10
f 45//10 13//10 26//10
f 45//10 46//10 13//10
f 14//8 58//8 53//8
f 24//8 14//8 43//8
f 14//8 53//8 43//8
f 25//9 24//9 43//9
f 81//9 25//9 44//9
f 25//9 43//9 44//9
f 83//7 82//7 41//7
f 42//7 83//7 41//7
f 40//7 85//7 84//7
f 40//7 84//7 39//7
f 38//7 87//7 86//7
f 38//7 86//7 37//7
f 36//7 89//7 88//7
f 35//7 36//7 88//7
f 25//7 90//7 28//7
f 25//7 81//7 90//7
f 28//8 90//8 91//8
f 27//8 28//8 91//8
f 91//4 92//4 34//4
f 27//4 91//4 34//4
f 92//1 78//1 34//1
f 78//1 31//1 34//1
f 57//5 56//5 58//5
f 53//5 58//5 60//5
f 46//5 53//5 60//5
f 58//5 56//5 60//5
f 60//5 56//5 59//5
f 47//5 59//5 64//5
f 51//5 47//5 64//5
f 94//5 93//5 63//5
f 94//5 63//5 66//5
f 95//5 65//5 68//5
f 96//5 95//5 68//5
f 80//5 67//5 72//5
f 76//5 80//5 72//5
f 77//5 71//5 79//5
f 79//5 71//5 55//5
f 59//5 56//5 55//5
f 64//5 59//5 55//5
f 63//5 64//5 55//5
f 66//5 63//5 55//5
f 65//5 66//5 55//5
f 68//5 65//5 55//5
f 67//5 68//5 55//5
f 72//5 67//5 55//5
f 71//5 72//5 55//5
f 91//2 90//2 81//2
f 48//2 81//2 44//2
f 88//2 91//2 81//2
f 88//2 81//2 48//2
f 89//2 52//2 54//2
f 86//2 89//2 54//2
f 84//2 87//2 97//2
f 84//2 97//2 98//2
f 85//2 99//2 100//2
f 82//2 85//2 100//2
f 78//2 83//2 74//2
f 92//2 83//2 78//2
f 92//2 91//2 88//2
f 92//2 88//2 89//2
f 92//2 89//2 86//2
f 92//2 86//2 87//2
f 92//2 87//2 84//2
f 92//2 84//2 85//2
f 92//2 85//2 82//2
f 92//2 82//2 83//2
f 35//1 49//1 61//1
f 48//1 35//1 88//1
f 48//1 49//1 35//1
f 51//1 64//1 23//1
f 50//1 23//1 62//1
f 50//1 51//1 23//1
f 61//8 49//8 36//8
f 89//8 36//8 52//8
f 36//8 49//8 52//8
f 37//10 50//10 62//10
f 54//10 37//10 86//10
f 54//10 50//10 37//10
f 22//8 63//8 93//8
f 38//8 22//8 97//8
f 87//8 38//8 97//8
f 22//8 93//8 97//8
f 94//10 66//10 21//10
f 98//10 21//10 39//10
f 98//10 39//10 84//10
f 98//10 94//10 21//10
f 20//8 65//8 95//8
f 40//8 20//8 99//8
f 85//8 40//8 99//8
f 20//8 95//8 99//8
f 96//10 68//10 19//10
f 100//10 19//10 41//10
f 100//10 41//10 82//10
f 100//10 96//10 19//10
f 18//8 67//8 80//8
f 69//8 18//8 73//8
f 18//8 80//8 73//8
f 74//9 83//9 42//9
f 73//9 42//9 69//9
f 73//9 74//9 42//9
f 16//9 75//9 70//9
f 77//9 16//9 71//9
f 77//9 75//9 16//9
f 76//10 72//10 17//10
f 75//10 17//10 70//10
f 75//10 76//10 17//10
f 95//7 96//7 99//7
f 99//7 96//7 100//7
f 93//7 94//7 97//7
f 97//7 94//7 98//7
