# Blender 4.0.2
# www.blender.org
o 5f059960b0b7079a119958e6c0007e1f1bb2b23c0aed8490bf6c4913aac96c7
v -485.964996 160.000000 1600.000000
v -503.984497 120.000000 1600.000000
v -503.984497 160.000000 1600.000000
v -485.964996 120.000000 1600.000000
v -458.984497 120.000000 1555.000000
v -448.984497 120.000000 1545.000000
v -458.984497 80.000000 1555.000000
v -448.984497 80.000000 1545.000000
v -430.000000 120.000000 1526.015503
v -170.000000 80.000000 1266.015503
v -430.000000 80.000000 1526.015503
v -170.000000 120.000000 1266.015503
v -148.984482 120.000000 1245.000000
v -158.984482 120.000000 1255.000000
v -158.984482 80.000000 1255.000000
v -148.984482 80.000000 1245.000000
v -48.984489 120.000000 1145.000000
v -58.984489 120.000000 1155.000000
v -58.984489 80.000000 1155.000000
v -48.984489 80.000000 1145.000000
v 51.015511 120.000000 1045.000000
v 41.015511 120.000000 1055.000000
v 41.015511 80.000000 1055.000000
v 51.015511 80.000000 1045.000000
v 141.015518 120.000000 955.000000
v 141.015518 80.000000 955.000000
v 151.015518 80.000000 945.000000
v 151.015518 120.000000 945.000000
v 430.000000 120.000000 666.015503
v 170.000000 120.000000 926.015503
v 170.000000 80.000000 926.015503
v 430.000000 80.000000 666.015503
v 441.015503 120.000000 655.000000
v 441.015503 80.000000 655.000000
v 451.015503 80.000000 645.000000
v 451.015503 120.000000 645.000000
v 541.015503 120.000000 555.000000
v 541.015503 80.000000 555.000000
v 551.015503 80.000000 545.000000
v 551.015503 120.000000 545.000000
v 651.015503 120.000000 445.000000
v 641.015503 120.000000 455.000000
v 641.015503 80.000000 455.000000
v 651.015503 80.000000 445.000000
v 751.015503 120.000000 345.000000
v 741.015503 120.000000 355.000000
v 741.015503 80.000000 355.000000
v 751.015503 80.000000 345.000000
v 1030.000000 120.000000 66.015511
v 770.000000 120.000000 326.015503
v 770.000000 80.000000 326.015503
v 1030.000000 80.000000 66.015511
v 1041.015503 120.000000 55.000000
v 1041.015503 80.000000 55.000000
v 1051.015503 80.000000 45.000000
v 1051.015503 120.000000 45.000000
v 1151.015503 120.000000 -55.000000
v 1141.015503 120.000000 -45.000000
v 1141.015503 80.000000 -45.000000
v 1151.015503 80.000000 -55.000000
v 1241.015503 120.000000 -145.000000
v 1241.015503 80.000000 -145.000000
v 1251.015503 80.000000 -155.000000
v 1251.015503 120.000000 -155.000000
v 1351.015503 120.000000 -255.000000
v 1341.015503 120.000000 -245.000000
v 1341.015503 80.000000 -245.000000
v 1351.015503 80.000000 -255.000000
v 1600.000000 80.000000 -503.984497
v 1370.000000 120.000000 -273.984497
v 1370.000000 80.000000 -273.984497
v 1600.000000 160.000000 -503.984497
v -440.964996 120.000000 1555.000000
v 170.000000 120.000000 944.034973
v 314.035004 160.000000 800.000000
v 314.035004 80.000000 800.000000
v 170.000000 80.000000 944.034973
v 169.034988 120.000000 945.000000
v 159.034988 120.000000 955.000000
v 169.034988 80.000000 945.000000
v 159.034988 80.000000 955.000000
v 59.034996 120.000000 1055.000000
v 69.034996 120.000000 1045.000000
v 69.034996 80.000000 1045.000000
v 59.034996 80.000000 1055.000000
v -40.965004 120.000000 1155.000000
v -30.965004 120.000000 1145.000000
v -30.965004 80.000000 1145.000000
v -40.965004 80.000000 1155.000000
v -140.965012 120.000000 1255.000000
v -130.965012 120.000000 1245.000000
v -130.965012 80.000000 1245.000000
v -140.965012 80.000000 1255.000000
v -430.000000 80.000000 1544.035034
v -170.000000 120.000000 1284.035034
v -170.000000 80.000000 1284.035034
v -430.000000 120.000000 1544.035034
v -430.964996 120.000000 1545.000000
v -430.964996 80.000000 1545.000000
v -440.964996 80.000000 1555.000000
v 800.000000 160.000000 314.035004
v 366.726196 160.000000 800.000000
v 800.000000 160.000000 366.726196
v 1600.000000 160.000000 -485.964996
v 1600.000000 80.000000 -485.964996
v 1370.000000 80.000000 -255.965012
v 1370.000000 120.000000 -255.965012
v 1369.035034 120.000000 -255.000000
v 1369.035034 80.000000 -255.000000
v 1359.035034 80.000000 -245.000000
v 1359.035034 120.000000 -245.000000
v 1269.035034 120.000000 -155.000000
v 1269.035034 80.000000 -155.000000
v 1259.035034 80.000000 -145.000000
v 1259.035034 120.000000 -145.000000
v 1169.035034 120.000000 -55.000000
v 1169.035034 80.000000 -55.000000
v 1159.035034 80.000000 -45.000000
v 1159.035034 120.000000 -45.000000
v 1069.035034 120.000000 45.000000
v 1069.035034 80.000000 45.000000
v 1059.035034 80.000000 55.000000
v 1059.035034 120.000000 55.000000
v 1030.000000 120.000000 84.034996
v 1030.000000 80.000000 84.034996
v 770.000000 80.000000 355.000000
v 770.000000 80.000000 345.000000
v 800.000000 80.000000 366.726196
v 770.000000 80.000000 396.726196
v 800.000000 80.000000 314.035004
v 770.000000 120.000000 345.000000
v 770.000000 120.000000 355.000000
v 770.000000 120.000000 396.726196
v 721.726196 120.000000 445.000000
v 721.726196 80.000000 445.000000
v 711.726196 80.000000 455.000000
v 711.726196 120.000000 455.000000
v 621.726196 120.000000 545.000000
v 621.726196 80.000000 545.000000
v 611.726196 80.000000 555.000000
v 611.726196 120.000000 555.000000
v 521.726196 120.000000 645.000000
v 521.726196 80.000000 645.000000
v 511.726196 80.000000 655.000000
v 511.726196 120.000000 655.000000
v 430.000000 120.000000 736.726196
v 430.000000 80.000000 736.726196
v 366.726196 80.000000 800.000000
vn -0.0000 -0.0000 1.0000
vn -0.7071 -0.0000 -0.7071
vn -0.7071 0.0001 -0.7071
vn -0.0000 -1.0000 -0.0000
vn 0.7071 -0.0000 0.7071
vn 0.7071 -0.0003 0.7071
vn -0.0000 1.0000 -0.0000
vn 1.0000 -0.0000 -0.0000
vn -1.0000 -0.0000 -0.0000
vn -0.0000 -0.0000 -1.0000
vn 0.7070 0.0005 0.7072
s 0
f 3//1 2//1 1//1
f 2//1 4//1 1//1
f 2//2 3//2 5//2
f 7//2 5//2 6//2
f 8//2 7//2 6//2
f 5//2 3//2 6//2
f 6//2 3//2 9//2
f 11//2 9//2 10//2
f 10//2 9//2 12//2
f 9//2 3//2 12//2
f 15//2 14//2 13//2
f 16//2 15//2 13//2
f 19//2 18//2 17//2
f 20//2 19//2 17//2
f 23//2 22//2 21//2
f 24//2 23//2 21//2
f 27//2 26//2 25//2
f 27//2 25//2 28//2
f 31//2 30//2 29//2
f 32//2 31//2 29//2
f 35//2 34//2 33//2
f 35//2 33//2 36//2
f 39//2 38//2 37//2
f 39//2 37//2 40//2
f 43//2 42//2 41//2
f 44//2 43//2 41//2
f 47//2 46//2 45//2
f 48//2 47//2 45//2
f 51//2 50//2 49//2
f 52//2 51//2 49//2
f 55//2 54//2 53//2
f 55//2 53//2 56//2
f 59//2 58//2 57//2
f 60//2 59//2 57//2
f 63//2 62//2 61//2
f 63//2 61//2 64//2
f 67//2 66//2 65//2
f 68//2 67//2 65//2
f 71//2 70//2 69//2
f 65//2 66//2 72//2
f 69//2 70//2 72//2
f 70//2 65//2 72//2
f 12//2 3//2 72//2
f 14//2 12//2 72//2
f 13//2 14//2 72//2
f 18//2 13//2 72//2
f 17//2 18//2 72//2
f 22//2 17//2 72//2
f 21//2 22//2 72//2
f 25//2 21//2 72//2
f 28//2 25//2 72//2
f 30//3 28//3 72//3
f 29//2 30//2 72//2
f 33//2 29//2 72//2
f 36//2 33//2 72//2
f 37//2 36//2 72//2
f 40//2 37//2 72//2
f 42//2 40//2 72//2
f 41//2 42//2 72//2
f 46//2 41//2 72//2
f 45//2 46//2 72//2
f 50//2 45//2 72//2
f 49//2 50//2 72//2
f 53//2 49//2 72//2
f 56//2 53//2 72//2
f 58//2 56//2 72//2
f 57//2 58//2 72//2
f 61//2 57//2 72//2
f 64//2 61//2 72//2
f 66//2 64//2 72//2
f 4//4 2//4 5//4
f 4//4 5//4 73//4
f 76//5 75//5 74//5
f 77//5 76//5 74//5
f 74//6 75//6 78//6
f 80//5 78//5 79//5
f 81//5 80//5 79//5
f 78//5 75//5 79//5
f 84//5 83//5 82//5
f 85//5 84//5 82//5
f 88//5 87//5 86//5
f 89//5 88//5 86//5
f 92//5 91//5 90//5
f 93//5 92//5 90//5
f 96//5 95//5 94//5
f 94//5 95//5 97//5
f 99//5 98//5 73//5
f 100//5 99//5 73//5
f 98//6 97//6 1//6
f 4//5 73//5 1//5
f 73//5 98//5 1//5
f 97//5 95//5 1//5
f 79//5 75//5 1//5
f 83//5 79//5 1//5
f 82//5 83//5 1//5
f 87//5 82//5 1//5
f 86//5 87//5 1//5
f 91//5 86//5 1//5
f 90//5 91//5 1//5
f 95//5 90//5 1//5
f 75//7 3//7 1//7
f 101//7 75//7 102//7
f 101//7 102//7 103//7
f 72//7 101//7 104//7
f 72//7 3//7 75//7
f 72//7 75//7 101//7
f 72//8 105//8 69//8
f 72//8 104//8 105//8
f 106//4 71//4 105//4
f 105//4 71//4 69//4
f 106//9 107//9 70//9
f 71//9 106//9 70//9
f 70//4 107//4 108//4
f 70//4 108//4 65//4
f 68//10 65//10 108//10
f 109//10 68//10 108//10
f 110//4 67//4 68//4
f 110//4 68//4 109//4
f 111//1 66//1 110//1
f 66//1 67//1 110//1
f 66//4 111//4 112//4
f 66//4 112//4 64//4
f 63//10 64//10 112//10
f 113//10 63//10 112//10
f 114//4 62//4 63//4
f 114//4 63//4 113//4
f 115//1 61//1 114//1
f 61//1 62//1 114//1
f 61//4 115//4 116//4
f 61//4 116//4 57//4
f 117//10 57//10 116//10
f 117//10 60//10 57//10
f 118//4 59//4 60//4
f 118//4 60//4 117//4
f 119//1 58//1 59//1
f 119//1 59//1 118//1
f 58//4 119//4 120//4
f 58//4 120//4 56//4
f 121//10 56//10 120//10
f 121//10 55//10 56//10
f 122//4 54//4 55//4
f 122//4 55//4 121//4
f 123//1 53//1 122//1
f 53//1 54//1 122//1
f 53//4 123//4 49//4
f 49//4 123//4 124//4
f 125//8 52//8 49//8
f 125//8 49//8 124//8
f 47//4 48//4 126//4
f 126//4 48//4 127//4
f 129//4 126//4 128//4
f 126//4 127//4 128//4
f 127//4 51//4 130//4
f 128//4 127//4 130//4
f 125//4 130//4 52//4
f 130//4 51//4 52//4
f 51//9 131//9 50//9
f 51//9 127//9 131//9
f 50//4 131//4 45//4
f 48//10 45//10 131//10
f 127//10 48//10 131//10
f 46//1 47//1 126//1
f 132//1 46//1 126//1
f 46//4 132//4 133//4
f 46//4 133//4 134//4
f 46//4 134//4 41//4
f 134//10 44//10 41//10
f 135//10 44//10 134//10
f 43//4 44//4 136//4
f 136//4 44//4 135//4
f 42//1 43//1 137//1
f 137//1 43//1 136//1
f 42//4 137//4 138//4
f 42//4 138//4 40//4
f 138//10 39//10 40//10
f 139//10 39//10 138//10
f 38//4 39//4 140//4
f 140//4 39//4 139//4
f 37//1 38//1 141//1
f 141//1 38//1 140//1
f 37//4 141//4 142//4
f 37//4 142//4 36//4
f 142//10 35//10 36//10
f 143//10 35//10 142//10
f 34//4 35//4 144//4
f 144//4 35//4 143//4
f 33//1 34//1 145//1
f 145//1 34//1 144//1
f 33//4 145//4 146//4
f 29//4 33//4 146//4
f 147//8 32//8 29//8
f 147//8 29//8 146//8
f 77//4 31//4 76//4
f 148//4 76//4 147//4
f 147//4 76//4 32//4
f 76//4 31//4 32//4
f 77//9 74//9 30//9
f 31//9 77//9 30//9
f 78//4 28//4 30//4
f 74//4 78//4 30//4
f 78//10 80//10 27//10
f 28//10 78//10 27//10
f 81//4 26//4 27//4
f 81//4 27//4 80//4
f 81//1 79//1 25//1
f 26//1 81//1 25//1
f 83//4 21//4 25//4
f 83//4 25//4 79//4
f 21//10 83//10 84//10
f 21//10 84//10 24//10
f 85//4 23//4 24//4
f 85//4 24//4 84//4
f 85//1 82//1 22//1
f 23//1 85//1 22//1
f 87//4 17//4 22//4
f 82//4 87//4 22//4
f 17//10 87//10 88//10
f 17//10 88//10 20//10
f 89//4 19//4 20//4
f 89//4 20//4 88//4
f 89//1 86//1 18//1
f 19//1 89//1 18//1
f 91//4 13//4 18//4
f 91//4 18//4 86//4
f 91//10 92//10 16//10
f 13//10 91//10 16//10
f 93//4 15//4 16//4
f 93//4 16//4 92//4
f 93//1 90//1 14//1
f 15//1 93//1 14//1
f 90//4 95//4 12//4
f 90//4 12//4 14//4
f 95//8 96//8 10//8
f 12//8 95//8 10//8
f 94//4 11//4 96//4
f 96//4 11//4 10//4
f 9//9 11//9 94//9
f 97//9 9//9 94//9
f 97//4 98//4 6//4
f 97//4 6//4 9//4
f 6//10 98//10 99//10
f 6//10 99//10 8//10
f 100//4 7//4 8//4
f 100//4 8//4 99//4
f 100//1 73//1 5//1
f 7//1 100//1 5//1
f 102//1 75//1 76//1
f 102//1 76//1 148//1
f 105//5 104//5 107//5
f 106//5 105//5 107//5
f 109//5 108//5 111//5
f 110//5 109//5 111//5
f 114//5 113//5 112//5
f 114//5 112//5 115//5
f 117//5 116//5 119//5
f 118//5 117//5 119//5
f 122//5 121//5 120//5
f 122//5 120//5 123//5
f 125//5 124//5 130//5
f 130//5 124//5 101//5
f 107//5 104//5 101//5
f 108//11 107//11 101//11
f 111//5 108//5 101//5
f 112//5 111//5 101//5
f 115//5 112//5 101//5
f 116//5 115//5 101//5
f 119//5 116//5 101//5
f 120//5 119//5 101//5
f 123//5 120//5 101//5
f 124//5 123//5 101//5
f 103//8 128//8 130//8
f 101//8 103//8 130//8
f 128//5 103//5 133//5
f 129//5 128//5 133//5
f 136//5 135//5 134//5
f 133//5 103//5 134//5
f 136//5 134//5 137//5
f 134//5 103//5 137//5
f 139//5 138//5 141//5
f 140//5 139//5 141//5
f 143//5 142//5 145//5
f 144//5 143//5 145//5
f 147//5 146//5 148//5
f 146//5 145//5 102//5
f 148//5 146//5 102//5
f 137//5 103//5 102//5
f 138//5 137//5 102//5
f 141//5 138//5 102//5
f 142//5 141//5 102//5
f 145//5 142//5 102//5
f 126//9 133//9 132//9
f 126//9 129//9 133//9
