# Blender 4.0.2
# www.blender.org
o 633970d115ec9bceb04b1904dd68d69d7de9f0c19a1e5c7bd2097b766548c0c
v -1600.000000 160.000000 -1352.512573
v -1600.000000 160.000000 -1334.493164
v -1600.000000 80.000000 -1334.493164
v -1600.000000 80.000000 -1352.512573
v -1370.000000 120.000000 -1564.493164
v -1334.493164 160.000000 -1600.000000
v -1334.493164 120.000000 -1600.000000
v -1370.000000 80.000000 -1564.493164
v -1370.000000 80.000000 -1582.512573
v -1370.000000 120.000000 -1582.512573
v -1352.512573 160.000000 -1600.000000
v -1352.512573 120.000000 -1600.000000
vn -1.0000 -0.0000 -0.0000
vn 0.7071 -0.0000 0.7071
vn -0.0000 -1.0000 -0.0000
vn -0.7071 -0.0000 -0.7071
vn -0.0000 1.0000 -0.0000
vn -0.0000 -0.0000 -1.0000
vn 1.0000 -0.0000 -0.0000
s 0
f 3//1 2//1 1//1
f 4//1 3//1 1//1
f 7//2 6//2 5//2
f 8//2 5//2 3//2
f 3//2 5//2 2//2
f 5//2 6//2 2//2
f 3//3 4//3 8//3
f 8//3 4//3 9//3
f 4//4 1//4 10//4
f 9//4 4//4 10//4
f 12//4 10//4 11//4
f 10//4 1//4 11//4
f 11//5 1//5 2//5
f 6//5 11//5 2//5
f 11//6 7//6 12//6
f 6//6 7//6 11//6
f 5//7 8//7 9//7
f 10//7 5//7 9//7
f 7//3 10//3 12//3
f 5//3 10//3 7//3
