# Blender 4.0.2
# www.blender.org
o 6d0691a9dd1bf5e4b1f1fd117c1bdd758c6ad629e31644e1194918f587c1b9c
v 1600.000000 160.000000 1475.914551
v 1475.914551 160.000000 1600.000000
v 1475.914551 80.000000 1600.000000
v 1600.000000 80.000000 1475.914551
v 1493.933960 160.000000 1600.000000
v 1493.933960 80.000000 1600.000000
v 1600.000000 160.000000 1493.933960
v 1600.000000 80.000000 1493.933960
vn -0.7071 -0.0000 -0.7071
vn -0.0000 -0.0000 1.0000
vn 1.0000 -0.0000 -0.0000
vn -0.0000 -1.0000 -0.0000
vn 0.7071 -0.0000 0.7071
vn -0.0000 1.0000 -0.0000
s 0
f 3//1 2//1 1//1
f 4//1 3//1 1//1
f 5//2 2//2 3//2
f 5//2 3//2 6//2
f 7//3 8//3 4//3
f 1//3 7//3 4//3
f 6//4 3//4 8//4
f 8//4 3//4 4//4
f 6//5 8//5 5//5
f 8//5 7//5 5//5
f 7//6 2//6 5//6
f 1//6 2//6 7//6
