# Blender 4.0.2
# www.blender.org
o 6e9df22dcd4c8a2286fef6c60471cbf7d258a3249c1eac37bd7f0ae1ceda1f0
v 928.248535 160.000000 1600.000000
v 910.229065 160.000000 1600.000000
v 910.229065 80.000000 1600.000000
v 928.248535 80.000000 1600.000000
v 1030.000000 120.000000 1480.229126
v 1030.000000 80.000000 1480.229126
v 1055.229126 120.000000 1455.000000
v 1055.229126 80.000000 1455.000000
v 1065.229126 80.000000 1445.000000
v 1065.229126 120.000000 1445.000000
v 1165.229126 120.000000 1345.000000
v 1155.229126 120.000000 1355.000000
v 1155.229126 80.000000 1355.000000
v 1165.229126 80.000000 1345.000000
v 1265.229126 120.000000 1245.000000
v 1255.229126 120.000000 1255.000000
v 1255.229126 80.000000 1255.000000
v 1265.229126 80.000000 1245.000000
v 1355.229126 120.000000 1155.000000
v 1355.229126 80.000000 1155.000000
v 1365.229126 80.000000 1145.000000
v 1365.229126 120.000000 1145.000000
v 1600.000000 80.000000 910.229065
v 1370.000000 120.000000 1140.229126
v 1370.000000 80.000000 1140.229126
v 1600.000000 160.000000 910.229065
v 1030.000000 80.000000 1498.248535
v 1370.000000 120.000000 1158.248535
v 1600.000000 160.000000 928.248535
v 1600.000000 80.000000 928.248535
v 1370.000000 80.000000 1158.248535
v 1273.248535 120.000000 1255.000000
v 1283.248535 120.000000 1245.000000
v 1283.248535 80.000000 1245.000000
v 1273.248535 80.000000 1255.000000
v 1173.248535 120.000000 1355.000000
v 1183.248535 120.000000 1345.000000
v 1183.248535 80.000000 1345.000000
v 1173.248535 80.000000 1355.000000
v 1083.248535 120.000000 1445.000000
v 1083.248535 80.000000 1445.000000
v 1073.248535 80.000000 1455.000000
v 1073.248535 120.000000 1455.000000
v 1030.000000 120.000000 1498.248535
v 1370.000000 80.000000 1155.000000
v 1370.000000 80.000000 1145.000000
v 1370.000000 120.000000 1145.000000
v 1370.000000 120.000000 1155.000000
vn -0.0000 -0.0000 1.0000
vn -0.7071 -0.0000 -0.7071
vn -0.7071 -0.0001 -0.7071
vn -0.0000 -1.0000 -0.0000
vn 0.7071 -0.0000 0.7071
vn -0.0000 1.0000 -0.0000
vn 1.0000 -0.0000 -0.0000
vn -1.0000 -0.0000 -0.0000
vn -0.0000 -0.0000 -1.0000
s 0
f 1//1 2//1 3//1
f 1//1 3//1 4//1
f 3//2 2//2 5//2
f 6//2 3//2 5//2
f 9//2 8//2 7//2
f 5//2 2//2 7//2
f 9//2 7//2 10//2
f 13//2 12//2 11//2
f 14//2 13//2 11//2
f 17//2 16//2 15//2
f 18//2 17//2 15//2
f 21//2 20//2 19//2
f 21//2 19//2 22//2
f 25//2 24//2 23//2
f 23//2 24//2 26//2
f 7//2 2//2 26//2
f 10//2 7//2 26//2
f 12//2 10//2 26//2
f 11//2 12//2 26//2
f 16//2 11//2 26//2
f 15//2 16//2 26//2
f 19//2 15//2 26//2
f 22//2 19//2 26//2
f 24//3 22//3 26//3
f 4//4 3//4 27//4
f 27//4 3//4 6//4
f 30//5 29//5 28//5
f 31//5 30//5 28//5
f 34//5 33//5 32//5
f 35//5 34//5 32//5
f 38//5 37//5 36//5
f 39//5 38//5 36//5
f 42//5 41//5 40//5
f 42//5 40//5 43//5
f 27//5 44//5 4//5
f 44//5 43//5 1//5
f 4//5 44//5 1//5
f 28//5 29//5 1//5
f 33//5 28//5 1//5
f 32//5 33//5 1//5
f 37//5 32//5 1//5
f 36//5 37//5 1//5
f 40//5 36//5 1//5
f 43//5 40//5 1//5
f 26//6 2//6 1//6
f 26//6 1//6 29//6
f 26//7 30//7 23//7
f 26//7 29//7 30//7
f 45//4 20//4 21//4
f 45//4 21//4 46//4
f 31//4 45//4 30//4
f 46//4 25//4 30//4
f 45//4 46//4 30//4
f 30//4 25//4 23//4
f 25//8 47//8 24//8
f 25//8 46//8 47//8
f 24//4 47//4 22//4
f 46//9 22//9 47//9
f 46//9 21//9 22//9
f 48//1 19//1 20//1
f 48//1 20//1 45//1
f 48//4 28//4 19//4
f 19//4 28//4 33//4
f 19//4 33//4 15//4
f 18//9 15//9 33//9
f 34//9 18//9 33//9
f 35//4 17//4 18//4
f 35//4 18//4 34//4
f 32//1 16//1 17//1
f 32//1 17//1 35//1
f 16//4 32//4 37//4
f 16//4 37//4 11//4
f 14//9 11//9 37//9
f 38//9 14//9 37//9
f 39//4 13//4 14//4
f 39//4 14//4 38//4
f 36//1 12//1 13//1
f 36//1 13//1 39//1
f 12//4 36//4 40//4
f 12//4 40//4 10//4
f 41//9 10//9 40//9
f 41//9 9//9 10//9
f 42//4 8//4 9//4
f 42//4 9//4 41//4
f 43//1 7//1 42//1
f 7//1 8//1 42//1
f 7//4 43//4 5//4
f 5//4 43//4 44//4
f 27//7 6//7 5//7
f 27//7 5//7 44//7
f 45//8 28//8 48//8
f 45//8 31//8 28//8
