# Blender 4.0.2
# www.blender.org
o 70742e2b0662c1701d130952e0ae22abcbef6d077afb0af3aaf0e857a69e7f7
v 1069.669922 160.000000 1600.000000
v 1051.650391 120.000000 1600.000000
v 1051.650391 160.000000 1600.000000
v 1069.669922 120.000000 1600.000000
v 1096.650391 120.000000 1555.000000
v 1106.650391 120.000000 1545.000000
v 1096.650391 80.000000 1555.000000
v 1106.650391 80.000000 1545.000000
v 1196.650391 120.000000 1455.000000
v 1206.650391 120.000000 1445.000000
v 1196.650391 80.000000 1455.000000
v 1206.650391 80.000000 1445.000000
v 1306.650391 120.000000 1345.000000
v 1296.650391 120.000000 1355.000000
v 1296.650391 80.000000 1355.000000
v 1306.650391 80.000000 1345.000000
v 1600.000000 80.000000 1051.650391
v 1370.000000 120.000000 1281.650391
v 1370.000000 80.000000 1281.650391
v 1600.000000 160.000000 1051.650391
v 1114.669922 120.000000 1555.000000
v 1370.000000 120.000000 1299.669922
v 1600.000000 160.000000 1069.669922
v 1600.000000 80.000000 1069.669922
v 1370.000000 80.000000 1299.669922
v 1314.669922 120.000000 1355.000000
v 1324.669922 120.000000 1345.000000
v 1324.669922 80.000000 1345.000000
v 1314.669922 80.000000 1355.000000
v 1214.669922 120.000000 1455.000000
v 1224.669922 120.000000 1445.000000
v 1224.669922 80.000000 1445.000000
v 1214.669922 80.000000 1455.000000
v 1124.669922 120.000000 1545.000000
v 1124.669922 80.000000 1545.000000
v 1114.669922 80.000000 1555.000000
vn -0.0000 -0.0000 1.0000
vn -0.7071 -0.0000 -0.7071
vn -0.0000 -1.0000 -0.0000
vn 0.7071 -0.0000 0.7071
vn -0.0000 1.0000 -0.0000
vn 1.0000 -0.0000 -0.0000
vn -1.0000 -0.0000 -0.0000
vn -0.0000 -0.0000 -1.0000
s 0
f 3//1 2//1 1//1
f 2//1 4//1 1//1
f 2//2 3//2 5//2
f 7//2 5//2 6//2
f 8//2 7//2 6//2
f 5//2 3//2 6//2
f 6//2 3//2 9//2
f 11//2 9//2 10//2
f 12//2 11//2 10//2
f 15//2 14//2 13//2
f 16//2 15//2 13//2
f 19//2 18//2 17//2
f 17//2 18//2 20//2
f 9//2 3//2 20//2
f 10//2 9//2 20//2
f 14//2 10//2 20//2
f 13//2 14//2 20//2
f 18//2 13//2 20//2
f 5//3 21//3 4//3
f 5//3 4//3 2//3
f 24//4 23//4 22//4
f 25//4 24//4 22//4
f 28//4 27//4 26//4
f 29//4 28//4 26//4
f 32//4 31//4 30//4
f 33//4 32//4 30//4
f 35//4 34//4 21//4
f 36//4 35//4 21//4
f 34//4 30//4 1//4
f 4//4 21//4 1//4
f 21//4 34//4 1//4
f 22//4 23//4 1//4
f 27//4 22//4 1//4
f 26//4 27//4 1//4
f 31//4 26//4 1//4
f 30//4 31//4 1//4
f 20//5 3//5 1//5
f 20//5 1//5 23//5
f 20//6 24//6 17//6
f 20//6 23//6 24//6
f 25//3 19//3 24//3
f 24//3 19//3 17//3
f 25//7 22//7 18//7
f 19//7 25//7 18//7
f 18//3 22//3 27//3
f 18//3 27//3 13//3
f 16//8 13//8 27//8
f 28//8 16//8 27//8
f 29//3 15//3 16//3
f 29//3 16//3 28//3
f 26//1 14//1 15//1
f 26//1 15//1 29//1
f 14//3 26//3 31//3
f 14//3 31//3 10//3
f 12//8 10//8 31//8
f 32//8 12//8 31//8
f 33//3 11//3 12//3
f 33//3 12//3 32//3
f 30//1 9//1 11//1
f 30//1 11//1 33//1
f 9//3 30//3 34//3
f 9//3 34//3 6//3
f 8//8 6//8 34//8
f 35//8 8//8 34//8
f 36//3 7//3 8//3
f 36//3 8//3 35//3
f 21//1 5//1 7//1
f 21//1 7//1 36//1
