# Blender 4.0.2
# www.blender.org
o 74c7a385b58c900d9005cfa906efa88fe15c8f7485831cd30a06ffd3de2e533
v -450.000000 120.000000 -1600.000000
v -750.000000 120.000000 -1600.000000
v -750.000000 120.000000 -1575.000000
v -450.000000 120.000000 -1575.000000
v -450.000000 80.000000 -1600.000000
v -750.000000 80.000000 -1600.000000
v -450.000000 80.000000 -1575.000000
v -750.000000 80.000000 -1575.000000
vn -0.0000 1.0000 -0.0000
vn -0.0000 -0.0000 -1.0000
vn 1.0000 -0.0000 -0.0000
vn -0.0000 -0.0000 1.0000
vn -1.0000 -0.0000 -0.0000
vn -0.0000 -1.0000 -0.0000
s 0
f 1//1 2//1 3//1
f 1//1 3//1 4//1
f 1//2 5//2 6//2
f 1//2 6//2 2//2
f 4//3 7//3 5//3
f 1//3 4//3 5//3
f 3//4 8//4 7//4
f 4//4 3//4 7//4
f 2//5 6//5 8//5
f 3//5 2//5 8//5
f 8//6 6//6 5//6
f 7//6 8//6 5//6
