# Blender 4.0.2
# www.blender.org
o 799fd8e81061919c48b9dd4944cc571c3c6aaecd753ca68002463ac27366456
v -175.000000 80.000000 1578.948730
v -175.000000 80.000000 1600.000000
v -175.000000 120.000000 1600.000000
v -175.000000 120.000000 1578.948730
v -203.122299 80.000000 1600.000000
v -196.051224 80.000000 1600.000000
v -170.000000 80.000000 1600.000000
v -170.000000 80.000000 1566.877686
v 558.948792 120.000000 845.000000
v 598.948792 160.000000 805.000000
v 598.948792 120.000000 805.000000
v 548.948792 120.000000 855.000000
v 458.948761 120.000000 945.000000
v 448.948761 120.000000 955.000000
v 175.000000 120.000000 1228.948730
v 425.000000 120.000000 978.948792
v 425.000000 80.000000 978.948792
v 175.000000 80.000000 1228.948730
v -196.051224 160.000000 1600.000000
v -41.051224 120.000000 1445.000000
v -51.051224 120.000000 1455.000000
v -141.051224 120.000000 1545.000000
v -151.051224 120.000000 1555.000000
v -170.000000 120.000000 1573.948730
v 430.000000 120.000000 973.948792
v 170.000000 120.000000 1233.948730
v 158.948776 120.000000 1245.000000
v 148.948776 120.000000 1255.000000
v 58.948776 120.000000 1345.000000
v 48.948776 120.000000 1355.000000
v -170.000000 120.000000 1600.000000
v -170.000000 120.000000 1566.877686
v -203.122299 160.000000 1600.000000
v 551.877686 120.000000 845.000000
v 596.877686 160.000000 800.000000
v 596.877686 120.000000 800.000000
v 541.877686 120.000000 855.000000
v 551.877686 80.000000 845.000000
v 541.877686 80.000000 855.000000
v 451.877716 120.000000 945.000000
v 441.877716 120.000000 955.000000
v 451.877716 80.000000 945.000000
v 441.877716 80.000000 955.000000
v 170.000000 120.000000 1226.877686
v 430.000000 120.000000 966.877686
v 430.000000 80.000000 966.877686
v 170.000000 80.000000 1226.877686
v 141.877701 120.000000 1255.000000
v 151.877701 120.000000 1245.000000
v 151.877701 80.000000 1245.000000
v 141.877701 80.000000 1255.000000
v 41.877708 120.000000 1355.000000
v 51.877708 120.000000 1345.000000
v 51.877708 80.000000 1345.000000
v 41.877708 80.000000 1355.000000
v -48.122292 120.000000 1445.000000
v -48.122292 80.000000 1445.000000
v -58.122292 80.000000 1455.000000
v -58.122292 120.000000 1455.000000
v -158.122299 120.000000 1555.000000
v -148.122299 120.000000 1545.000000
v -148.122299 80.000000 1545.000000
v -158.122299 80.000000 1555.000000
v 649.568909 160.000000 800.000000
v 651.639954 160.000000 805.000000
v 805.000000 160.000000 651.639954
v 800.000000 160.000000 649.568909
v 805.000000 160.000000 598.948792
v 800.000000 160.000000 596.877686
v 1600.000000 160.000000 -196.051224
v 1600.000000 160.000000 -203.122299
v 651.639954 120.000000 805.000000
v 430.000000 120.000000 1055.000000
v 430.000000 120.000000 1083.208496
v 425.000000 120.000000 1088.208496
v 430.000000 120.000000 1045.000000
v 468.208527 120.000000 1045.000000
v 458.208527 120.000000 1055.000000
v 568.208496 120.000000 945.000000
v 558.208496 120.000000 955.000000
v 668.208496 120.000000 845.000000
v 658.208496 120.000000 855.000000
v 701.639954 120.000000 755.000000
v 694.568909 120.000000 755.000000
v 649.568909 120.000000 800.000000
v 425.000000 80.000000 1088.208496
v 165.279587 80.000000 1355.000000
v 170.000000 80.000000 1345.000000
v 175.000000 80.000000 1338.208496
v 170.000000 80.000000 1255.000000
v 170.000000 80.000000 1245.000000
v 430.000000 80.000000 1055.000000
v 430.000000 80.000000 1090.279541
v 430.000000 80.000000 1045.000000
v 465.279572 80.000000 1055.000000
v 475.279572 80.000000 1045.000000
v 175.000000 120.000000 1338.208496
v 170.000000 120.000000 1245.000000
v 170.000000 120.000000 1255.000000
v 170.000000 120.000000 1343.208496
v 158.208511 120.000000 1355.000000
v 168.208511 120.000000 1345.000000
v 58.208511 120.000000 1455.000000
v 68.208511 120.000000 1445.000000
v -41.791489 120.000000 1555.000000
v -31.791489 120.000000 1545.000000
v -34.720421 80.000000 1555.000000
v -34.720421 120.000000 1555.000000
v -24.720421 80.000000 1545.000000
v -24.720421 120.000000 1545.000000
v 65.279579 80.000000 1455.000000
v 65.279579 120.000000 1455.000000
v 75.279579 80.000000 1445.000000
v 75.279579 120.000000 1445.000000
v 165.279587 120.000000 1355.000000
v 170.000000 120.000000 1345.000000
v 565.279602 80.000000 955.000000
v 565.279602 120.000000 955.000000
v 575.279602 80.000000 945.000000
v 575.279602 120.000000 945.000000
v 665.279602 80.000000 855.000000
v 665.279602 120.000000 855.000000
v 675.279602 80.000000 845.000000
v 675.279602 120.000000 845.000000
v 770.000000 120.000000 679.568909
v 800.000000 80.000000 649.568909
v 770.000000 80.000000 679.568909
v 704.568909 120.000000 745.000000
v 704.568909 80.000000 745.000000
v 694.568909 80.000000 755.000000
v 800.000000 80.000000 596.877686
v 1370.000000 120.000000 26.877708
v 1600.000000 80.000000 -203.122299
v 1370.000000 80.000000 26.877708
v 1341.877686 120.000000 55.000000
v 1351.877686 120.000000 45.000000
v 1351.877686 80.000000 45.000000
v 1341.877686 80.000000 55.000000
v 1241.877686 120.000000 155.000000
v 1251.877686 120.000000 145.000000
v 1251.877686 80.000000 145.000000
v 1241.877686 80.000000 155.000000
v 1141.877686 120.000000 255.000000
v 1151.877686 120.000000 245.000000
v 1151.877686 80.000000 245.000000
v 1141.877686 80.000000 255.000000
v 1041.877686 120.000000 355.000000
v 1051.877686 120.000000 345.000000
v 1051.877686 80.000000 345.000000
v 1041.877686 80.000000 355.000000
v 1030.000000 120.000000 366.877716
v 1030.000000 80.000000 366.877716
v 1600.000000 80.000000 -196.051224
v 1375.000000 120.000000 28.948776
v 1375.000000 80.000000 28.948776
v 805.000000 80.000000 598.948792
v 1025.000000 120.000000 378.948761
v 1025.000000 80.000000 378.948761
v 1370.000000 120.000000 33.948776
v 1358.948730 120.000000 45.000000
v 1348.948730 120.000000 55.000000
v 1258.948730 120.000000 145.000000
v 1248.948730 120.000000 155.000000
v 1158.948730 120.000000 245.000000
v 1148.948730 120.000000 255.000000
v 1058.948730 120.000000 345.000000
v 1048.948730 120.000000 355.000000
v 1030.000000 120.000000 373.948761
v 805.000000 80.000000 651.639954
v 775.000000 120.000000 681.639954
v 775.000000 80.000000 681.639954
v 770.000000 120.000000 686.639954
v 711.639954 120.000000 745.000000
v -86.791489 160.000000 1600.000000
v -86.791489 120.000000 1600.000000
v 1025.000000 80.000000 488.208527
v 775.000000 120.000000 738.208496
v 775.000000 80.000000 738.208496
v 1025.000000 120.000000 488.208527
v 1600.000000 80.000000 -86.791489
v 1375.000000 120.000000 138.208511
v 1375.000000 80.000000 138.208511
v 1600.000000 160.000000 -86.791489
v 1368.208496 120.000000 145.000000
v 1370.000000 120.000000 143.208511
v 758.208496 120.000000 755.000000
v 768.208496 120.000000 745.000000
v 770.000000 120.000000 743.208496
v 1030.000000 120.000000 483.208527
v 1058.208496 120.000000 455.000000
v 1068.208496 120.000000 445.000000
v 1158.208496 120.000000 355.000000
v 1168.208496 120.000000 345.000000
v 1258.208496 120.000000 255.000000
v 1268.208496 120.000000 245.000000
v 1358.208496 120.000000 155.000000
v 430.000000 120.000000 1090.279541
v 465.279572 120.000000 1055.000000
v 475.279572 120.000000 1045.000000
v 765.279602 80.000000 755.000000
v 765.279602 120.000000 755.000000
v -79.720421 160.000000 1600.000000
v -79.720421 120.000000 1600.000000
v 1030.000000 120.000000 490.279572
v 1030.000000 80.000000 490.279572
v 1075.279541 120.000000 445.000000
v 1065.279541 120.000000 455.000000
v 1065.279541 80.000000 455.000000
v 1075.279541 80.000000 445.000000
v 1175.279541 120.000000 345.000000
v 1165.279541 120.000000 355.000000
v 1165.279541 80.000000 355.000000
v 1175.279541 80.000000 345.000000
v 1275.279541 120.000000 245.000000
v 1265.279541 120.000000 255.000000
v 1265.279541 80.000000 255.000000
v 1275.279541 80.000000 245.000000
v 1600.000000 80.000000 -79.720421
v 1365.279541 120.000000 155.000000
v 1365.279541 80.000000 155.000000
v 1600.000000 160.000000 -79.720421
v 770.000000 80.000000 745.000000
v 1030.000000 80.000000 455.000000
v 1030.000000 80.000000 445.000000
v 770.000000 120.000000 745.000000
v 1030.000000 120.000000 445.000000
v 1370.000000 80.000000 145.000000
v 1370.000000 80.000000 55.000000
v 1370.000000 80.000000 45.000000
v 1370.000000 120.000000 145.000000
v 1370.000000 120.000000 55.000000
v 1370.000000 120.000000 45.000000
v 1030.000000 120.000000 455.000000
vn -1.0000 -0.0000 -0.0000
vn -0.0000 -1.0000 -0.0000
vn 0.7071 -0.0000 0.7071
vn 0.7071 0.0001 0.7071
vn -0.0000 1.0000 -0.0000
vn -0.0000 -0.0000 1.0000
vn 1.0000 -0.0000 -0.0000
vn -0.7071 -0.0000 -0.7071
vn -0.0000 -0.0000 -1.0000
vn 0.7071 -0.0001 0.7071
vn -0.7071 0.0012 -0.7071
vn -0.7071 -0.0004 -0.7071
vn -0.7071 -0.0001 -0.7071
vn -0.7071 0.0002 -0.7071
vn -0.7071 0.0001 -0.7071
s 0
f 1//1 2//1 3//1
f 1//1 3//1 4//1
f 6//2 5//2 1//2
f 7//2 2//2 1//2
f 7//2 1//2 8//2
f 1//2 5//2 8//2
f 11//3 10//3 9//3
f 9//3 10//3 12//3
f 12//3 10//3 13//3
f 13//3 10//3 14//3
f 17//3 16//3 15//3
f 18//3 17//3 15//3
f 6//3 1//3 4//3
f 21//3 20//3 19//3
f 22//3 21//3 19//3
f 23//3 22//3 19//3
f 24//3 23//3 19//3
f 4//3 24//3 19//3
f 6//3 4//3 19//3
f 14//3 10//3 19//3
f 25//3 14//3 19//3
f 16//3 25//3 19//3
f 15//3 16//3 19//3
f 26//3 15//3 19//3
f 27//4 26//4 19//4
f 28//3 27//3 19//3
f 29//3 28//3 19//3
f 30//3 29//3 19//3
f 20//3 30//3 19//3
f 4//5 3//5 31//5
f 24//5 4//5 31//5
f 2//6 7//6 3//6
f 3//6 7//6 31//6
f 8//7 32//7 24//7
f 7//7 24//7 31//7
f 7//7 8//7 24//7
f 5//6 6//6 19//6
f 33//6 5//6 19//6
f 34//8 35//8 36//8
f 37//8 34//8 38//8
f 37//8 38//8 39//8
f 37//8 35//8 34//8
f 40//8 35//8 37//8
f 41//8 40//8 42//8
f 41//8 42//8 43//8
f 41//8 35//8 40//8
f 44//8 45//8 46//8
f 44//8 46//8 47//8
f 48//8 49//8 50//8
f 48//8 50//8 51//8
f 52//8 53//8 54//8
f 52//8 54//8 55//8
f 56//8 57//8 58//8
f 59//8 56//8 58//8
f 60//8 61//8 62//8
f 60//8 62//8 63//8
f 5//8 32//8 8//8
f 33//8 32//8 5//8
f 33//8 59//8 61//8
f 33//8 60//8 32//8
f 33//8 56//8 59//8
f 33//8 61//8 60//8
f 33//8 35//8 41//8
f 33//8 41//8 45//8
f 33//8 45//8 44//8
f 33//8 44//8 49//8
f 33//8 49//8 48//8
f 33//8 48//8 53//8
f 33//8 53//8 52//8
f 33//8 52//8 56//8
f 35//5 33//5 19//5
f 35//5 19//5 10//5
f 64//5 10//5 65//5
f 64//5 35//5 10//5
f 66//5 67//5 64//5
f 66//5 64//5 65//5
f 68//5 69//5 67//5
f 68//5 67//5 66//5
f 70//5 69//5 68//5
f 71//5 69//5 70//5
f 72//6 65//6 11//6
f 11//6 65//6 10//6
f 75//5 74//5 73//5
f 78//5 77//5 76//5
f 73//5 78//5 76//5
f 76//5 16//5 75//5
f 73//5 76//5 75//5
f 16//5 76//5 25//5
f 41//2 14//2 25//2
f 45//2 41//2 25//2
f 80//5 79//5 13//5
f 80//5 13//5 14//5
f 37//2 12//2 13//2
f 37//2 13//2 40//2
f 82//5 81//5 9//5
f 82//5 9//5 12//5
f 84//2 83//2 72//2
f 85//2 84//2 72//2
f 36//2 85//2 11//2
f 85//2 72//2 11//2
f 36//2 11//2 9//2
f 36//2 9//2 34//2
f 17//1 86//1 75//1
f 17//1 75//1 16//1
f 55//2 54//2 87//2
f 87//2 54//2 88//2
f 87//2 88//2 89//2
f 51//2 50//2 90//2
f 90//2 50//2 91//2
f 91//2 47//2 18//2
f 90//2 91//2 18//2
f 93//2 86//2 92//2
f 92//2 86//2 94//2
f 92//2 94//2 95//2
f 95//2 94//2 96//2
f 89//2 93//2 87//2
f 17//2 46//2 94//2
f 17//2 47//2 46//2
f 89//2 88//2 90//2
f 90//2 18//2 89//2
f 47//2 17//2 18//2
f 94//2 86//2 17//2
f 93//2 89//2 86//2
f 97//7 18//7 15//7
f 89//7 18//7 97//7
f 15//5 26//5 98//5
f 27//5 28//5 99//5
f 98//5 27//5 99//5
f 15//5 98//5 99//5
f 97//5 99//5 100//5
f 99//5 97//5 15//5
f 27//2 49//2 44//2
f 26//2 27//2 44//2
f 29//2 53//2 48//2
f 28//2 29//2 48//2
f 29//5 30//5 101//5
f 29//5 101//5 102//5
f 20//2 56//2 52//2
f 30//2 20//2 52//2
f 20//5 21//5 103//5
f 20//5 103//5 104//5
f 22//2 61//2 59//2
f 21//2 22//2 59//2
f 22//5 23//5 105//5
f 22//5 105//5 106//5
f 32//2 60//2 23//2
f 24//2 32//2 23//2
f 36//9 35//9 64//9
f 85//9 36//9 64//9
f 107//6 108//6 105//6
f 23//6 107//6 105//6
f 63//6 23//6 60//6
f 63//6 107//6 23//6
f 63//2 62//2 107//2
f 107//2 62//2 109//2
f 106//9 110//9 109//9
f 106//9 109//9 22//9
f 61//9 22//9 62//9
f 22//9 109//9 62//9
f 111//6 112//6 103//6
f 21//6 111//6 103//6
f 58//6 21//6 59//6
f 58//6 111//6 21//6
f 58//2 57//2 111//2
f 111//2 57//2 113//2
f 104//9 114//9 113//9
f 104//9 113//9 20//9
f 56//9 20//9 57//9
f 20//9 113//9 57//9
f 87//6 115//6 101//6
f 30//6 87//6 101//6
f 55//6 30//6 52//6
f 55//6 87//6 30//6
f 102//9 116//9 88//9
f 102//9 88//9 29//9
f 53//9 29//9 54//9
f 29//9 88//9 54//9
f 90//6 99//6 28//6
f 51//6 28//6 48//6
f 51//6 90//6 28//6
f 27//9 98//9 91//9
f 49//9 27//9 50//9
f 27//9 91//9 50//9
f 91//1 98//1 26//1
f 47//1 26//1 44//1
f 47//1 91//1 26//1
f 46//7 45//7 25//7
f 94//7 25//7 76//7
f 94//7 46//7 25//7
f 14//6 41//6 43//6
f 80//6 14//6 117//6
f 118//6 80//6 117//6
f 14//6 43//6 117//6
f 43//2 42//2 117//2
f 117//2 42//2 119//2
f 42//9 40//9 13//9
f 119//9 13//9 79//9
f 119//9 79//9 120//9
f 119//9 42//9 13//9
f 12//6 37//6 39//6
f 82//6 12//6 121//6
f 122//6 82//6 121//6
f 12//6 39//6 121//6
f 39//2 38//2 121//2
f 121//2 38//2 123//2
f 38//9 34//9 9//9
f 123//9 9//9 81//9
f 123//9 81//9 124//9
f 123//9 38//9 9//9
f 125//8 67//8 126//8
f 125//8 126//8 127//8
f 128//8 129//8 130//8
f 128//8 67//8 125//8
f 84//8 128//8 130//8
f 64//8 84//8 85//8
f 64//8 128//8 84//8
f 64//8 67//8 128//8
f 131//1 126//1 69//1
f 126//1 67//1 69//1
f 132//8 71//8 133//8
f 132//8 133//8 134//8
f 135//8 136//8 137//8
f 135//8 137//8 138//8
f 139//8 140//8 141//8
f 139//8 141//8 142//8
f 143//8 144//8 145//8
f 143//8 145//8 146//8
f 147//8 148//8 149//8
f 147//8 149//8 150//8
f 131//8 151//8 152//8
f 69//8 151//8 131//8
f 69//8 71//8 132//8
f 69//8 132//8 136//8
f 69//8 136//8 135//8
f 69//8 135//8 140//8
f 69//8 140//8 139//8
f 69//8 139//8 144//8
f 69//8 144//8 143//8
f 69//8 143//8 148//8
f 69//8 148//8 147//8
f 69//8 147//8 151//8
f 153//7 133//7 71//7
f 70//7 153//7 71//7
f 153//3 70//3 154//3
f 155//3 153//3 154//3
f 158//3 157//3 156//3
f 156//3 157//3 68//3
f 154//3 70//3 68//3
f 159//3 154//3 68//3
f 160//3 159//3 68//3
f 161//3 160//3 68//3
f 162//3 161//3 68//3
f 163//10 162//10 68//10
f 164//3 163//3 68//3
f 165//3 164//3 68//3
f 166//3 165//3 68//3
f 167//3 166//3 68//3
f 168//3 167//3 68//3
f 157//3 168//3 68//3
f 169//7 156//7 68//7
f 169//7 68//7 66//7
f 169//3 66//3 170//3
f 171//3 169//3 170//3
f 170//3 66//3 172//3
f 172//3 66//3 173//3
f 83//3 173//3 65//3
f 72//3 83//3 65//3
f 173//3 66//3 65//3
f 175//8 174//8 105//8
f 105//8 174//8 106//8
f 106//8 174//8 103//8
f 103//8 174//8 104//8
f 104//8 174//8 101//8
f 89//8 97//8 86//8
f 86//8 97//8 75//8
f 178//8 177//8 176//8
f 176//8 177//8 179//8
f 182//8 181//8 180//8
f 180//8 181//8 183//8
f 185//8 184//8 183//8
f 181//8 185//8 183//8
f 101//8 174//8 183//8
f 102//8 101//8 183//8
f 100//11 102//11 183//11
f 97//12 100//12 183//12
f 75//8 97//8 183//8
f 74//8 75//8 183//8
f 78//13 74//13 183//13
f 77//8 78//8 183//8
f 80//8 77//8 183//8
f 79//8 80//8 183//8
f 82//8 79//8 183//8
f 81//8 82//8 183//8
f 186//8 81//8 183//8
f 187//8 186//8 183//8
f 188//8 187//8 183//8
f 177//14 188//14 183//14
f 179//8 177//8 183//8
f 189//15 179//15 183//15
f 190//8 189//8 183//8
f 191//8 190//8 183//8
f 192//8 191//8 183//8
f 193//8 192//8 183//8
f 194//8 193//8 183//8
f 195//8 194//8 183//8
f 196//8 195//8 183//8
f 184//8 196//8 183//8
f 92//7 73//7 74//7
f 93//7 74//7 197//7
f 93//7 92//7 74//7
f 78//6 73//6 92//6
f 198//6 78//6 95//6
f 78//6 92//6 95//6
f 94//9 76//9 77//9
f 96//9 77//9 199//9
f 96//9 94//9 77//9
f 83//6 84//6 130//6
f 186//6 83//6 200//6
f 201//6 186//6 200//6
f 83//6 130//6 200//6
f 88//1 116//1 100//1
f 90//1 100//1 99//1
f 90//1 88//1 100//1
f 108//3 202//3 203//3
f 108//3 107//3 109//3
f 110//3 108//3 109//3
f 110//3 202//3 108//3
f 112//3 111//3 113//3
f 112//3 202//3 110//3
f 114//3 112//3 113//3
f 114//3 202//3 112//3
f 115//3 202//3 114//3
f 197//3 115//3 87//3
f 197//3 87//3 93//3
f 199//3 198//3 95//3
f 199//3 95//3 96//3
f 120//3 118//3 117//3
f 120//3 117//3 119//3
f 124//3 122//3 121//3
f 124//3 121//3 123//3
f 204//3 201//3 200//3
f 204//3 200//3 205//3
f 206//3 207//3 208//3
f 206//3 208//3 209//3
f 210//3 211//3 212//3
f 210//3 212//3 213//3
f 214//3 215//3 216//3
f 214//3 216//3 217//3
f 218//3 219//3 220//3
f 221//3 219//3 218//3
f 221//3 202//3 115//3
f 221//3 115//3 197//3
f 221//3 197//3 198//3
f 221//3 198//3 199//3
f 221//3 199//3 118//3
f 221//3 118//3 120//3
f 221//3 120//3 122//3
f 221//3 122//3 124//3
f 221//3 124//3 201//3
f 221//3 201//3 204//3
f 221//3 204//3 207//3
f 221//3 207//3 206//3
f 221//3 206//3 211//3
f 221//3 211//3 210//3
f 221//3 210//3 215//3
f 221//3 215//3 214//3
f 221//3 214//3 219//3
f 203//2 175//2 105//2
f 203//2 105//2 108//2
f 110//2 106//2 103//2
f 110//2 103//2 112//2
f 114//2 104//2 101//2
f 114//2 101//2 115//2
f 116//2 102//2 100//2
f 80//2 118//2 199//2
f 80//2 199//2 77//2
f 82//2 122//2 120//2
f 82//2 120//2 79//2
f 186//2 201//2 124//2
f 186//2 124//2 81//2
f 130//2 129//2 200//2
f 200//2 129//2 222//2
f 200//2 222//2 178//2
f 178//2 127//2 171//2
f 171//2 127//2 126//2
f 171//2 126//2 169//2
f 126//2 131//2 156//2
f 169//2 126//2 156//2
f 205//2 176//2 223//2
f 223//2 176//2 224//2
f 223//2 224//2 208//2
f 208//2 224//2 209//2
f 178//2 205//2 200//2
f 158//2 152//2 224//2
f 158//2 131//2 152//2
f 178//2 222//2 127//2
f 131//2 158//2 156//2
f 224//2 176//2 158//2
f 205//2 178//2 176//2
f 129//9 128//9 173//9
f 222//9 173//9 187//9
f 222//9 187//9 225//9
f 222//9 129//9 173//9
f 125//2 172//2 173//2
f 125//2 173//2 128//2
f 222//1 225//1 188//1
f 172//1 222//1 188//1
f 127//1 172//1 125//1
f 127//1 222//1 172//1
f 152//7 151//7 168//7
f 224//7 168//7 226//7
f 224//7 152//7 168//7
f 147//2 167//2 151//2
f 151//2 167//2 168//2
f 167//6 147//6 150//6
f 192//6 167//6 212//6
f 211//6 192//6 212//6
f 167//6 150//6 212//6
f 150//2 149//2 212//2
f 212//2 149//2 213//2
f 149//9 148//9 166//9
f 213//9 166//9 193//9
f 213//9 193//9 210//9
f 213//9 149//9 166//9
f 143//2 165//2 166//2
f 143//2 166//2 148//2
f 165//6 143//6 146//6
f 194//6 165//6 216//6
f 215//6 194//6 216//6
f 165//6 146//6 216//6
f 146//2 145//2 216//2
f 216//2 145//2 217//2
f 145//9 144//9 164//9
f 217//9 164//9 195//9
f 217//9 195//9 214//9
f 217//9 145//9 164//9
f 139//2 163//2 164//2
f 139//2 164//2 144//2
f 163//6 139//6 142//6
f 196//6 163//6 220//6
f 219//6 196//6 220//6
f 163//6 142//6 220//6
f 142//2 141//2 220//2
f 220//2 141//2 227//2
f 220//2 227//2 182//2
f 138//2 137//2 228//2
f 228//2 137//2 229//2
f 229//2 134//2 155//2
f 228//2 229//2 155//2
f 153//2 134//2 133//2
f 182//2 218//2 220//2
f 218//2 182//2 180//2
f 228//2 155//2 182//2
f 227//2 228//2 182//2
f 134//2 153//2 155//2
f 141//9 140//9 162//9
f 227//9 162//9 184//9
f 227//9 184//9 230//9
f 227//9 141//9 162//9
f 135//2 161//2 162//2
f 135//2 162//2 140//2
f 161//6 135//6 138//6
f 231//6 161//6 228//6
f 161//6 138//6 228//6
f 137//9 136//9 160//9
f 229//9 160//9 232//9
f 229//9 137//9 160//9
f 132//2 159//2 160//2
f 132//2 160//2 136//2
f 229//1 232//1 159//1
f 134//1 159//1 132//1
f 134//1 229//1 159//1
f 157//1 176//1 179//1
f 158//1 176//1 157//1
f 179//5 189//5 233//5
f 190//5 191//5 226//5
f 233//5 190//5 226//5
f 226//5 157//5 179//5
f 233//5 226//5 179//5
f 157//5 226//5 168//5
f 167//5 192//5 166//5
f 192//5 193//5 166//5
f 165//5 194//5 164//5
f 194//5 195//5 164//5
f 196//5 184//5 162//5
f 196//5 162//5 163//5
f 161//5 231//5 160//5
f 231//5 232//5 160//5
f 159//5 232//5 154//5
f 232//5 231//5 154//5
f 231//5 181//5 154//5
f 181//5 231//5 185//5
f 181//7 155//7 154//7
f 182//7 155//7 181//7
f 177//7 171//7 170//7
f 178//7 171//7 177//7
f 186//5 187//5 173//5
f 186//5 173//5 83//5
f 188//5 177//5 172//5
f 177//5 170//5 172//5
f 175//6 203//6 202//6
f 174//6 175//6 202//6
f 188//2 225//2 187//2
f 78//2 198//2 74//2
f 74//2 198//2 197//2
f 185//2 230//2 184//2
f 196//2 219//2 214//2
f 196//2 214//2 195//2
f 194//2 215//2 210//2
f 194//2 210//2 193//2
f 192//2 211//2 206//2
f 192//2 206//2 191//2
f 190//2 207//2 189//2
f 189//2 207//2 204//2
f 218//7 180//7 183//7
f 221//7 218//7 183//7
f 183//5 174//5 202//5
f 183//5 202//5 221//5
f 224//9 226//9 191//9
f 209//9 191//9 206//9
f 209//9 224//9 191//9
f 190//6 233//6 223//6
f 207//6 190//6 208//6
f 190//6 223//6 208//6
f 223//7 233//7 189//7
f 205//7 189//7 204//7
f 205//7 223//7 189//7
f 227//1 230//1 185//1
f 228//1 185//1 231//1
f 228//1 227//1 185//1
