# Blender 4.0.2
# www.blender.org
o 7b6bdc764f71b29e9e7a8add22dcc996af5b5fa26c3bcb5a282e561a7ba3b85
v 61.700935 315.000000 1600.000000
v -738.299072 280.000000 800.000000
v -738.299072 315.000000 800.000000
v 61.700935 280.000000 1600.000000
v -667.588379 280.000000 800.000000
v 132.411621 280.000000 1600.000000
v 132.411621 315.000000 1600.000000
v -667.588379 315.000000 800.000000
vn -0.7071 -0.0000 0.7071
vn -0.0000 -1.0000 -0.0000
vn -0.0000 -0.0000 1.0000
vn -0.0000 1.0000 -0.0000
vn -0.0000 -0.0000 -1.0000
vn 0.7071 -0.0000 -0.7071
s 0
f 3//1 2//1 1//1
f 1//1 2//1 4//1
f 4//2 2//2 5//2
f 4//2 5//2 6//2
f 4//3 6//3 7//3
f 1//3 4//3 7//3
f 8//4 3//4 1//4
f 7//4 8//4 1//4
f 8//5 5//5 2//5
f 8//5 2//5 3//5
f 7//6 6//6 8//6
f 8//6 6//6 5//6
