# Blender 4.0.2
# www.blender.org
o 864b88cc06a7e995c97ef9c7d7b86fc0c89274e01b225a05a969beb79362883
v 1600.000000 315.000000 -1600.000000
v 1600.000000 280.000000 -1600.000000
v 1564.644653 280.000000 -1600.000000
v 1564.644653 315.000000 -1600.000000
v 1600.000000 280.000000 -1564.644653
v 1600.000000 315.000000 -1564.644653
vn -0.0000 -0.0000 -1.0000
vn -0.0000 -1.0000 -0.0000
vn 1.0000 -0.0000 -0.0000
vn -0.0000 1.0000 -0.0000
vn -0.7071 -0.0000 0.7071
s 0
f 1//1 2//1 3//1
f 1//1 3//1 4//1
f 5//2 3//2 2//2
f 6//3 5//3 2//3
f 6//3 2//3 1//3
f 1//4 4//4 6//4
f 4//5 3//5 6//5
f 6//5 3//5 5//5
