# Blender 4.0.2
# www.blender.org
o 8f4de43ce7fa42a3656fa84678cf1b9a1f4bbb1f047620f29c7643b15ca28d6
v 1600.000000 80.000000 1501.005005
v 1501.005005 160.000000 1600.000000
v 1501.005005 80.000000 1600.000000
v 1600.000000 160.000000 1501.005005
v 1493.933960 80.000000 1600.000000
v 1600.000000 80.000000 1493.933960
v 1493.933960 160.000000 1600.000000
v 1600.000000 160.000000 1493.933960
vn 0.7071 -0.0000 0.7071
vn -0.0000 -1.0000 -0.0000
vn -0.0000 -0.0000 1.0000
vn -0.0000 1.0000 -0.0000
vn 1.0000 -0.0000 -0.0000
vn -0.7071 -0.0000 -0.7071
s 0
f 1//1 2//1 3//1
f 4//1 2//1 1//1
f 3//2 5//2 1//2
f 1//2 5//2 6//2
f 5//3 3//3 7//3
f 7//3 3//3 2//3
f 2//4 4//4 8//4
f 7//4 2//4 8//4
f 1//5 6//5 4//5
f 4//5 6//5 8//5
f 7//6 6//6 5//6
f 7//6 8//6 6//6
