# Blender 4.0.2
# www.blender.org
o 958e12a6547f26f60fca7f59ed636a5a72da1eb356ca563e932d6a48bc53cc5
v -1375.000000 80.000000 -279.629883
v -1375.000000 80.000000 -170.370132
v -1375.000000 120.000000 -170.370132
v -1375.000000 120.000000 -279.629883
v -1600.000000 160.000000 54.629868
v -1600.000000 80.000000 54.629868
v -805.000000 80.000000 -740.370117
v -1025.000000 120.000000 -520.370117
v -1025.000000 80.000000 -520.370117
v -805.000000 160.000000 -740.370117
v -1370.000000 120.000000 -175.370132
v -1300.370117 120.000000 -245.000000
v -1290.370117 120.000000 -255.000000
v -1200.370117 120.000000 -345.000000
v -1190.370117 120.000000 -355.000000
v -1100.370117 120.000000 -445.000000
v -1090.370117 120.000000 -455.000000
v -1030.000000 120.000000 -515.370117
v -1370.000000 120.000000 -255.000000
v -1370.000000 120.000000 -284.629883
v -1370.000000 120.000000 -245.000000
v -99.629868 120.000000 -1555.000000
v -54.629868 160.000000 -1600.000000
v -54.629868 120.000000 -1600.000000
v -109.629868 120.000000 -1545.000000
v -170.000000 120.000000 -1484.629883
v -175.000000 120.000000 -1479.629883
v -425.000000 120.000000 -1229.629883
v -175.000000 80.000000 -1479.629883
v -425.000000 80.000000 -1229.629883
v -1025.000000 120.000000 -629.629883
v -775.000000 120.000000 -879.629883
v -775.000000 80.000000 -879.629883
v -1025.000000 80.000000 -629.629883
v -1600.000000 80.000000 -54.629868
v -1600.000000 160.000000 -54.629868
v -430.000000 120.000000 -1224.629883
v -499.629883 120.000000 -1155.000000
v -509.629883 120.000000 -1145.000000
v -599.629883 120.000000 -1055.000000
v -609.629883 120.000000 -1045.000000
v -699.629883 120.000000 -955.000000
v -709.629883 120.000000 -945.000000
v -770.000000 120.000000 -884.629883
v -1030.000000 120.000000 -624.629883
v -1099.629883 120.000000 -555.000000
v -1109.629883 120.000000 -545.000000
v -1199.629883 120.000000 -455.000000
v -1209.629883 120.000000 -445.000000
v -1299.629883 120.000000 -355.000000
v -1309.629883 120.000000 -345.000000
v -1370.000000 80.000000 -168.299057
v -1600.000000 80.000000 61.700935
v -1370.000000 80.000000 -245.000000
v -1370.000000 80.000000 -255.000000
v -1370.000000 80.000000 -291.700928
v -1293.299072 80.000000 -245.000000
v -1600.000000 80.000000 -61.700935
v -1283.299072 80.000000 -255.000000
v -800.000000 160.000000 -738.299072
v -1600.000000 160.000000 61.700935
v -800.000000 160.000000 -790.990234
v -805.000000 160.000000 -793.061340
v -793.061340 160.000000 -805.000000
v -790.990234 160.000000 -800.000000
v -740.370117 160.000000 -805.000000
v -738.299072 160.000000 -800.000000
v 54.629868 160.000000 -1600.000000
v 61.700935 160.000000 -1600.000000
v -805.000000 80.000000 -793.061340
v -1030.000000 80.000000 -545.000000
v -1030.000000 80.000000 -508.299072
v -1030.000000 80.000000 -555.000000
v -1106.700928 80.000000 -555.000000
v -1030.000000 80.000000 -631.700928
v -800.000000 80.000000 -738.299072
v -800.000000 80.000000 -790.990234
v -793.061340 80.000000 -805.000000
v -790.990234 80.000000 -800.000000
v -775.000000 80.000000 -805.000000
v -770.000000 80.000000 -800.000000
v -770.000000 80.000000 -845.000000
v -770.000000 80.000000 -891.700928
v -770.000000 80.000000 -855.000000
v -693.299072 80.000000 -845.000000
v -1116.700928 80.000000 -545.000000
v -683.299072 80.000000 -855.000000
v -1030.000000 120.000000 -555.000000
v -1030.000000 120.000000 -545.000000
v -1030.000000 120.000000 -508.299072
v -1083.299072 120.000000 -455.000000
v -1183.299072 120.000000 -355.000000
v -1093.299072 120.000000 -445.000000
v -1283.299072 120.000000 -255.000000
v -1193.299072 120.000000 -345.000000
v -1370.000000 120.000000 -168.299057
v -1293.299072 120.000000 -245.000000
v -1370.000000 120.000000 -291.700928
v -1316.700928 120.000000 -345.000000
v -1306.700928 120.000000 -355.000000
v -1216.700928 120.000000 -445.000000
v -1206.700928 120.000000 -455.000000
v -1116.700928 120.000000 -545.000000
v -1106.700928 120.000000 -555.000000
v -1030.000000 120.000000 -631.700928
v -775.000000 120.000000 -805.000000
v -770.000000 120.000000 -855.000000
v -770.000000 120.000000 -845.000000
v -770.000000 120.000000 -805.000000
v -700.370117 120.000000 -845.000000
v -690.370117 120.000000 -855.000000
v -770.000000 120.000000 -891.700928
v -716.700928 120.000000 -945.000000
v -600.370117 120.000000 -945.000000
v -590.370117 120.000000 -955.000000
v -706.700928 120.000000 -955.000000
v -616.700928 120.000000 -1045.000000
v -500.370117 120.000000 -1045.000000
v -490.370117 120.000000 -1055.000000
v -606.700928 120.000000 -1055.000000
v -516.700928 120.000000 -1145.000000
v -430.000000 120.000000 -1155.000000
v -430.000000 120.000000 -1145.000000
v -425.000000 120.000000 -1120.370117
v -430.000000 120.000000 -1115.370117
v -506.700928 120.000000 -1155.000000
v -430.000000 120.000000 -1231.700928
v -425.000000 80.000000 -1120.370117
v -430.000000 80.000000 -1145.000000
v -430.000000 80.000000 -1108.299072
v -430.000000 80.000000 -1155.000000
v -506.700928 80.000000 -1155.000000
v -430.000000 80.000000 -1231.700928
v -170.000000 80.000000 -1368.299072
v -170.000000 80.000000 -1445.000000
v -175.000000 80.000000 -1370.370117
v -170.000000 80.000000 -1455.000000
v -170.000000 80.000000 -1491.700928
v -93.299065 80.000000 -1445.000000
v -516.700928 80.000000 -1145.000000
v -83.299065 80.000000 -1455.000000
v -175.000000 120.000000 -1370.370117
v -170.000000 120.000000 -1455.000000
v -170.000000 120.000000 -1445.000000
v -170.000000 120.000000 -1375.370117
v -100.370132 120.000000 -1445.000000
v -90.370132 120.000000 -1455.000000
v -170.000000 120.000000 -1491.700928
v -116.700935 120.000000 -1545.000000
v -0.370132 120.000000 -1545.000000
v 9.629868 120.000000 -1555.000000
v -106.700935 120.000000 -1555.000000
v -61.700935 120.000000 -1600.000000
v -61.700935 160.000000 -1600.000000
v -1600.000000 160.000000 -61.700935
v -106.700935 80.000000 -1555.000000
v -116.700935 80.000000 -1545.000000
v -606.700928 80.000000 -1055.000000
v -616.700928 80.000000 -1045.000000
v -706.700928 80.000000 -955.000000
v -716.700928 80.000000 -945.000000
v -1206.700928 80.000000 -455.000000
v -1216.700928 80.000000 -445.000000
v -1306.700928 80.000000 -355.000000
v -1316.700928 80.000000 -345.000000
v -1193.299072 80.000000 -345.000000
v -1183.299072 80.000000 -355.000000
v -1093.299072 80.000000 -445.000000
v -1083.299072 80.000000 -455.000000
v -740.370117 120.000000 -805.000000
v 54.629868 120.000000 -1600.000000
v 61.700935 120.000000 -1600.000000
v -693.299072 120.000000 -845.000000
v -738.299072 120.000000 -800.000000
v -683.299072 120.000000 -855.000000
v -593.299072 120.000000 -945.000000
v -593.299072 80.000000 -945.000000
v -583.299072 80.000000 -955.000000
v -583.299072 120.000000 -955.000000
v -483.299072 120.000000 -1055.000000
v -493.299072 120.000000 -1045.000000
v -493.299072 80.000000 -1045.000000
v -483.299072 80.000000 -1055.000000
v -170.000000 120.000000 -1368.299072
v -430.000000 120.000000 -1108.299072
v -83.299065 120.000000 -1455.000000
v -93.299065 120.000000 -1445.000000
v 16.700935 120.000000 -1555.000000
v 6.700936 120.000000 -1545.000000
v 6.700936 80.000000 -1545.000000
v 16.700935 80.000000 -1555.000000
v -770.000000 120.000000 -800.000000
vn -1.0000 -0.0000 -0.0000
vn -0.7071 -0.0000 -0.7071
vn -0.7071 -0.0001 -0.7071
vn -0.0000 1.0000 -0.0000
vn 0.7071 -0.0000 0.7071
vn 0.7071 0.0004 0.7071
vn -0.0000 -1.0000 -0.0000
vn 1.0000 -0.0000 -0.0000
vn -0.0000 -0.0000 -1.0000
vn -0.0000 -0.0000 1.0000
s 0
f 1//1 2//1 3//1
f 1//1 3//1 4//1
f 6//2 5//2 3//2
f 2//2 6//2 3//2
f 9//2 8//2 7//2
f 7//2 8//2 10//2
f 3//2 5//2 10//2
f 11//3 3//3 10//3
f 12//2 11//2 10//2
f 13//2 12//2 10//2
f 14//2 13//2 10//2
f 15//2 14//2 10//2
f 16//2 15//2 10//2
f 17//2 16//2 10//2
f 18//2 17//2 10//2
f 8//3 18//3 10//3
f 20//4 4//4 19//4
f 19//4 4//4 21//4
f 21//4 3//4 11//4
f 19//4 21//4 12//4
f 12//4 13//4 19//4
f 21//4 4//4 3//4
f 24//5 23//5 22//5
f 22//5 23//5 25//5
f 25//5 23//5 26//5
f 26//5 23//5 27//5
f 29//5 27//5 28//5
f 30//5 29//5 28//5
f 27//5 23//5 28//5
f 33//5 32//5 31//5
f 34//5 33//5 31//5
f 1//5 4//5 35//5
f 35//5 4//5 36//5
f 28//5 23//5 36//5
f 37//6 28//6 36//6
f 38//5 37//5 36//5
f 39//5 38//5 36//5
f 40//5 39//5 36//5
f 41//5 40//5 36//5
f 42//5 41//5 36//5
f 43//5 42//5 36//5
f 44//5 43//5 36//5
f 32//5 44//5 36//5
f 31//5 32//5 36//5
f 45//5 31//5 36//5
f 46//5 45//5 36//5
f 47//5 46//5 36//5
f 48//5 47//5 36//5
f 49//5 48//5 36//5
f 50//5 49//5 36//5
f 51//5 50//5 36//5
f 20//5 51//5 36//5
f 4//5 20//5 36//5
f 53//7 6//7 52//7
f 52//7 2//7 54//7
f 55//7 54//7 1//7
f 55//7 1//7 56//7
f 54//7 55//7 57//7
f 1//7 58//7 56//7
f 58//7 1//7 35//7
f 54//7 2//7 1//7
f 52//7 6//7 2//7
f 57//7 55//7 59//7
f 60//4 10//4 5//4
f 60//4 5//4 61//4
f 62//4 63//4 10//4
f 62//4 10//4 60//4
f 64//4 62//4 65//4
f 64//4 63//4 62//4
f 66//4 65//4 67//4
f 66//4 64//4 65//4
f 68//4 66//4 67//4
f 69//4 68//4 67//4
f 7//1 10//1 63//1
f 70//1 7//1 63//1
f 9//7 72//7 71//7
f 71//7 74//7 73//7
f 9//7 71//7 73//7
f 73//7 75//7 34//7
f 72//7 9//7 76//7
f 7//7 70//7 77//7
f 76//7 7//7 77//7
f 79//7 77//7 78//7
f 77//7 70//7 78//7
f 81//7 79//7 80//7
f 79//7 78//7 80//7
f 81//7 80//7 82//7
f 84//7 33//7 83//7
f 82//7 84//7 85//7
f 74//7 71//7 86//7
f 85//7 84//7 87//7
f 33//7 75//7 83//7
f 76//7 9//7 7//7
f 73//7 34//7 9//7
f 75//7 33//7 34//7
f 82//7 80//7 33//7
f 84//7 82//7 33//7
f 9//8 34//8 31//8
f 9//8 31//8 8//8
f 31//4 45//4 88//4
f 88//4 46//4 89//4
f 89//4 18//4 8//4
f 88//4 89//4 8//4
f 88//4 8//4 31//4
f 46//4 47//4 89//4
f 90//7 17//7 18//7
f 91//7 17//7 90//7
f 48//4 49//4 16//4
f 48//4 16//4 17//4
f 92//7 15//7 16//7
f 93//7 92//7 16//7
f 50//4 51//4 14//4
f 50//4 14//4 15//4
f 94//7 13//7 14//7
f 95//7 94//7 14//7
f 96//7 11//7 12//7
f 97//7 96//7 12//7
f 6//1 53//1 5//1
f 5//1 53//1 61//1
f 13//9 94//9 59//9
f 19//9 13//9 55//9
f 13//9 59//9 55//9
f 20//8 19//8 55//8
f 98//8 20//8 56//8
f 20//8 55//8 56//8
f 11//8 96//8 52//8
f 21//8 11//8 54//8
f 11//8 52//8 54//8
f 57//10 97//10 12//10
f 54//10 12//10 21//10
f 54//10 57//10 12//10
f 20//7 98//7 99//7
f 51//7 20//7 99//7
f 50//7 100//7 101//7
f 49//7 50//7 101//7
f 48//7 102//7 103//7
f 48//7 103//7 47//7
f 46//7 104//7 105//7
f 45//7 46//7 105//7
f 33//1 80//1 106//1
f 33//1 106//1 32//1
f 44//4 32//4 107//4
f 107//4 32//4 108//4
f 108//4 106//4 109//4
f 107//4 108//4 110//4
f 108//4 32//4 106//4
f 110//4 111//4 107//4
f 44//7 112//7 113//7
f 43//7 44//7 113//7
f 42//4 43//4 114//4
f 42//4 114//4 115//4
f 42//7 116//7 117//7
f 41//7 42//7 117//7
f 40//4 41//4 118//4
f 40//4 118//4 119//4
f 40//7 120//7 121//7
f 39//7 40//7 121//7
f 28//4 37//4 122//4
f 122//4 38//4 123//4
f 122//4 123//4 124//4
f 124//4 123//4 125//4
f 38//4 39//4 123//4
f 122//4 124//4 28//4
f 37//7 126//7 127//7
f 37//7 38//7 126//7
f 124//8 30//8 28//8
f 128//8 30//8 124//8
f 128//7 130//7 129//7
f 129//7 132//7 131//7
f 128//7 129//7 131//7
f 131//7 133//7 30//7
f 130//7 128//7 134//7
f 134//7 136//7 135//7
f 137//7 135//7 29//7
f 137//7 29//7 138//7
f 135//7 137//7 139//7
f 132//7 129//7 140//7
f 139//7 137//7 141//7
f 29//7 133//7 138//7
f 131//7 30//7 128//7
f 133//7 29//7 30//7
f 135//7 136//7 29//7
f 134//7 128//7 136//7
f 27//1 136//1 142//1
f 29//1 136//1 27//1
f 26//4 27//4 143//4
f 143//4 27//4 144//4
f 144//4 142//4 145//4
f 143//4 144//4 146//4
f 144//4 27//4 142//4
f 146//4 147//4 143//4
f 26//7 148//7 149//7
f 25//7 26//7 149//7
f 22//4 25//4 150//4
f 22//4 150//4 151//4
f 22//7 152//7 153//7
f 22//7 153//7 24//7
f 154//9 24//9 153//9
f 23//9 24//9 154//9
f 23//4 154//4 155//4
f 23//4 155//4 36//4
f 155//1 58//1 36//1
f 58//1 35//1 36//1
f 152//2 154//2 153//2
f 149//2 152//2 156//2
f 149//2 156//2 157//2
f 149//2 154//2 152//2
f 148//2 154//2 149//2
f 133//2 148//2 138//2
f 127//2 148//2 133//2
f 127//2 154//2 148//2
f 121//2 126//2 132//2
f 121//2 132//2 140//2
f 117//2 120//2 158//2
f 117//2 158//2 159//2
f 113//2 116//2 160//2
f 113//2 160//2 161//2
f 105//2 112//2 83//2
f 105//2 83//2 75//2
f 103//2 104//2 74//2
f 103//2 74//2 86//2
f 101//2 102//2 162//2
f 101//2 162//2 163//2
f 100//2 164//2 165//2
f 99//2 100//2 165//2
f 58//2 98//2 56//2
f 155//2 98//2 58//2
f 155//2 154//2 127//2
f 155//2 127//2 126//2
f 155//2 126//2 121//2
f 155//2 121//2 120//2
f 155//2 120//2 117//2
f 155//2 117//2 116//2
f 155//2 116//2 113//2
f 155//2 113//2 112//2
f 155//2 112//2 105//2
f 155//2 105//2 104//2
f 155//2 104//2 103//2
f 155//2 103//2 102//2
f 155//2 102//2 101//2
f 155//2 101//2 100//2
f 155//2 100//2 99//2
f 155//2 99//2 98//2
f 96//5 61//5 53//5
f 96//5 53//5 52//5
f 97//5 57//5 59//5
f 94//5 97//5 59//5
f 92//5 95//5 166//5
f 92//5 166//5 167//5
f 91//5 93//5 168//5
f 91//5 168//5 169//5
f 76//5 90//5 72//5
f 60//5 90//5 76//5
f 60//5 61//5 96//5
f 60//5 96//5 97//5
f 60//5 97//5 94//5
f 60//5 94//5 95//5
f 60//5 95//5 92//5
f 60//5 92//5 93//5
f 60//5 93//5 91//5
f 60//5 91//5 90//5
f 78//2 70//2 63//2
f 78//2 63//2 64//2
f 80//9 78//9 106//9
f 109//9 106//9 64//9
f 106//9 78//9 64//9
f 170//9 109//9 66//9
f 109//9 64//9 66//9
f 170//2 66//2 110//2
f 110//2 66//2 111//2
f 111//2 66//2 114//2
f 114//2 66//2 115//2
f 128//2 124//2 136//2
f 136//2 124//2 142//2
f 147//2 146//2 68//2
f 150//2 147//2 68//2
f 151//2 150//2 68//2
f 171//2 151//2 68//2
f 115//2 66//2 68//2
f 118//2 115//2 68//2
f 119//2 118//2 68//2
f 125//2 119//2 68//2
f 124//2 125//2 68//2
f 142//2 124//2 68//2
f 145//2 142//2 68//2
f 146//2 145//2 68//2
f 68//9 172//9 171//9
f 69//9 172//9 68//9
f 173//5 85//5 87//5
f 173//5 67//5 174//5
f 175//5 67//5 173//5
f 175//5 173//5 87//5
f 176//5 177//5 178//5
f 176//5 67//5 175//5
f 179//5 176//5 178//5
f 179//5 67//5 176//5
f 180//5 181//5 182//5
f 180//5 182//5 183//5
f 184//5 185//5 130//5
f 184//5 130//5 134//5
f 186//5 187//5 139//5
f 186//5 139//5 141//5
f 188//5 189//5 190//5
f 188//5 190//5 191//5
f 69//5 186//5 189//5
f 69//5 188//5 172//5
f 69//5 187//5 186//5
f 69//5 189//5 188//5
f 69//5 67//5 179//5
f 69//5 179//5 181//5
f 69//5 181//5 180//5
f 69//5 180//5 185//5
f 69//5 185//5 184//5
f 69//5 184//5 187//5
f 192//10 79//10 81//10
f 65//10 79//10 192//10
f 67//10 192//10 174//10
f 67//10 65//10 192//10
f 65//5 77//5 79//5
f 65//5 62//5 77//5
f 60//8 76//8 77//8
f 62//8 60//8 77//8
f 88//9 73//9 46//9
f 104//9 46//9 74//9
f 46//9 73//9 74//9
f 45//1 105//1 75//1
f 88//1 45//1 73//1
f 45//1 75//1 73//1
f 47//10 71//10 89//10
f 86//10 47//10 103//10
f 86//10 71//10 47//10
f 18//1 89//1 71//1
f 90//1 18//1 72//1
f 18//1 71//1 72//1
f 44//8 107//8 84//8
f 112//8 44//8 83//8
f 44//8 84//8 83//8
f 111//9 175//9 87//9
f 107//9 111//9 84//9
f 111//9 87//9 84//9
f 85//10 173//10 110//10
f 82//10 110//10 108//10
f 82//10 85//10 110//10
f 109//8 192//8 81//8
f 108//8 109//8 82//8
f 109//8 81//8 82//8
f 17//9 91//9 169//9
f 48//9 17//9 162//9
f 102//9 48//9 162//9
f 17//9 169//9 162//9
f 168//10 93//10 16//10
f 163//10 16//10 49//10
f 163//10 49//10 101//10
f 163//10 168//10 16//10
f 15//9 92//9 167//9
f 50//9 15//9 164//9
f 100//9 50//9 164//9
f 15//9 167//9 164//9
f 166//10 95//10 14//10
f 165//10 14//10 51//10
f 165//10 51//10 99//10
f 165//10 166//10 14//10
f 177//10 176//10 114//10
f 161//10 114//10 43//10
f 161//10 43//10 113//10
f 161//10 177//10 114//10
f 115//9 179//9 178//9
f 42//9 115//9 160//9
f 116//9 42//9 160//9
f 115//9 178//9 160//9
f 182//10 181//10 118//10
f 159//10 118//10 41//10
f 159//10 41//10 117//10
f 159//10 182//10 118//10
f 119//9 180//9 183//9
f 40//9 119//9 158//9
f 120//9 40//9 158//9
f 119//9 183//9 158//9
f 39//10 129//10 123//10
f 140//10 39//10 121//10
f 140//10 129//10 39//10
f 125//1 123//1 129//1
f 185//1 125//1 130//1
f 125//1 129//1 130//1
f 37//1 127//1 133//1
f 122//1 37//1 131//1
f 37//1 133//1 131//1
f 122//9 131//9 38//9
f 126//9 38//9 132//9
f 38//9 131//9 132//9
f 26//8 143//8 137//8
f 148//8 26//8 138//8
f 26//8 137//8 138//8
f 147//9 186//9 141//9
f 143//9 147//9 137//9
f 147//9 141//9 137//9
f 145//8 184//8 134//8
f 144//8 145//8 135//8
f 145//8 134//8 135//8
f 139//10 187//10 146//10
f 135//10 146//10 144//10
f 135//10 139//10 146//10
f 190//10 189//10 150//10
f 25//10 190//10 150//10
f 157//10 25//10 149//10
f 157//10 190//10 25//10
f 151//9 188//9 191//9
f 151//9 191//9 22//9
f 152//9 22//9 156//9
f 22//9 191//9 156//9
f 165//7 164//7 166//7
f 166//7 164//7 167//7
f 163//7 162//7 168//7
f 168//7 162//7 169//7
f 161//7 160//7 177//7
f 177//7 160//7 178//7
f 159//7 158//7 182//7
f 182//7 158//7 183//7
f 157//7 156//7 190//7
f 190//7 156//7 191//7
f 170//7 192//7 109//7
f 174//7 170//7 110//7
f 174//7 192//7 170//7
f 173//7 174//7 110//7
f 180//7 125//7 185//7
f 180//7 119//7 125//7
f 179//7 115//7 118//7
f 181//7 179//7 118//7
f 175//7 111//7 114//7
f 176//7 175//7 114//7
f 188//7 151//7 171//7
f 188//7 171//7 172//7
f 186//7 147//7 150//7
f 189//7 186//7 150//7
f 184//7 146//7 187//7
f 184//7 145//7 146//7
