# Blender 4.0.2
# www.blender.org
o 9674dfa5a0b157396c3348f9d3ad0e4e0fd2a99a5cbbdcf448cd8ec3738f6fa
v -1600.000000 160.000000 344.543640
v -1600.000000 160.000000 362.563141
v -1600.000000 80.000000 362.563141
v -1600.000000 80.000000 344.543640
v 170.000000 120.000000 -1407.436890
v 362.563141 160.000000 -1600.000000
v 362.563141 80.000000 -1600.000000
v 170.000000 80.000000 -1407.436890
v 117.563133 120.000000 -1355.000000
v 117.563133 80.000000 -1355.000000
v 107.563133 80.000000 -1345.000000
v 107.563133 120.000000 -1345.000000
v 7.563133 120.000000 -1245.000000
v 17.563133 120.000000 -1255.000000
v 17.563133 80.000000 -1255.000000
v 7.563133 80.000000 -1245.000000
v -92.436867 120.000000 -1145.000000
v -82.436867 120.000000 -1155.000000
v -82.436867 80.000000 -1155.000000
v -92.436867 80.000000 -1145.000000
v -430.000000 80.000000 -807.436890
v -170.000000 120.000000 -1067.436890
v -170.000000 80.000000 -1067.436890
v -430.000000 120.000000 -807.436890
v -492.436859 120.000000 -745.000000
v -482.436859 120.000000 -755.000000
v -482.436859 80.000000 -755.000000
v -492.436859 80.000000 -745.000000
v -592.436890 120.000000 -645.000000
v -582.436890 120.000000 -655.000000
v -582.436890 80.000000 -655.000000
v -592.436890 80.000000 -645.000000
v -692.436890 120.000000 -545.000000
v -682.436890 120.000000 -555.000000
v -682.436890 80.000000 -555.000000
v -692.436890 80.000000 -545.000000
v -1030.000000 80.000000 -207.436874
v -770.000000 120.000000 -467.436859
v -770.000000 80.000000 -467.436859
v -1030.000000 120.000000 -207.436874
v -1092.436890 120.000000 -145.000000
v -1082.436890 120.000000 -155.000000
v -1082.436890 80.000000 -155.000000
v -1092.436890 80.000000 -145.000000
v -1192.436890 120.000000 -45.000000
v -1182.436890 120.000000 -55.000000
v -1182.436890 80.000000 -55.000000
v -1192.436890 80.000000 -45.000000
v -1292.436890 120.000000 55.000000
v -1282.436890 120.000000 45.000000
v -1282.436890 80.000000 45.000000
v -1292.436890 80.000000 55.000000
v -1370.000000 120.000000 132.563126
v -1370.000000 80.000000 132.563126
v -1370.000000 80.000000 114.543648
v -1370.000000 120.000000 114.543648
v -1300.456299 120.000000 45.000000
v -1310.456299 120.000000 55.000000
v -1310.456299 80.000000 55.000000
v -1300.456299 80.000000 45.000000
v -1210.456299 120.000000 -45.000000
v -1210.456299 80.000000 -45.000000
v -1200.456299 80.000000 -55.000000
v -1200.456299 120.000000 -55.000000
v -1110.456299 120.000000 -145.000000
v -1110.456299 80.000000 -145.000000
v -1100.456299 80.000000 -155.000000
v -1100.456299 120.000000 -155.000000
v -800.000000 80.000000 -455.456360
v -1030.000000 120.000000 -225.456345
v -1030.000000 80.000000 -225.456345
v -800.000000 160.000000 -455.456360
v -455.456360 160.000000 -800.000000
v -508.147552 160.000000 -800.000000
v -800.000000 160.000000 -508.147552
v 344.543640 160.000000 -1600.000000
v 344.543640 80.000000 -1600.000000
v -800.000000 80.000000 -508.147552
v -770.000000 80.000000 -538.147522
v -770.000000 120.000000 -538.147522
v -763.147522 120.000000 -545.000000
v -763.147522 80.000000 -545.000000
v -753.147522 80.000000 -555.000000
v -753.147522 120.000000 -555.000000
v -663.147522 120.000000 -645.000000
v -663.147522 80.000000 -645.000000
v -653.147522 80.000000 -655.000000
v -653.147522 120.000000 -655.000000
v -563.147522 120.000000 -745.000000
v -563.147522 80.000000 -745.000000
v -553.147522 80.000000 -755.000000
v -553.147522 120.000000 -755.000000
v -508.147552 120.000000 -800.000000
v -455.456360 120.000000 -800.000000
v -430.000000 120.000000 -825.456360
v -430.000000 80.000000 -825.456360
v -170.000000 80.000000 -1085.456299
v -170.000000 120.000000 -1085.456299
v -110.456352 120.000000 -1145.000000
v -110.456352 80.000000 -1145.000000
v -100.456352 80.000000 -1155.000000
v -100.456352 120.000000 -1155.000000
v -10.456351 120.000000 -1245.000000
v -10.456351 80.000000 -1245.000000
v -0.456352 80.000000 -1255.000000
v -0.456352 120.000000 -1255.000000
v 89.543648 120.000000 -1345.000000
v 89.543648 80.000000 -1345.000000
v 99.543648 80.000000 -1355.000000
v 99.543648 120.000000 -1355.000000
v 170.000000 120.000000 -1425.456299
v 170.000000 80.000000 -1425.456299
vn -1.0000 -0.0000 -0.0000
vn 0.7071 -0.0000 0.7071
vn -0.0000 -1.0000 -0.0000
vn -0.7071 -0.0000 -0.7071
vn -0.0000 1.0000 -0.0000
vn -0.0000 -0.0000 -1.0000
vn 1.0000 -0.0000 -0.0000
vn -0.0000 -0.0000 1.0000
s 0
f 3//1 2//1 1//1
f 4//1 3//1 1//1
f 7//2 6//2 5//2
f 8//2 7//2 5//2
f 11//2 10//2 9//2
f 5//2 6//2 9//2
f 11//2 9//2 12//2
f 9//2 6//2 12//2
f 15//2 14//2 13//2
f 16//2 15//2 13//2
f 19//2 18//2 17//2
f 20//2 19//2 17//2
f 23//2 22//2 21//2
f 21//2 22//2 24//2
f 27//2 26//2 25//2
f 28//2 27//2 25//2
f 31//2 30//2 29//2
f 32//2 31//2 29//2
f 35//2 34//2 33//2
f 36//2 35//2 33//2
f 39//2 38//2 37//2
f 37//2 38//2 40//2
f 43//2 42//2 41//2
f 44//2 43//2 41//2
f 47//2 46//2 45//2
f 48//2 47//2 45//2
f 51//2 50//2 49//2
f 52//2 51//2 49//2
f 54//2 53//2 3//2
f 3//2 53//2 2//2
f 12//2 6//2 2//2
f 14//2 12//2 2//2
f 13//2 14//2 2//2
f 18//2 13//2 2//2
f 17//2 18//2 2//2
f 22//2 17//2 2//2
f 24//2 22//2 2//2
f 26//2 24//2 2//2
f 25//2 26//2 2//2
f 30//2 25//2 2//2
f 29//2 30//2 2//2
f 34//2 29//2 2//2
f 33//2 34//2 2//2
f 38//2 33//2 2//2
f 40//2 38//2 2//2
f 42//2 40//2 2//2
f 41//2 42//2 2//2
f 46//2 41//2 2//2
f 45//2 46//2 2//2
f 50//2 45//2 2//2
f 49//2 50//2 2//2
f 53//2 49//2 2//2
f 3//3 4//3 54//3
f 54//3 4//3 55//3
f 4//4 1//4 56//4
f 55//4 4//4 56//4
f 59//4 58//4 57//4
f 60//4 59//4 57//4
f 63//4 62//4 61//4
f 63//4 61//4 64//4
f 67//4 66//4 65//4
f 67//4 65//4 68//4
f 71//4 70//4 69//4
f 69//4 70//4 72//4
f 56//4 1//4 72//4
f 58//4 56//4 72//4
f 57//4 58//4 72//4
f 61//4 57//4 72//4
f 64//4 61//4 72//4
f 65//4 64//4 72//4
f 68//4 65//4 72//4
f 70//4 68//4 72//4
f 72//5 1//5 2//5
f 73//5 74//5 75//5
f 73//5 75//5 72//5
f 6//5 76//5 73//5
f 2//5 6//5 72//5
f 72//5 6//5 73//5
f 77//6 76//6 6//6
f 7//6 77//6 6//6
f 53//7 54//7 55//7
f 56//7 53//7 55//7
f 49//3 53//3 56//3
f 49//3 56//3 58//3
f 59//8 49//8 58//8
f 59//8 52//8 49//8
f 52//3 59//3 60//3
f 52//3 60//3 51//3
f 57//6 50//6 60//6
f 50//6 51//6 60//6
f 50//3 57//3 61//3
f 50//3 61//3 45//3
f 48//8 45//8 61//8
f 62//8 48//8 61//8
f 48//3 62//3 63//3
f 48//3 63//3 47//3
f 64//6 46//6 63//6
f 46//6 47//6 63//6
f 46//3 64//3 65//3
f 46//3 65//3 41//3
f 66//8 41//8 65//8
f 66//8 44//8 41//8
f 44//3 66//3 67//3
f 44//3 67//3 43//3
f 68//6 42//6 67//6
f 42//6 43//6 67//6
f 42//3 68//3 70//3
f 40//3 42//3 70//3
f 40//1 70//1 71//1
f 40//1 71//1 37//1
f 37//3 71//3 69//3
f 37//3 69//3 39//3
f 39//3 69//3 78//3
f 39//3 78//3 79//3
f 38//7 39//7 79//7
f 80//7 38//7 79//7
f 38//3 80//3 81//3
f 38//3 81//3 33//3
f 82//8 36//8 33//8
f 82//8 33//8 81//8
f 82//3 83//3 36//3
f 36//3 83//3 35//3
f 34//6 35//6 83//6
f 84//6 34//6 83//6
f 34//3 84//3 85//3
f 34//3 85//3 29//3
f 85//8 32//8 29//8
f 86//8 32//8 85//8
f 86//3 87//3 32//3
f 32//3 87//3 31//3
f 30//6 31//6 88//6
f 88//6 31//6 87//6
f 30//3 88//3 89//3
f 30//3 89//3 25//3
f 89//8 28//8 25//8
f 90//8 28//8 89//8
f 90//3 91//3 28//3
f 28//3 91//3 27//3
f 26//6 27//6 91//6
f 92//6 26//6 91//6
f 26//3 92//3 93//3
f 26//3 93//3 94//3
f 24//3 94//3 95//3
f 24//3 26//3 94//3
f 95//1 96//1 21//1
f 24//1 95//1 21//1
f 21//3 96//3 23//3
f 23//3 96//3 97//3
f 98//7 22//7 23//7
f 98//7 23//7 97//7
f 17//3 22//3 98//3
f 17//3 98//3 99//3
f 20//8 17//8 99//8
f 100//8 20//8 99//8
f 20//3 100//3 101//3
f 20//3 101//3 19//3
f 102//6 18//6 19//6
f 102//6 19//6 101//6
f 18//3 102//3 103//3
f 18//3 103//3 13//3
f 16//8 13//8 103//8
f 104//8 16//8 103//8
f 16//3 104//3 105//3
f 16//3 105//3 15//3
f 106//6 14//6 15//6
f 106//6 15//6 105//6
f 14//3 106//3 107//3
f 14//3 107//3 12//3
f 11//8 12//8 107//8
f 108//8 11//8 107//8
f 11//3 108//3 109//3
f 11//3 109//3 10//3
f 9//6 10//6 109//6
f 110//6 9//6 109//6
f 5//3 9//3 110//3
f 5//3 110//3 111//3
f 112//1 5//1 111//1
f 112//1 8//1 5//1
f 8//3 112//3 7//3
f 112//3 77//3 7//3
f 78//1 69//1 75//1
f 69//1 72//1 75//1
f 78//4 75//4 80//4
f 79//4 78//4 80//4
f 83//4 82//4 81//4
f 80//4 75//4 81//4
f 81//4 75//4 84//4
f 83//4 81//4 84//4
f 87//4 86//4 85//4
f 84//4 75//4 85//4
f 87//4 85//4 88//4
f 91//4 90//4 89//4
f 91//4 89//4 92//4
f 89//4 88//4 74//4
f 93//4 92//4 74//4
f 92//4 89//4 74//4
f 85//4 75//4 74//4
f 88//4 85//4 74//4
f 93//6 74//6 94//6
f 94//6 74//6 73//6
f 95//4 94//4 73//4
f 96//4 95//4 98//4
f 97//4 96//4 98//4
f 95//4 73//4 98//4
f 101//4 100//4 99//4
f 101//4 99//4 102//4
f 105//4 104//4 103//4
f 105//4 103//4 106//4
f 108//4 107//4 110//4
f 109//4 108//4 110//4
f 112//4 111//4 77//4
f 77//4 111//4 76//4
f 98//4 73//4 76//4
f 99//4 98//4 76//4
f 102//4 99//4 76//4
f 103//4 102//4 76//4
f 106//4 103//4 76//4
f 107//4 106//4 76//4
f 110//4 107//4 76//4
f 111//4 110//4 76//4
