# Blender 4.0.2
# www.blender.org
o a77c9bf5118c5d4fca631d47080c3f828b0135fe9909e0568801da556f1d9f4
v -221.141769 160.000000 1600.000000
v -221.141769 80.000000 1600.000000
v -203.122299 80.000000 1600.000000
v -203.122299 160.000000 1600.000000
v -166.141769 120.000000 1545.000000
v -166.141769 80.000000 1545.000000
v -76.141777 120.000000 1455.000000
v -76.141777 80.000000 1455.000000
v -66.141777 80.000000 1445.000000
v -66.141777 120.000000 1445.000000
v 23.858223 120.000000 1355.000000
v 33.858223 120.000000 1345.000000
v 23.858223 80.000000 1355.000000
v 33.858223 80.000000 1345.000000
v 123.858223 120.000000 1255.000000
v 123.858223 80.000000 1255.000000
v 133.858231 80.000000 1245.000000
v 133.858231 120.000000 1245.000000
v 433.858215 80.000000 945.000000
v 170.000000 120.000000 1208.858276
v 170.000000 80.000000 1208.858276
v 433.858215 120.000000 945.000000
v 533.858215 120.000000 845.000000
v 523.858215 120.000000 855.000000
v 523.858215 80.000000 855.000000
v 533.858215 80.000000 845.000000
v 633.858215 120.000000 745.000000
v 623.858215 120.000000 755.000000
v 623.858215 80.000000 755.000000
v 633.858215 80.000000 745.000000
v 723.858215 120.000000 655.000000
v 723.858215 80.000000 655.000000
v 733.858215 80.000000 645.000000
v 733.858215 120.000000 645.000000
v 1033.858276 80.000000 345.000000
v 770.000000 120.000000 608.858215
v 770.000000 80.000000 608.858215
v 1033.858276 120.000000 345.000000
v 1133.858276 120.000000 245.000000
v 1123.858276 120.000000 255.000000
v 1123.858276 80.000000 255.000000
v 1133.858276 80.000000 245.000000
v 1223.858276 120.000000 155.000000
v 1223.858276 80.000000 155.000000
v 1233.858276 80.000000 145.000000
v 1233.858276 120.000000 145.000000
v 1333.858276 120.000000 45.000000
v 1323.858276 120.000000 55.000000
v 1323.858276 80.000000 55.000000
v 1333.858276 80.000000 45.000000
v 1600.000000 80.000000 -221.141769
v 1370.000000 120.000000 8.858223
v 1370.000000 80.000000 8.858223
v 1600.000000 160.000000 -221.141769
v -170.000000 80.000000 1555.000000
v -170.000000 80.000000 1566.877686
v -158.122299 80.000000 1555.000000
v -148.122299 80.000000 1545.000000
v 551.877686 120.000000 845.000000
v 596.877686 160.000000 800.000000
v 596.877686 120.000000 800.000000
v 541.877686 120.000000 855.000000
v 551.877686 80.000000 845.000000
v 541.877686 80.000000 855.000000
v 451.877716 120.000000 945.000000
v 441.877716 120.000000 955.000000
v 451.877716 80.000000 945.000000
v 441.877716 80.000000 955.000000
v 170.000000 120.000000 1226.877686
v 430.000000 120.000000 966.877686
v 430.000000 80.000000 966.877686
v 170.000000 80.000000 1226.877686
v 141.877701 120.000000 1255.000000
v 151.877701 120.000000 1245.000000
v 151.877701 80.000000 1245.000000
v 141.877701 80.000000 1255.000000
v 41.877708 120.000000 1355.000000
v 51.877708 120.000000 1345.000000
v 51.877708 80.000000 1345.000000
v 41.877708 80.000000 1355.000000
v -48.122292 120.000000 1445.000000
v -48.122292 80.000000 1445.000000
v -58.122292 80.000000 1455.000000
v -58.122292 120.000000 1455.000000
v -158.122299 120.000000 1555.000000
v -148.122299 120.000000 1545.000000
v -170.000000 120.000000 1566.877686
v 800.000000 160.000000 596.877686
v 649.568909 160.000000 800.000000
v 800.000000 160.000000 649.568909
v 1600.000000 160.000000 -203.122299
v 1600.000000 80.000000 -203.122299
v 1370.000000 80.000000 26.877708
v 1370.000000 120.000000 26.877708
v 1351.877686 120.000000 45.000000
v 1351.877686 80.000000 45.000000
v 1341.877686 80.000000 55.000000
v 1341.877686 120.000000 55.000000
v 1251.877686 120.000000 145.000000
v 1251.877686 80.000000 145.000000
v 1241.877686 80.000000 155.000000
v 1241.877686 120.000000 155.000000
v 1151.877686 120.000000 245.000000
v 1151.877686 80.000000 245.000000
v 1141.877686 80.000000 255.000000
v 1141.877686 120.000000 255.000000
v 1051.877686 120.000000 345.000000
v 1051.877686 80.000000 345.000000
v 770.000000 80.000000 645.000000
v 770.000000 80.000000 655.000000
v 800.000000 80.000000 649.568909
v 770.000000 80.000000 679.568909
v 800.000000 80.000000 596.877686
v 1030.000000 80.000000 355.000000
v 1030.000000 80.000000 366.877716
v 1041.877686 80.000000 355.000000
v 770.000000 120.000000 645.000000
v 770.000000 120.000000 655.000000
v 770.000000 120.000000 679.568909
v 704.568909 120.000000 745.000000
v 704.568909 80.000000 745.000000
v 694.568909 80.000000 755.000000
v 694.568909 120.000000 755.000000
v 649.568909 120.000000 800.000000
v 430.000000 80.000000 955.000000
v -170.000000 120.000000 1555.000000
v 430.000000 120.000000 955.000000
v 1041.877686 120.000000 355.000000
v 1030.000000 120.000000 366.877716
v 1030.000000 120.000000 355.000000
vn -0.0000 -0.0000 1.0000
vn -0.7071 -0.0000 -0.7071
vn -0.7071 0.0002 -0.7071
vn -0.7071 -0.0001 -0.7071
vn -0.0000 -1.0000 -0.0000
vn 0.7071 -0.0000 0.7071
vn -0.0000 1.0000 -0.0000
vn 1.0000 -0.0000 -0.0000
vn -1.0000 -0.0000 -0.0000
vn -0.0000 -0.0000 -1.0000
s 0
f 1//1 2//1 3//1
f 4//1 1//1 3//1
f 2//2 1//2 5//2
f 6//2 2//2 5//2
f 9//2 8//2 7//2
f 5//2 1//2 7//2
f 9//2 7//2 10//2
f 7//2 1//2 10//2
f 10//2 1//2 11//2
f 13//2 11//2 12//2
f 14//2 13//2 12//2
f 17//2 16//2 15//2
f 17//2 15//2 18//2
f 21//2 20//2 19//2
f 19//2 20//2 22//2
f 25//2 24//2 23//2
f 26//2 25//2 23//2
f 29//2 28//2 27//2
f 30//2 29//2 27//2
f 33//2 32//2 31//2
f 33//2 31//2 34//2
f 37//2 36//2 35//2
f 35//2 36//2 38//2
f 41//2 40//2 39//2
f 42//2 41//2 39//2
f 45//2 44//2 43//2
f 45//2 43//2 46//2
f 49//2 48//2 47//2
f 50//2 49//2 47//2
f 53//2 52//2 51//2
f 51//2 52//2 54//2
f 11//2 1//2 54//2
f 12//2 11//2 54//2
f 15//2 12//2 54//2
f 18//3 15//3 54//3
f 20//4 18//4 54//4
f 22//2 20//2 54//2
f 24//2 22//2 54//2
f 23//2 24//2 54//2
f 28//2 23//2 54//2
f 27//2 28//2 54//2
f 31//2 27//2 54//2
f 34//2 31//2 54//2
f 36//2 34//2 54//2
f 38//2 36//2 54//2
f 40//2 38//2 54//2
f 39//2 40//2 54//2
f 43//2 39//2 54//2
f 46//2 43//2 54//2
f 48//2 46//2 54//2
f 47//2 48//2 54//2
f 52//2 47//2 54//2
f 3//5 2//5 55//5
f 56//5 3//5 55//5
f 57//5 55//5 6//5
f 57//5 6//5 58//5
f 55//5 2//5 6//5
f 61//6 60//6 59//6
f 63//6 59//6 62//6
f 64//6 63//6 62//6
f 59//6 60//6 62//6
f 62//6 60//6 65//6
f 67//6 65//6 66//6
f 68//6 67//6 66//6
f 65//6 60//6 66//6
f 71//6 70//6 69//6
f 72//6 71//6 69//6
f 75//6 74//6 73//6
f 76//6 75//6 73//6
f 79//6 78//6 77//6
f 80//6 79//6 77//6
f 83//6 82//6 81//6
f 83//6 81//6 84//6
f 58//6 86//6 85//6
f 57//6 58//6 85//6
f 56//6 87//6 3//6
f 3//6 87//6 4//6
f 86//6 84//6 4//6
f 87//6 85//6 4//6
f 84//6 81//6 4//6
f 85//6 86//6 4//6
f 66//6 60//6 4//6
f 70//6 66//6 4//6
f 69//6 70//6 4//6
f 74//6 69//6 4//6
f 73//6 74//6 4//6
f 78//6 73//6 4//6
f 77//6 78//6 4//6
f 81//6 77//6 4//6
f 60//7 1//7 4//7
f 88//7 60//7 89//7
f 88//7 89//7 90//7
f 54//7 88//7 91//7
f 54//7 1//7 88//7
f 88//7 1//7 60//7
f 54//8 92//8 51//8
f 54//8 91//8 92//8
f 93//5 53//5 92//5
f 92//5 53//5 51//5
f 93//9 94//9 52//9
f 53//9 93//9 52//9
f 94//5 95//5 47//5
f 52//5 94//5 47//5
f 96//10 47//10 95//10
f 96//10 50//10 47//10
f 97//5 49//5 50//5
f 97//5 50//5 96//5
f 98//1 48//1 97//1
f 48//1 49//1 97//1
f 48//5 98//5 99//5
f 48//5 99//5 46//5
f 100//10 46//10 99//10
f 100//10 45//10 46//10
f 101//5 44//5 45//5
f 101//5 45//5 100//5
f 102//1 43//1 101//1
f 43//1 44//1 101//1
f 43//5 102//5 103//5
f 43//5 103//5 39//5
f 104//10 39//10 103//10
f 104//10 42//10 39//10
f 105//5 41//5 42//5
f 105//5 42//5 104//5
f 106//1 40//1 105//1
f 40//1 41//1 105//1
f 40//5 106//5 107//5
f 40//5 107//5 38//5
f 108//10 38//10 107//10
f 108//10 35//10 38//10
f 110//5 33//5 109//5
f 112//5 110//5 111//5
f 110//5 109//5 111//5
f 111//5 109//5 37//5
f 111//5 37//5 113//5
f 115//5 113//5 114//5
f 116//5 114//5 35//5
f 116//5 35//5 108//5
f 114//5 37//5 35//5
f 113//5 37//5 114//5
f 33//5 110//5 32//5
f 109//9 117//9 36//9
f 37//9 109//9 36//9
f 36//5 117//5 34//5
f 33//10 34//10 117//10
f 109//10 33//10 117//10
f 31//1 32//1 118//1
f 118//1 32//1 110//1
f 118//5 119//5 31//5
f 31//5 119//5 120//5
f 31//5 120//5 27//5
f 120//10 30//10 27//10
f 121//10 30//10 120//10
f 29//5 30//5 122//5
f 122//5 30//5 121//5
f 28//1 29//1 122//1
f 123//1 28//1 122//1
f 28//5 123//5 124//5
f 28//5 124//5 61//5
f 61//5 59//5 23//5
f 28//5 61//5 23//5
f 26//10 23//10 59//10
f 63//10 26//10 59//10
f 64//5 25//5 26//5
f 64//5 26//5 63//5
f 62//1 24//1 25//1
f 62//1 25//1 64//1
f 24//5 62//5 65//5
f 24//5 65//5 22//5
f 19//10 22//10 65//10
f 67//10 19//10 65//10
f 72//5 21//5 71//5
f 71//5 21//5 125//5
f 68//5 125//5 19//5
f 68//5 19//5 67//5
f 125//5 21//5 19//5
f 21//9 69//9 20//9
f 21//9 72//9 69//9
f 69//5 18//5 20//5
f 74//5 18//5 69//5
f 74//10 75//10 17//10
f 18//10 74//10 17//10
f 76//5 16//5 17//5
f 76//5 17//5 75//5
f 16//1 76//1 73//1
f 16//1 73//1 15//1
f 78//5 12//5 15//5
f 73//5 78//5 15//5
f 78//10 79//10 14//10
f 12//10 78//10 14//10
f 80//5 13//5 14//5
f 80//5 14//5 79//5
f 80//1 77//1 11//1
f 13//1 80//1 11//1
f 81//5 10//5 11//5
f 81//5 11//5 77//5
f 81//10 82//10 9//10
f 10//10 81//10 9//10
f 83//5 8//5 9//5
f 83//5 9//5 82//5
f 83//1 84//1 7//1
f 8//1 83//1 7//1
f 86//5 5//5 7//5
f 86//5 7//5 84//5
f 86//10 58//10 6//10
f 5//10 86//10 6//10
f 55//1 57//1 85//1
f 55//1 85//1 126//1
f 56//8 55//8 126//8
f 56//8 126//8 87//8
f 89//1 60//1 61//1
f 89//1 61//1 124//1
f 87//5 126//5 85//5
f 71//8 125//8 127//8
f 71//8 127//8 70//8
f 127//5 66//5 70//5
f 127//1 125//1 68//1
f 66//1 127//1 68//1
f 92//6 91//6 94//6
f 93//6 92//6 94//6
f 96//6 95//6 98//6
f 97//6 96//6 98//6
f 100//6 99//6 102//6
f 101//6 100//6 102//6
f 104//6 103//6 106//6
f 105//6 104//6 106//6
f 108//6 107//6 128//6
f 116//6 108//6 128//6
f 115//6 129//6 113//6
f 113//6 129//6 88//6
f 94//6 91//6 88//6
f 95//6 94//6 88//6
f 98//6 95//6 88//6
f 99//6 98//6 88//6
f 102//6 99//6 88//6
f 103//6 102//6 88//6
f 106//6 103//6 88//6
f 107//6 106//6 88//6
f 128//6 107//6 88//6
f 129//6 128//6 88//6
f 88//8 111//8 113//8
f 88//8 90//8 111//8
f 111//6 90//6 119//6
f 112//6 111//6 119//6
f 122//6 121//6 120//6
f 119//6 90//6 120//6
f 122//6 120//6 123//6
f 124//6 123//6 89//6
f 123//6 120//6 89//6
f 120//6 90//6 89//6
f 112//9 119//9 118//9
f 110//9 112//9 118//9
f 128//1 130//1 116//1
f 130//1 114//1 116//1
f 114//8 130//8 129//8
f 115//8 114//8 129//8
f 130//5 128//5 129//5
