# Blender 4.0.2
# www.blender.org
o aa08c283909ca218f2467343c0ff5121d8bdc405cca5d296936dce9b1fd1b17
v 1600.000000 315.000000 -716.116516
v 1600.000000 280.000000 -716.116516
v 1600.000000 280.000000 -786.827209
v 1600.000000 315.000000 -786.827209
v 716.116516 315.000000 -1600.000000
v 786.827209 315.000000 -1600.000000
v 786.827209 280.000000 -1600.000000
v 716.116516 280.000000 -1600.000000
vn 1.0000 -0.0000 -0.0000
vn -0.0000 1.0000 -0.0000
vn 0.7071 -0.0000 -0.7071
vn -0.0000 -1.0000 -0.0000
vn -0.7071 -0.0000 0.7071
vn -0.0000 -0.0000 -1.0000
s 0
f 1//1 2//1 3//1
f 1//1 3//1 4//1
f 4//2 5//2 1//2
f 6//2 5//2 4//2
f 4//3 3//3 6//3
f 6//3 3//3 7//3
f 2//4 8//4 3//4
f 3//4 8//4 7//4
f 5//5 8//5 1//5
f 1//5 8//5 2//5
f 6//6 7//6 8//6
f 6//6 8//6 5//6
