# Blender 4.0.2
# www.blender.org
o aa2164a3c3962eb61cfd8ddee851ad447de169cef78b067210ebe854d151571
v 1211.091309 160.000000 1600.000000
v 1193.071777 120.000000 1600.000000
v 1193.071777 160.000000 1600.000000
v 1211.091309 120.000000 1600.000000
v 1238.071777 120.000000 1555.000000
v 1238.071777 80.000000 1555.000000
v 1248.071777 80.000000 1545.000000
v 1248.071777 120.000000 1545.000000
v 1338.071777 120.000000 1455.000000
v 1338.071777 80.000000 1455.000000
v 1348.071777 80.000000 1445.000000
v 1348.071777 120.000000 1445.000000
v 1600.000000 80.000000 1193.071777
v 1370.000000 120.000000 1423.071777
v 1370.000000 80.000000 1423.071777
v 1600.000000 160.000000 1193.071777
v 1256.091309 120.000000 1555.000000
v 1370.000000 120.000000 1441.091309
v 1600.000000 160.000000 1211.091309
v 1600.000000 80.000000 1211.091309
v 1370.000000 80.000000 1441.091309
v 1356.091309 120.000000 1455.000000
v 1366.091309 120.000000 1445.000000
v 1366.091309 80.000000 1445.000000
v 1356.091309 80.000000 1455.000000
v 1266.091309 120.000000 1545.000000
v 1266.091309 80.000000 1545.000000
v 1256.091309 80.000000 1555.000000
vn -0.0000 -0.0000 1.0000
vn -0.7071 -0.0000 -0.7071
vn -0.7071 0.0001 -0.7071
vn -0.0000 -1.0000 -0.0000
vn 0.7071 -0.0000 0.7071
vn -0.0000 1.0000 -0.0000
vn 1.0000 -0.0000 -0.0000
vn -1.0000 -0.0000 -0.0000
vn -0.0000 -0.0000 -1.0000
s 0
f 3//1 2//1 1//1
f 2//1 4//1 1//1
f 2//2 3//2 5//2
f 7//2 6//2 5//2
f 7//2 5//2 8//2
f 5//2 3//2 8//2
f 11//2 10//2 9//2
f 8//2 3//2 9//2
f 11//2 9//2 12//2
f 15//2 14//2 13//2
f 13//2 14//2 16//2
f 9//2 3//2 16//2
f 12//2 9//2 16//2
f 14//3 12//3 16//3
f 5//4 17//4 4//4
f 5//4 4//4 2//4
f 20//5 19//5 18//5
f 21//5 20//5 18//5
f 24//5 23//5 22//5
f 25//5 24//5 22//5
f 27//5 26//5 17//5
f 28//5 27//5 17//5
f 26//5 22//5 1//5
f 4//5 17//5 1//5
f 17//5 26//5 1//5
f 18//5 19//5 1//5
f 23//5 18//5 1//5
f 22//5 23//5 1//5
f 16//6 3//6 1//6
f 16//6 1//6 19//6
f 19//7 20//7 13//7
f 16//7 19//7 13//7
f 21//4 15//4 20//4
f 20//4 15//4 13//4
f 15//8 18//8 14//8
f 15//8 21//8 18//8
f 18//4 23//4 12//4
f 14//4 18//4 12//4
f 11//9 12//9 23//9
f 24//9 11//9 23//9
f 25//4 10//4 11//4
f 25//4 11//4 24//4
f 22//1 9//1 10//1
f 22//1 10//1 25//1
f 9//4 22//4 26//4
f 9//4 26//4 8//4
f 27//9 8//9 26//9
f 27//9 7//9 8//9
f 28//4 6//4 7//4
f 28//4 7//4 27//4
f 17//1 5//1 28//1
f 5//1 6//1 28//1
