# Blender 4.0.2
# www.blender.org
o aba9e4238b76df6dfe1120f8a2a5c502521ce0fb03c55e6db6186fe6139f411
v -170.000000 80.000000 455.000000
v -170.000000 120.000000 545.000000
v -170.000000 120.000000 455.000000
v -170.000000 80.000000 545.000000
v -150.000000 120.000000 525.000000
v -150.000000 120.000000 475.000000
v 170.000000 120.000000 455.000000
v 150.000000 120.000000 475.000000
v 170.000000 120.000000 545.000000
v 150.000000 120.000000 525.000000
v 170.000000 80.000000 455.000000
v -150.000000 80.000000 475.000000
v -150.000000 80.000000 525.000000
v 150.000000 80.000000 525.000000
v 170.000000 80.000000 545.000000
v 150.000000 80.000000 475.000000
vn -1.0000 -0.0000 -0.0000
vn -0.0000 1.0000 -0.0000
vn -0.0000 -0.0000 -1.0000
vn -0.0000 -1.0000 -0.0000
vn -0.0000 -0.0000 1.0000
vn 1.0000 -0.0000 -0.0000
s 0
f 1//1 2//1 3//1
f 1//1 4//1 2//1
f 3//2 2//2 5//2
f 6//2 3//2 5//2
f 6//2 8//2 7//2
f 3//2 6//2 7//2
f 8//2 10//2 9//2
f 7//2 8//2 9//2
f 5//2 2//2 9//2
f 10//2 5//2 9//2
f 7//3 11//3 1//3
f 3//3 7//3 1//3
f 4//4 1//4 12//4
f 13//4 4//4 12//4
f 15//4 4//4 14//4
f 4//4 13//4 14//4
f 14//4 16//4 11//4
f 15//4 14//4 11//4
f 12//4 1//4 11//4
f 16//4 12//4 11//4
f 4//5 15//5 9//5
f 4//5 9//5 2//5
f 7//6 9//6 11//6
f 9//6 15//6 11//6
f 12//5 16//5 8//5
f 12//5 8//5 6//5
f 16//1 14//1 10//1
f 16//1 10//1 8//1
f 14//3 13//3 5//3
f 14//3 5//3 10//3
f 13//6 12//6 6//6
f 13//6 6//6 5//6
