# Blender 4.0.2
# www.blender.org
o abbfcf31abe1a6120bb5e941f0a48450cd7545bdf738b1df8248c56fdac6cf1
v 770.000000 120.000000 1600.000000
v 786.827209 80.000000 1600.000000
v 770.000000 80.000000 1600.000000
v 768.807739 160.000000 1600.000000
v 768.807739 120.000000 1600.000000
v 786.827209 160.000000 1600.000000
v 770.000000 120.000000 1598.807739
v 1030.000000 80.000000 1338.807739
v 770.000000 80.000000 1598.807739
v 1030.000000 120.000000 1338.807739
v 1113.807739 120.000000 1255.000000
v 1113.807739 80.000000 1255.000000
v 1123.807739 80.000000 1245.000000
v 1123.807739 120.000000 1245.000000
v 1223.807739 120.000000 1145.000000
v 1213.807739 120.000000 1155.000000
v 1213.807739 80.000000 1155.000000
v 1223.807739 80.000000 1145.000000
v 1313.807739 120.000000 1055.000000
v 1313.807739 80.000000 1055.000000
v 1323.807739 80.000000 1045.000000
v 1323.807739 120.000000 1045.000000
v 1600.000000 80.000000 768.807739
v 1370.000000 120.000000 998.807739
v 1370.000000 80.000000 998.807739
v 1600.000000 160.000000 768.807739
v 1030.000000 80.000000 1356.827148
v 1030.000000 80.000000 1355.000000
v 1030.000000 80.000000 1345.000000
v 1031.827148 80.000000 1355.000000
v 1041.827148 80.000000 1345.000000
v 1030.000000 120.000000 1356.827148
v 1041.827148 120.000000 1345.000000
v 1031.827148 120.000000 1355.000000
v 1131.827148 120.000000 1255.000000
v 1131.827148 80.000000 1255.000000
v 1141.827148 80.000000 1245.000000
v 1141.827148 120.000000 1245.000000
v 1231.827148 120.000000 1155.000000
v 1231.827148 80.000000 1155.000000
v 1241.827148 80.000000 1145.000000
v 1241.827148 120.000000 1145.000000
v 1341.827148 120.000000 1045.000000
v 1331.827148 120.000000 1055.000000
v 1331.827148 80.000000 1055.000000
v 1341.827148 80.000000 1045.000000
v 1600.000000 80.000000 786.827209
v 1370.000000 120.000000 1016.827209
v 1370.000000 80.000000 1016.827209
v 1600.000000 160.000000 786.827209
v 1030.000000 120.000000 1345.000000
v 1030.000000 120.000000 1355.000000
vn -0.0000 -0.0000 1.0000
vn -0.7071 -0.0000 -0.7071
vn -0.0000 -1.0000 -0.0000
vn -1.0000 -0.0000 -0.0000
vn 0.7071 -0.0000 0.7071
vn 0.7071 -0.0009 0.7071
vn -0.0000 1.0000 -0.0000
vn 1.0000 -0.0000 -0.0000
vn -0.0000 -0.0000 -1.0000
s 0
f 3//1 2//1 1//1
f 5//1 1//1 4//1
f 4//1 1//1 6//1
f 1//1 2//1 6//1
f 7//2 5//2 4//2
f 9//2 7//2 8//2
f 7//2 4//2 10//2
f 8//2 7//2 10//2
f 13//2 12//2 11//2
f 13//2 11//2 14//2
f 17//2 16//2 15//2
f 18//2 17//2 15//2
f 21//2 20//2 19//2
f 21//2 19//2 22//2
f 25//2 24//2 23//2
f 23//2 24//2 26//2
f 10//2 4//2 26//2
f 11//2 10//2 26//2
f 14//2 11//2 26//2
f 16//2 14//2 26//2
f 15//2 16//2 26//2
f 19//2 15//2 26//2
f 22//2 19//2 26//2
f 24//2 22//2 26//2
f 5//3 7//3 1//3
f 1//4 7//4 9//4
f 1//4 9//4 3//4
f 3//3 9//3 2//3
f 2//3 9//3 27//3
f 27//3 9//3 28//3
f 30//3 28//3 29//3
f 28//3 9//3 29//3
f 29//3 9//3 8//3
f 30//3 29//3 31//3
f 32//5 6//5 2//5
f 32//5 2//5 27//5
f 33//5 34//5 30//5
f 33//5 30//5 31//5
f 35//5 36//5 37//5
f 38//5 35//5 37//5
f 39//5 40//5 41//5
f 42//5 39//5 41//5
f 43//5 44//5 45//5
f 43//5 45//5 46//5
f 47//5 48//5 49//5
f 50//5 48//5 47//5
f 50//5 6//5 32//5
f 50//6 32//6 34//6
f 50//5 34//5 33//5
f 50//5 33//5 35//5
f 50//5 35//5 38//5
f 50//5 38//5 39//5
f 50//5 39//5 42//5
f 50//5 42//5 44//5
f 50//5 44//5 43//5
f 50//5 43//5 48//5
f 26//7 4//7 6//7
f 26//7 6//7 50//7
f 26//8 47//8 23//8
f 26//8 50//8 47//8
f 49//3 25//3 47//3
f 47//3 25//3 23//3
f 25//4 48//4 24//4
f 25//4 49//4 48//4
f 48//3 43//3 22//3
f 24//3 48//3 22//3
f 46//9 22//9 43//9
f 46//9 21//9 22//9
f 45//3 20//3 21//3
f 45//3 21//3 46//3
f 44//1 19//1 20//1
f 44//1 20//1 45//1
f 19//3 44//3 42//3
f 19//3 42//3 15//3
f 18//9 15//9 42//9
f 41//9 18//9 42//9
f 40//3 17//3 18//3
f 40//3 18//3 41//3
f 39//1 16//1 40//1
f 16//1 17//1 40//1
f 16//3 39//3 38//3
f 16//3 38//3 14//3
f 13//9 14//9 38//9
f 37//9 13//9 38//9
f 36//3 12//3 13//3
f 36//3 13//3 37//3
f 35//1 11//1 12//1
f 35//1 12//1 36//1
f 11//3 35//3 33//3
f 11//3 33//3 10//3
f 10//3 33//3 51//3
f 29//8 8//8 10//8
f 29//8 10//8 51//8
f 31//9 51//9 33//9
f 31//9 29//9 51//9
f 34//1 52//1 28//1
f 34//1 28//1 30//1
f 28//8 52//8 32//8
f 27//8 28//8 32//8
f 52//3 34//3 32//3
