# Blender 4.0.2
# www.blender.org
o b0283350a050d398b938158d250237d1714f456126be73b1d02f93df15050c7
v 150.000000 120.000000 1575.000000
v -150.000000 120.000000 1575.000000
v -150.000000 120.000000 1600.000000
v 150.000000 120.000000 1600.000000
v -150.000000 80.000000 1600.000000
v -150.000000 80.000000 1575.000000
v 150.000000 80.000000 1575.000000
v 150.000000 80.000000 1600.000000
vn -0.0000 1.0000 -0.0000
vn -1.0000 -0.0000 -0.0000
vn -0.0000 -0.0000 -1.0000
vn 1.0000 -0.0000 -0.0000
vn -0.0000 -0.0000 1.0000
vn -0.0000 -1.0000 -0.0000
s 0
f 1//1 2//1 3//1
f 1//1 3//1 4//1
f 2//2 6//2 5//2
f 3//2 2//2 5//2
f 1//3 7//3 6//3
f 2//3 1//3 6//3
f 4//4 8//4 7//4
f 1//4 4//4 7//4
f 5//5 8//5 4//5
f 3//5 5//5 4//5
f 5//6 6//6 7//6
f 8//6 5//6 7//6
