# Blender 4.0.2
# www.blender.org
o b0ccdff3d8d3d049c5f3fdc2dafbe1de99e83d95fbcd3a2a0f560435c5ec859
v 1375.000000 80.000000 1584.583740
v 1375.000000 120.000000 1584.583740
v 1375.000000 120.000000 1600.000000
v 1375.000000 80.000000 1600.000000
v 1600.000000 160.000000 1359.583740
v 1600.000000 80.000000 1359.583740
v 1359.583740 160.000000 1600.000000
v 1370.000000 120.000000 1589.583740
v 1359.583740 120.000000 1600.000000
v 1370.000000 80.000000 1582.512573
v 1370.000000 80.000000 1600.000000
v 1600.000000 80.000000 1352.512573
v 1370.000000 120.000000 1600.000000
v 1600.000000 160.000000 1352.512573
v 1352.512573 160.000000 1600.000000
v 1352.512573 120.000000 1600.000000
v 1370.000000 120.000000 1582.512573
vn 1.0000 -0.0000 -0.0000
vn 0.7071 -0.0000 0.7071
vn -0.0000 -1.0000 -0.0000
vn -0.0000 -0.0000 1.0000
vn -0.0000 1.0000 -0.0000
vn -1.0000 -0.0000 -0.0000
vn -0.7071 -0.0000 -0.7071
s 0
f 1//1 2//1 3//1
f 4//1 1//1 3//1
f 6//2 5//2 2//2
f 1//2 6//2 2//2
f 8//2 2//2 7//2
f 9//2 8//2 7//2
f 2//2 5//2 7//2
f 11//3 10//3 1//3
f 4//3 11//3 1//3
f 1//3 10//3 6//3
f 6//3 10//3 12//3
f 11//4 4//4 13//4
f 13//4 4//4 3//4
f 3//5 2//5 8//5
f 13//5 3//5 8//5
f 7//5 5//5 14//5
f 15//5 7//5 14//5
f 15//4 16//4 7//4
f 16//4 9//4 7//4
f 16//3 8//3 9//3
f 17//3 8//3 16//3
f 6//1 12//1 5//1
f 5//1 12//1 14//1
f 8//6 17//6 10//6
f 13//6 8//6 11//6
f 8//6 10//6 11//6
f 17//7 14//7 12//7
f 17//7 12//7 10//7
f 15//7 17//7 16//7
f 15//7 14//7 17//7
