# Blender 4.0.2
# www.blender.org
o c0a9ee244d751de4cc4e40854e0fa6588f65ba46e1a6288d0bf04f29dcc8f6b
v -1375.000000 120.000000 427.476898
v -1375.000000 80.000000 536.736633
v -1375.000000 120.000000 536.736633
v -1375.000000 80.000000 427.476898
v -1600.000000 160.000000 761.736633
v -1600.000000 80.000000 761.736633
v -805.000000 80.000000 -33.263351
v -1025.000000 120.000000 186.736649
v -1025.000000 80.000000 186.736649
v -805.000000 160.000000 -33.263351
v -1370.000000 120.000000 531.736633
v -1293.263306 120.000000 455.000000
v -1283.263306 120.000000 445.000000
v -1193.263306 120.000000 355.000000
v -1183.263306 120.000000 345.000000
v -1093.263306 120.000000 255.000000
v -1083.263306 120.000000 245.000000
v -1030.000000 120.000000 191.736649
v -1370.000000 120.000000 445.000000
v -1370.000000 120.000000 422.476898
v -1370.000000 120.000000 455.000000
v -1600.000000 160.000000 652.476929
v -1600.000000 80.000000 652.476929
v -1302.523071 120.000000 355.000000
v -775.000000 80.000000 -172.523087
v -1025.000000 120.000000 77.476913
v -1025.000000 80.000000 77.476913
v -775.000000 120.000000 -172.523087
v -175.000000 80.000000 -772.523071
v -425.000000 120.000000 -522.523071
v -425.000000 80.000000 -522.523071
v -175.000000 120.000000 -772.523071
v 425.000000 80.000000 -1372.523071
v 175.000000 120.000000 -1122.523071
v 175.000000 80.000000 -1122.523071
v 425.000000 120.000000 -1372.523071
v 652.476929 160.000000 -1600.000000
v 430.000000 120.000000 -1377.523071
v 497.476898 120.000000 -1445.000000
v 507.476898 120.000000 -1455.000000
v 597.476929 120.000000 -1545.000000
v 607.476929 120.000000 -1555.000000
v 652.476929 120.000000 -1600.000000
v -1292.523071 120.000000 345.000000
v -1202.523071 120.000000 255.000000
v -1192.523071 120.000000 245.000000
v -1102.523071 120.000000 155.000000
v -1092.523071 120.000000 145.000000
v -1030.000000 120.000000 82.476913
v -770.000000 120.000000 -177.523087
v -702.523071 120.000000 -245.000000
v -692.523071 120.000000 -255.000000
v -602.523071 120.000000 -345.000000
v -592.523071 120.000000 -355.000000
v -502.523102 120.000000 -445.000000
v -492.523102 120.000000 -455.000000
v -430.000000 120.000000 -517.523071
v -170.000000 120.000000 -777.523071
v -102.523087 120.000000 -845.000000
v -92.523087 120.000000 -855.000000
v -2.523087 120.000000 -945.000000
v 7.476913 120.000000 -955.000000
v 97.476913 120.000000 -1045.000000
v 107.476913 120.000000 -1055.000000
v 170.000000 120.000000 -1117.523071
v -1370.000000 80.000000 538.807739
v -1600.000000 80.000000 768.807739
v -1370.000000 80.000000 455.000000
v -1370.000000 80.000000 445.000000
v -1370.000000 80.000000 415.405853
v -1286.192261 80.000000 455.000000
v -1600.000000 80.000000 645.405823
v -1276.192261 80.000000 445.000000
v -800.000000 160.000000 -31.192284
v -1600.000000 160.000000 768.807739
v -800.000000 160.000000 -83.883476
v -805.000000 160.000000 -85.954544
v -83.883476 160.000000 -800.000000
v -85.954544 160.000000 -805.000000
v -33.263351 160.000000 -805.000000
v -31.192284 160.000000 -800.000000
v 761.736633 160.000000 -1600.000000
v 768.807739 160.000000 -1600.000000
v -805.000000 80.000000 -85.954544
v -1030.000000 80.000000 155.000000
v -1030.000000 80.000000 198.807724
v -1030.000000 80.000000 145.000000
v -1099.594116 80.000000 145.000000
v -1030.000000 80.000000 75.405846
v -800.000000 80.000000 -31.192284
v -800.000000 80.000000 -83.883476
v -775.000000 80.000000 -115.954544
v -770.000000 80.000000 -113.883476
v -770.000000 80.000000 -145.000000
v -770.000000 80.000000 -155.000000
v -738.883484 80.000000 -145.000000
v -770.000000 80.000000 -184.594162
v -728.883484 80.000000 -155.000000
v -1109.594116 80.000000 155.000000
v -1030.000000 120.000000 145.000000
v -1030.000000 120.000000 155.000000
v -1076.192261 120.000000 245.000000
v -1030.000000 120.000000 198.807724
v -1176.192261 120.000000 345.000000
v -1086.192261 120.000000 255.000000
v -1276.192261 120.000000 445.000000
v -1186.192261 120.000000 355.000000
v -1286.192261 120.000000 455.000000
v -1370.000000 120.000000 538.807739
v -1370.000000 120.000000 415.405853
v -170.000000 120.000000 -755.000000
v -170.000000 120.000000 -745.000000
v -175.000000 120.000000 -715.954529
v -170.000000 120.000000 -720.954529
v -145.954544 120.000000 -745.000000
v -135.954544 120.000000 -755.000000
v -170.000000 120.000000 -784.594177
v -109.594154 120.000000 -845.000000
v 6.736649 120.000000 -845.000000
v 16.736649 120.000000 -855.000000
v -99.594154 120.000000 -855.000000
v -9.594154 120.000000 -945.000000
v 106.736649 120.000000 -945.000000
v 116.736649 120.000000 -955.000000
v 0.405845 120.000000 -955.000000
v 90.405846 120.000000 -1045.000000
v 170.000000 120.000000 -1055.000000
v 170.000000 120.000000 -1045.000000
v 175.000000 120.000000 -1013.263367
v 170.000000 120.000000 -1008.263367
v 100.405846 120.000000 -1055.000000
v 170.000000 120.000000 -1124.594116
v 175.000000 80.000000 -1013.263367
v 170.000000 80.000000 -1045.000000
v 170.000000 80.000000 -1001.192261
v 170.000000 80.000000 -1055.000000
v 100.405846 80.000000 -1055.000000
v 170.000000 80.000000 -1124.594116
v 430.000000 80.000000 -1261.192261
v 430.000000 80.000000 -1345.000000
v 425.000000 80.000000 -1263.263306
v 430.000000 80.000000 -1355.000000
v 430.000000 80.000000 -1384.594116
v 513.807739 80.000000 -1345.000000
v 90.405846 80.000000 -1045.000000
v 523.807739 80.000000 -1355.000000
v 425.000000 120.000000 -1263.263306
v 430.000000 120.000000 -1345.000000
v 430.000000 120.000000 -1268.263306
v 430.000000 120.000000 -1355.000000
v 506.736664 120.000000 -1345.000000
v 516.736633 120.000000 -1355.000000
v 490.405853 120.000000 -1445.000000
v 430.000000 120.000000 -1384.594116
v 616.736633 120.000000 -1455.000000
v 606.736633 120.000000 -1445.000000
v 590.405823 120.000000 -1545.000000
v 500.405853 120.000000 -1455.000000
v 716.736633 120.000000 -1555.000000
v 706.736633 120.000000 -1545.000000
v 645.405823 120.000000 -1600.000000
v 600.405823 120.000000 -1555.000000
v 645.405823 160.000000 -1600.000000
v -1600.000000 160.000000 645.405823
v -1309.594116 120.000000 355.000000
v -1299.594116 120.000000 345.000000
v -1209.594116 120.000000 255.000000
v -1199.594116 120.000000 245.000000
v -1109.594116 120.000000 155.000000
v -1099.594116 120.000000 145.000000
v -1030.000000 120.000000 75.405846
v -775.000000 120.000000 -115.954544
v -770.000000 120.000000 -155.000000
v -770.000000 120.000000 -145.000000
v -770.000000 120.000000 -120.954544
v -745.954529 120.000000 -145.000000
v -735.954529 120.000000 -155.000000
v -770.000000 120.000000 -184.594162
v -709.594177 120.000000 -245.000000
v -645.954529 120.000000 -245.000000
v -635.954529 120.000000 -255.000000
v -699.594177 120.000000 -255.000000
v -609.594177 120.000000 -345.000000
v -545.954529 120.000000 -345.000000
v -535.954529 120.000000 -355.000000
v -599.594177 120.000000 -355.000000
v -509.594147 120.000000 -445.000000
v -445.954559 120.000000 -445.000000
v -435.954559 120.000000 -455.000000
v -499.594147 120.000000 -455.000000
v -430.000000 120.000000 -524.594177
v -425.000000 120.000000 -465.954559
v -430.000000 120.000000 -460.954559
v -425.000000 80.000000 -465.954559
v -438.883484 80.000000 -445.000000
v -499.594147 80.000000 -455.000000
v -509.594147 80.000000 -445.000000
v -430.000000 80.000000 -455.000000
v -430.000000 80.000000 -524.594177
v -170.000000 80.000000 -713.883484
v -170.000000 80.000000 -745.000000
v -175.000000 80.000000 -715.954529
v -170.000000 80.000000 -755.000000
v -138.883484 80.000000 -745.000000
v -170.000000 80.000000 -784.594177
v -128.883484 80.000000 -755.000000
v 600.405823 80.000000 -1555.000000
v 590.405823 80.000000 -1545.000000
v 500.405853 80.000000 -1455.000000
v 490.405853 80.000000 -1445.000000
v 0.405845 80.000000 -955.000000
v -9.594154 80.000000 -945.000000
v -99.594154 80.000000 -855.000000
v -109.594154 80.000000 -845.000000
v -599.594177 80.000000 -355.000000
v -609.594177 80.000000 -345.000000
v -699.594177 80.000000 -255.000000
v -709.594177 80.000000 -245.000000
v -1199.594116 80.000000 245.000000
v -1209.594116 80.000000 255.000000
v -1299.594116 80.000000 345.000000
v -1309.594116 80.000000 355.000000
v -1186.192261 80.000000 355.000000
v -1176.192261 80.000000 345.000000
v -1086.192261 80.000000 255.000000
v -1076.192261 80.000000 245.000000
v -85.954544 120.000000 -805.000000
v -33.263351 120.000000 -805.000000
v 761.736633 120.000000 -1600.000000
v 768.807739 120.000000 -1600.000000
v 13.807717 120.000000 -845.000000
v 13.807717 80.000000 -845.000000
v 23.807716 80.000000 -855.000000
v -31.192284 120.000000 -800.000000
v 23.807716 120.000000 -855.000000
v 113.807716 120.000000 -945.000000
v 113.807716 80.000000 -945.000000
v 123.807716 80.000000 -955.000000
v 123.807716 120.000000 -955.000000
v 170.000000 120.000000 -1001.192261
v 430.000000 120.000000 -1261.192261
v 523.807739 120.000000 -1355.000000
v 513.807739 120.000000 -1345.000000
v 623.807739 120.000000 -1455.000000
v 613.807739 120.000000 -1445.000000
v 613.807739 80.000000 -1445.000000
v 623.807739 80.000000 -1455.000000
v 723.807739 120.000000 -1555.000000
v 713.807739 120.000000 -1545.000000
v 713.807739 80.000000 -1545.000000
v 723.807739 80.000000 -1555.000000
v -83.883476 120.000000 -800.000000
v -770.000000 120.000000 -113.883476
v -738.883484 120.000000 -145.000000
v -728.883484 120.000000 -155.000000
v -638.883484 120.000000 -245.000000
v -638.883484 80.000000 -245.000000
v -628.883484 80.000000 -255.000000
v -628.883484 120.000000 -255.000000
v -538.883484 120.000000 -345.000000
v -538.883484 80.000000 -345.000000
v -528.883484 80.000000 -355.000000
v -528.883484 120.000000 -355.000000
v -438.883484 120.000000 -445.000000
v -170.000000 120.000000 -713.883484
v -128.883484 120.000000 -755.000000
v -138.883484 120.000000 -745.000000
v -430.000000 120.000000 -455.000000
vn -1.0000 -0.0000 -0.0000
vn -0.7071 -0.0000 -0.7071
vn -0.7071 -0.0001 -0.7071
vn -0.0000 1.0000 -0.0000
vn 0.7071 -0.0000 0.7071
vn 0.7071 -0.0002 0.7071
vn 0.7071 0.0001 0.7071
vn -0.0000 -1.0000 -0.0000
vn 1.0000 -0.0000 -0.0000
vn -0.0000 -0.0000 -1.0000
vn -0.0000 -0.0000 1.0000
vn -0.7071 0.0001 -0.7071
s 0
f 1//1 2//1 3//1
f 4//1 2//1 1//1
f 6//2 5//2 3//2
f 2//2 6//2 3//2
f 9//2 8//2 7//2
f 7//2 8//2 10//2
f 3//2 5//2 10//2
f 11//3 3//3 10//3
f 12//2 11//2 10//2
f 13//2 12//2 10//2
f 14//2 13//2 10//2
f 15//2 14//2 10//2
f 16//2 15//2 10//2
f 17//2 16//2 10//2
f 18//2 17//2 10//2
f 8//2 18//2 10//2
f 20//4 1//4 19//4
f 19//4 1//4 21//4
f 21//4 3//4 11//4
f 19//4 21//4 12//4
f 12//4 13//4 19//4
f 21//4 1//4 3//4
f 1//5 22//5 23//5
f 1//5 23//5 4//5
f 20//5 22//5 1//5
f 24//5 22//5 20//5
f 25//5 26//5 27//5
f 28//5 26//5 25//5
f 29//5 30//5 31//5
f 32//5 30//5 29//5
f 33//5 34//5 35//5
f 36//5 34//5 33//5
f 37//6 36//6 38//6
f 37//5 38//5 39//5
f 37//5 39//5 40//5
f 37//5 40//5 41//5
f 37//5 41//5 42//5
f 37//5 42//5 43//5
f 37//5 22//5 24//5
f 37//5 24//5 44//5
f 37//5 44//5 45//5
f 37//5 45//5 46//5
f 37//5 46//5 47//5
f 37//5 47//5 48//5
f 37//5 48//5 49//5
f 37//7 49//7 26//7
f 37//5 26//5 28//5
f 37//7 28//7 50//7
f 37//5 50//5 51//5
f 37//5 51//5 52//5
f 37//5 52//5 53//5
f 37//5 53//5 54//5
f 37//5 54//5 55//5
f 37//5 55//5 56//5
f 37//5 56//5 57//5
f 37//7 57//7 30//7
f 37//5 30//5 32//5
f 37//7 32//7 58//7
f 37//5 58//5 59//5
f 37//5 59//5 60//5
f 37//5 60//5 61//5
f 37//5 61//5 62//5
f 37//5 62//5 63//5
f 37//5 63//5 64//5
f 37//5 64//5 65//5
f 37//7 65//7 34//7
f 37//5 34//5 36//5
f 67//8 6//8 66//8
f 66//8 2//8 68//8
f 69//8 68//8 4//8
f 69//8 4//8 70//8
f 68//8 69//8 71//8
f 4//8 72//8 70//8
f 72//8 4//8 23//8
f 68//8 2//8 4//8
f 66//8 6//8 2//8
f 71//8 69//8 73//8
f 74//4 10//4 5//4
f 74//4 5//4 75//4
f 76//4 77//4 10//4
f 76//4 10//4 74//4
f 78//4 77//4 76//4
f 79//4 77//4 78//4
f 80//4 78//4 81//4
f 80//4 79//4 78//4
f 82//4 80//4 81//4
f 83//4 82//4 81//4
f 84//1 7//1 10//1
f 84//1 10//1 77//1
f 9//8 86//8 85//8
f 85//8 88//8 87//8
f 9//8 85//8 87//8
f 87//8 89//8 27//8
f 86//8 9//8 90//8
f 7//8 84//8 91//8
f 90//8 7//8 91//8
f 91//8 84//8 92//8
f 91//8 92//8 93//8
f 93//8 92//8 94//8
f 95//8 94//8 25//8
f 94//8 95//8 96//8
f 95//8 25//8 97//8
f 96//8 95//8 98//8
f 88//8 85//8 99//8
f 25//8 89//8 97//8
f 90//8 9//8 7//8
f 87//8 27//8 9//8
f 89//8 25//8 27//8
f 94//8 92//8 25//8
f 8//9 27//9 26//9
f 9//9 27//9 8//9
f 26//4 49//4 100//4
f 100//4 48//4 101//4
f 100//4 101//4 8//4
f 8//4 101//4 18//4
f 100//4 8//4 26//4
f 48//4 47//4 101//4
f 102//8 17//8 18//8
f 103//8 102//8 18//8
f 17//4 46//4 16//4
f 46//4 45//4 16//4
f 104//8 16//8 105//8
f 104//8 15//8 16//8
f 44//4 24//4 14//4
f 44//4 14//4 15//4
f 106//8 14//8 107//8
f 106//8 13//8 14//8
f 108//8 109//8 11//8
f 108//8 11//8 12//8
f 6//1 67//1 5//1
f 5//1 67//1 75//1
f 13//10 106//10 73//10
f 19//10 13//10 69//10
f 13//10 73//10 69//10
f 20//9 19//9 69//9
f 110//9 20//9 70//9
f 20//9 69//9 70//9
f 11//9 109//9 66//9
f 21//9 11//9 68//9
f 11//9 66//9 68//9
f 71//11 108//11 12//11
f 68//11 12//11 21//11
f 68//11 71//11 12//11
f 58//4 32//4 111//4
f 111//4 32//4 112//4
f 114//4 112//4 113//4
f 111//4 112//4 115//4
f 111//4 115//4 116//4
f 112//4 32//4 113//4
f 58//8 117//8 118//8
f 59//8 58//8 118//8
f 60//4 59//4 119//4
f 60//4 119//4 120//4
f 60//8 121//8 122//8
f 61//8 60//8 122//8
f 62//4 61//4 123//4
f 62//4 123//4 124//4
f 62//8 125//8 126//8
f 63//8 62//8 126//8
f 34//4 65//4 127//4
f 127//4 64//4 128//4
f 128//4 130//4 129//4
f 127//4 128//4 129//4
f 64//4 63//4 128//4
f 127//4 129//4 34//4
f 64//8 131//8 132//8
f 65//8 64//8 132//8
f 133//9 35//9 34//9
f 133//9 34//9 129//9
f 133//8 135//8 134//8
f 134//8 137//8 136//8
f 133//8 134//8 136//8
f 136//8 138//8 35//8
f 135//8 133//8 139//8
f 139//8 141//8 140//8
f 142//8 140//8 33//8
f 142//8 33//8 143//8
f 140//8 142//8 144//8
f 137//8 134//8 145//8
f 144//8 142//8 146//8
f 33//8 138//8 143//8
f 136//8 35//8 133//8
f 138//8 33//8 35//8
f 140//8 141//8 33//8
f 139//8 133//8 141//8
f 33//1 141//1 147//1
f 33//1 147//1 36//1
f 147//4 149//4 148//4
f 148//4 151//4 150//4
f 148//4 150//4 36//4
f 36//4 150//4 38//4
f 148//4 36//4 147//4
f 151//4 152//4 150//4
f 153//8 39//8 38//8
f 154//8 153//8 38//8
f 156//4 155//4 40//4
f 156//4 40//4 39//4
f 157//8 41//8 40//8
f 157//8 40//8 158//8
f 160//4 159//4 42//4
f 160//4 42//4 41//4
f 161//8 43//8 42//8
f 161//8 42//8 162//8
f 37//10 161//10 163//10
f 37//10 43//10 161//10
f 163//4 164//4 22//4
f 37//4 163//4 22//4
f 72//1 23//1 22//1
f 164//1 72//1 22//1
f 20//8 110//8 165//8
f 24//8 20//8 165//8
f 44//8 166//8 167//8
f 45//8 44//8 167//8
f 46//8 168//8 169//8
f 47//8 46//8 169//8
f 48//8 170//8 171//8
f 49//8 48//8 171//8
f 28//1 92//1 172//1
f 25//1 92//1 28//1
f 50//4 28//4 173//4
f 173//4 28//4 174//4
f 174//4 172//4 175//4
f 173//4 174//4 176//4
f 173//4 176//4 177//4
f 174//4 28//4 172//4
f 50//8 178//8 179//8
f 51//8 50//8 179//8
f 181//4 52//4 180//4
f 52//4 51//4 180//4
f 52//8 182//8 183//8
f 53//8 52//8 183//8
f 54//4 53//4 184//4
f 54//4 184//4 185//4
f 54//8 186//8 187//8
f 55//8 54//8 187//8
f 56//4 55//4 188//4
f 56//4 188//4 189//4
f 57//8 190//8 191//8
f 56//8 190//8 57//8
f 57//4 193//4 192//4
f 30//4 57//4 192//4
f 194//9 31//9 30//9
f 194//9 30//9 192//9
f 197//8 196//8 195//8
f 195//8 196//8 198//8
f 194//8 199//8 31//8
f 198//8 194//8 200//8
f 200//8 202//8 201//8
f 201//8 202//8 29//8
f 203//8 201//8 29//8
f 201//8 203//8 204//8
f 203//8 29//8 205//8
f 204//8 203//8 206//8
f 198//8 200//8 195//8
f 29//8 199//8 205//8
f 194//8 198//8 199//8
f 200//8 194//8 202//8
f 199//8 29//8 31//8
f 32//1 202//1 113//1
f 29//1 202//1 32//1
f 162//2 163//2 161//2
f 162//2 207//2 208//2
f 157//2 162//2 208//2
f 157//2 163//2 162//2
f 158//2 163//2 157//2
f 153//2 158//2 209//2
f 153//2 209//2 210//2
f 153//2 163//2 158//2
f 154//2 163//2 153//2
f 138//2 154//2 143//2
f 132//2 154//2 138//2
f 131//2 137//2 145//2
f 126//2 131//2 145//2
f 122//2 125//2 211//2
f 122//2 211//2 212//2
f 118//2 121//2 213//2
f 118//2 213//2 214//2
f 199//2 117//2 205//2
f 191//2 117//2 199//2
f 187//2 190//2 196//2
f 187//2 196//2 197//2
f 183//2 186//2 215//2
f 183//2 215//2 216//2
f 182//2 217//2 218//2
f 179//2 182//2 218//2
f 89//2 178//2 97//2
f 171//2 178//2 89//2
f 169//2 170//2 88//2
f 169//2 88//2 99//2
f 168//2 219//2 220//2
f 167//2 168//2 220//2
f 165//2 166//2 221//2
f 165//2 221//2 222//2
f 72//2 110//2 70//2
f 164//2 165//2 110//2
f 164//2 110//2 72//2
f 164//2 163//2 154//2
f 164//2 154//2 132//2
f 164//2 132//2 131//2
f 164//2 131//2 126//2
f 164//2 126//2 125//2
f 164//2 125//2 122//2
f 164//2 122//2 121//2
f 164//2 121//2 118//2
f 164//2 118//2 117//2
f 164//2 117//2 191//2
f 164//2 191//2 190//2
f 164//2 190//2 187//2
f 164//2 187//2 186//2
f 164//2 186//2 183//2
f 164//2 183//2 182//2
f 164//2 182//2 179//2
f 164//2 179//2 178//2
f 164//2 178//2 171//2
f 164//2 171//2 170//2
f 164//2 170//2 169//2
f 164//2 169//2 168//2
f 164//2 168//2 167//2
f 164//2 167//2 166//2
f 164//2 166//2 165//2
f 109//5 75//5 67//5
f 109//5 67//5 66//5
f 108//5 71//5 73//5
f 106//5 108//5 73//5
f 104//5 107//5 223//5
f 104//5 223//5 224//5
f 102//5 105//5 225//5
f 102//5 225//5 226//5
f 90//5 103//5 86//5
f 74//5 103//5 90//5
f 74//5 75//5 109//5
f 74//5 109//5 108//5
f 74//5 108//5 106//5
f 74//5 106//5 107//5
f 74//5 107//5 104//5
f 74//5 104//5 105//5
f 74//5 105//5 102//5
f 74//5 102//5 103//5
f 84//2 77//2 172//2
f 92//2 84//2 172//2
f 172//2 77//2 175//2
f 175//2 77//2 176//2
f 176//2 77//2 177//2
f 177//2 77//2 180//2
f 194//2 192//2 202//2
f 202//2 192//2 113//2
f 114//2 113//2 79//2
f 115//2 114//2 79//2
f 116//2 115//2 79//2
f 227//2 116//2 79//2
f 180//2 77//2 79//2
f 181//2 180//2 79//2
f 184//2 181//2 79//2
f 185//2 184//2 79//2
f 188//2 185//2 79//2
f 189//2 188//2 79//2
f 193//12 189//12 79//12
f 192//2 193//2 79//2
f 113//2 192//2 79//2
f 227//10 79//10 228//10
f 228//10 79//10 80//10
f 228//2 80//2 119//2
f 119//2 80//2 120//2
f 120//2 80//2 123//2
f 123//2 80//2 124//2
f 133//2 129//2 147//2
f 141//2 133//2 147//2
f 155//2 156//2 82//2
f 160//2 155//2 82//2
f 159//2 160//2 82//2
f 229//2 159//2 82//2
f 124//2 80//2 82//2
f 130//2 124//2 82//2
f 129//2 130//2 82//2
f 147//2 129//2 82//2
f 149//2 147//2 82//2
f 151//2 149//2 82//2
f 152//2 151//2 82//2
f 156//2 152//2 82//2
f 83//10 230//10 229//10
f 83//10 229//10 82//10
f 231//5 232//5 233//5
f 231//5 81//5 234//5
f 235//5 81//5 231//5
f 235//5 231//5 233//5
f 236//5 237//5 238//5
f 236//5 81//5 235//5
f 239//5 236//5 238//5
f 239//5 81//5 236//5
f 139//5 240//5 135//5
f 241//5 240//5 139//5
f 242//5 243//5 144//5
f 242//5 144//5 146//5
f 244//5 245//5 246//5
f 244//5 246//5 247//5
f 248//5 249//5 250//5
f 248//5 250//5 251//5
f 83//5 244//5 249//5
f 83//5 248//5 230//5
f 83//5 245//5 244//5
f 83//5 249//5 248//5
f 83//5 81//5 239//5
f 83//5 239//5 240//5
f 83//5 240//5 241//5
f 83//5 241//5 243//5
f 83//5 243//5 242//5
f 83//5 242//5 245//5
f 234//11 78//11 252//11
f 81//11 78//11 234//11
f 253//5 76//5 91//5
f 253//5 91//5 93//5
f 254//5 96//5 98//5
f 254//5 76//5 253//5
f 255//5 76//5 254//5
f 255//5 254//5 98//5
f 256//5 257//5 258//5
f 256//5 76//5 255//5
f 259//5 256//5 258//5
f 260//5 261//5 262//5
f 263//5 260//5 262//5
f 200//5 264//5 195//5
f 265//5 264//5 200//5
f 266//5 267//5 204//5
f 266//5 204//5 206//5
f 78//5 265//5 267//5
f 78//5 266//5 252//5
f 78//5 267//5 266//5
f 78//5 76//5 256//5
f 78//5 256//5 259//5
f 78//5 259//5 260//5
f 78//5 260//5 263//5
f 78//5 263//5 264//5
f 78//5 264//5 265//5
f 76//9 90//9 91//9
f 76//9 74//9 90//9
f 100//10 87//10 48//10
f 170//10 48//10 88//10
f 48//10 87//10 88//10
f 49//1 171//1 89//1
f 100//1 49//1 87//1
f 49//1 89//1 87//1
f 47//11 85//11 101//11
f 99//11 47//11 169//11
f 99//11 85//11 47//11
f 18//1 101//1 85//1
f 103//1 18//1 86//1
f 18//1 85//1 86//1
f 50//9 173//9 95//9
f 178//9 50//9 97//9
f 50//9 95//9 97//9
f 177//10 255//10 98//10
f 173//10 177//10 95//10
f 177//10 98//10 95//10
f 96//11 254//11 176//11
f 94//11 176//11 174//11
f 94//11 96//11 176//11
f 175//9 253//9 93//9
f 174//9 175//9 94//9
f 175//9 93//9 94//9
f 17//10 102//10 226//10
f 46//10 17//10 219//10
f 168//10 46//10 219//10
f 17//10 226//10 219//10
f 225//11 105//11 16//11
f 220//11 16//11 45//11
f 220//11 45//11 167//11
f 220//11 225//11 16//11
f 15//10 104//10 224//10
f 44//10 15//10 221//10
f 166//10 44//10 221//10
f 15//10 224//10 221//10
f 223//11 107//11 14//11
f 222//11 14//11 24//11
f 222//11 24//11 165//11
f 222//11 223//11 14//11
f 114//9 265//9 200//9
f 112//9 114//9 201//9
f 114//9 200//9 201//9
f 204//11 267//11 115//11
f 201//11 115//11 112//11
f 201//11 204//11 115//11
f 116//10 266//10 206//10
f 111//10 116//10 203//10
f 116//10 206//10 203//10
f 58//9 111//9 203//9
f 117//9 58//9 205//9
f 58//9 203//9 205//9
f 232//11 231//11 119//11
f 59//11 232//11 119//11
f 214//11 59//11 118//11
f 214//11 232//11 59//11
f 120//10 235//10 233//10
f 120//10 233//10 60//10
f 121//10 60//10 213//10
f 60//10 233//10 213//10
f 237//11 236//11 123//11
f 61//11 237//11 123//11
f 212//11 61//11 122//11
f 212//11 237//11 61//11
f 124//10 239//10 238//10
f 124//10 238//10 62//10
f 125//10 62//10 211//10
f 62//10 238//10 211//10
f 63//11 134//11 128//11
f 145//11 63//11 126//11
f 145//11 134//11 63//11
f 135//1 240//1 130//1
f 134//1 130//1 128//1
f 134//1 135//1 130//1
f 65//1 136//1 127//1
f 138//1 65//1 132//1
f 138//1 136//1 65//1
f 127//10 136//10 64//10
f 131//10 64//10 137//10
f 64//10 136//10 137//10
f 143//9 154//9 38//9
f 142//9 38//9 150//9
f 142//9 143//9 38//9
f 152//10 142//10 150//10
f 146//10 152//10 242//10
f 146//10 142//10 152//10
f 149//9 140//9 148//9
f 139//9 149//9 241//9
f 139//9 140//9 149//9
f 148//11 140//11 151//11
f 243//11 151//11 144//11
f 151//11 140//11 144//11
f 39//11 153//11 210//11
f 156//11 39//11 246//11
f 245//11 156//11 246//11
f 39//11 210//11 246//11
f 209//10 158//10 40//10
f 247//10 40//10 155//10
f 247//10 155//10 244//10
f 247//10 209//10 40//10
f 41//11 157//11 208//11
f 160//11 41//11 250//11
f 249//11 160//11 250//11
f 41//11 208//11 250//11
f 207//10 162//10 42//10
f 251//10 42//10 159//10
f 251//10 159//10 248//10
f 251//10 207//10 42//10
f 257//11 256//11 180//11
f 218//11 180//11 51//11
f 218//11 51//11 179//11
f 218//11 257//11 180//11
f 181//10 259//10 258//10
f 52//10 181//10 217//10
f 182//10 52//10 217//10
f 181//10 258//10 217//10
f 261//11 260//11 184//11
f 216//11 184//11 53//11
f 216//11 53//11 183//11
f 216//11 261//11 184//11
f 185//10 263//10 262//10
f 54//10 185//10 215//10
f 186//10 54//10 215//10
f 185//10 262//10 215//10
f 195//11 264//11 188//11
f 197//11 188//11 55//11
f 197//11 55//11 187//11
f 197//11 195//11 188//11
f 189//10 268//10 198//10
f 189//10 198//10 56//10
f 190//10 56//10 196//10
f 56//10 198//10 196//10
f 57//1 191//1 199//1
f 193//1 57//1 198//1
f 268//1 193//1 198//1
f 57//1 199//1 198//1
f 222//8 221//8 223//8
f 223//8 221//8 224//8
f 220//8 219//8 225//8
f 225//8 219//8 226//8
f 218//8 217//8 257//8
f 257//8 217//8 258//8
f 216//8 215//8 261//8
f 261//8 215//8 262//8
f 214//8 213//8 232//8
f 232//8 213//8 233//8
f 212//8 211//8 237//8
f 237//8 211//8 238//8
f 210//8 209//8 246//8
f 246//8 209//8 247//8
f 208//8 207//8 250//8
f 250//8 207//8 251//8
f 268//8 189//8 193//8
f 263//8 185//8 188//8
f 264//8 263//8 188//8
f 259//8 181//8 184//8
f 260//8 259//8 184//8
f 255//8 180//8 256//8
f 255//8 177//8 180//8
f 253//8 175//8 176//8
f 254//8 253//8 176//8
f 266//8 116//8 227//8
f 252//8 266//8 227//8
f 228//8 252//8 227//8
f 234//8 228//8 119//8
f 234//8 252//8 228//8
f 231//8 234//8 119//8
f 265//8 114//8 115//8
f 267//8 265//8 115//8
f 239//8 124//8 130//8
f 240//8 239//8 130//8
f 235//8 120//8 123//8
f 235//8 123//8 236//8
f 151//8 243//8 149//8
f 149//8 243//8 241//8
f 156//8 245//8 242//8
f 156//8 242//8 152//8
f 160//8 249//8 244//8
f 160//8 244//8 155//8
f 229//8 230//8 248//8
f 229//8 248//8 159//8
