# Blender 4.0.2
# www.blender.org
o c4ad66bd7a8b872935177dd0b7e97ffcd8791e885bfe40f29b7af8dfb3c8da9
v -1600.000000 315.000000 -1564.644653
v -1600.000000 280.000000 -1564.644653
v -1600.000000 280.000000 -1600.000000
v -1600.000000 315.000000 -1600.000000
v 1564.644653 315.000000 1600.000000
v 1564.644653 280.000000 1600.000000
v 1600.000000 315.000000 1564.644653
v 1600.000000 315.000000 1600.000000
v -1564.644653 315.000000 -1600.000000
v -1564.644653 280.000000 -1600.000000
v 1600.000000 280.000000 1564.644653
v 1600.000000 280.000000 1600.000000
vn -1.0000 -0.0000 -0.0000
vn -0.7071 -0.0000 0.7071
vn -0.0000 1.0000 -0.0000
vn -0.0000 -0.0000 -1.0000
vn -0.0000 -1.0000 -0.0000
vn -0.0000 -0.0000 1.0000
vn 0.7071 -0.0000 -0.7071
vn 1.0000 -0.0000 -0.0000
s 0
f 3//1 2//1 1//1
f 4//1 3//1 1//1
f 1//2 2//2 5//2
f 5//2 2//2 6//2
f 7//3 5//3 8//3
f 9//3 4//3 1//3
f 9//3 1//3 5//3
f 9//3 5//3 7//3
f 9//4 10//4 3//4
f 9//4 3//4 4//4
f 12//5 6//5 11//5
f 2//5 3//5 10//5
f 6//5 2//5 10//5
f 11//5 6//5 10//5
f 6//6 12//6 8//6
f 5//6 6//6 8//6
f 7//7 11//7 9//7
f 9//7 11//7 10//7
f 8//8 12//8 11//8
f 8//8 11//8 7//8
