# Blender 4.0.2
# www.blender.org
o c7998028ab5b8f4904c07b960844988762cf1a77a13412aff7105ba8e6f41b6
v -1600.000000 160.000000 627.386353
v -1600.000000 160.000000 645.405823
v -1600.000000 80.000000 645.405823
v -1600.000000 80.000000 627.386353
v 600.405823 120.000000 -1555.000000
v 645.405823 160.000000 -1600.000000
v 645.405823 120.000000 -1600.000000
v 600.405823 80.000000 -1555.000000
v 590.405823 80.000000 -1545.000000
v 590.405823 120.000000 -1545.000000
v 500.405853 120.000000 -1455.000000
v 490.405853 120.000000 -1445.000000
v 500.405853 80.000000 -1455.000000
v 490.405853 80.000000 -1445.000000
v 430.000000 120.000000 -1384.594116
v 170.000000 80.000000 -1124.594116
v 430.000000 80.000000 -1384.594116
v 170.000000 120.000000 -1124.594116
v 100.405846 120.000000 -1055.000000
v 100.405846 80.000000 -1055.000000
v 90.405846 80.000000 -1045.000000
v 90.405846 120.000000 -1045.000000
v -9.594154 120.000000 -945.000000
v 0.405845 120.000000 -955.000000
v 0.405845 80.000000 -955.000000
v -9.594154 80.000000 -945.000000
v -109.594154 120.000000 -845.000000
v -99.594154 120.000000 -855.000000
v -99.594154 80.000000 -855.000000
v -109.594154 80.000000 -845.000000
v -430.000000 80.000000 -524.594177
v -170.000000 120.000000 -784.594177
v -170.000000 80.000000 -784.594177
v -430.000000 120.000000 -524.594177
v -509.594147 120.000000 -445.000000
v -499.594147 120.000000 -455.000000
v -499.594147 80.000000 -455.000000
v -509.594147 80.000000 -445.000000
v -609.594177 120.000000 -345.000000
v -599.594177 120.000000 -355.000000
v -599.594177 80.000000 -355.000000
v -609.594177 80.000000 -345.000000
v -699.594177 120.000000 -255.000000
v -699.594177 80.000000 -255.000000
v -709.594177 80.000000 -245.000000
v -709.594177 120.000000 -245.000000
v -1030.000000 80.000000 75.405846
v -770.000000 120.000000 -184.594162
v -770.000000 80.000000 -184.594162
v -1030.000000 120.000000 75.405846
v -1109.594116 120.000000 155.000000
v -1099.594116 120.000000 145.000000
v -1099.594116 80.000000 145.000000
v -1109.594116 80.000000 155.000000
v -1199.594116 120.000000 245.000000
v -1199.594116 80.000000 245.000000
v -1209.594116 80.000000 255.000000
v -1209.594116 120.000000 255.000000
v -1309.594116 120.000000 355.000000
v -1299.594116 120.000000 345.000000
v -1299.594116 80.000000 345.000000
v -1309.594116 80.000000 355.000000
v -1370.000000 120.000000 415.405853
v -1370.000000 80.000000 415.405853
v -1370.000000 80.000000 397.386353
v -1370.000000 120.000000 397.386353
v -1327.613647 120.000000 355.000000
v -1327.613647 80.000000 355.000000
v -1317.613647 80.000000 345.000000
v -1317.613647 120.000000 345.000000
v -1217.613647 120.000000 245.000000
v -1227.613647 120.000000 255.000000
v -1227.613647 80.000000 255.000000
v -1217.613647 80.000000 245.000000
v -1117.613647 120.000000 145.000000
v -1127.613647 120.000000 155.000000
v -1127.613647 80.000000 155.000000
v -1117.613647 80.000000 145.000000
v -800.000000 80.000000 -172.613632
v -1030.000000 120.000000 57.386360
v -1030.000000 80.000000 57.386360
v -800.000000 160.000000 -172.613632
v -225.304840 160.000000 -800.000000
v -800.000000 160.000000 -225.304840
v -172.613632 160.000000 -800.000000
v 627.386353 160.000000 -1600.000000
v 627.386353 120.000000 -1600.000000
v -800.000000 80.000000 -225.304840
v -770.000000 80.000000 -245.000000
v -770.000000 80.000000 -255.000000
v -770.000000 80.000000 -255.304840
v -770.000000 120.000000 -245.000000
v -770.000000 120.000000 -255.000000
v -770.000000 120.000000 -255.304840
v -680.304810 120.000000 -345.000000
v -680.304810 80.000000 -345.000000
v -670.304810 80.000000 -355.000000
v -670.304810 120.000000 -355.000000
v -580.304810 120.000000 -445.000000
v -580.304810 80.000000 -445.000000
v -570.304810 80.000000 -455.000000
v -570.304810 120.000000 -455.000000
v -480.304840 120.000000 -545.000000
v -430.000000 120.000000 -545.000000
v -430.000000 80.000000 -545.000000
v -430.000000 80.000000 -555.000000
v -470.304840 80.000000 -555.000000
v -225.304840 80.000000 -800.000000
v -430.000000 80.000000 -595.304810
v -172.613632 80.000000 -800.000000
v -170.000000 80.000000 -802.613647
v -480.304840 80.000000 -545.000000
v -170.000000 120.000000 -802.613647
v -127.613640 120.000000 -845.000000
v -127.613640 80.000000 -845.000000
v -117.613640 80.000000 -855.000000
v -117.613640 120.000000 -855.000000
v -27.613640 120.000000 -945.000000
v -27.613640 80.000000 -945.000000
v -17.613640 80.000000 -955.000000
v -17.613640 120.000000 -955.000000
v 72.386360 120.000000 -1045.000000
v 72.386360 80.000000 -1045.000000
v 82.386360 80.000000 -1055.000000
v 82.386360 120.000000 -1055.000000
v 170.000000 120.000000 -1142.613647
v 170.000000 80.000000 -1142.613647
v 430.000000 80.000000 -1402.613647
v 430.000000 120.000000 -1402.613647
v 472.386353 120.000000 -1445.000000
v 472.386353 80.000000 -1445.000000
v 482.386353 80.000000 -1455.000000
v 482.386353 120.000000 -1455.000000
v 572.386353 120.000000 -1545.000000
v 572.386353 80.000000 -1545.000000
v 582.386353 80.000000 -1555.000000
v 582.386353 120.000000 -1555.000000
v -470.304840 120.000000 -555.000000
v -430.000000 120.000000 -595.304810
v -430.000000 120.000000 -555.000000
vn -1.0000 -0.0000 -0.0000
vn 0.7071 -0.0000 0.7071
vn -0.0000 -1.0000 -0.0000
vn -0.7071 -0.0000 -0.7071
vn -0.0000 1.0000 -0.0000
vn -0.0000 -0.0000 -1.0000
vn 1.0000 -0.0000 -0.0000
vn -0.0000 -0.0000 1.0000
s 0
f 3//1 2//1 1//1
f 4//1 3//1 1//1
f 7//2 6//2 5//2
f 9//2 8//2 5//2
f 9//2 5//2 10//2
f 5//2 6//2 10//2
f 10//2 6//2 11//2
f 13//2 11//2 12//2
f 14//2 13//2 12//2
f 11//2 6//2 12//2
f 12//2 6//2 15//2
f 17//2 15//2 16//2
f 16//2 15//2 18//2
f 21//2 20//2 19//2
f 21//2 19//2 22//2
f 25//2 24//2 23//2
f 26//2 25//2 23//2
f 29//2 28//2 27//2
f 30//2 29//2 27//2
f 33//2 32//2 31//2
f 31//2 32//2 34//2
f 37//2 36//2 35//2
f 38//2 37//2 35//2
f 41//2 40//2 39//2
f 42//2 41//2 39//2
f 45//2 44//2 43//2
f 45//2 43//2 46//2
f 49//2 48//2 47//2
f 47//2 48//2 50//2
f 53//2 52//2 51//2
f 54//2 53//2 51//2
f 57//2 56//2 55//2
f 57//2 55//2 58//2
f 61//2 60//2 59//2
f 62//2 61//2 59//2
f 64//2 63//2 3//2
f 63//2 59//2 2//2
f 3//2 63//2 2//2
f 15//2 6//2 2//2
f 18//2 15//2 2//2
f 19//2 18//2 2//2
f 22//2 19//2 2//2
f 24//2 22//2 2//2
f 23//2 24//2 2//2
f 28//2 23//2 2//2
f 27//2 28//2 2//2
f 32//2 27//2 2//2
f 34//2 32//2 2//2
f 36//2 34//2 2//2
f 35//2 36//2 2//2
f 40//2 35//2 2//2
f 39//2 40//2 2//2
f 43//2 39//2 2//2
f 46//2 43//2 2//2
f 48//2 46//2 2//2
f 50//2 48//2 2//2
f 52//2 50//2 2//2
f 51//2 52//2 2//2
f 55//2 51//2 2//2
f 58//2 55//2 2//2
f 60//2 58//2 2//2
f 59//2 60//2 2//2
f 3//3 4//3 64//3
f 64//3 4//3 65//3
f 4//4 1//4 66//4
f 65//4 4//4 66//4
f 69//4 68//4 67//4
f 69//4 67//4 70//4
f 73//4 72//4 71//4
f 74//4 73//4 71//4
f 77//4 76//4 75//4
f 78//4 77//4 75//4
f 81//4 80//4 79//4
f 79//4 80//4 82//4
f 66//4 1//4 82//4
f 67//4 66//4 82//4
f 70//4 67//4 82//4
f 72//4 70//4 82//4
f 71//4 72//4 82//4
f 76//4 71//4 82//4
f 75//4 76//4 82//4
f 80//4 75//4 82//4
f 82//5 1//5 2//5
f 83//5 84//5 82//5
f 85//5 83//5 82//5
f 6//5 86//5 85//5
f 2//5 6//5 82//5
f 82//5 6//5 85//5
f 6//6 87//6 86//6
f 6//6 7//6 87//6
f 63//7 64//7 65//7
f 66//7 63//7 65//7
f 59//3 66//3 67//3
f 63//3 66//3 59//3
f 62//8 59//8 67//8
f 68//8 62//8 67//8
f 62//3 68//3 69//3
f 62//3 69//3 61//3
f 70//6 60//6 61//6
f 70//6 61//6 69//6
f 60//3 70//3 72//3
f 60//3 72//3 58//3
f 57//8 58//8 72//8
f 73//8 57//8 72//8
f 57//3 73//3 74//3
f 57//3 74//3 56//3
f 71//6 55//6 56//6
f 71//6 56//6 74//6
f 55//3 71//3 76//3
f 55//3 76//3 51//3
f 54//8 51//8 76//8
f 77//8 54//8 76//8
f 54//3 77//3 78//3
f 54//3 78//3 53//3
f 75//6 52//6 53//6
f 75//6 53//6 78//6
f 52//3 75//3 80//3
f 50//3 52//3 80//3
f 80//1 81//1 47//1
f 50//1 80//1 47//1
f 47//3 81//3 79//3
f 47//3 79//3 49//3
f 49//3 79//3 88//3
f 49//3 88//3 89//3
f 89//3 88//3 90//3
f 90//3 88//3 91//3
f 89//3 90//3 45//3
f 45//3 90//3 44//3
f 48//7 49//7 92//7
f 92//7 49//7 89//7
f 48//3 92//3 46//3
f 92//8 45//8 46//8
f 89//8 45//8 92//8
f 43//6 44//6 93//6
f 93//6 44//6 90//6
f 43//3 93//3 94//3
f 43//3 94//3 95//3
f 43//3 95//3 39//3
f 95//8 42//8 39//8
f 96//8 42//8 95//8
f 96//3 97//3 42//3
f 42//3 97//3 41//3
f 40//6 41//6 98//6
f 98//6 41//6 97//6
f 40//3 98//3 99//3
f 40//3 99//3 35//3
f 99//8 38//8 35//8
f 100//8 38//8 99//8
f 100//3 101//3 38//3
f 38//3 101//3 37//3
f 36//6 37//6 102//6
f 102//6 37//6 101//6
f 36//3 102//3 103//3
f 34//3 103//3 104//3
f 34//3 36//3 103//3
f 104//1 105//1 31//1
f 34//1 104//1 31//1
f 105//3 107//3 106//3
f 31//3 105//3 33//3
f 109//3 108//3 33//3
f 106//3 109//3 33//3
f 105//3 106//3 33//3
f 33//3 108//3 110//3
f 33//3 110//3 111//3
f 107//3 105//3 112//3
f 32//7 33//7 111//7
f 113//7 32//7 111//7
f 27//3 32//3 113//3
f 27//3 113//3 114//3
f 30//8 27//8 114//8
f 115//8 30//8 114//8
f 30//3 115//3 116//3
f 30//3 116//3 29//3
f 117//6 28//6 29//6
f 117//6 29//6 116//6
f 28//3 117//3 118//3
f 28//3 118//3 23//3
f 119//8 26//8 23//8
f 119//8 23//8 118//8
f 26//3 119//3 120//3
f 26//3 120//3 25//3
f 121//6 24//6 25//6
f 121//6 25//6 120//6
f 24//3 121//3 122//3
f 24//3 122//3 22//3
f 21//8 22//8 122//8
f 123//8 21//8 122//8
f 21//3 123//3 124//3
f 21//3 124//3 20//3
f 125//6 19//6 20//6
f 125//6 20//6 124//6
f 19//3 125//3 126//3
f 18//3 19//3 126//3
f 127//1 18//1 126//1
f 127//1 16//1 18//1
f 16//3 127//3 17//3
f 17//3 127//3 128//3
f 17//7 128//7 129//7
f 17//7 129//7 15//7
f 130//3 12//3 129//3
f 129//3 12//3 15//3
f 12//8 130//8 131//8
f 12//8 131//8 14//8
f 14//3 131//3 132//3
f 14//3 132//3 13//3
f 13//6 132//6 133//6
f 13//6 133//6 11//6
f 134//3 10//3 11//3
f 134//3 11//3 133//3
f 10//8 134//8 135//8
f 10//8 135//8 9//8
f 9//3 135//3 136//3
f 9//3 136//3 8//3
f 136//6 137//6 5//6
f 8//6 136//6 5//6
f 87//3 7//3 5//3
f 87//3 5//3 137//3
f 88//1 79//1 84//1
f 79//1 82//1 84//1
f 88//4 84//4 94//4
f 91//4 88//4 94//4
f 97//4 96//4 95//4
f 94//4 84//4 95//4
f 95//4 84//4 98//4
f 97//4 95//4 98//4
f 100//4 99//4 102//4
f 101//4 100//4 102//4
f 112//4 103//4 138//4
f 107//4 112//4 138//4
f 109//4 139//4 108//4
f 108//4 139//4 83//4
f 98//4 84//4 83//4
f 99//4 98//4 83//4
f 102//4 99//4 83//4
f 103//4 102//4 83//4
f 138//4 103//4 83//4
f 139//4 138//4 83//4
f 110//6 108//6 83//6
f 110//6 83//6 85//6
f 111//4 110//4 113//4
f 113//4 110//4 85//4
f 116//4 115//4 114//4
f 113//4 85//4 114//4
f 116//4 114//4 117//4
f 114//4 85//4 117//4
f 120//4 119//4 118//4
f 117//4 85//4 118//4
f 120//4 118//4 121//4
f 118//4 85//4 121//4
f 124//4 123//4 122//4
f 124//4 122//4 125//4
f 127//4 126//4 129//4
f 128//4 127//4 129//4
f 131//4 130//4 133//4
f 132//4 131//4 133//4
f 135//4 134//4 137//4
f 136//4 135//4 137//4
f 134//4 133//4 86//4
f 87//4 137//4 86//4
f 133//4 130//4 86//4
f 137//4 134//4 86//4
f 121//4 85//4 86//4
f 122//4 121//4 86//4
f 125//4 122//4 86//4
f 126//4 125//4 86//4
f 129//4 126//4 86//4
f 130//4 129//4 86//4
f 93//7 90//7 91//7
f 94//7 93//7 91//7
f 103//8 105//8 104//8
f 112//8 105//8 103//8
f 140//6 106//6 138//6
f 138//6 106//6 107//6
f 139//1 109//1 106//1
f 140//1 139//1 106//1
f 140//3 138//3 139//3
