# Blender 4.0.2
# www.blender.org
o c86440bb3773b435694aa8fead2338f90918ea830ee4ba694db480f0f13de27
v 1375.000000 120.000000 1301.740967
v 1600.000000 160.000000 1076.740967
v 1600.000000 80.000000 1076.740967
v 1375.000000 80.000000 1301.740967
v 1076.740967 160.000000 1600.000000
v 1221.740967 120.000000 1455.000000
v 1131.740967 120.000000 1545.000000
v 1121.740967 120.000000 1555.000000
v 1076.740967 120.000000 1600.000000
v 1370.000000 120.000000 1306.740967
v 1331.740967 120.000000 1345.000000
v 1321.740967 120.000000 1355.000000
v 1231.740967 120.000000 1445.000000
v 1600.000000 160.000000 1069.669922
v 1069.669922 160.000000 1600.000000
v 1069.669922 120.000000 1600.000000
v 1114.669922 120.000000 1555.000000
v 1241.000732 120.000000 1545.000000
v 1231.000732 120.000000 1555.000000
v 1214.669922 120.000000 1455.000000
v 1124.669922 120.000000 1545.000000
v 1341.000732 120.000000 1445.000000
v 1331.000732 120.000000 1455.000000
v 1314.669922 120.000000 1355.000000
v 1224.669922 120.000000 1445.000000
v 1370.000000 120.000000 1345.000000
v 1370.000000 120.000000 1355.000000
v 1370.000000 120.000000 1416.000732
v 1375.000000 120.000000 1411.000732
v 1370.000000 120.000000 1299.669922
v 1324.669922 120.000000 1345.000000
v 1375.000000 80.000000 1411.000732
v 1370.000000 80.000000 1355.000000
v 1324.669922 80.000000 1345.000000
v 1314.669922 80.000000 1355.000000
v 1370.000000 80.000000 1345.000000
v 1370.000000 80.000000 1299.669922
v 1600.000000 80.000000 1193.071777
v 1370.000000 80.000000 1423.071777
v 1600.000000 80.000000 1069.669922
v 1600.000000 80.000000 1186.000732
v 1224.669922 80.000000 1445.000000
v 1214.669922 80.000000 1455.000000
v 1124.669922 80.000000 1545.000000
v 1114.669922 80.000000 1555.000000
v 1238.071777 80.000000 1555.000000
v 1238.071777 120.000000 1555.000000
v 1186.000732 160.000000 1600.000000
v 1186.000732 120.000000 1600.000000
v 1600.000000 160.000000 1186.000732
v 1248.071777 80.000000 1545.000000
v 1248.071777 120.000000 1545.000000
v 1338.071777 80.000000 1455.000000
v 1338.071777 120.000000 1455.000000
v 1348.071777 80.000000 1445.000000
v 1348.071777 120.000000 1445.000000
v 1370.000000 120.000000 1423.071777
v 1600.000000 160.000000 1193.071777
v 1193.071777 160.000000 1600.000000
v 1193.071777 120.000000 1600.000000
vn 0.7071 -0.0000 0.7071
vn 0.7071 0.0002 0.7071
vn -0.0000 1.0000 -0.0000
vn -0.0000 -0.0000 1.0000
vn -0.0000 -1.0000 -0.0000
vn 1.0000 -0.0000 -0.0000
vn -0.7071 -0.0000 -0.7071
vn -0.0000 -0.0000 -1.0000
vn -1.0000 -0.0000 -0.0000
s 0
f 3//1 2//1 1//1
f 4//1 3//1 1//1
f 7//1 6//1 5//1
f 8//1 7//1 5//1
f 9//1 8//1 5//1
f 1//1 2//1 5//1
f 10//2 1//2 5//2
f 11//1 10//1 5//1
f 12//1 11//1 5//1
f 13//1 12//1 5//1
f 6//1 13//1 5//1
f 5//3 2//3 14//3
f 15//3 5//3 14//3
f 15//4 16//4 5//4
f 16//4 9//4 5//4
f 17//5 8//5 9//5
f 16//5 17//5 9//5
f 19//3 18//3 7//3
f 8//3 19//3 7//3
f 20//5 6//5 7//5
f 20//5 7//5 21//5
f 23//3 22//3 13//3
f 23//3 13//3 6//3
f 24//5 12//5 13//5
f 24//5 13//5 25//5
f 26//3 1//3 10//3
f 27//3 26//3 11//3
f 27//3 11//3 12//3
f 29//3 27//3 28//3
f 26//3 29//3 1//3
f 27//3 29//3 26//3
f 30//5 10//5 11//5
f 30//5 11//5 31//5
f 32//6 4//6 1//6
f 32//6 1//6 29//6
f 35//5 34//5 33//5
f 33//5 34//5 36//5
f 36//5 37//5 4//5
f 39//5 32//5 38//5
f 3//5 37//5 40//5
f 32//5 39//5 33//5
f 38//5 32//5 41//5
f 36//5 4//5 32//5
f 33//5 36//5 32//5
f 37//5 3//5 4//5
f 3//6 40//6 2//6
f 2//6 40//6 14//6
f 30//7 14//7 40//7
f 30//7 40//7 37//7
f 24//7 31//7 34//7
f 24//7 34//7 35//7
f 20//7 25//7 42//7
f 20//7 42//7 43//7
f 17//7 21//7 44//7
f 17//7 44//7 45//7
f 15//7 20//7 21//7
f 15//7 17//7 16//7
f 15//7 21//7 17//7
f 15//7 14//7 30//7
f 15//7 30//7 31//7
f 15//7 31//7 24//7
f 15//7 24//7 25//7
f 15//7 25//7 20//7
f 8//4 17//4 45//4
f 19//4 8//4 46//4
f 47//4 19//4 46//4
f 8//4 45//4 46//4
f 49//7 48//7 19//7
f 19//7 48//7 18//7
f 18//7 48//7 23//7
f 32//7 29//7 41//7
f 41//7 29//7 50//7
f 23//7 48//7 50//7
f 22//7 23//7 50//7
f 28//7 22//7 50//7
f 29//7 28//7 50//7
f 44//8 21//8 7//8
f 51//8 7//8 18//8
f 51//8 18//8 52//8
f 51//8 44//8 7//8
f 6//4 20//4 43//4
f 23//4 6//4 53//4
f 54//4 23//4 53//4
f 6//4 43//4 53//4
f 42//8 25//8 13//8
f 55//8 13//8 22//8
f 55//8 22//8 56//8
f 55//8 42//8 13//8
f 12//4 24//4 35//4
f 27//4 12//4 33//4
f 12//4 35//4 33//4
f 36//9 26//9 10//9
f 37//9 10//9 30//9
f 37//9 36//9 10//9
f 34//8 31//8 11//8
f 36//8 11//8 26//8
f 36//8 34//8 11//8
f 39//9 57//9 28//9
f 33//9 28//9 27//9
f 33//9 39//9 28//9
f 58//6 38//6 50//6
f 38//6 41//6 50//6
f 47//1 59//1 60//1
f 47//1 46//1 51//1
f 52//1 47//1 51//1
f 52//1 59//1 47//1
f 54//1 53//1 55//1
f 54//1 59//1 52//1
f 56//1 54//1 55//1
f 38//1 57//1 39//1
f 58//1 57//1 38//1
f 58//1 59//1 54//1
f 58//1 54//1 56//1
f 58//1 56//1 57//1
f 45//5 44//5 46//5
f 46//5 44//5 51//5
f 43//5 42//5 53//5
f 53//5 42//5 55//5
f 19//5 47//5 60//5
f 49//5 19//5 60//5
f 57//5 56//5 22//5
f 28//5 57//5 22//5
f 23//5 54//5 52//5
f 23//5 52//5 18//5
f 49//4 60//4 48//4
f 48//4 60//4 59//4
f 48//3 59//3 58//3
f 48//3 58//3 50//3
