# Blender 4.0.2
# www.blender.org
o ca31ce04a39dbd03a433677e7346f2d99ec6d3cd36be77314aedac9bb75e584
v -150.431091 315.000000 -1600.000000
v -150.431091 280.000000 -1600.000000
v -221.141769 280.000000 -1600.000000
v -221.141769 315.000000 -1600.000000
v 1600.000000 280.000000 150.431091
v 1600.000000 280.000000 221.141769
v 1600.000000 315.000000 150.431091
v 1600.000000 315.000000 221.141769
vn -0.0000 -0.0000 -1.0000
vn -0.0000 -1.0000 -0.0000
vn 0.7071 -0.0000 -0.7071
vn -0.0000 1.0000 -0.0000
vn -0.7071 -0.0000 0.7071
vn 1.0000 -0.0000 -0.0000
s 0
f 1//1 2//1 3//1
f 1//1 3//1 4//1
f 6//2 3//2 5//2
f 5//2 3//2 2//2
f 7//3 5//3 2//3
f 1//3 7//3 2//3
f 7//4 4//4 8//4
f 1//4 4//4 7//4
f 4//5 3//5 8//5
f 8//5 3//5 6//5
f 6//6 5//6 7//6
f 8//6 6//6 7//6
