# Blender 4.0.2
# www.blender.org
o cd0dc4b874ec5c481cbdec7c9ccb0558351f9ba8c4714144e5fe61d6013ce84
v 980.939758 315.000000 -1600.000000
v 980.939758 280.000000 -1600.000000
v 910.229065 280.000000 -1600.000000
v 910.229065 315.000000 -1600.000000
v 1600.000000 280.000000 -910.229065
v 1600.000000 280.000000 -980.939758
v 1600.000000 315.000000 -980.939758
v 1600.000000 315.000000 -910.229065
vn -0.0000 -0.0000 -1.0000
vn -0.0000 -1.0000 -0.0000
vn 0.7071 -0.0000 -0.7071
vn -0.0000 1.0000 -0.0000
vn -0.7071 -0.0000 0.7071
vn 1.0000 -0.0000 -0.0000
s 0
f 1//1 2//1 3//1
f 1//1 3//1 4//1
f 5//2 3//2 2//2
f 6//2 5//2 2//2
f 7//3 6//3 2//3
f 1//3 7//3 2//3
f 1//4 4//4 8//4
f 1//4 8//4 7//4
f 4//5 3//5 5//5
f 8//5 4//5 5//5
f 8//6 5//6 6//6
f 8//6 6//6 7//6
