# Blender 4.0.2
# www.blender.org
o d0dd9eca94e6eb18d683c6a20263ee8d5b70fc604d4452946e1a613d96027ca
v -1375.000000 120.000000 -986.736633
v -1375.000000 80.000000 -877.476929
v -1375.000000 120.000000 -877.476929
v -1375.000000 80.000000 -986.736633
v -1600.000000 160.000000 -652.476929
v -1600.000000 80.000000 -652.476929
v -775.000000 80.000000 -1477.476929
v -1025.000000 120.000000 -1227.476929
v -1025.000000 80.000000 -1227.476929
v -775.000000 120.000000 -1477.476929
v -652.476929 160.000000 -1600.000000
v -770.000000 120.000000 -1482.476929
v -707.476929 120.000000 -1545.000000
v -697.476929 120.000000 -1555.000000
v -652.476929 120.000000 -1600.000000
v -1370.000000 120.000000 -882.476929
v -1307.476929 120.000000 -945.000000
v -1297.476929 120.000000 -955.000000
v -1207.476929 120.000000 -1045.000000
v -1197.476929 120.000000 -1055.000000
v -1107.476929 120.000000 -1145.000000
v -1097.476929 120.000000 -1155.000000
v -1030.000000 120.000000 -1222.476929
v -1370.000000 120.000000 -955.000000
v -1370.000000 120.000000 -991.736633
v -1370.000000 120.000000 -945.000000
v -761.736633 160.000000 -1600.000000
v -761.736633 120.000000 -1600.000000
v -770.000000 120.000000 -1591.736694
v -775.000000 120.000000 -1586.736694
v -1025.000000 120.000000 -1336.736694
v -775.000000 80.000000 -1586.736694
v -1025.000000 80.000000 -1336.736694
v -1600.000000 80.000000 -761.736633
v -1600.000000 160.000000 -761.736633
v -1030.000000 120.000000 -1331.736694
v -1106.736694 120.000000 -1255.000000
v -1116.736694 120.000000 -1245.000000
v -1206.736694 120.000000 -1155.000000
v -1216.736694 120.000000 -1145.000000
v -1306.736694 120.000000 -1055.000000
v -1316.736694 120.000000 -1045.000000
v -1370.000000 80.000000 -875.405823
v -1600.000000 80.000000 -645.405823
v -1370.000000 80.000000 -945.000000
v -1370.000000 80.000000 -955.000000
v -1370.000000 80.000000 -998.807739
v -1300.405884 80.000000 -945.000000
v -1600.000000 80.000000 -768.807739
v -1290.405884 80.000000 -955.000000
v -1600.000000 160.000000 -645.405823
v -645.405823 160.000000 -1600.000000
v -645.405823 120.000000 -1600.000000
v -690.405823 120.000000 -1555.000000
v -770.000000 120.000000 -1555.000000
v -770.000000 120.000000 -1545.000000
v -770.000000 120.000000 -1475.405884
v -700.405823 120.000000 -1545.000000
v -1030.000000 80.000000 -1245.000000
v -1030.000000 80.000000 -1215.405884
v -1030.000000 80.000000 -1255.000000
v -1113.807739 80.000000 -1255.000000
v -1030.000000 80.000000 -1338.807739
v -770.000000 80.000000 -1475.405884
v -770.000000 80.000000 -1545.000000
v -770.000000 80.000000 -1555.000000
v -770.000000 80.000000 -1598.807739
v -700.405823 80.000000 -1545.000000
v -1123.807739 80.000000 -1245.000000
v -690.405823 80.000000 -1555.000000
v -1030.000000 120.000000 -1255.000000
v -1030.000000 120.000000 -1245.000000
v -1030.000000 120.000000 -1215.405884
v -1090.405884 120.000000 -1155.000000
v -1190.405884 120.000000 -1055.000000
v -1100.405884 120.000000 -1145.000000
v -1290.405884 120.000000 -955.000000
v -1200.405884 120.000000 -1045.000000
v -1300.405884 120.000000 -945.000000
v -1370.000000 120.000000 -875.405823
v -1370.000000 120.000000 -998.807739
v -1323.807739 120.000000 -1045.000000
v -1313.807739 120.000000 -1055.000000
v -1223.807739 120.000000 -1145.000000
v -1213.807739 120.000000 -1155.000000
v -1123.807739 120.000000 -1245.000000
v -1113.807739 120.000000 -1255.000000
v -1030.000000 120.000000 -1338.807739
v -770.000000 120.000000 -1598.807739
v -768.807739 120.000000 -1600.000000
v -768.807739 160.000000 -1600.000000
v -1600.000000 160.000000 -768.807739
v -1213.807739 80.000000 -1155.000000
v -1223.807739 80.000000 -1145.000000
v -1313.807739 80.000000 -1055.000000
v -1323.807739 80.000000 -1045.000000
v -1200.405884 80.000000 -1045.000000
v -1190.405884 80.000000 -1055.000000
v -1100.405884 80.000000 -1145.000000
v -1090.405884 80.000000 -1155.000000
vn -1.0000 -0.0000 -0.0000
vn -0.7071 -0.0000 -0.7071
vn -0.7071 -0.0004 -0.7071
vn -0.0000 1.0000 -0.0000
vn 0.7071 -0.0000 0.7071
vn 0.7071 -0.0001 0.7071
vn -0.0000 -1.0000 -0.0000
vn -0.0000 -0.0000 -1.0000
vn 1.0000 -0.0000 -0.0000
vn -0.0000 -0.0000 1.0000
s 0
f 1//1 2//1 3//1
f 4//1 2//1 1//1
f 6//2 5//2 3//2
f 2//2 6//2 3//2
f 9//2 8//2 7//2
f 7//2 8//2 10//2
f 12//2 10//2 11//2
f 13//2 12//2 11//2
f 14//2 13//2 11//2
f 15//2 14//2 11//2
f 3//2 5//2 11//2
f 16//3 3//3 11//3
f 17//2 16//2 11//2
f 18//2 17//2 11//2
f 19//2 18//2 11//2
f 20//2 19//2 11//2
f 21//2 20//2 11//2
f 22//2 21//2 11//2
f 23//2 22//2 11//2
f 8//3 23//3 11//3
f 10//2 8//2 11//2
f 25//4 1//4 24//4
f 26//4 3//4 16//4
f 24//4 26//4 17//4
f 17//4 18//4 24//4
f 24//4 1//4 3//4
f 26//4 24//4 3//4
f 29//5 28//5 27//5
f 30//5 29//5 27//5
f 32//5 30//5 31//5
f 33//5 32//5 31//5
f 30//5 27//5 31//5
f 4//5 1//5 34//5
f 34//5 1//5 35//5
f 31//5 27//5 35//5
f 36//5 31//5 35//5
f 37//5 36//5 35//5
f 38//5 37//5 35//5
f 39//5 38//5 35//5
f 40//5 39//5 35//5
f 41//5 40//5 35//5
f 42//5 41//5 35//5
f 25//5 42//5 35//5
f 1//6 25//6 35//6
f 44//7 6//7 43//7
f 43//7 2//7 45//7
f 46//7 45//7 4//7
f 46//7 4//7 47//7
f 45//7 46//7 48//7
f 4//7 49//7 47//7
f 49//7 4//7 34//7
f 45//7 2//7 4//7
f 43//7 6//7 2//7
f 48//7 46//7 50//7
f 11//4 5//4 51//4
f 52//4 11//4 51//4
f 52//8 53//8 15//8
f 52//8 15//8 11//8
f 54//7 14//7 15//7
f 53//7 54//7 15//7
f 29//4 30//4 55//4
f 56//4 10//4 12//4
f 55//4 56//4 13//4
f 13//4 14//4 55//4
f 56//4 30//4 10//4
f 55//4 30//4 56//4
f 57//7 12//7 13//7
f 58//7 57//7 13//7
f 30//1 7//1 10//1
f 32//1 7//1 30//1
f 9//7 60//7 59//7
f 59//7 62//7 61//7
f 9//7 59//7 61//7
f 61//7 63//7 33//7
f 60//7 9//7 64//7
f 64//7 7//7 65//7
f 66//7 65//7 32//7
f 66//7 32//7 67//7
f 65//7 66//7 68//7
f 62//7 59//7 69//7
f 68//7 66//7 70//7
f 32//7 63//7 67//7
f 65//7 7//7 32//7
f 64//7 9//7 7//7
f 61//7 33//7 9//7
f 63//7 32//7 33//7
f 9//9 33//9 31//9
f 9//9 31//9 8//9
f 31//4 36//4 71//4
f 71//4 37//4 72//4
f 71//4 72//4 8//4
f 8//4 72//4 23//4
f 71//4 8//4 31//4
f 37//4 38//4 72//4
f 73//7 74//7 22//7
f 73//7 22//7 23//7
f 22//4 39//4 21//4
f 39//4 40//4 21//4
f 75//7 20//7 21//7
f 76//7 75//7 21//7
f 20//4 41//4 19//4
f 41//4 42//4 19//4
f 77//7 18//7 19//7
f 78//7 77//7 19//7
f 79//7 80//7 16//7
f 79//7 16//7 17//7
f 6//1 44//1 5//1
f 5//1 44//1 51//1
f 18//8 77//8 50//8
f 24//8 18//8 46//8
f 18//8 50//8 46//8
f 25//9 24//9 46//9
f 81//9 25//9 47//9
f 25//9 46//9 47//9
f 16//9 80//9 43//9
f 26//9 16//9 45//9
f 16//9 43//9 45//9
f 48//10 79//10 17//10
f 45//10 17//10 26//10
f 45//10 48//10 17//10
f 42//7 81//7 82//7
f 25//7 81//7 42//7
f 41//7 83//7 84//7
f 40//7 41//7 84//7
f 39//7 85//7 86//7
f 38//7 39//7 86//7
f 37//7 87//7 88//7
f 37//7 88//7 36//7
f 28//7 89//7 90//7
f 29//7 89//7 28//7
f 91//8 28//8 90//8
f 27//8 28//8 91//8
f 91//4 92//4 35//4
f 27//4 91//4 35//4
f 49//1 34//1 92//1
f 92//1 34//1 35//1
f 91//2 90//2 89//2
f 63//2 89//2 67//2
f 88//2 91//2 89//2
f 88//2 89//2 63//2
f 87//2 62//2 69//2
f 86//2 87//2 69//2
f 84//2 85//2 93//2
f 84//2 93//2 94//2
f 82//2 83//2 95//2
f 82//2 95//2 96//2
f 49//2 81//2 47//2
f 92//2 81//2 49//2
f 92//2 91//2 88//2
f 92//2 88//2 87//2
f 92//2 87//2 86//2
f 92//2 86//2 85//2
f 92//2 85//2 84//2
f 92//2 84//2 83//2
f 92//2 83//2 82//2
f 92//2 82//2 81//2
f 80//5 51//5 44//5
f 80//5 44//5 43//5
f 77//5 79//5 48//5
f 77//5 48//5 50//5
f 75//5 78//5 97//5
f 75//5 97//5 98//5
f 74//5 76//5 99//5
f 74//5 99//5 100//5
f 57//5 73//5 60//5
f 57//5 60//5 64//5
f 54//5 58//5 68//5
f 54//5 68//5 70//5
f 52//5 57//5 58//5
f 52//5 54//5 53//5
f 52//5 58//5 54//5
f 52//5 51//5 80//5
f 52//5 80//5 79//5
f 52//5 79//5 77//5
f 52//5 77//5 78//5
f 52//5 78//5 75//5
f 52//5 75//5 76//5
f 52//5 76//5 74//5
f 52//5 74//5 73//5
f 52//5 73//5 57//5
f 14//8 54//8 70//8
f 55//8 14//8 66//8
f 14//8 70//8 66//8
f 12//9 57//9 64//9
f 56//9 12//9 65//9
f 12//9 64//9 65//9
f 68//10 58//10 13//10
f 65//10 13//10 56//10
f 65//10 68//10 13//10
f 29//9 55//9 66//9
f 89//9 29//9 67//9
f 29//9 66//9 67//9
f 71//8 61//8 37//8
f 87//8 37//8 62//8
f 37//8 61//8 62//8
f 38//10 59//10 72//10
f 69//10 38//10 86//10
f 69//10 59//10 38//10
f 36//1 88//1 63//1
f 71//1 36//1 61//1
f 36//1 63//1 61//1
f 23//1 72//1 59//1
f 73//1 23//1 60//1
f 23//1 59//1 60//1
f 22//8 74//8 100//8
f 39//8 22//8 93//8
f 85//8 39//8 93//8
f 22//8 100//8 93//8
f 99//10 76//10 21//10
f 94//10 21//10 40//10
f 94//10 40//10 84//10
f 94//10 99//10 21//10
f 20//8 75//8 98//8
f 41//8 20//8 95//8
f 83//8 41//8 95//8
f 20//8 98//8 95//8
f 97//10 78//10 19//10
f 96//10 19//10 42//10
f 96//10 42//10 82//10
f 96//10 97//10 19//10
f 96//7 95//7 97//7
f 97//7 95//7 98//7
f 94//7 93//7 99//7
f 99//7 93//7 100//7
