# Blender 4.0.2
# www.blender.org
o d57c9955cf4e6ce38e2466a109bd0ce5ddf1b3cd26546023bb3384f7bebaee4
v -1600.000000 280.000000 1263.782471
v -1600.000000 280.000000 1193.071777
v -1600.000000 315.000000 1193.071777
v -1600.000000 315.000000 1263.782471
v -1263.782471 315.000000 1600.000000
v -1193.071777 315.000000 1600.000000
v -1193.071777 280.000000 1600.000000
v -1263.782471 280.000000 1600.000000
vn -1.0000 -0.0000 -0.0000
vn -0.0000 1.0000 -0.0000
vn 0.7071 -0.0000 -0.7071
vn -0.0000 -1.0000 -0.0000
vn -0.7071 -0.0000 0.7071
vn -0.0000 -0.0000 1.0000
s 0
f 3//1 2//1 1//1
f 3//1 1//1 4//1
f 3//2 4//2 5//2
f 6//2 3//2 5//2
f 6//3 7//3 3//3
f 3//3 7//3 2//3
f 8//4 1//4 2//4
f 8//4 2//4 7//4
f 4//5 1//5 5//5
f 5//5 1//5 8//5
f 8//6 7//6 6//6
f 5//6 8//6 6//6
