# Blender 4.0.2
# www.blender.org
o d611cd94bf861d2b8b49a68dcada213b5670f8cc43b85d825e62d89c01d7b3c
v -627.386353 160.000000 1600.000000
v -645.405823 120.000000 1600.000000
v -645.405823 160.000000 1600.000000
v -627.386353 120.000000 1600.000000
v -600.405823 120.000000 1555.000000
v -600.405823 80.000000 1555.000000
v -590.405823 80.000000 1545.000000
v -590.405823 120.000000 1545.000000
v -500.405853 120.000000 1455.000000
v -490.405853 120.000000 1445.000000
v -500.405853 80.000000 1455.000000
v -490.405853 80.000000 1445.000000
v -430.000000 120.000000 1384.594116
v -170.000000 120.000000 1124.594116
v -430.000000 80.000000 1384.594116
v -170.000000 80.000000 1124.594116
v -100.405846 120.000000 1055.000000
v -100.405846 80.000000 1055.000000
v -90.405846 80.000000 1045.000000
v -90.405846 120.000000 1045.000000
v 9.594154 120.000000 945.000000
v -0.405845 120.000000 955.000000
v -0.405845 80.000000 955.000000
v 9.594154 80.000000 945.000000
v 99.594154 120.000000 855.000000
v 99.594154 80.000000 855.000000
v 109.594154 80.000000 845.000000
v 109.594154 120.000000 845.000000
v 430.000000 120.000000 524.594177
v 170.000000 120.000000 784.594177
v 170.000000 80.000000 784.594177
v 430.000000 80.000000 524.594177
v 509.594147 120.000000 445.000000
v 499.594147 120.000000 455.000000
v 499.594147 80.000000 455.000000
v 509.594147 80.000000 445.000000
v 599.594177 120.000000 355.000000
v 599.594177 80.000000 355.000000
v 609.594177 80.000000 345.000000
v 609.594177 120.000000 345.000000
v 709.594177 120.000000 245.000000
v 699.594177 120.000000 255.000000
v 699.594177 80.000000 255.000000
v 709.594177 80.000000 245.000000
v 1030.000000 120.000000 -75.405846
v 770.000000 120.000000 184.594162
v 770.000000 80.000000 184.594162
v 1030.000000 80.000000 -75.405846
v 1099.594116 120.000000 -145.000000
v 1099.594116 80.000000 -145.000000
v 1109.594116 80.000000 -155.000000
v 1109.594116 120.000000 -155.000000
v 1209.594116 120.000000 -255.000000
v 1199.594116 120.000000 -245.000000
v 1199.594116 80.000000 -245.000000
v 1209.594116 80.000000 -255.000000
v 1299.594116 120.000000 -345.000000
v 1299.594116 80.000000 -345.000000
v 1309.594116 80.000000 -355.000000
v 1309.594116 120.000000 -355.000000
v 1600.000000 80.000000 -645.405823
v 1370.000000 120.000000 -415.405853
v 1370.000000 80.000000 -415.405853
v 1600.000000 160.000000 -645.405823
v -582.386353 120.000000 1555.000000
v 170.000000 120.000000 802.613647
v 172.613632 80.000000 800.000000
v 170.000000 80.000000 802.613647
v 172.613632 160.000000 800.000000
v 127.613640 120.000000 845.000000
v 117.613640 120.000000 855.000000
v 127.613640 80.000000 845.000000
v 117.613640 80.000000 855.000000
v 27.613640 120.000000 945.000000
v 27.613640 80.000000 945.000000
v 17.613640 80.000000 955.000000
v 17.613640 120.000000 955.000000
v -82.386360 120.000000 1055.000000
v -72.386360 120.000000 1045.000000
v -72.386360 80.000000 1045.000000
v -82.386360 80.000000 1055.000000
v -430.000000 120.000000 1402.613647
v -170.000000 120.000000 1142.613647
v -170.000000 80.000000 1142.613647
v -430.000000 80.000000 1402.613647
v -472.386353 120.000000 1445.000000
v -472.386353 80.000000 1445.000000
v -482.386353 80.000000 1455.000000
v -482.386353 120.000000 1455.000000
v -572.386353 120.000000 1545.000000
v -572.386353 80.000000 1545.000000
v -582.386353 80.000000 1555.000000
v 800.000000 160.000000 172.613632
v 225.304840 160.000000 800.000000
v 800.000000 160.000000 225.304840
v 1600.000000 160.000000 -627.386353
v 1600.000000 80.000000 -627.386353
v 1370.000000 80.000000 -397.386353
v 1370.000000 120.000000 -397.386353
v 1327.613647 120.000000 -355.000000
v 1327.613647 80.000000 -355.000000
v 1317.613647 80.000000 -345.000000
v 1317.613647 120.000000 -345.000000
v 1227.613647 120.000000 -255.000000
v 1227.613647 80.000000 -255.000000
v 1217.613647 80.000000 -245.000000
v 1217.613647 120.000000 -245.000000
v 1127.613647 120.000000 -155.000000
v 1127.613647 80.000000 -155.000000
v 1117.613647 80.000000 -145.000000
v 1117.613647 120.000000 -145.000000
v 1030.000000 120.000000 -57.386360
v 1030.000000 80.000000 -57.386360
v 770.000000 80.000000 245.000000
v 770.000000 80.000000 255.000000
v 800.000000 80.000000 225.304840
v 770.000000 80.000000 255.304840
v 800.000000 80.000000 172.613632
v 770.000000 120.000000 245.000000
v 770.000000 120.000000 255.000000
v 770.000000 120.000000 255.304840
v 680.304810 120.000000 345.000000
v 680.304810 80.000000 345.000000
v 670.304810 80.000000 355.000000
v 670.304810 120.000000 355.000000
v 580.304810 120.000000 445.000000
v 580.304810 80.000000 445.000000
v 570.304810 80.000000 455.000000
v 570.304810 120.000000 455.000000
v 480.304840 120.000000 545.000000
v 430.000000 120.000000 545.000000
v 430.000000 80.000000 545.000000
v 225.304840 80.000000 800.000000
v 430.000000 80.000000 595.304810
v 430.000000 80.000000 555.000000
v 470.304840 80.000000 555.000000
v 480.304840 80.000000 545.000000
v 470.304840 120.000000 555.000000
v 430.000000 120.000000 595.304810
v 430.000000 120.000000 555.000000
vn -0.0000 -0.0000 1.0000
vn -0.7071 -0.0000 -0.7071
vn -0.0000 -1.0000 -0.0000
vn 0.7071 -0.0000 0.7071
vn -0.0000 1.0000 -0.0000
vn 1.0000 -0.0000 -0.0000
vn -1.0000 -0.0000 -0.0000
vn -0.0000 -0.0000 -1.0000
s 0
f 3//1 2//1 1//1
f 2//1 4//1 1//1
f 2//2 3//2 5//2
f 7//2 6//2 5//2
f 7//2 5//2 8//2
f 5//2 3//2 8//2
f 8//2 3//2 9//2
f 11//2 9//2 10//2
f 12//2 11//2 10//2
f 9//2 3//2 10//2
f 10//2 3//2 13//2
f 15//2 13//2 14//2
f 16//2 15//2 14//2
f 19//2 18//2 17//2
f 19//2 17//2 20//2
f 23//2 22//2 21//2
f 24//2 23//2 21//2
f 27//2 26//2 25//2
f 27//2 25//2 28//2
f 31//2 30//2 29//2
f 32//2 31//2 29//2
f 35//2 34//2 33//2
f 36//2 35//2 33//2
f 39//2 38//2 37//2
f 39//2 37//2 40//2
f 43//2 42//2 41//2
f 44//2 43//2 41//2
f 47//2 46//2 45//2
f 48//2 47//2 45//2
f 51//2 50//2 49//2
f 51//2 49//2 52//2
f 55//2 54//2 53//2
f 56//2 55//2 53//2
f 59//2 58//2 57//2
f 59//2 57//2 60//2
f 63//2 62//2 61//2
f 62//2 60//2 64//2
f 61//2 62//2 64//2
f 13//2 3//2 64//2
f 14//2 13//2 64//2
f 17//2 14//2 64//2
f 20//2 17//2 64//2
f 22//2 20//2 64//2
f 21//2 22//2 64//2
f 25//2 21//2 64//2
f 28//2 25//2 64//2
f 30//2 28//2 64//2
f 29//2 30//2 64//2
f 34//2 29//2 64//2
f 33//2 34//2 64//2
f 37//2 33//2 64//2
f 40//2 37//2 64//2
f 42//2 40//2 64//2
f 41//2 42//2 64//2
f 46//2 41//2 64//2
f 45//2 46//2 64//2
f 49//2 45//2 64//2
f 52//2 49//2 64//2
f 54//2 52//2 64//2
f 53//2 54//2 64//2
f 57//2 53//2 64//2
f 60//2 57//2 64//2
f 4//3 2//3 5//3
f 4//3 5//3 65//3
f 68//4 67//4 66//4
f 66//4 67//4 69//4
f 66//4 69//4 70//4
f 72//4 70//4 71//4
f 73//4 72//4 71//4
f 70//4 69//4 71//4
f 76//4 75//4 74//4
f 71//4 69//4 74//4
f 76//4 74//4 77//4
f 74//4 69//4 77//4
f 80//4 79//4 78//4
f 81//4 80//4 78//4
f 84//4 83//4 82//4
f 85//4 84//4 82//4
f 88//4 87//4 86//4
f 88//4 86//4 89//4
f 91//4 90//4 65//4
f 92//4 91//4 65//4
f 90//4 89//4 1//4
f 4//4 65//4 1//4
f 65//4 90//4 1//4
f 89//4 86//4 1//4
f 77//4 69//4 1//4
f 79//4 77//4 1//4
f 78//4 79//4 1//4
f 83//4 78//4 1//4
f 82//4 83//4 1//4
f 86//4 82//4 1//4
f 69//5 3//5 1//5
f 93//5 69//5 94//5
f 93//5 94//5 95//5
f 64//5 93//5 96//5
f 64//5 3//5 69//5
f 64//5 69//5 93//5
f 64//6 97//6 61//6
f 64//6 96//6 97//6
f 98//3 63//3 97//3
f 97//3 63//3 61//3
f 63//7 99//7 62//7
f 63//7 98//7 99//7
f 99//3 100//3 60//3
f 62//3 99//3 60//3
f 59//8 60//8 100//8
f 101//8 59//8 100//8
f 102//3 58//3 59//3
f 102//3 59//3 101//3
f 103//1 57//1 58//1
f 103//1 58//1 102//1
f 57//3 103//3 104//3
f 57//3 104//3 53//3
f 105//8 53//8 104//8
f 105//8 56//8 53//8
f 106//3 55//3 56//3
f 106//3 56//3 105//3
f 107//1 54//1 55//1
f 107//1 55//1 106//1
f 54//3 107//3 108//3
f 54//3 108//3 52//3
f 109//8 52//8 108//8
f 109//8 51//8 52//8
f 110//3 50//3 51//3
f 110//3 51//3 109//3
f 111//1 49//1 110//1
f 49//1 50//1 110//1
f 49//3 111//3 112//3
f 45//3 49//3 112//3
f 113//6 48//6 45//6
f 113//6 45//6 112//6
f 115//3 44//3 114//3
f 117//3 115//3 116//3
f 115//3 114//3 116//3
f 116//3 114//3 47//3
f 116//3 47//3 118//3
f 113//3 118//3 48//3
f 44//3 115//3 43//3
f 118//3 47//3 48//3
f 47//7 119//7 46//7
f 47//7 114//7 119//7
f 46//3 119//3 41//3
f 119//8 44//8 41//8
f 114//8 44//8 119//8
f 42//1 43//1 120//1
f 120//1 43//1 115//1
f 120//3 121//3 42//3
f 42//3 121//3 122//3
f 42//3 122//3 40//3
f 122//8 39//8 40//8
f 123//8 39//8 122//8
f 38//3 39//3 124//3
f 124//3 39//3 123//3
f 37//1 38//1 125//1
f 125//1 38//1 124//1
f 37//3 125//3 126//3
f 37//3 126//3 33//3
f 126//8 36//8 33//8
f 127//8 36//8 126//8
f 35//3 36//3 128//3
f 128//3 36//3 127//3
f 34//1 35//1 129//1
f 129//1 35//1 128//1
f 34//3 129//3 130//3
f 34//3 130//3 29//3
f 29//3 130//3 131//3
f 132//6 32//6 29//6
f 132//6 29//6 131//6
f 67//3 68//3 31//3
f 67//3 31//3 133//3
f 133//3 31//3 134//3
f 134//3 31//3 135//3
f 135//3 31//3 132//3
f 132//3 31//3 32//3
f 135//3 132//3 136//3
f 136//3 132//3 137//3
f 31//7 66//7 30//7
f 31//7 68//7 66//7
f 66//3 28//3 30//3
f 70//3 28//3 66//3
f 28//8 70//8 72//8
f 28//8 72//8 27//8
f 73//3 26//3 27//3
f 73//3 27//3 72//3
f 26//1 73//1 71//1
f 26//1 71//1 25//1
f 74//3 21//3 25//3
f 74//3 25//3 71//3
f 21//8 74//8 75//8
f 21//8 75//8 24//8
f 76//3 23//3 24//3
f 76//3 24//3 75//3
f 76//1 77//1 22//1
f 23//1 76//1 22//1
f 79//3 20//3 22//3
f 79//3 22//3 77//3
f 20//8 79//8 80//8
f 20//8 80//8 19//8
f 81//3 18//3 19//3
f 81//3 19//3 80//3
f 81//1 78//1 17//1
f 18//1 81//1 17//1
f 83//3 14//3 17//3
f 78//3 83//3 17//3
f 83//6 84//6 16//6
f 14//6 83//6 16//6
f 85//3 15//3 84//3
f 84//3 15//3 16//3
f 13//7 15//7 85//7
f 82//7 13//7 85//7
f 82//3 10//3 13//3
f 86//3 10//3 82//3
f 10//8 86//8 87//8
f 10//8 87//8 12//8
f 88//3 11//3 12//3
f 88//3 12//3 87//3
f 88//1 89//1 9//1
f 11//1 88//1 9//1
f 90//3 8//3 9//3
f 90//3 9//3 89//3
f 8//8 90//8 91//8
f 8//8 91//8 7//8
f 92//3 6//3 7//3
f 92//3 7//3 91//3
f 92//1 65//1 5//1
f 6//1 92//1 5//1
f 69//1 67//1 133//1
f 94//1 69//1 133//1
f 97//4 96//4 99//4
f 98//4 97//4 99//4
f 101//4 100//4 103//4
f 102//4 101//4 103//4
f 105//4 104//4 107//4
f 106//4 105//4 107//4
f 109//4 108//4 111//4
f 110//4 109//4 111//4
f 113//4 112//4 118//4
f 118//4 112//4 93//4
f 99//4 96//4 93//4
f 100//4 99//4 93//4
f 103//4 100//4 93//4
f 104//4 103//4 93//4
f 107//4 104//4 93//4
f 108//4 107//4 93//4
f 111//4 108//4 93//4
f 112//4 111//4 93//4
f 93//6 116//6 118//6
f 93//6 95//6 116//6
f 116//4 95//4 121//4
f 117//4 116//4 121//4
f 124//4 123//4 122//4
f 121//4 95//4 122//4
f 122//4 95//4 125//4
f 124//4 122//4 125//4
f 127//4 126//4 129//4
f 128//4 127//4 129//4
f 137//4 130//4 138//4
f 136//4 137//4 138//4
f 134//4 139//4 133//4
f 133//4 139//4 94//4
f 125//4 95//4 94//4
f 126//4 125//4 94//4
f 129//4 126//4 94//4
f 130//4 129//4 94//4
f 138//4 130//4 94//4
f 139//4 138//4 94//4
f 115//7 121//7 120//7
f 115//7 117//7 121//7
f 130//8 132//8 131//8
f 137//8 132//8 130//8
f 140//1 135//1 138//1
f 138//1 135//1 136//1
f 139//6 135//6 140//6
f 134//6 135//6 139//6
f 140//3 138//3 139//3
