# Blender 4.0.2
# www.blender.org
o da2d7f8c5850bfc24dce6c84a90a72c7bc9ac3bd2342a745c8dca7a6ef48f63
v 1600.000000 315.000000 415.254333
v 800.000000 280.000000 -384.745667
v 800.000000 315.000000 -384.745667
v 1600.000000 280.000000 415.254333
v 1600.000000 280.000000 344.543640
v 800.000000 280.000000 -455.456360
v 1600.000000 315.000000 344.543640
v 800.000000 315.000000 -455.456360
vn -0.7071 -0.0000 0.7071
vn -0.0000 -1.0000 -0.0000
vn 1.0000 -0.0000 -0.0000
vn -0.0000 1.0000 -0.0000
vn -1.0000 -0.0000 -0.0000
vn 0.7071 -0.0000 -0.7071
s 0
f 3//1 2//1 1//1
f 1//1 2//1 4//1
f 4//2 2//2 5//2
f 2//2 6//2 5//2
f 1//3 4//3 5//3
f 1//3 5//3 7//3
f 7//4 3//4 1//4
f 7//4 8//4 3//4
f 8//5 6//5 2//5
f 8//5 2//5 3//5
f 7//6 5//6 8//6
f 8//6 5//6 6//6
