# Blender 4.0.2
# www.blender.org
o da474f2594d04b20b15c44bba0f33a651de9b316636d69bf112419684b66070
v -1600.000000 160.000000 1051.650391
v -1600.000000 160.000000 1069.669922
v -1600.000000 80.000000 1069.669922
v -1600.000000 80.000000 1051.650391
v -1370.000000 120.000000 839.669922
v -1370.000000 80.000000 839.669922
v -1285.330078 120.000000 755.000000
v -1275.330078 120.000000 745.000000
v -1285.330078 80.000000 755.000000
v -1275.330078 80.000000 745.000000
v -1175.330078 120.000000 645.000000
v -1185.330078 120.000000 655.000000
v -1185.330078 80.000000 655.000000
v -1175.330078 80.000000 645.000000
v -1085.330078 120.000000 555.000000
v -1085.330078 80.000000 555.000000
v -1075.330078 80.000000 545.000000
v -1075.330078 120.000000 545.000000
v -770.000000 80.000000 239.669907
v -1030.000000 120.000000 499.669922
v -1030.000000 80.000000 499.669922
v -770.000000 120.000000 239.669907
v -675.330078 120.000000 145.000000
v -685.330078 120.000000 155.000000
v -685.330078 80.000000 155.000000
v -675.330078 80.000000 145.000000
v -575.330078 120.000000 45.000000
v -585.330078 120.000000 55.000000
v -585.330078 80.000000 55.000000
v -575.330078 80.000000 45.000000
v -475.330078 120.000000 -55.000000
v -485.330078 120.000000 -45.000000
v -485.330078 80.000000 -45.000000
v -475.330078 80.000000 -55.000000
v -170.000000 80.000000 -360.330078
v -430.000000 120.000000 -100.330086
v -430.000000 80.000000 -100.330086
v -170.000000 120.000000 -360.330078
v -85.330086 120.000000 -445.000000
v -85.330086 80.000000 -445.000000
v -75.330086 80.000000 -455.000000
v -75.330086 120.000000 -455.000000
v 24.669914 120.000000 -555.000000
v 14.669914 120.000000 -545.000000
v 14.669914 80.000000 -545.000000
v 24.669914 80.000000 -555.000000
v 114.669914 120.000000 -645.000000
v 114.669914 80.000000 -645.000000
v 124.669914 80.000000 -655.000000
v 124.669914 120.000000 -655.000000
v 430.000000 120.000000 -960.330078
v 170.000000 120.000000 -700.330078
v 170.000000 80.000000 -700.330078
v 430.000000 80.000000 -960.330078
v 524.669922 120.000000 -1055.000000
v 514.669922 120.000000 -1045.000000
v 514.669922 80.000000 -1045.000000
v 524.669922 80.000000 -1055.000000
v 614.669922 120.000000 -1145.000000
v 614.669922 80.000000 -1145.000000
v 624.669922 80.000000 -1155.000000
v 624.669922 120.000000 -1155.000000
v 724.669922 120.000000 -1255.000000
v 714.669922 120.000000 -1245.000000
v 714.669922 80.000000 -1245.000000
v 724.669922 80.000000 -1255.000000
v 1030.000000 120.000000 -1560.330078
v 770.000000 120.000000 -1300.330078
v 770.000000 80.000000 -1300.330078
v 1030.000000 80.000000 -1560.330078
v 1069.669922 160.000000 -1600.000000
v 1069.669922 120.000000 -1600.000000
v -1370.000000 80.000000 821.650452
v -1370.000000 120.000000 821.650452
v -1293.349609 120.000000 745.000000
v -1303.349609 120.000000 755.000000
v -1303.349609 80.000000 755.000000
v -1293.349609 80.000000 745.000000
v -1193.349609 120.000000 645.000000
v -1203.349609 120.000000 655.000000
v -1203.349609 80.000000 655.000000
v -1193.349609 80.000000 645.000000
v -1093.349609 120.000000 545.000000
v -1103.349609 120.000000 555.000000
v -1103.349609 80.000000 555.000000
v -1093.349609 80.000000 545.000000
v -800.000000 80.000000 251.650436
v -1030.000000 120.000000 481.650421
v -1030.000000 80.000000 481.650421
v -800.000000 160.000000 251.650436
v 198.959229 160.000000 -800.000000
v -800.000000 160.000000 198.959229
v 251.650436 160.000000 -800.000000
v 1051.650391 160.000000 -1600.000000
v 1051.650391 120.000000 -1600.000000
v 1030.000000 120.000000 -1578.349609
v 1030.000000 80.000000 -1578.349609
v 770.000000 80.000000 -1318.349609
v 770.000000 120.000000 -1318.349609
v 706.650452 120.000000 -1255.000000
v 706.650452 80.000000 -1255.000000
v 696.650452 80.000000 -1245.000000
v 696.650452 120.000000 -1245.000000
v 606.650452 120.000000 -1155.000000
v 606.650452 80.000000 -1155.000000
v 596.650452 80.000000 -1145.000000
v 596.650452 120.000000 -1145.000000
v 506.650421 120.000000 -1055.000000
v 506.650421 80.000000 -1055.000000
v 496.650421 80.000000 -1045.000000
v 496.650421 120.000000 -1045.000000
v 430.000000 120.000000 -978.349548
v 430.000000 80.000000 -978.349548
v 170.000000 80.000000 -745.000000
v 153.959229 80.000000 -755.000000
v 143.959229 80.000000 -745.000000
v 170.000000 80.000000 -755.000000
v 198.959229 80.000000 -800.000000
v 170.000000 80.000000 -771.040771
v 251.650436 80.000000 -800.000000
v 170.000000 120.000000 -745.000000
v 53.959236 120.000000 -655.000000
v 143.959229 120.000000 -745.000000
v 53.959236 80.000000 -655.000000
v 43.959236 80.000000 -645.000000
v 43.959236 120.000000 -645.000000
v -46.040764 120.000000 -555.000000
v -46.040764 80.000000 -555.000000
v -56.040764 80.000000 -545.000000
v -56.040764 120.000000 -545.000000
v -146.040771 120.000000 -455.000000
v -146.040771 80.000000 -455.000000
v -156.040771 80.000000 -445.000000
v -156.040771 120.000000 -445.000000
v -170.000000 120.000000 -431.040771
v -170.000000 80.000000 -431.040771
v -430.000000 80.000000 -145.000000
v -446.040771 80.000000 -155.000000
v -456.040771 80.000000 -145.000000
v -430.000000 80.000000 -155.000000
v -430.000000 80.000000 -171.040771
v -430.000000 120.000000 -145.000000
v -546.040771 120.000000 -55.000000
v -456.040771 120.000000 -145.000000
v -546.040771 80.000000 -55.000000
v -556.040771 80.000000 -45.000000
v -556.040771 120.000000 -45.000000
v -646.040771 120.000000 45.000000
v -646.040771 80.000000 45.000000
v -656.040771 80.000000 55.000000
v -656.040771 120.000000 55.000000
v -746.040771 120.000000 145.000000
v -746.040771 80.000000 145.000000
v -756.040771 80.000000 155.000000
v -756.040771 120.000000 155.000000
v -770.000000 120.000000 168.959229
v -770.000000 80.000000 168.959229
v -800.000000 80.000000 198.959229
v -446.040771 120.000000 -155.000000
v -430.000000 120.000000 -171.040771
v 153.959229 120.000000 -755.000000
v 170.000000 120.000000 -771.040771
v 170.000000 120.000000 -755.000000
v -430.000000 120.000000 -155.000000
vn -1.0000 -0.0000 -0.0000
vn 0.7071 -0.0000 0.7071
vn -0.0000 -1.0000 -0.0000
vn -0.7071 -0.0000 -0.7071
vn -0.0000 1.0000 -0.0000
vn -0.0000 -0.0000 -1.0000
vn 1.0000 -0.0000 -0.0000
vn -0.0000 -0.0000 1.0000
s 0
f 3//1 2//1 1//1
f 4//1 3//1 1//1
f 5//2 2//2 3//2
f 5//2 3//2 6//2
f 7//2 2//2 5//2
f 8//2 7//2 9//2
f 8//2 9//2 10//2
f 11//2 12//2 13//2
f 11//2 13//2 14//2
f 15//2 16//2 17//2
f 18//2 15//2 17//2
f 19//2 20//2 21//2
f 22//2 20//2 19//2
f 23//2 24//2 25//2
f 23//2 25//2 26//2
f 27//2 28//2 29//2
f 27//2 29//2 30//2
f 31//2 32//2 33//2
f 31//2 33//2 34//2
f 35//2 36//2 37//2
f 38//2 36//2 35//2
f 39//2 40//2 41//2
f 42//2 39//2 41//2
f 43//2 44//2 45//2
f 43//2 45//2 46//2
f 47//2 48//2 49//2
f 50//2 47//2 49//2
f 51//2 52//2 53//2
f 51//2 53//2 54//2
f 55//2 56//2 57//2
f 55//2 57//2 58//2
f 59//2 60//2 61//2
f 62//2 59//2 61//2
f 63//2 64//2 65//2
f 63//2 65//2 66//2
f 67//2 68//2 69//2
f 67//2 69//2 70//2
f 71//2 68//2 67//2
f 71//2 67//2 72//2
f 71//2 2//2 7//2
f 71//2 7//2 8//2
f 71//2 8//2 12//2
f 71//2 12//2 11//2
f 71//2 11//2 15//2
f 71//2 15//2 18//2
f 71//2 18//2 20//2
f 71//2 20//2 22//2
f 71//2 22//2 24//2
f 71//2 24//2 23//2
f 71//2 23//2 28//2
f 71//2 28//2 27//2
f 71//2 27//2 32//2
f 71//2 32//2 31//2
f 71//2 31//2 36//2
f 71//2 36//2 38//2
f 71//2 38//2 39//2
f 71//2 39//2 42//2
f 71//2 42//2 44//2
f 71//2 44//2 43//2
f 71//2 43//2 47//2
f 71//2 47//2 50//2
f 71//2 50//2 52//2
f 71//2 52//2 51//2
f 71//2 51//2 56//2
f 71//2 56//2 55//2
f 71//2 55//2 59//2
f 71//2 59//2 62//2
f 71//2 62//2 64//2
f 71//2 64//2 63//2
f 71//2 63//2 68//2
f 3//3 4//3 6//3
f 6//3 4//3 73//3
f 4//4 1//4 74//4
f 73//4 4//4 74//4
f 77//4 76//4 75//4
f 78//4 77//4 75//4
f 81//4 80//4 79//4
f 82//4 81//4 79//4
f 85//4 84//4 83//4
f 86//4 85//4 83//4
f 89//4 88//4 87//4
f 87//4 88//4 90//4
f 74//4 1//4 90//4
f 76//4 74//4 90//4
f 75//4 76//4 90//4
f 80//4 75//4 90//4
f 79//4 80//4 90//4
f 84//4 79//4 90//4
f 83//4 84//4 90//4
f 88//4 83//4 90//4
f 90//5 1//5 2//5
f 91//5 92//5 90//5
f 93//5 91//5 90//5
f 71//5 94//5 93//5
f 2//5 71//5 90//5
f 90//5 71//5 93//5
f 71//6 95//6 94//6
f 71//6 72//6 95//6
f 95//3 72//3 67//3
f 96//3 95//3 67//3
f 70//7 97//7 96//7
f 70//7 96//7 67//7
f 69//3 98//3 70//3
f 70//3 98//3 97//3
f 98//1 68//1 99//1
f 98//1 69//1 68//1
f 99//3 68//3 63//3
f 99//3 63//3 100//3
f 101//6 100//6 63//6
f 66//6 101//6 63//6
f 65//3 102//3 101//3
f 65//3 101//3 66//3
f 64//8 103//8 102//8
f 64//8 102//8 65//8
f 103//3 64//3 62//3
f 103//3 62//3 104//3
f 61//6 105//6 104//6
f 61//6 104//6 62//6
f 60//3 106//3 105//3
f 60//3 105//3 61//3
f 107//8 106//8 60//8
f 59//8 107//8 60//8
f 107//3 59//3 55//3
f 107//3 55//3 108//3
f 109//6 108//6 55//6
f 58//6 109//6 55//6
f 57//3 110//3 109//3
f 57//3 109//3 58//3
f 111//8 110//8 57//8
f 56//8 111//8 57//8
f 111//3 56//3 112//3
f 112//3 56//3 51//3
f 113//7 112//7 51//7
f 54//7 113//7 51//7
f 116//3 115//3 114//3
f 114//3 115//3 117//3
f 117//3 119//3 118//3
f 53//3 114//3 120//3
f 117//3 118//3 120//3
f 114//3 117//3 120//3
f 54//3 120//3 113//3
f 120//3 54//3 53//3
f 114//1 52//1 121//1
f 114//1 53//1 52//1
f 50//3 122//3 123//3
f 52//3 123//3 121//3
f 52//3 50//3 123//3
f 50//6 49//6 122//6
f 122//6 49//6 124//6
f 125//3 124//3 48//3
f 48//3 124//3 49//3
f 125//8 48//8 47//8
f 125//8 47//8 126//8
f 43//3 127//3 126//3
f 43//3 126//3 47//3
f 43//6 46//6 127//6
f 127//6 46//6 128//6
f 129//3 128//3 45//3
f 45//3 128//3 46//3
f 130//8 45//8 44//8
f 129//8 45//8 130//8
f 42//3 131//3 130//3
f 42//3 130//3 44//3
f 42//6 41//6 131//6
f 131//6 41//6 132//6
f 133//3 132//3 40//3
f 40//3 132//3 41//3
f 133//8 40//8 39//8
f 133//8 39//8 134//8
f 39//3 135//3 134//3
f 38//3 135//3 39//3
f 38//7 35//7 136//7
f 135//7 38//7 136//7
f 139//3 138//3 137//3
f 137//3 138//3 140//3
f 37//3 137//3 35//3
f 140//3 141//3 35//3
f 137//3 140//3 35//3
f 35//3 141//3 136//3
f 142//1 137//1 36//1
f 36//1 137//1 37//1
f 31//3 143//3 144//3
f 36//3 144//3 142//3
f 36//3 31//3 144//3
f 31//6 34//6 145//6
f 143//6 31//6 145//6
f 146//3 145//3 33//3
f 33//3 145//3 34//3
f 147//8 33//8 32//8
f 146//8 33//8 147//8
f 27//3 148//3 147//3
f 27//3 147//3 32//3
f 27//6 30//6 149//6
f 148//6 27//6 149//6
f 150//3 149//3 29//3
f 29//3 149//3 30//3
f 151//8 29//8 28//8
f 150//8 29//8 151//8
f 23//3 152//3 151//3
f 28//3 23//3 151//3
f 23//6 26//6 152//6
f 152//6 26//6 153//6
f 154//3 153//3 25//3
f 25//3 153//3 26//3
f 155//8 25//8 24//8
f 154//8 25//8 155//8
f 24//3 156//3 155//3
f 22//3 156//3 24//3
f 22//7 19//7 157//7
f 156//7 22//7 157//7
f 21//3 89//3 87//3
f 21//3 87//3 19//3
f 19//3 87//3 158//3
f 19//3 158//3 157//3
f 20//1 88//1 89//1
f 20//1 89//1 21//1
f 18//3 83//3 88//3
f 20//3 18//3 88//3
f 83//6 18//6 17//6
f 83//6 17//6 86//6
f 16//3 85//3 86//3
f 16//3 86//3 17//3
f 16//8 15//8 84//8
f 85//8 16//8 84//8
f 11//3 79//3 84//3
f 11//3 84//3 15//3
f 79//6 11//6 82//6
f 11//6 14//6 82//6
f 13//3 81//3 82//3
f 13//3 82//3 14//3
f 13//8 12//8 80//8
f 81//8 13//8 80//8
f 8//3 75//3 80//3
f 8//3 80//3 12//3
f 75//6 8//6 10//6
f 75//6 10//6 78//6
f 9//3 77//3 78//3
f 9//3 78//3 10//3
f 9//8 7//8 76//8
f 77//8 9//8 76//8
f 7//3 74//3 76//3
f 5//3 74//3 7//3
f 74//7 5//7 6//7
f 74//7 6//7 73//7
f 158//1 87//1 90//1
f 158//1 90//1 92//1
f 158//4 92//4 156//4
f 157//4 158//4 156//4
f 153//4 154//4 155//4
f 156//4 92//4 155//4
f 155//4 92//4 152//4
f 153//4 155//4 152//4
f 149//4 150//4 151//4
f 152//4 92//4 151//4
f 149//4 151//4 148//4
f 151//4 92//4 148//4
f 146//4 147//4 143//4
f 145//4 146//4 143//4
f 139//4 144//4 159//4
f 138//4 139//4 159//4
f 141//4 160//4 136//4
f 136//4 160//4 135//4
f 133//4 134//4 131//4
f 132//4 133//4 131//4
f 128//4 129//4 130//4
f 128//4 130//4 127//4
f 124//4 125//4 126//4
f 124//4 126//4 122//4
f 116//4 123//4 161//4
f 115//4 116//4 161//4
f 119//4 162//4 118//4
f 122//4 126//4 91//4
f 161//4 123//4 91//4
f 118//4 162//4 91//4
f 123//4 122//4 91//4
f 162//4 161//4 91//4
f 148//4 92//4 91//4
f 147//4 148//4 91//4
f 143//4 147//4 91//4
f 144//4 143//4 91//4
f 159//4 144//4 91//4
f 160//4 159//4 91//4
f 135//4 160//4 91//4
f 134//4 135//4 91//4
f 131//4 134//4 91//4
f 130//4 131//4 91//4
f 127//4 130//4 91//4
f 126//4 127//4 91//4
f 120//6 118//6 93//6
f 118//6 91//6 93//6
f 120//4 93//4 112//4
f 113//4 120//4 112//4
f 110//4 111//4 108//4
f 109//4 110//4 108//4
f 106//4 107//4 104//4
f 105//4 106//4 104//4
f 102//4 103//4 100//4
f 101//4 102//4 100//4
f 98//4 99//4 97//4
f 97//4 99//4 96//4
f 95//4 96//4 94//4
f 96//4 99//4 94//4
f 112//4 93//4 94//4
f 111//4 112//4 94//4
f 108//4 111//4 94//4
f 107//4 108//4 94//4
f 104//4 107//4 94//4
f 103//4 104//4 94//4
f 100//4 103//4 94//4
f 99//4 100//4 94//4
f 161//6 163//6 117//6
f 161//6 117//6 115//6
f 119//1 163//1 162//1
f 119//1 117//1 163//1
f 114//8 121//8 123//8
f 116//8 114//8 123//8
f 164//6 140//6 138//6
f 159//6 164//6 138//6
f 160//1 141//1 140//1
f 164//1 160//1 140//1
f 139//8 137//8 142//8
f 139//8 142//8 144//8
f 163//3 161//3 162//3
f 164//3 159//3 160//3
