# Blender 4.0.2
# www.blender.org
o df909e7bf7130b4d28742c2b0c14b6339d16d753cbb8a1fb825ceed2ca0b5bb
v -800.000000 160.000000 764.644653
v -800.000000 160.000000 800.000000
v -764.644653 160.000000 800.000000
v 800.000000 160.000000 -764.644653
v 764.644653 160.000000 -800.000000
v 800.000000 160.000000 -800.000000
v -800.000000 80.000000 800.000000
v -800.000000 80.000000 764.644653
v -770.000000 120.000000 734.644653
v -770.000000 80.000000 734.644653
v -690.355347 120.000000 655.000000
v -690.355347 80.000000 655.000000
v -680.355347 80.000000 645.000000
v -680.355347 120.000000 645.000000
v -590.355347 120.000000 555.000000
v -590.355347 80.000000 555.000000
v -580.355347 80.000000 545.000000
v -580.355347 120.000000 545.000000
v -480.355347 120.000000 445.000000
v -490.355347 120.000000 455.000000
v -490.355347 80.000000 455.000000
v -480.355347 80.000000 445.000000
v -170.000000 120.000000 134.644653
v -430.000000 120.000000 394.644653
v -430.000000 80.000000 394.644653
v -170.000000 80.000000 134.644653
v -80.355339 120.000000 45.000000
v -90.355339 120.000000 55.000000
v -90.355339 80.000000 55.000000
v -80.355339 80.000000 45.000000
v 19.644661 120.000000 -55.000000
v 9.644661 120.000000 -45.000000
v 9.644661 80.000000 -45.000000
v 19.644661 80.000000 -55.000000
v 119.644661 120.000000 -155.000000
v 109.644661 120.000000 -145.000000
v 109.644661 80.000000 -145.000000
v 119.644661 80.000000 -155.000000
v 430.000000 120.000000 -465.355347
v 170.000000 120.000000 -205.355347
v 170.000000 80.000000 -205.355347
v 430.000000 80.000000 -465.355347
v 519.644653 120.000000 -555.000000
v 509.644653 120.000000 -545.000000
v 509.644653 80.000000 -545.000000
v 519.644653 80.000000 -555.000000
v 609.644653 120.000000 -645.000000
v 609.644653 80.000000 -645.000000
v 619.644653 80.000000 -655.000000
v 619.644653 120.000000 -655.000000
v 709.644653 120.000000 -745.000000
v 709.644653 80.000000 -745.000000
v 719.644653 80.000000 -755.000000
v 719.644653 120.000000 -755.000000
v 764.644653 120.000000 -800.000000
v 770.000000 120.000000 -800.000000
v 770.000000 80.000000 -800.000000
v 800.000000 80.000000 -800.000000
v 800.000000 80.000000 -764.644653
v 770.000000 120.000000 -734.644653
v 770.000000 80.000000 -734.644653
v 690.355347 120.000000 -655.000000
v 690.355347 80.000000 -655.000000
v 680.355347 80.000000 -645.000000
v 680.355347 120.000000 -645.000000
v 590.355347 120.000000 -555.000000
v 590.355347 80.000000 -555.000000
v 580.355347 80.000000 -545.000000
v 580.355347 120.000000 -545.000000
v 480.355347 120.000000 -445.000000
v 490.355347 120.000000 -455.000000
v 490.355347 80.000000 -455.000000
v 480.355347 80.000000 -445.000000
v 170.000000 120.000000 -134.644653
v 430.000000 120.000000 -394.644653
v 430.000000 80.000000 -394.644653
v 170.000000 80.000000 -134.644653
v 80.355339 120.000000 -45.000000
v 90.355339 120.000000 -55.000000
v 90.355339 80.000000 -55.000000
v 80.355339 80.000000 -45.000000
v -19.644661 120.000000 55.000000
v -9.644661 120.000000 45.000000
v -9.644661 80.000000 45.000000
v -19.644661 80.000000 55.000000
v -119.644661 120.000000 155.000000
v -109.644661 120.000000 145.000000
v -109.644661 80.000000 145.000000
v -119.644661 80.000000 155.000000
v -430.000000 80.000000 465.355347
v -170.000000 120.000000 205.355347
v -170.000000 80.000000 205.355347
v -430.000000 120.000000 465.355347
v -519.644653 120.000000 555.000000
v -509.644653 120.000000 545.000000
v -509.644653 80.000000 545.000000
v -519.644653 80.000000 555.000000
v -619.644653 120.000000 655.000000
v -609.644653 120.000000 645.000000
v -609.644653 80.000000 645.000000
v -619.644653 80.000000 655.000000
v -719.644653 120.000000 755.000000
v -709.644653 120.000000 745.000000
v -709.644653 80.000000 745.000000
v -719.644653 80.000000 755.000000
v -764.644653 120.000000 800.000000
v -770.000000 120.000000 800.000000
v -770.000000 80.000000 800.000000
v -770.000000 80.000000 755.000000
v -770.000000 80.000000 745.000000
v 770.000000 120.000000 -755.000000
v 770.000000 80.000000 -755.000000
v 770.000000 80.000000 -745.000000
v 770.000000 120.000000 -745.000000
v 430.000000 120.000000 -455.000000
v 430.000000 80.000000 -455.000000
v 170.000000 80.000000 -155.000000
v 170.000000 80.000000 -145.000000
v 430.000000 80.000000 -445.000000
v 170.000000 120.000000 -155.000000
v 170.000000 120.000000 -145.000000
v -170.000000 120.000000 145.000000
v -170.000000 80.000000 145.000000
v -430.000000 80.000000 445.000000
v -430.000000 80.000000 455.000000
v -170.000000 80.000000 155.000000
v -430.000000 120.000000 445.000000
v -430.000000 120.000000 455.000000
v -770.000000 120.000000 745.000000
v -770.000000 120.000000 755.000000
v -170.000000 120.000000 155.000000
v 430.000000 120.000000 -445.000000
vn -0.0000 1.0000 -0.0000
vn -1.0000 -0.0000 -0.0000
vn -0.7071 -0.0000 -0.7071
vn -0.0000 -0.0000 -1.0000
vn 1.0000 -0.0000 -0.0000
vn 0.7071 -0.0000 0.7071
vn -0.0000 -0.0000 1.0000
vn -0.0000 -1.0000 -0.0000
s 0
f 1//1 2//1 3//1
f 4//1 5//1 1//1
f 4//1 1//1 3//1
f 6//1 5//1 4//1
f 7//2 2//2 1//2
f 8//2 7//2 1//2
f 8//3 1//3 9//3
f 10//3 8//3 9//3
f 13//3 12//3 11//3
f 9//3 1//3 11//3
f 11//3 1//3 14//3
f 13//3 11//3 14//3
f 17//3 16//3 15//3
f 14//3 1//3 15//3
f 17//3 15//3 18//3
f 15//3 1//3 18//3
f 21//3 20//3 19//3
f 22//3 21//3 19//3
f 25//3 24//3 23//3
f 26//3 25//3 23//3
f 29//3 28//3 27//3
f 30//3 29//3 27//3
f 33//3 32//3 31//3
f 34//3 33//3 31//3
f 37//3 36//3 35//3
f 38//3 37//3 35//3
f 41//3 40//3 39//3
f 42//3 41//3 39//3
f 45//3 44//3 43//3
f 46//3 45//3 43//3
f 49//3 48//3 47//3
f 49//3 47//3 50//3
f 53//3 52//3 51//3
f 53//3 51//3 54//3
f 47//3 43//3 5//3
f 50//3 47//3 5//3
f 51//3 50//3 5//3
f 54//3 51//3 5//3
f 55//3 54//3 5//3
f 18//3 1//3 5//3
f 20//3 18//3 5//3
f 19//3 20//3 5//3
f 24//3 19//3 5//3
f 23//3 24//3 5//3
f 28//3 23//3 5//3
f 27//3 28//3 5//3
f 32//3 27//3 5//3
f 31//3 32//3 5//3
f 36//3 31//3 5//3
f 35//3 36//3 5//3
f 40//3 35//3 5//3
f 39//3 40//3 5//3
f 44//3 39//3 5//3
f 43//3 44//3 5//3
f 58//4 57//4 56//4
f 56//4 55//4 5//4
f 58//4 56//4 6//4
f 56//4 5//4 6//4
f 6//5 4//5 59//5
f 6//5 59//5 58//5
f 59//6 4//6 60//6
f 61//6 59//6 60//6
f 64//6 63//6 62//6
f 60//6 4//6 62//6
f 64//6 62//6 65//6
f 62//6 4//6 65//6
f 68//6 67//6 66//6
f 65//6 4//6 66//6
f 68//6 66//6 69//6
f 66//6 4//6 69//6
f 72//6 71//6 70//6
f 73//6 72//6 70//6
f 76//6 75//6 74//6
f 77//6 76//6 74//6
f 80//6 79//6 78//6
f 81//6 80//6 78//6
f 84//6 83//6 82//6
f 85//6 84//6 82//6
f 88//6 87//6 86//6
f 89//6 88//6 86//6
f 92//6 91//6 90//6
f 90//6 91//6 93//6
f 96//6 95//6 94//6
f 97//6 96//6 94//6
f 100//6 99//6 98//6
f 101//6 100//6 98//6
f 104//6 103//6 102//6
f 105//6 104//6 102//6
f 98//6 99//6 3//6
f 99//6 94//6 3//6
f 103//6 98//6 3//6
f 102//6 103//6 3//6
f 106//6 102//6 3//6
f 69//6 4//6 3//6
f 71//6 69//6 3//6
f 70//6 71//6 3//6
f 75//6 70//6 3//6
f 74//6 75//6 3//6
f 79//6 74//6 3//6
f 78//6 79//6 3//6
f 83//6 78//6 3//6
f 82//6 83//6 3//6
f 87//6 82//6 3//6
f 86//6 87//6 3//6
f 91//6 86//6 3//6
f 93//6 91//6 3//6
f 95//6 93//6 3//6
f 94//6 95//6 3//6
f 107//7 7//7 108//7
f 2//7 7//7 107//7
f 3//7 107//7 106//7
f 3//7 2//7 107//7
f 108//8 7//8 8//8
f 108//8 8//8 109//8
f 109//8 8//8 110//8
f 110//8 8//8 10//8
f 109//8 110//8 105//8
f 105//8 110//8 104//8
f 55//8 56//8 111//8
f 55//8 111//8 54//8
f 111//4 53//4 54//4
f 112//4 53//4 111//4
f 113//8 53//8 112//8
f 61//8 113//8 59//8
f 113//8 112//8 59//8
f 59//8 112//8 57//8
f 59//8 57//8 58//8
f 53//8 113//8 52//8
f 51//7 52//7 114//7
f 114//7 52//7 113//7
f 114//8 60//8 51//8
f 51//8 60//8 62//8
f 51//8 62//8 50//8
f 62//4 49//4 50//4
f 63//4 49//4 62//4
f 48//8 49//8 64//8
f 64//8 49//8 63//8
f 47//7 48//7 65//7
f 65//7 48//7 64//7
f 47//8 65//8 66//8
f 47//8 66//8 43//8
f 66//4 46//4 43//4
f 67//4 46//4 66//4
f 45//8 46//8 68//8
f 68//8 46//8 67//8
f 44//7 45//7 69//7
f 69//7 45//7 68//7
f 44//8 69//8 71//8
f 44//8 71//8 39//8
f 39//8 71//8 115//8
f 116//5 42//5 39//5
f 116//5 39//5 115//5
f 118//8 38//8 117//8
f 77//8 118//8 76//8
f 117//8 41//8 76//8
f 118//8 117//8 76//8
f 76//8 41//8 119//8
f 119//8 41//8 116//8
f 116//8 41//8 42//8
f 119//8 116//8 73//8
f 38//8 118//8 37//8
f 73//8 116//8 72//8
f 41//2 120//2 40//2
f 41//2 117//2 120//2
f 120//8 35//8 40//8
f 120//4 117//4 38//4
f 35//4 120//4 38//4
f 37//7 118//7 121//7
f 37//7 121//7 36//7
f 79//8 31//8 36//8
f 74//8 36//8 121//8
f 74//8 79//8 36//8
f 79//4 80//4 31//4
f 31//4 80//4 34//4
f 33//8 34//8 81//8
f 81//8 34//8 80//8
f 32//7 81//7 78//7
f 33//7 81//7 32//7
f 83//8 27//8 32//8
f 83//8 32//8 78//8
f 83//4 84//4 27//4
f 27//4 84//4 30//4
f 29//8 30//8 85//8
f 85//8 30//8 84//8
f 28//7 85//7 82//7
f 29//7 85//7 28//7
f 87//8 122//8 23//8
f 87//8 23//8 28//8
f 82//8 87//8 28//8
f 122//5 123//5 26//5
f 23//5 122//5 26//5
f 125//8 22//8 124//8
f 90//8 125//8 92//8
f 124//8 25//8 92//8
f 125//8 124//8 92//8
f 92//8 25//8 126//8
f 126//8 25//8 123//8
f 123//8 25//8 26//8
f 126//8 123//8 89//8
f 22//8 125//8 21//8
f 89//8 123//8 88//8
f 24//2 25//2 124//2
f 127//2 24//2 124//2
f 127//8 19//8 24//8
f 127//4 124//4 22//4
f 19//4 127//4 22//4
f 20//7 125//7 128//7
f 21//7 125//7 20//7
f 95//8 18//8 20//8
f 93//8 20//8 128//8
f 93//8 95//8 20//8
f 95//4 96//4 18//4
f 18//4 96//4 17//4
f 16//8 17//8 97//8
f 97//8 17//8 96//8
f 15//7 97//7 94//7
f 16//7 97//7 15//7
f 99//8 14//8 15//8
f 99//8 15//8 94//8
f 99//4 100//4 14//4
f 14//4 100//4 13//4
f 12//8 13//8 101//8
f 101//8 13//8 100//8
f 11//7 101//7 98//7
f 12//7 101//7 11//7
f 103//8 129//8 9//8
f 103//8 9//8 11//8
f 98//8 103//8 11//8
f 129//5 110//5 10//5
f 9//5 129//5 10//5
f 56//2 112//2 111//2
f 57//2 112//2 56//2
f 106//8 107//8 130//8
f 102//8 106//8 130//8
f 130//7 105//7 102//7
f 109//7 105//7 130//7
f 103//4 104//4 129//4
f 129//4 104//4 110//4
f 128//2 125//2 90//2
f 93//2 128//2 90//2
f 91//5 92//5 126//5
f 131//5 91//5 126//5
f 86//8 91//8 131//8
f 131//7 89//7 86//7
f 126//7 89//7 131//7
f 87//4 88//4 122//4
f 122//4 88//4 123//4
f 118//2 74//2 121//2
f 118//2 77//2 74//2
f 76//5 119//5 132//5
f 76//5 132//5 75//5
f 132//8 70//8 75//8
f 132//7 119//7 73//7
f 70//7 132//7 73//7
f 72//4 116//4 115//4
f 72//4 115//4 71//4
f 113//2 60//2 114//2
f 113//2 61//2 60//2
f 107//5 108//5 130//5
f 130//5 108//5 109//5
