# Blender 4.0.2
# www.blender.org
o e312698882a313c540ba3d17639774d93b2ce1364c524f4970d7af45c606db9
v -1600.000000 160.000000 -362.563141
v -1600.000000 160.000000 -344.543640
v -1600.000000 80.000000 -344.543640
v -1600.000000 80.000000 -362.563141
v -430.000000 120.000000 -1514.543701
v -344.543640 160.000000 -1600.000000
v -344.543640 80.000000 -1600.000000
v -430.000000 80.000000 -1514.543701
v -489.543640 120.000000 -1455.000000
v -489.543640 80.000000 -1455.000000
v -499.543640 80.000000 -1445.000000
v -499.543640 120.000000 -1445.000000
v -589.543640 120.000000 -1355.000000
v -599.543640 120.000000 -1345.000000
v -589.543640 80.000000 -1355.000000
v -599.543640 80.000000 -1345.000000
v -699.543640 120.000000 -1245.000000
v -689.543640 120.000000 -1255.000000
v -689.543640 80.000000 -1255.000000
v -699.543640 80.000000 -1245.000000
v -1030.000000 80.000000 -914.543640
v -770.000000 120.000000 -1174.543701
v -770.000000 80.000000 -1174.543701
v -1030.000000 120.000000 -914.543640
v -1089.543701 120.000000 -855.000000
v -1089.543701 80.000000 -855.000000
v -1099.543701 80.000000 -845.000000
v -1099.543701 120.000000 -845.000000
v -1189.543701 120.000000 -755.000000
v -1189.543701 80.000000 -755.000000
v -1199.543701 80.000000 -745.000000
v -1199.543701 120.000000 -745.000000
v -1299.543701 120.000000 -645.000000
v -1289.543701 120.000000 -655.000000
v -1289.543701 80.000000 -655.000000
v -1299.543701 80.000000 -645.000000
v -1370.000000 120.000000 -574.543640
v -1370.000000 80.000000 -574.543640
v -1370.000000 80.000000 -592.563110
v -1370.000000 120.000000 -592.563110
v -1317.563110 120.000000 -645.000000
v -1317.563110 80.000000 -645.000000
v -1307.563110 80.000000 -655.000000
v -1307.563110 120.000000 -655.000000
v -1207.563110 120.000000 -755.000000
v -1217.563110 120.000000 -745.000000
v -1217.563110 80.000000 -745.000000
v -1207.563110 80.000000 -755.000000
v -1107.563110 120.000000 -855.000000
v -1117.563110 120.000000 -845.000000
v -1117.563110 80.000000 -845.000000
v -1107.563110 80.000000 -855.000000
v -770.000000 120.000000 -1192.563110
v -1030.000000 120.000000 -932.563110
v -1030.000000 80.000000 -932.563110
v -770.000000 80.000000 -1192.563110
v -707.563110 120.000000 -1255.000000
v -717.563110 120.000000 -1245.000000
v -717.563110 80.000000 -1245.000000
v -707.563110 80.000000 -1255.000000
v -607.563110 120.000000 -1355.000000
v -617.563110 120.000000 -1345.000000
v -617.563110 80.000000 -1345.000000
v -607.563110 80.000000 -1355.000000
v -507.563141 120.000000 -1455.000000
v -517.563110 120.000000 -1445.000000
v -517.563110 80.000000 -1445.000000
v -507.563141 80.000000 -1455.000000
v -362.563141 80.000000 -1600.000000
v -430.000000 120.000000 -1532.563110
v -430.000000 80.000000 -1532.563110
v -362.563141 160.000000 -1600.000000
vn -1.0000 -0.0000 -0.0000
vn 0.7071 -0.0000 0.7071
vn -0.0000 -1.0000 -0.0000
vn -0.7071 -0.0000 -0.7071
vn -0.7071 0.0001 -0.7071
vn -0.0000 1.0000 -0.0000
vn -0.0000 -0.0000 -1.0000
vn 1.0000 -0.0000 -0.0000
vn -0.0000 -0.0000 1.0000
s 0
f 3//1 2//1 1//1
f 4//1 3//1 1//1
f 7//2 6//2 5//2
f 8//2 7//2 5//2
f 11//2 10//2 9//2
f 5//2 6//2 9//2
f 11//2 9//2 12//2
f 9//2 6//2 12//2
f 12//2 6//2 13//2
f 15//2 13//2 14//2
f 16//2 15//2 14//2
f 19//2 18//2 17//2
f 20//2 19//2 17//2
f 23//2 22//2 21//2
f 21//2 22//2 24//2
f 27//2 26//2 25//2
f 27//2 25//2 28//2
f 31//2 30//2 29//2
f 31//2 29//2 32//2
f 35//2 34//2 33//2
f 36//2 35//2 33//2
f 38//2 37//2 3//2
f 3//2 37//2 2//2
f 13//2 6//2 2//2
f 14//2 13//2 2//2
f 18//2 14//2 2//2
f 17//2 18//2 2//2
f 22//2 17//2 2//2
f 24//2 22//2 2//2
f 25//2 24//2 2//2
f 28//2 25//2 2//2
f 29//2 28//2 2//2
f 32//2 29//2 2//2
f 34//2 32//2 2//2
f 33//2 34//2 2//2
f 37//2 33//2 2//2
f 3//3 4//3 38//3
f 38//3 4//3 39//3
f 4//4 1//4 40//4
f 39//4 4//4 40//4
f 43//4 42//4 41//4
f 43//4 41//4 44//4
f 47//4 46//4 45//4
f 48//4 47//4 45//4
f 51//4 50//4 49//4
f 52//4 51//4 49//4
f 55//4 54//4 53//4
f 56//4 55//4 53//4
f 59//4 58//4 57//4
f 60//4 59//4 57//4
f 63//4 62//4 61//4
f 64//4 63//4 61//4
f 67//4 66//4 65//4
f 68//4 67//4 65//4
f 71//4 70//4 69//4
f 65//4 66//4 72//4
f 69//4 70//4 72//4
f 66//4 61//4 72//4
f 70//4 65//4 72//4
f 40//4 1//4 72//4
f 41//5 40//5 72//5
f 44//4 41//4 72//4
f 46//4 44//4 72//4
f 45//4 46//4 72//4
f 50//4 45//4 72//4
f 49//4 50//4 72//4
f 54//4 49//4 72//4
f 53//4 54//4 72//4
f 58//4 53//4 72//4
f 57//4 58//4 72//4
f 62//4 57//4 72//4
f 61//4 62//4 72//4
f 72//6 1//6 2//6
f 6//6 72//6 2//6
f 7//7 69//7 72//7
f 7//7 72//7 6//7
f 37//8 38//8 39//8
f 40//8 37//8 39//8
f 37//3 40//3 41//3
f 33//3 37//3 41//3
f 42//9 33//9 41//9
f 42//9 36//9 33//9
f 36//3 42//3 43//3
f 36//3 43//3 35//3
f 44//7 34//7 43//7
f 34//7 35//7 43//7
f 34//3 44//3 46//3
f 32//3 34//3 46//3
f 47//9 32//9 46//9
f 47//9 31//9 32//9
f 31//3 47//3 48//3
f 31//3 48//3 30//3
f 45//7 29//7 48//7
f 29//7 30//7 48//7
f 29//3 45//3 50//3
f 28//3 29//3 50//3
f 27//9 28//9 50//9
f 51//9 27//9 50//9
f 27//3 51//3 52//3
f 27//3 52//3 26//3
f 49//7 25//7 26//7
f 49//7 26//7 52//7
f 25//3 49//3 54//3
f 24//3 25//3 54//3
f 54//1 55//1 21//1
f 24//1 54//1 21//1
f 21//3 55//3 23//3
f 23//3 55//3 56//3
f 22//8 23//8 56//8
f 53//8 22//8 56//8
f 22//3 53//3 58//3
f 17//3 22//3 58//3
f 59//9 20//9 17//9
f 59//9 17//9 58//9
f 20//3 59//3 60//3
f 20//3 60//3 19//3
f 57//7 18//7 19//7
f 57//7 19//7 60//7
f 18//3 57//3 62//3
f 14//3 18//3 62//3
f 16//9 14//9 62//9
f 63//9 16//9 62//9
f 16//3 63//3 64//3
f 16//3 64//3 15//3
f 13//7 15//7 64//7
f 61//7 13//7 64//7
f 13//3 61//3 66//3
f 13//3 66//3 12//3
f 67//9 11//9 12//9
f 67//9 12//9 66//9
f 11//3 67//3 68//3
f 11//3 68//3 10//3
f 65//7 9//7 10//7
f 65//7 10//7 68//7
f 9//3 65//3 70//3
f 5//3 9//3 70//3
f 5//1 70//1 71//1
f 5//1 71//1 8//1
f 8//3 71//3 69//3
f 8//3 69//3 7//3
