# Blender 4.0.2
# www.blender.org
o e823e45cc1f02f80db9080545c15a11f831e215627a68b3a3f57136edae1b7d
v 1030.000000 120.000000 -1555.000000
v 1030.000000 80.000000 -1600.000000
v 1030.000000 120.000000 -1600.000000
v 1030.000000 80.000000 -1555.000000
v 1370.000000 80.000000 -1555.000000
v 1370.000000 120.000000 -1555.000000
v 1350.000000 120.000000 -1575.000000
v 1370.000000 120.000000 -1600.000000
v 1350.000000 120.000000 -1600.000000
v 1050.000000 120.000000 -1575.000000
v 1050.000000 120.000000 -1600.000000
v 1050.000000 80.000000 -1600.000000
v 1050.000000 80.000000 -1575.000000
v 1350.000000 80.000000 -1575.000000
v 1370.000000 80.000000 -1600.000000
v 1350.000000 80.000000 -1600.000000
vn -1.0000 -0.0000 -0.0000
vn -0.0000 -0.0000 1.0000
vn -0.0000 1.0000 -0.0000
vn -0.0000 -0.0000 -1.0000
vn -0.0000 -1.0000 -0.0000
vn 1.0000 -0.0000 -0.0000
s 0
f 3//1 2//1 1//1
f 1//1 2//1 4//1
f 1//2 4//2 5//2
f 6//2 1//2 5//2
f 7//3 8//3 9//3
f 6//3 8//3 7//3
f 10//3 11//3 3//3
f 1//3 10//3 3//3
f 1//3 6//3 7//3
f 1//3 7//3 10//3
f 11//4 12//4 2//4
f 11//4 2//4 3//4
f 13//5 4//5 2//5
f 13//5 2//5 12//5
f 5//5 4//5 14//5
f 4//5 13//5 14//5
f 14//5 16//5 15//5
f 5//5 14//5 15//5
f 6//6 5//6 8//6
f 8//6 5//6 15//6
f 13//6 12//6 11//6
f 13//6 11//6 10//6
f 14//4 13//4 10//4
f 14//4 10//4 7//4
f 16//1 14//1 7//1
f 16//1 7//1 9//1
f 8//4 16//4 9//4
f 8//4 15//4 16//4
