# Blender 4.0.2
# www.blender.org
o ea53f3df7a96a35b1cc2ea8d296134289ac0845fd9c54dfbc1c319cd47d8193
v -175.000000 120.000000 1437.527466
v -175.000000 80.000000 1546.787109
v -175.000000 120.000000 1546.787109
v -175.000000 80.000000 1437.527466
v -170.000000 120.000000 1445.000000
v -170.000000 120.000000 1432.527466
v -170.000000 120.000000 1455.000000
v -170.000000 120.000000 1541.787109
v -83.212845 120.000000 1455.000000
v -73.212845 120.000000 1445.000000
v 457.527405 160.000000 805.000000
v 457.527405 120.000000 805.000000
v 430.000000 120.000000 832.527405
v 425.000000 120.000000 837.527405
v 175.000000 120.000000 1087.527466
v 425.000000 80.000000 837.527405
v 175.000000 80.000000 1087.527466
v -337.472595 80.000000 1600.000000
v -337.472595 160.000000 1600.000000
v 170.000000 120.000000 1092.527466
v 117.527420 120.000000 1145.000000
v 107.527420 120.000000 1155.000000
v 17.527420 120.000000 1245.000000
v 7.527420 120.000000 1255.000000
v -82.472580 120.000000 1345.000000
v -92.472580 120.000000 1355.000000
v -228.212845 80.000000 1600.000000
v -221.141769 80.000000 1600.000000
v -166.141769 80.000000 1545.000000
v -170.000000 80.000000 1545.000000
v -170.000000 80.000000 1455.000000
v -344.543640 80.000000 1600.000000
v -170.000000 80.000000 1445.000000
v -170.000000 80.000000 1425.456299
v -76.141777 80.000000 1455.000000
v -66.141777 80.000000 1445.000000
v -228.212845 160.000000 1600.000000
v 16.787155 120.000000 1355.000000
v 425.000000 120.000000 946.787170
v 175.000000 120.000000 1196.787109
v 175.000000 80.000000 1196.787109
v 425.000000 80.000000 946.787170
v 1025.000000 80.000000 346.787170
v 775.000000 120.000000 596.787170
v 775.000000 80.000000 596.787170
v 1025.000000 120.000000 346.787170
v 1600.000000 80.000000 -228.212845
v 1375.000000 120.000000 -3.212845
v 1375.000000 80.000000 -3.212845
v 1600.000000 160.000000 -228.212845
v 1370.000000 120.000000 1.787156
v 26.787155 120.000000 1345.000000
v 116.787155 120.000000 1255.000000
v 126.787155 120.000000 1245.000000
v 170.000000 120.000000 1201.787109
v 430.000000 120.000000 941.787170
v 516.787170 120.000000 855.000000
v 526.787170 120.000000 845.000000
v 616.787170 120.000000 755.000000
v 626.787170 120.000000 745.000000
v 716.787170 120.000000 655.000000
v 726.787170 120.000000 645.000000
v 770.000000 120.000000 601.787170
v 1030.000000 120.000000 341.787170
v 1116.787109 120.000000 255.000000
v 1126.787109 120.000000 245.000000
v 1216.787109 120.000000 155.000000
v 1226.787109 120.000000 145.000000
v 1316.787109 120.000000 55.000000
v 1326.787109 120.000000 45.000000
v -170.000000 120.000000 1545.000000
v -76.141777 120.000000 1455.000000
v -66.141777 120.000000 1445.000000
v -170.000000 120.000000 1425.456299
v -344.543640 160.000000 1600.000000
v 455.456360 160.000000 800.000000
v 508.147552 160.000000 800.000000
v 510.218628 160.000000 805.000000
v 805.000000 160.000000 510.218628
v 800.000000 160.000000 508.147552
v 805.000000 160.000000 457.527405
v 800.000000 160.000000 455.456360
v 1600.000000 160.000000 -337.472595
v 1600.000000 160.000000 -344.543640
v 510.218628 120.000000 805.000000
v 560.218628 120.000000 755.000000
v 553.147522 120.000000 755.000000
v 508.147552 120.000000 800.000000
v 455.456360 120.000000 800.000000
v 430.000000 120.000000 825.456360
v 430.000000 120.000000 855.000000
v 430.000000 120.000000 845.000000
v 170.000000 80.000000 1155.000000
v 110.456352 80.000000 1145.000000
v 100.456352 80.000000 1155.000000
v 170.000000 80.000000 1145.000000
v 170.000000 80.000000 1085.456299
v 433.858215 80.000000 945.000000
v 170.000000 80.000000 1208.858276
v 430.000000 80.000000 945.000000
v 430.000000 80.000000 855.000000
v 430.000000 80.000000 845.000000
v 430.000000 80.000000 825.456360
v 523.858215 80.000000 855.000000
v 533.858215 80.000000 845.000000
v -99.543648 120.000000 1355.000000
v -89.543648 120.000000 1345.000000
v 0.456352 120.000000 1255.000000
v 10.456351 120.000000 1245.000000
v 100.456352 120.000000 1155.000000
v 170.000000 120.000000 1145.000000
v 170.000000 120.000000 1155.000000
v 110.456352 120.000000 1145.000000
v 170.000000 120.000000 1085.456299
v -166.141769 120.000000 1545.000000
v -221.141769 160.000000 1600.000000
v 23.858223 120.000000 1355.000000
v 33.858223 120.000000 1345.000000
v 23.858223 80.000000 1355.000000
v 33.858223 80.000000 1345.000000
v 123.858223 120.000000 1255.000000
v 123.858223 80.000000 1255.000000
v 133.858231 80.000000 1245.000000
v 133.858231 120.000000 1245.000000
v 170.000000 120.000000 1208.858276
v 433.858215 120.000000 945.000000
v 533.858215 120.000000 845.000000
v 523.858215 120.000000 855.000000
v 633.858215 120.000000 745.000000
v 623.858215 120.000000 755.000000
v 623.858215 80.000000 755.000000
v 633.858215 80.000000 745.000000
v 723.858215 120.000000 655.000000
v 723.858215 80.000000 655.000000
v 733.858215 80.000000 645.000000
v 733.858215 120.000000 645.000000
v 1033.858276 80.000000 345.000000
v 770.000000 120.000000 608.858215
v 770.000000 80.000000 608.858215
v 1033.858276 120.000000 345.000000
v 1133.858276 120.000000 245.000000
v 1123.858276 120.000000 255.000000
v 1123.858276 80.000000 255.000000
v 1133.858276 80.000000 245.000000
v 1223.858276 120.000000 155.000000
v 1223.858276 80.000000 155.000000
v 1233.858276 80.000000 145.000000
v 1233.858276 120.000000 145.000000
v 1333.858276 120.000000 45.000000
v 1323.858276 120.000000 55.000000
v 1323.858276 80.000000 55.000000
v 1333.858276 80.000000 45.000000
v 1600.000000 80.000000 -221.141769
v 1370.000000 120.000000 8.858223
v 1370.000000 80.000000 8.858223
v 1600.000000 160.000000 -221.141769
v 10.456351 80.000000 1245.000000
v 0.456352 80.000000 1255.000000
v -89.543648 80.000000 1345.000000
v -99.543648 80.000000 1355.000000
v 760.218628 120.000000 555.000000
v 775.000000 120.000000 540.218628
v 770.000000 120.000000 555.000000
v 670.218628 120.000000 645.000000
v 660.218628 120.000000 655.000000
v 570.218628 120.000000 745.000000
v 430.000000 120.000000 945.000000
v 775.000000 80.000000 540.218628
v 763.147522 80.000000 545.000000
v 753.147522 80.000000 555.000000
v 770.000000 80.000000 555.000000
v 770.000000 80.000000 545.000000
v 770.000000 80.000000 538.147522
v 800.000000 80.000000 508.147552
v 805.000000 80.000000 510.218628
v 805.000000 80.000000 457.527405
v 800.000000 80.000000 455.456360
v 1030.000000 80.000000 345.000000
v 1030.000000 80.000000 255.000000
v 1025.000000 80.000000 237.527420
v 1030.000000 80.000000 245.000000
v 1030.000000 80.000000 225.456345
v 1025.000000 120.000000 237.527420
v 1370.000000 120.000000 -45.000000
v 1317.527466 120.000000 -55.000000
v 1307.527466 120.000000 -45.000000
v 1370.000000 120.000000 -55.000000
v 1375.000000 120.000000 -112.472580
v 1370.000000 120.000000 -107.472580
v 1217.527466 120.000000 45.000000
v 1207.527466 120.000000 55.000000
v 1117.527466 120.000000 145.000000
v 1107.527466 120.000000 155.000000
v 1030.000000 120.000000 255.000000
v 1030.000000 120.000000 245.000000
v 1030.000000 120.000000 232.527420
v 1030.000000 120.000000 345.000000
v 1375.000000 80.000000 -112.472580
v 1370.000000 80.000000 -45.000000
v 1310.456299 80.000000 -55.000000
v 1300.456299 80.000000 -45.000000
v 1370.000000 80.000000 -55.000000
v 1370.000000 80.000000 -114.543648
v 1600.000000 80.000000 -344.543640
v 1600.000000 80.000000 -337.472595
v 770.000000 120.000000 538.147522
v 763.147522 120.000000 545.000000
v 753.147522 120.000000 555.000000
v 663.147522 120.000000 645.000000
v 653.147522 120.000000 655.000000
v 663.147522 80.000000 645.000000
v 653.147522 80.000000 655.000000
v 563.147522 120.000000 745.000000
v 563.147522 80.000000 745.000000
v 553.147522 80.000000 755.000000
v 1370.000000 120.000000 -114.543648
v 1310.456299 120.000000 -55.000000
v 1300.456299 120.000000 -45.000000
v 1210.456299 120.000000 45.000000
v 1210.456299 80.000000 45.000000
v 1200.456299 80.000000 55.000000
v 1200.456299 120.000000 55.000000
v 1110.456299 120.000000 145.000000
v 1110.456299 80.000000 145.000000
v 1100.456299 80.000000 155.000000
v 1100.456299 120.000000 155.000000
v 1030.000000 120.000000 225.456345
v 770.000000 120.000000 545.000000
vn -1.0000 -0.0000 -0.0000
vn -0.0000 1.0000 -0.0000
vn 0.7071 -0.0000 0.7071
vn -0.0000 -1.0000 -0.0000
vn -0.7071 -0.0000 -0.7071
vn -0.7071 -0.0001 -0.7071
vn -0.7071 -0.0002 -0.7071
vn -0.7071 0.0001 -0.7071
vn 1.0000 -0.0000 -0.0000
vn -0.0000 -0.0000 1.0000
vn -0.0000 -0.0000 -1.0000
vn 0.7071 -0.0002 0.7071
vn 0.7071 0.0001 0.7071
s 0
f 1//1 2//1 3//1
f 4//1 2//1 1//1
f 6//2 1//2 5//2
f 5//2 1//2 7//2
f 7//2 1//2 3//2
f 7//2 3//2 8//2
f 5//2 7//2 9//2
f 9//2 10//2 5//2
f 13//3 12//3 11//3
f 13//3 11//3 14//3
f 16//3 14//3 15//3
f 17//3 16//3 15//3
f 14//3 11//3 15//3
f 4//3 1//3 18//3
f 18//3 1//3 19//3
f 15//3 11//3 19//3
f 20//3 15//3 19//3
f 21//3 20//3 19//3
f 22//3 21//3 19//3
f 23//3 22//3 19//3
f 24//3 23//3 19//3
f 25//3 24//3 19//3
f 26//3 25//3 19//3
f 6//3 26//3 19//3
f 1//3 6//3 19//3
f 28//4 27//4 2//4
f 28//4 2//4 29//4
f 2//4 30//4 29//4
f 30//4 2//4 31//4
f 18//4 32//4 4//4
f 33//4 31//4 4//4
f 33//4 4//4 34//4
f 31//4 33//4 35//4
f 4//4 32//4 34//4
f 31//4 2//4 4//4
f 35//4 33//4 36//4
f 27//5 37//5 3//5
f 2//5 27//5 3//5
f 3//6 37//6 8//6
f 8//5 37//5 9//5
f 9//5 37//5 10//5
f 10//5 37//5 38//5
f 41//5 40//5 39//5
f 42//5 41//5 39//5
f 45//5 44//5 43//5
f 43//5 44//5 46//5
f 49//5 48//5 47//5
f 47//5 48//5 50//5
f 48//5 51//5 50//5
f 38//5 37//5 50//5
f 52//5 38//5 50//5
f 53//5 52//5 50//5
f 54//7 53//7 50//7
f 55//8 54//8 50//8
f 40//5 55//5 50//5
f 39//5 40//5 50//5
f 56//5 39//5 50//5
f 57//5 56//5 50//5
f 58//5 57//5 50//5
f 59//5 58//5 50//5
f 60//5 59//5 50//5
f 61//5 60//5 50//5
f 62//5 61//5 50//5
f 63//5 62//5 50//5
f 44//6 63//6 50//6
f 46//5 44//5 50//5
f 64//5 46//5 50//5
f 65//5 64//5 50//5
f 66//5 65//5 50//5
f 67//5 66//5 50//5
f 68//5 67//5 50//5
f 69//5 68//5 50//5
f 70//5 69//5 50//5
f 51//5 70//5 50//5
f 8//9 71//9 30//9
f 7//9 8//9 31//9
f 8//9 30//9 31//9
f 35//10 72//10 9//10
f 31//10 9//10 7//10
f 31//10 35//10 9//10
f 10//11 73//11 36//11
f 5//11 10//11 33//11
f 10//11 36//11 33//11
f 6//9 5//9 33//9
f 74//9 6//9 34//9
f 6//9 33//9 34//9
f 32//10 18//10 75//10
f 75//10 18//10 19//10
f 76//2 75//2 19//2
f 76//2 19//2 11//2
f 77//2 11//2 78//2
f 77//2 76//2 11//2
f 79//2 80//2 77//2
f 79//2 77//2 78//2
f 81//2 82//2 80//2
f 81//2 80//2 79//2
f 83//2 82//2 81//2
f 84//2 82//2 83//2
f 85//10 78//10 12//10
f 12//10 78//10 11//10
f 87//4 86//4 85//4
f 88//4 87//4 85//4
f 89//4 88//4 12//4
f 88//4 85//4 12//4
f 89//4 12//4 90//4
f 90//4 12//4 13//4
f 39//2 56//2 91//2
f 91//2 57//2 92//2
f 92//2 13//2 14//2
f 91//2 92//2 14//2
f 91//2 14//2 39//2
f 57//2 58//2 92//2
f 16//1 39//1 14//1
f 16//1 42//1 39//1
f 95//4 94//4 93//4
f 93//4 94//4 96//4
f 96//4 97//4 17//4
f 41//4 42//4 98//4
f 99//4 41//4 98//4
f 42//4 100//4 98//4
f 100//4 42//4 101//4
f 101//4 42//4 16//4
f 102//4 101//4 16//4
f 102//4 16//4 103//4
f 101//4 102//4 104//4
f 41//4 99//4 93//4
f 96//4 41//4 93//4
f 17//4 41//4 96//4
f 104//4 102//4 105//4
f 16//4 97//4 103//4
f 97//4 16//4 17//4
f 40//9 17//9 15//9
f 41//9 17//9 40//9
f 6//4 74//4 106//4
f 26//4 6//4 106//4
f 25//2 26//2 38//2
f 25//2 38//2 52//2
f 25//4 107//4 108//4
f 24//4 25//4 108//4
f 23//2 24//2 53//2
f 23//2 53//2 54//2
f 23//4 109//4 110//4
f 22//4 23//4 110//4
f 15//2 20//2 111//2
f 21//2 22//2 112//2
f 111//2 21//2 112//2
f 112//2 55//2 40//2
f 112//2 40//2 15//2
f 111//2 112//2 15//2
f 21//4 113//4 114//4
f 20//4 21//4 114//4
f 115//3 116//3 28//3
f 115//3 28//3 29//3
f 72//3 35//3 36//3
f 72//3 116//3 115//3
f 73//3 72//3 36//3
f 73//3 116//3 72//3
f 117//3 116//3 73//3
f 118//3 117//3 119//3
f 118//3 119//3 120//3
f 121//3 122//3 123//3
f 124//3 121//3 123//3
f 98//3 125//3 99//3
f 126//3 125//3 98//3
f 127//3 128//3 104//3
f 127//3 104//3 105//3
f 129//3 130//3 131//3
f 129//3 131//3 132//3
f 133//3 134//3 135//3
f 136//3 133//3 135//3
f 137//3 138//3 139//3
f 140//3 138//3 137//3
f 141//3 142//3 143//3
f 141//3 143//3 144//3
f 145//3 146//3 147//3
f 148//3 145//3 147//3
f 149//3 150//3 151//3
f 149//3 151//3 152//3
f 153//3 154//3 155//3
f 156//3 154//3 153//3
f 156//3 116//3 117//3
f 156//3 117//3 118//3
f 156//3 118//3 121//3
f 156//12 121//12 124//12
f 156//13 124//13 125//13
f 156//3 125//3 126//3
f 156//3 126//3 128//3
f 156//3 128//3 127//3
f 156//3 127//3 130//3
f 156//3 130//3 129//3
f 156//3 129//3 133//3
f 156//3 133//3 136//3
f 156//3 136//3 138//3
f 156//3 138//3 140//3
f 156//3 140//3 142//3
f 156//3 142//3 141//3
f 156//3 141//3 145//3
f 156//3 145//3 148//3
f 156//3 148//3 150//3
f 156//3 150//3 149//3
f 156//3 149//3 154//3
f 115//11 29//11 30//11
f 71//11 115//11 30//11
f 27//10 28//10 37//10
f 37//10 28//10 116//10
f 76//5 89//5 90//5
f 97//5 90//5 103//5
f 114//5 90//5 97//5
f 114//5 76//5 90//5
f 113//5 94//5 95//5
f 110//5 113//5 95//5
f 108//5 109//5 157//5
f 108//5 157//5 158//5
f 106//5 107//5 159//5
f 106//5 159//5 160//5
f 32//5 74//5 34//5
f 75//5 74//5 32//5
f 75//5 76//5 114//5
f 75//5 114//5 113//5
f 75//5 113//5 110//5
f 75//5 110//5 109//5
f 75//5 109//5 108//5
f 75//5 108//5 107//5
f 75//5 107//5 106//5
f 75//5 106//5 74//5
f 124//4 54//4 55//4
f 125//4 124//4 55//4
f 118//4 52//4 53//4
f 121//4 118//4 53//4
f 73//4 10//4 38//4
f 73//4 38//4 117//4
f 115//4 71//4 8//4
f 115//4 8//4 9//4
f 72//4 115//4 9//4
f 163//2 162//2 161//2
f 44//2 163//2 63//2
f 163//2 44//2 162//2
f 63//4 138//4 136//4
f 63//4 136//4 62//4
f 61//2 62//2 164//2
f 61//2 164//2 165//2
f 61//4 133//4 129//4
f 61//4 129//4 60//4
f 59//2 60//2 166//2
f 59//2 166//2 86//2
f 59//4 130//4 127//4
f 59//4 127//4 58//4
f 57//4 128//4 126//4
f 57//4 126//4 56//4
f 56//4 126//4 167//4
f 44//9 168//9 162//9
f 45//9 168//9 44//9
f 171//4 170//4 169//4
f 171//4 169//4 172//4
f 172//4 173//4 168//4
f 171//4 172//4 168//4
f 168//4 173//4 174//4
f 168//4 174//4 175//4
f 174//4 177//4 176//4
f 175//4 174//4 176//4
f 45//4 43//4 137//4
f 139//4 45//4 137//4
f 43//4 178//4 137//4
f 178//4 43//4 179//4
f 179//4 43//4 180//4
f 181//4 179//4 180//4
f 181//4 180//4 182//4
f 179//4 181//4 143//4
f 45//4 139//4 171//4
f 143//4 181//4 144//4
f 180//4 177//4 182//4
f 177//4 180//4 176//4
f 171//4 168//4 45//4
f 180//1 43//1 46//1
f 180//1 46//1 183//1
f 51//2 48//2 184//2
f 186//2 184//2 185//2
f 184//2 187//2 185//2
f 189//2 187//2 188//2
f 184//2 48//2 188//2
f 187//2 184//2 188//2
f 51//4 154//4 149//4
f 51//4 149//4 70//4
f 69//2 70//2 190//2
f 69//2 190//2 191//2
f 69//4 150//4 148//4
f 69//4 148//4 68//4
f 193//2 67//2 192//2
f 67//2 68//2 192//2
f 67//4 145//4 141//4
f 67//4 141//4 66//4
f 46//2 64//2 194//2
f 194//2 65//2 195//2
f 195//2 196//2 183//2
f 194//2 195//2 183//2
f 194//2 183//2 46//2
f 65//2 66//2 195//2
f 65//4 142//4 140//4
f 65//4 140//4 64//4
f 64//4 140//4 197//4
f 49//9 198//9 188//9
f 49//9 188//9 48//9
f 201//4 200//4 199//4
f 199//4 200//4 202//4
f 202//4 203//4 198//4
f 155//4 49//4 153//4
f 205//4 203//4 204//4
f 49//4 155//4 199//4
f 153//4 49//4 47//4
f 202//4 198//4 49//4
f 199//4 202//4 49//4
f 203//4 205//4 198//4
f 153//9 47//9 50//9
f 156//9 153//9 50//9
f 50//2 37//2 116//2
f 50//2 116//2 156//2
f 89//11 76//11 77//11
f 88//11 89//11 77//11
f 206//5 80//5 174//5
f 206//5 174//5 173//5
f 207//5 80//5 206//5
f 208//5 207//5 169//5
f 208//5 169//5 170//5
f 208//5 80//5 207//5
f 209//5 80//5 208//5
f 210//5 209//5 211//5
f 210//5 211//5 212//5
f 87//5 213//5 214//5
f 87//5 214//5 215//5
f 77//5 210//5 213//5
f 77//5 87//5 88//5
f 77//5 213//5 87//5
f 77//5 80//5 209//5
f 77//5 209//5 210//5
f 177//1 174//1 82//1
f 174//1 80//1 82//1
f 216//5 84//5 204//5
f 216//5 204//5 203//5
f 217//5 200//5 201//5
f 218//5 217//5 201//5
f 219//5 220//5 221//5
f 222//5 219//5 221//5
f 223//5 224//5 225//5
f 226//5 223//5 225//5
f 177//5 227//5 182//5
f 82//5 227//5 177//5
f 82//5 84//5 216//5
f 82//5 216//5 217//5
f 82//5 217//5 218//5
f 82//5 218//5 219//5
f 82//5 219//5 222//5
f 82//5 222//5 223//5
f 82//5 223//5 226//5
f 82//5 226//5 227//5
f 205//9 204//9 84//9
f 83//9 205//9 84//9
f 205//3 83//3 188//3
f 198//3 205//3 188//3
f 180//3 183//3 176//3
f 176//3 183//3 81//3
f 188//3 83//3 81//3
f 189//13 188//13 81//13
f 185//3 189//3 81//3
f 186//3 185//3 81//3
f 190//3 186//3 81//3
f 191//3 190//3 81//3
f 192//3 191//3 81//3
f 193//3 192//3 81//3
f 196//3 193//3 81//3
f 183//13 196//13 81//13
f 175//9 176//9 81//9
f 175//9 81//9 79//9
f 175//3 79//3 162//3
f 168//3 175//3 162//3
f 162//3 79//3 161//3
f 161//3 79//3 164//3
f 86//3 166//3 78//3
f 85//3 86//3 78//3
f 164//3 79//3 78//3
f 165//3 164//3 78//3
f 166//3 165//3 78//3
f 103//9 90//9 13//9
f 102//9 13//9 92//9
f 102//9 103//9 13//9
f 86//10 87//10 215//10
f 59//10 86//10 131//10
f 130//10 59//10 131//10
f 86//10 215//10 131//10
f 56//9 101//9 91//9
f 100//9 56//9 167//9
f 100//9 101//9 56//9
f 91//10 101//10 57//10
f 128//10 57//10 104//10
f 57//10 101//10 104//10
f 58//11 102//11 92//11
f 105//11 58//11 127//11
f 105//11 102//11 58//11
f 111//11 96//11 21//11
f 113//11 21//11 94//11
f 21//11 96//11 94//11
f 20//1 96//1 111//1
f 97//1 20//1 114//1
f 97//1 96//1 20//1
f 22//10 93//10 112//10
f 95//10 22//10 110//10
f 95//10 93//10 22//10
f 99//1 125//1 55//1
f 93//1 55//1 112//1
f 93//1 99//1 55//1
f 98//11 100//11 167//11
f 98//11 167//11 126//11
f 119//10 117//10 38//10
f 26//10 119//10 38//10
f 160//10 26//10 106//10
f 160//10 119//10 26//10
f 52//11 118//11 120//11
f 52//11 120//11 25//11
f 107//11 25//11 159//11
f 25//11 120//11 159//11
f 122//10 121//10 53//10
f 24//10 122//10 53//10
f 158//10 24//10 108//10
f 158//10 122//10 24//10
f 54//11 124//11 123//11
f 54//11 123//11 23//11
f 109//11 23//11 157//11
f 23//11 123//11 157//11
f 155//1 154//1 51//1
f 199//1 51//1 184//1
f 199//1 155//1 51//1
f 220//11 219//11 190//11
f 152//11 190//11 70//11
f 152//11 70//11 149//11
f 152//11 220//11 190//11
f 221//4 220//4 151//4
f 151//4 220//4 152//4
f 191//10 222//10 221//10
f 69//10 191//10 151//10
f 150//10 69//10 151//10
f 191//10 221//10 151//10
f 224//11 223//11 192//11
f 147//11 192//11 68//11
f 147//11 68//11 148//11
f 147//11 224//11 192//11
f 225//4 224//4 146//4
f 146//4 224//4 147//4
f 193//10 226//10 225//10
f 67//10 193//10 146//10
f 145//10 67//10 146//10
f 193//10 225//10 146//10
f 66//11 181//11 195//11
f 144//11 66//11 141//11
f 144//11 181//11 66//11
f 194//10 179//10 65//10
f 142//10 65//10 143//10
f 65//10 179//10 143//10
f 137//11 197//11 140//11
f 137//11 178//11 197//11
f 139//1 138//1 63//1
f 171//1 63//1 163//1
f 171//1 139//1 63//1
f 211//11 209//11 164//11
f 135//11 164//11 62//11
f 135//11 62//11 136//11
f 135//11 211//11 164//11
f 212//4 211//4 134//4
f 134//4 211//4 135//4
f 165//10 210//10 212//10
f 61//10 165//10 134//10
f 133//10 61//10 134//10
f 165//10 212//10 134//10
f 214//11 213//11 166//11
f 132//11 166//11 60//11
f 132//11 60//11 129//11
f 132//11 214//11 166//11
f 215//4 214//4 131//4
f 131//4 214//4 132//4
f 158//4 157//4 122//4
f 122//4 157//4 123//4
f 160//4 159//4 119//4
f 119//4 159//4 120//4
f 161//10 208//10 170//10
f 163//10 161//10 171//10
f 161//10 170//10 171//10
f 172//11 169//11 207//11
f 172//11 207//11 228//11
f 172//1 228//1 206//1
f 173//1 172//1 206//1
f 182//9 227//9 196//9
f 181//9 196//9 195//9
f 181//9 182//9 196//9
f 64//9 179//9 194//9
f 178//9 64//9 197//9
f 178//9 179//9 64//9
f 186//10 218//10 201//10
f 184//10 186//10 199//10
f 186//10 201//10 199//10
f 189//1 202//1 187//1
f 203//1 189//1 216//1
f 203//1 202//1 189//1
f 200//11 217//11 185//11
f 202//11 185//11 187//11
f 202//11 200//11 185//11
f 210//4 165//4 166//4
f 210//4 166//4 213//4
f 208//4 161//4 164//4
f 208//4 164//4 209//4
f 206//4 228//4 207//4
f 226//4 193//4 196//4
f 227//4 226//4 196//4
f 222//4 191//4 192//4
f 222//4 192//4 223//4
f 218//4 186//4 190//4
f 218//4 190//4 219//4
f 216//4 189//4 185//4
f 216//4 185//4 217//4
