# Blender 4.0.2
# www.blender.org
o eb6e4afe10d4330f5885f7f4151ba7b10e544e14642150666d498e046e9a1ea
v -1375.000000 120.000000 -1584.583740
v -1600.000000 160.000000 -1359.583740
v -1600.000000 80.000000 -1359.583740
v -1375.000000 80.000000 -1584.583740
v -1359.583740 160.000000 -1600.000000
v -1370.000000 120.000000 -1589.583740
v -1359.583740 120.000000 -1600.000000
v -1600.000000 160.000000 -1352.512573
v -1352.512573 160.000000 -1600.000000
v -1352.512573 120.000000 -1600.000000
v -1375.000000 120.000000 -1600.000000
v -1370.000000 120.000000 -1600.000000
v -1370.000000 120.000000 -1582.512573
v -1375.000000 80.000000 -1600.000000
v -1370.000000 80.000000 -1582.512573
v -1600.000000 80.000000 -1352.512573
v -1370.000000 80.000000 -1600.000000
vn -0.7071 -0.0000 -0.7071
vn -0.0000 1.0000 -0.0000
vn -0.0000 -0.0000 -1.0000
vn -0.0000 -1.0000 -0.0000
vn -1.0000 -0.0000 -0.0000
vn 0.7071 -0.0000 0.7071
vn 1.0000 -0.0000 -0.0000
s 0
f 3//1 2//1 1//1
f 4//1 3//1 1//1
f 6//1 1//1 5//1
f 7//1 6//1 5//1
f 1//1 2//1 5//1
f 5//2 2//2 8//2
f 9//2 5//2 8//2
f 5//3 10//3 7//3
f 9//3 10//3 5//3
f 11//2 1//2 6//2
f 12//2 11//2 6//2
f 10//4 6//4 7//4
f 13//4 6//4 10//4
f 14//5 4//5 1//5
f 14//5 1//5 11//5
f 3//4 4//4 15//4
f 16//4 3//4 15//4
f 4//4 14//4 17//4
f 15//4 4//4 17//4
f 3//5 16//5 2//5
f 2//5 16//5 8//5
f 13//6 8//6 16//6
f 13//6 16//6 15//6
f 9//6 13//6 10//6
f 9//6 8//6 13//6
f 6//7 13//7 15//7
f 12//7 6//7 17//7
f 6//7 15//7 17//7
f 11//3 17//3 14//3
f 12//3 17//3 11//3
