# Blender 4.0.2
# www.blender.org
o ef29c21cd4b8fad3a060df717fbf988333ebedfa37f0daad4af93f200f241cf
v 1600.000000 280.000000 -433.273804
v 1600.000000 280.000000 -503.984497
v 1600.000000 315.000000 -503.984497
v 1600.000000 315.000000 -433.273804
v 503.984497 315.000000 -1600.000000
v 433.273804 315.000000 -1600.000000
v 503.984497 280.000000 -1600.000000
v 433.273804 280.000000 -1600.000000
vn 1.0000 -0.0000 -0.0000
vn -0.0000 1.0000 -0.0000
vn 0.7071 -0.0000 -0.7071
vn -0.0000 -1.0000 -0.0000
vn -0.7071 -0.0000 0.7071
vn -0.0000 -0.0000 -1.0000
s 0
f 1//1 2//1 3//1
f 4//1 1//1 3//1
f 5//2 6//2 4//2
f 5//2 4//2 3//2
f 3//3 2//3 7//3
f 5//3 3//3 7//3
f 8//4 7//4 2//4
f 1//4 8//4 2//4
f 6//5 8//5 4//5
f 4//5 8//5 1//5
f 5//6 7//6 8//6
f 5//6 8//6 6//6
