# Blender 4.0.2
# www.blender.org
o f05a61b56a806f0eab7af9d3fad59973b4088b54432f1f9214e0c23f283acbf
v 1600.000000 280.000000 132.411621
v 1600.000000 280.000000 61.700935
v 1600.000000 315.000000 61.700935
v 1600.000000 315.000000 132.411621
v 800.000000 315.000000 -667.588379
v 800.000000 315.000000 -738.299072
v 800.000000 280.000000 -738.299072
v 800.000000 280.000000 -667.588379
vn 1.0000 -0.0000 -0.0000
vn -0.0000 1.0000 -0.0000
vn 0.7071 -0.0000 -0.7071
vn -0.0000 -1.0000 -0.0000
vn -0.7071 -0.0000 0.7071
vn -1.0000 -0.0000 -0.0000
s 0
f 1//1 2//1 3//1
f 4//1 1//1 3//1
f 3//2 5//2 4//2
f 6//2 5//2 3//2
f 3//3 2//3 6//3
f 6//3 2//3 7//3
f 1//4 8//4 2//4
f 2//4 8//4 7//4
f 5//5 8//5 1//5
f 4//5 5//5 1//5
f 7//6 8//6 5//6
f 6//6 7//6 5//6
