# Blender 4.0.2
# www.blender.org
o fafa82316667a6cae2e1af754726c8efe4c8d45e5e408c6cd899849d2860a3c
v -1600.000000 280.000000 786.827209
v -1600.000000 280.000000 716.116516
v -1600.000000 315.000000 716.116516
v -1600.000000 315.000000 786.827209
v -716.116516 315.000000 1600.000000
v -786.827209 315.000000 1600.000000
v -716.116516 280.000000 1600.000000
v -786.827209 280.000000 1600.000000
vn -1.0000 -0.0000 -0.0000
vn -0.0000 1.0000 -0.0000
vn 0.7071 -0.0000 -0.7071
vn -0.0000 -1.0000 -0.0000
vn -0.7071 -0.0000 0.7071
vn -0.0000 -0.0000 1.0000
s 0
f 3//1 2//1 1//1
f 3//1 1//1 4//1
f 5//2 3//2 4//2
f 5//2 4//2 6//2
f 5//3 7//3 3//3
f 3//3 7//3 2//3
f 1//4 2//4 7//4
f 8//4 1//4 7//4
f 4//5 1//5 6//5
f 6//5 1//5 8//5
f 8//6 7//6 5//6
f 6//6 8//6 5//6
