# Blender 4.0.2
# www.blender.org
o fb1fc09cb1c76ff871423a8936375238938ec60cb49f3a38cb7d22c6162d932
v -425.000000 80.000000 1372.523071
v -425.000000 80.000000 1263.263306
v -425.000000 120.000000 1263.263306
v -425.000000 120.000000 1372.523071
v -607.476929 120.000000 1555.000000
v -652.476929 160.000000 1600.000000
v -652.476929 120.000000 1600.000000
v -597.476929 120.000000 1545.000000
v -507.476898 120.000000 1455.000000
v -497.476898 120.000000 1445.000000
v -430.000000 120.000000 1377.523071
v -175.000000 120.000000 1122.523071
v -175.000000 80.000000 1122.523071
v 425.000000 120.000000 522.523071
v 175.000000 120.000000 772.523071
v 175.000000 80.000000 772.523071
v 425.000000 80.000000 522.523071
v 1025.000000 120.000000 -77.476913
v 775.000000 120.000000 172.523087
v 775.000000 80.000000 172.523087
v 1025.000000 80.000000 -77.476913
v 1600.000000 80.000000 -652.476929
v 1375.000000 120.000000 -427.476898
v 1375.000000 80.000000 -427.476898
v 1600.000000 160.000000 -652.476929
v 1302.523071 120.000000 -355.000000
v 1370.000000 120.000000 -422.476898
v -170.000000 120.000000 1117.523071
v -107.476913 120.000000 1055.000000
v -97.476913 120.000000 1045.000000
v -7.476913 120.000000 955.000000
v 2.523087 120.000000 945.000000
v 92.523087 120.000000 855.000000
v 102.523087 120.000000 845.000000
v 170.000000 120.000000 777.523071
v 430.000000 120.000000 517.523071
v 492.523102 120.000000 455.000000
v 502.523102 120.000000 445.000000
v 592.523071 120.000000 355.000000
v 602.523071 120.000000 345.000000
v 692.523071 120.000000 255.000000
v 702.523071 120.000000 245.000000
v 770.000000 120.000000 177.523087
v 1030.000000 120.000000 -82.476913
v 1092.523071 120.000000 -145.000000
v 1102.523071 120.000000 -155.000000
v 1192.523071 120.000000 -245.000000
v 1202.523071 120.000000 -255.000000
v 1292.523071 120.000000 -345.000000
v -430.000000 80.000000 1355.000000
v -430.000000 80.000000 1384.594116
v -430.000000 80.000000 1345.000000
v -513.807739 80.000000 1345.000000
v -430.000000 80.000000 1261.192261
v -170.000000 80.000000 1124.594116
v -170.000000 80.000000 1055.000000
v -175.000000 80.000000 1013.263367
v -170.000000 80.000000 1045.000000
v -170.000000 80.000000 1001.192261
v -100.405846 80.000000 1055.000000
v -523.807739 80.000000 1355.000000
v -90.405846 80.000000 1045.000000
v -6.736649 120.000000 845.000000
v 33.263351 160.000000 805.000000
v 33.263351 120.000000 805.000000
v -16.736649 120.000000 855.000000
v -106.736649 120.000000 945.000000
v -116.736649 120.000000 955.000000
v -175.000000 120.000000 1013.263367
v -761.736633 160.000000 1600.000000
v -606.736633 120.000000 1445.000000
v -616.736633 120.000000 1455.000000
v -706.736633 120.000000 1545.000000
v -716.736633 120.000000 1555.000000
v -761.736633 120.000000 1600.000000
v -170.000000 120.000000 1008.263367
v -430.000000 120.000000 1268.263306
v -506.736664 120.000000 1345.000000
v -516.736633 120.000000 1355.000000
v -430.000000 120.000000 1345.000000
v -430.000000 120.000000 1355.000000
v -645.405823 120.000000 1600.000000
v -645.405823 160.000000 1600.000000
v -490.405853 120.000000 1445.000000
v -430.000000 120.000000 1384.594116
v -590.405823 120.000000 1545.000000
v -500.405853 120.000000 1455.000000
v -600.405823 120.000000 1555.000000
v 170.000000 120.000000 745.000000
v 170.000000 120.000000 720.954529
v 175.000000 120.000000 715.954529
v 170.000000 120.000000 755.000000
v 135.954544 120.000000 755.000000
v 145.954544 120.000000 745.000000
v 109.594154 120.000000 845.000000
v 170.000000 120.000000 784.594177
v 9.594154 120.000000 945.000000
v 99.594154 120.000000 855.000000
v -90.405846 120.000000 1045.000000
v -0.405845 120.000000 955.000000
v -170.000000 120.000000 1045.000000
v -170.000000 120.000000 1055.000000
v -170.000000 120.000000 1124.594116
v -100.405846 120.000000 1055.000000
v 175.000000 80.000000 715.954529
v 170.000000 80.000000 755.000000
v 138.883484 80.000000 745.000000
v 128.883484 80.000000 755.000000
v 170.000000 80.000000 784.594177
v 170.000000 80.000000 745.000000
v 170.000000 80.000000 713.883484
v 430.000000 80.000000 524.594177
v 425.000000 80.000000 465.954559
v 499.594147 80.000000 455.000000
v 438.883484 80.000000 445.000000
v 430.000000 80.000000 455.000000
v 509.594147 80.000000 445.000000
v 425.000000 120.000000 465.954559
v 770.000000 120.000000 155.000000
v 770.000000 120.000000 145.000000
v 770.000000 120.000000 120.954544
v 775.000000 120.000000 115.954544
v 745.954529 120.000000 145.000000
v 735.954529 120.000000 155.000000
v 709.594177 120.000000 245.000000
v 770.000000 120.000000 184.594162
v 645.954529 120.000000 245.000000
v 635.954529 120.000000 255.000000
v 609.594177 120.000000 345.000000
v 699.594177 120.000000 255.000000
v 545.954529 120.000000 345.000000
v 535.954529 120.000000 355.000000
v 509.594147 120.000000 445.000000
v 599.594177 120.000000 355.000000
v 445.954559 120.000000 445.000000
v 435.954559 120.000000 455.000000
v 430.000000 120.000000 524.594177
v 499.594147 120.000000 455.000000
v 430.000000 120.000000 460.954559
v 775.000000 80.000000 115.954544
v 770.000000 80.000000 155.000000
v 738.883484 80.000000 145.000000
v 728.883484 80.000000 155.000000
v 770.000000 80.000000 184.594162
v 770.000000 80.000000 145.000000
v 770.000000 80.000000 113.883476
v 800.000000 80.000000 83.883476
v 805.000000 80.000000 85.954544
v 805.000000 80.000000 33.263351
v 800.000000 80.000000 31.192284
v 1030.000000 80.000000 -75.405846
v 1030.000000 80.000000 -145.000000
v 1025.000000 80.000000 -186.736649
v 1030.000000 80.000000 -155.000000
v 1030.000000 80.000000 -198.807724
v 1099.594116 80.000000 -145.000000
v 1109.594116 80.000000 -155.000000
v 1025.000000 120.000000 -186.736649
v 1370.000000 120.000000 -445.000000
v 1370.000000 120.000000 -455.000000
v 1370.000000 120.000000 -531.736633
v 1375.000000 120.000000 -536.736633
v 1293.263306 120.000000 -455.000000
v 1283.263306 120.000000 -445.000000
v 1309.594116 120.000000 -355.000000
v 1370.000000 120.000000 -415.405853
v 1193.263306 120.000000 -355.000000
v 1183.263306 120.000000 -345.000000
v 1209.594116 120.000000 -255.000000
v 1299.594116 120.000000 -345.000000
v 1093.263306 120.000000 -255.000000
v 1083.263306 120.000000 -245.000000
v 1109.594116 120.000000 -155.000000
v 1199.594116 120.000000 -245.000000
v 1030.000000 120.000000 -145.000000
v 1030.000000 120.000000 -155.000000
v 1030.000000 120.000000 -191.736649
v 1030.000000 120.000000 -75.405846
v 1099.594116 120.000000 -145.000000
v 1375.000000 80.000000 -536.736633
v 1370.000000 80.000000 -445.000000
v 1370.000000 80.000000 -415.405853
v 1370.000000 80.000000 -455.000000
v 1286.192261 80.000000 -455.000000
v 1370.000000 80.000000 -538.807739
v 1600.000000 80.000000 -645.405823
v 1600.000000 80.000000 -768.807739
v 1600.000000 80.000000 -761.736633
v 1276.192261 80.000000 -445.000000
v 1600.000000 160.000000 -645.405823
v -513.807739 120.000000 1345.000000
v -13.807717 120.000000 845.000000
v 31.192284 160.000000 800.000000
v 31.192284 120.000000 800.000000
v -13.807717 80.000000 845.000000
v -23.807716 80.000000 855.000000
v -23.807716 120.000000 855.000000
v -113.807716 120.000000 945.000000
v -113.807716 80.000000 945.000000
v -123.807716 80.000000 955.000000
v -123.807716 120.000000 955.000000
v -170.000000 120.000000 1001.192261
v -430.000000 120.000000 1261.192261
v -523.807739 120.000000 1355.000000
v -623.807739 120.000000 1455.000000
v -613.807739 120.000000 1445.000000
v -613.807739 80.000000 1445.000000
v -623.807739 80.000000 1455.000000
v -723.807739 120.000000 1555.000000
v -713.807739 120.000000 1545.000000
v -713.807739 80.000000 1545.000000
v -723.807739 80.000000 1555.000000
v -768.807739 160.000000 1600.000000
v -768.807739 120.000000 1600.000000
v -600.405823 80.000000 1555.000000
v -590.405823 80.000000 1545.000000
v -500.405853 80.000000 1455.000000
v -490.405853 80.000000 1445.000000
v -0.405845 80.000000 955.000000
v 9.594154 80.000000 945.000000
v 99.594154 80.000000 855.000000
v 109.594154 80.000000 845.000000
v 599.594177 80.000000 355.000000
v 609.594177 80.000000 345.000000
v 699.594177 80.000000 255.000000
v 709.594177 80.000000 245.000000
v 1199.594116 80.000000 -245.000000
v 1209.594116 80.000000 -255.000000
v 1299.594116 80.000000 -345.000000
v 1309.594116 80.000000 -355.000000
v 83.883476 160.000000 800.000000
v 85.954544 160.000000 805.000000
v 805.000000 160.000000 85.954544
v 800.000000 160.000000 83.883476
v 805.000000 160.000000 33.263351
v 800.000000 160.000000 31.192284
v 1600.000000 160.000000 -761.736633
v 1600.000000 160.000000 -768.807739
v 85.954544 120.000000 805.000000
v 83.883476 120.000000 800.000000
v 128.883484 120.000000 755.000000
v 170.000000 120.000000 713.883484
v 138.883484 120.000000 745.000000
v 770.000000 120.000000 113.883476
v 738.883484 120.000000 145.000000
v 728.883484 120.000000 155.000000
v 638.883484 120.000000 245.000000
v 628.883484 120.000000 255.000000
v 638.883484 80.000000 245.000000
v 628.883484 80.000000 255.000000
v 538.883484 120.000000 345.000000
v 538.883484 80.000000 345.000000
v 528.883484 80.000000 355.000000
v 528.883484 120.000000 355.000000
v 438.883484 120.000000 445.000000
v 430.000000 120.000000 455.000000
v 1030.000000 120.000000 -198.807724
v 1370.000000 120.000000 -538.807739
v 1276.192261 120.000000 -445.000000
v 1286.192261 120.000000 -455.000000
v 1186.192261 120.000000 -355.000000
v 1186.192261 80.000000 -355.000000
v 1176.192261 80.000000 -345.000000
v 1176.192261 120.000000 -345.000000
v 1076.192261 120.000000 -245.000000
v 1086.192261 120.000000 -255.000000
v 1086.192261 80.000000 -255.000000
v 1076.192261 80.000000 -245.000000
vn 1.0000 -0.0000 -0.0000
vn -0.7071 -0.0000 -0.7071
vn -0.7071 -0.0002 -0.7071
vn -0.7071 0.0001 -0.7071
vn -0.0000 -1.0000 -0.0000
vn 0.7071 -0.0000 0.7071
vn -0.0000 1.0000 -0.0000
vn -0.0000 -0.0000 1.0000
vn -1.0000 -0.0000 -0.0000
vn -0.0000 -0.0000 -1.0000
vn 0.7071 0.0001 0.7071
vn 0.7071 -0.0001 0.7071
s 0
f 1//1 2//1 3//1
f 1//1 3//1 4//1
f 7//2 6//2 5//2
f 5//2 6//2 8//2
f 8//2 6//2 9//2
f 9//2 6//2 10//2
f 10//2 6//2 11//2
f 11//3 6//3 4//3
f 1//2 4//2 12//2
f 13//2 1//2 12//2
f 16//2 15//2 14//2
f 17//2 16//2 14//2
f 20//2 19//2 18//2
f 21//2 20//2 18//2
f 24//2 23//2 22//2
f 27//2 26//2 25//2
f 22//2 23//2 25//2
f 23//2 27//2 25//2
f 4//2 6//2 25//2
f 12//2 4//2 25//2
f 28//3 12//3 25//3
f 29//2 28//2 25//2
f 30//2 29//2 25//2
f 31//2 30//2 25//2
f 32//2 31//2 25//2
f 33//2 32//2 25//2
f 34//2 33//2 25//2
f 35//2 34//2 25//2
f 15//2 35//2 25//2
f 14//2 15//2 25//2
f 36//2 14//2 25//2
f 37//2 36//2 25//2
f 38//2 37//2 25//2
f 39//2 38//2 25//2
f 40//2 39//2 25//2
f 41//2 40//2 25//2
f 42//2 41//2 25//2
f 43//2 42//2 25//2
f 19//4 43//4 25//4
f 18//2 19//2 25//2
f 44//2 18//2 25//2
f 45//2 44//2 25//2
f 46//2 45//2 25//2
f 47//2 46//2 25//2
f 48//2 47//2 25//2
f 49//2 48//2 25//2
f 26//2 49//2 25//2
f 1//5 51//5 50//5
f 50//5 53//5 52//5
f 1//5 50//5 52//5
f 52//5 54//5 2//5
f 51//5 1//5 55//5
f 55//5 13//5 56//5
f 58//5 56//5 57//5
f 58//5 57//5 59//5
f 56//5 58//5 60//5
f 53//5 50//5 61//5
f 60//5 58//5 62//5
f 57//5 54//5 59//5
f 56//5 13//5 57//5
f 55//5 1//5 13//5
f 52//5 2//5 1//5
f 54//5 57//5 2//5
f 65//6 64//6 63//6
f 63//6 64//6 66//6
f 66//6 64//6 67//6
f 67//6 64//6 68//6
f 57//6 69//6 3//6
f 2//6 57//6 3//6
f 72//6 71//6 70//6
f 73//6 72//6 70//6
f 74//6 73//6 70//6
f 75//6 74//6 70//6
f 68//6 64//6 70//6
f 76//6 68//6 70//6
f 69//6 76//6 70//6
f 3//6 69//6 70//6
f 77//6 3//6 70//6
f 78//6 77//6 70//6
f 79//6 78//6 70//6
f 71//6 79//6 70//6
f 3//7 77//7 80//7
f 80//7 78//7 81//7
f 81//7 11//7 4//7
f 80//7 81//7 4//7
f 80//7 4//7 3//7
f 78//7 79//7 81//7
f 7//8 82//8 6//8
f 6//8 82//8 83//8
f 84//5 10//5 11//5
f 85//5 84//5 11//5
f 71//7 72//7 9//7
f 71//7 9//7 10//7
f 86//5 9//5 87//5
f 86//5 8//5 9//5
f 73//7 74//7 5//7
f 73//7 5//7 8//7
f 82//5 7//5 5//5
f 82//5 5//5 88//5
f 57//9 13//9 12//9
f 57//9 12//9 69//9
f 91//7 90//7 89//7
f 94//7 93//7 92//7
f 89//7 94//7 92//7
f 92//7 35//7 15//7
f 89//7 92//7 15//7
f 89//7 15//7 91//7
f 95//5 34//5 35//5
f 96//5 95//5 35//5
f 63//7 66//7 33//7
f 63//7 33//7 34//7
f 97//5 32//5 33//5
f 97//5 33//5 98//5
f 67//7 68//7 31//7
f 67//7 31//7 32//7
f 99//5 30//5 31//5
f 100//5 99//5 31//5
f 76//7 69//7 101//7
f 102//7 12//7 28//7
f 101//7 102//7 29//7
f 101//7 69//7 12//7
f 102//7 101//7 12//7
f 29//7 30//7 101//7
f 103//5 28//5 29//5
f 104//5 103//5 29//5
f 15//1 105//1 91//1
f 16//1 105//1 15//1
f 108//5 107//5 106//5
f 16//5 109//5 106//5
f 106//5 107//5 110//5
f 16//5 106//5 110//5
f 110//5 111//5 105//5
f 16//5 110//5 105//5
f 109//5 16//5 112//5
f 112//5 17//5 113//5
f 116//5 115//5 114//5
f 114//5 115//5 117//5
f 113//5 116//5 112//5
f 116//5 111//5 115//5
f 113//5 111//5 116//5
f 111//5 113//5 105//5
f 112//5 16//5 17//5
f 113//9 17//9 14//9
f 113//9 14//9 118//9
f 43//7 19//7 119//7
f 119//7 19//7 120//7
f 120//7 122//7 121//7
f 119//7 120//7 123//7
f 119//7 123//7 124//7
f 120//7 19//7 122//7
f 43//5 126//5 125//5
f 43//5 125//5 42//5
f 128//7 41//7 127//7
f 41//7 42//7 127//7
f 41//5 130//5 129//5
f 41//5 129//5 40//5
f 39//7 40//7 131//7
f 39//7 131//7 132//7
f 39//5 134//5 133//5
f 39//5 133//5 38//5
f 37//7 38//7 135//7
f 37//7 135//7 136//7
f 37//5 138//5 137//5
f 36//5 37//5 137//5
f 36//7 139//7 118//7
f 14//7 36//7 118//7
f 19//1 140//1 122//1
f 20//1 140//1 19//1
f 143//5 142//5 141//5
f 20//5 144//5 141//5
f 141//5 142//5 145//5
f 20//5 141//5 145//5
f 145//5 146//5 140//5
f 140//5 146//5 147//5
f 140//5 147//5 148//5
f 147//5 150//5 149//5
f 148//5 147//5 149//5
f 144//5 20//5 151//5
f 151//5 21//5 152//5
f 154//5 152//5 153//5
f 154//5 153//5 155//5
f 152//5 154//5 156//5
f 156//5 154//5 157//5
f 153//5 150//5 155//5
f 150//5 153//5 149//5
f 152//5 21//5 153//5
f 151//5 20//5 21//5
f 145//5 140//5 20//5
f 158//9 21//9 18//9
f 153//9 21//9 158//9
f 27//7 23//7 159//7
f 159//7 23//7 160//7
f 160//7 162//7 161//7
f 159//7 160//7 163//7
f 163//7 164//7 159//7
f 160//7 23//7 162//7
f 27//5 166//5 165//5
f 27//5 165//5 26//5
f 49//7 26//7 167//7
f 49//7 167//7 168//7
f 49//5 170//5 169//5
f 49//5 169//5 48//5
f 47//7 48//7 171//7
f 47//7 171//7 172//7
f 47//5 174//5 173//5
f 47//5 173//5 46//5
f 18//7 44//7 175//7
f 175//7 45//7 176//7
f 176//7 177//7 158//7
f 175//7 176//7 158//7
f 175//7 158//7 18//7
f 45//7 46//7 176//7
f 45//5 179//5 178//5
f 44//5 45//5 178//5
f 23//1 180//1 162//1
f 24//1 180//1 23//1
f 24//5 182//5 181//5
f 181//5 184//5 183//5
f 24//5 181//5 183//5
f 183//5 185//5 180//5
f 182//5 24//5 186//5
f 188//5 185//5 187//5
f 184//5 181//5 189//5
f 186//5 24//5 22//5
f 183//5 180//5 24//5
f 185//5 188//5 180//5
f 186//1 22//1 25//1
f 190//1 186//1 25//1
f 25//7 6//7 83//7
f 25//7 83//7 190//7
f 80//10 52//10 78//10
f 191//10 78//10 53//10
f 78//10 52//10 53//10
f 192//2 193//2 194//2
f 192//2 195//2 196//2
f 197//2 192//2 196//2
f 197//2 193//2 192//2
f 198//2 199//2 200//2
f 198//2 193//2 197//2
f 201//2 198//2 200//2
f 201//2 193//2 198//2
f 54//2 202//2 59//2
f 203//2 202//2 54//2
f 191//2 53//2 61//2
f 204//2 191//2 61//2
f 205//2 206//2 207//2
f 205//2 207//2 208//2
f 209//2 210//2 211//2
f 209//2 211//2 212//2
f 213//2 205//2 210//2
f 213//2 209//2 214//2
f 213//2 206//2 205//2
f 213//2 210//2 209//2
f 213//2 193//2 201//2
f 213//2 201//2 202//2
f 213//2 202//2 203//2
f 213//2 203//2 191//2
f 213//2 191//2 204//2
f 213//2 204//2 206//2
f 77//9 203//9 54//9
f 80//9 77//9 52//9
f 77//9 54//9 52//9
f 79//8 50//8 81//8
f 61//8 79//8 204//8
f 61//8 50//8 79//8
f 11//9 81//9 50//9
f 85//9 11//9 51//9
f 11//9 50//9 51//9
f 76//1 101//1 58//1
f 202//1 76//1 59//1
f 76//1 58//1 59//1
f 88//6 83//6 82//6
f 88//6 215//6 216//6
f 86//6 88//6 216//6
f 86//6 83//6 88//6
f 87//6 83//6 86//6
f 84//6 87//6 217//6
f 84//6 217//6 218//6
f 84//6 83//6 87//6
f 85//6 83//6 84//6
f 103//6 85//6 51//6
f 103//6 51//6 55//6
f 104//6 60//6 62//6
f 99//6 104//6 62//6
f 97//6 100//6 219//6
f 97//6 219//6 220//6
f 98//6 221//6 222//6
f 95//6 98//6 222//6
f 137//6 96//6 109//6
f 137//6 109//6 112//6
f 133//6 138//6 114//6
f 133//6 114//6 117//6
f 134//6 223//6 224//6
f 129//6 134//6 224//6
f 125//6 130//6 225//6
f 125//6 225//6 226//6
f 178//6 126//6 144//6
f 178//6 144//6 151//6
f 179//6 156//6 157//6
f 173//6 179//6 157//6
f 169//6 174//6 227//6
f 169//6 227//6 228//6
f 170//6 229//6 230//6
f 165//6 170//6 230//6
f 186//6 166//6 182//6
f 190//6 165//6 166//6
f 190//6 166//6 186//6
f 190//6 83//6 85//6
f 190//6 85//6 103//6
f 190//6 103//6 104//6
f 190//6 104//6 99//6
f 190//6 99//6 100//6
f 190//6 100//6 97//6
f 190//6 97//6 98//6
f 190//6 98//6 95//6
f 190//6 95//6 96//6
f 190//6 96//6 137//6
f 190//6 137//6 138//6
f 190//6 138//6 133//6
f 190//6 133//6 134//6
f 190//6 134//6 129//6
f 190//6 129//6 130//6
f 190//6 130//6 125//6
f 190//6 125//6 126//6
f 190//6 126//6 178//6
f 190//6 178//6 179//6
f 190//6 179//6 173//6
f 190//6 173//6 174//6
f 190//6 174//6 169//6
f 190//6 169//6 170//6
f 190//6 170//6 165//6
f 30//10 99//10 62//10
f 101//10 30//10 58//10
f 30//10 62//10 58//10
f 28//1 103//1 55//1
f 102//1 28//1 56//1
f 28//1 55//1 56//1
f 60//8 104//8 29//8
f 56//8 29//8 102//8
f 56//8 60//8 29//8
f 77//5 191//5 203//5
f 77//5 78//5 191//5
f 71//5 206//5 204//5
f 71//5 204//5 79//5
f 73//5 205//5 72//5
f 73//5 210//5 205//5
f 75//5 214//5 209//5
f 75//5 209//5 74//5
f 214//8 75//8 213//8
f 213//8 75//8 70//8
f 193//7 213//7 70//7
f 193//7 70//7 64//7
f 231//7 64//7 232//7
f 231//7 193//7 64//7
f 233//7 234//7 231//7
f 233//7 231//7 232//7
f 235//7 236//7 234//7
f 235//7 234//7 233//7
f 237//7 236//7 235//7
f 238//7 236//7 237//7
f 239//8 232//8 65//8
f 65//8 232//8 64//8
f 76//5 202//5 201//5
f 68//5 76//5 201//5
f 67//5 198//5 197//5
f 66//5 67//5 197//5
f 63//5 192//5 194//5
f 65//5 63//5 194//5
f 240//5 65//5 194//5
f 239//5 240//5 241//5
f 239//5 65//5 240//5
f 93//5 239//5 241//5
f 10//10 84//10 218//10
f 10//10 218//10 71//10
f 206//10 71//10 207//10
f 71//10 218//10 207//10
f 217//8 87//8 9//8
f 72//8 217//8 9//8
f 208//8 72//8 205//8
f 208//8 217//8 72//8
f 8//10 86//10 216//10
f 8//10 216//10 73//10
f 210//10 73//10 211//10
f 73//10 216//10 211//10
f 215//8 88//8 5//8
f 74//8 215//8 5//8
f 212//8 74//8 209//8
f 212//8 215//8 74//8
f 148//6 233//6 122//6
f 140//6 148//6 122//6
f 122//6 233//6 121//6
f 121//6 233//6 123//6
f 123//6 233//6 124//6
f 124//6 233//6 127//6
f 113//6 118//6 91//6
f 105//6 113//6 91//6
f 90//6 91//6 232//6
f 94//6 90//6 232//6
f 93//6 94//6 232//6
f 239//6 93//6 232//6
f 127//6 233//6 232//6
f 128//6 127//6 232//6
f 131//6 128//6 232//6
f 132//6 131//6 232//6
f 135//6 132//6 232//6
f 136//6 135//6 232//6
f 139//11 136//11 232//11
f 118//6 139//6 232//6
f 91//6 118//6 232//6
f 110//9 89//9 90//9
f 111//9 90//9 242//9
f 111//9 110//9 90//9
f 94//10 89//10 110//10
f 243//10 94//10 107//10
f 94//10 110//10 107//10
f 106//8 92//8 93//8
f 108//8 93//8 241//8
f 108//8 106//8 93//8
f 109//9 96//9 35//9
f 106//9 35//9 92//9
f 106//9 109//9 35//9
f 34//10 95//10 222//10
f 34//10 222//10 63//10
f 192//10 63//10 195//10
f 63//10 222//10 195//10
f 221//8 98//8 33//8
f 66//8 221//8 33//8
f 196//8 66//8 197//8
f 196//8 221//8 66//8
f 32//10 97//10 220//10
f 32//10 220//10 67//10
f 198//10 67//10 199//10
f 67//10 220//10 199//10
f 219//8 100//8 31//8
f 68//8 219//8 31//8
f 200//8 68//8 201//8
f 200//8 219//8 68//8
f 244//2 234//2 147//2
f 244//2 147//2 146//2
f 245//2 142//2 143//2
f 245//2 234//2 244//2
f 246//2 245//2 143//2
f 246//2 234//2 245//2
f 247//2 234//2 246//2
f 248//2 247//2 249//2
f 248//2 249//2 250//2
f 251//2 252//2 253//2
f 254//2 251//2 253//2
f 242//2 255//2 115//2
f 242//2 115//2 111//2
f 241//2 243//2 107//2
f 241//2 107//2 108//2
f 231//2 242//2 243//2
f 231//2 241//2 240//2
f 231//2 243//2 241//2
f 231//2 234//2 247//2
f 231//2 247//2 248//2
f 231//2 248//2 251//2
f 231//2 251//2 254//2
f 231//2 254//2 255//2
f 231//2 255//2 242//2
f 115//10 255//10 135//10
f 117//10 135//10 38//10
f 117//10 38//10 133//10
f 117//10 115//10 135//10
f 136//8 256//8 116//8
f 136//8 116//8 37//8
f 138//8 37//8 114//8
f 37//8 116//8 114//8
f 116//1 256//1 139//1
f 36//1 116//1 139//1
f 112//1 36//1 137//1
f 112//1 116//1 36//1
f 124//8 246//8 143//8
f 119//8 124//8 141//8
f 124//8 143//8 141//8
f 144//9 126//9 43//9
f 141//9 43//9 119//9
f 141//9 144//9 43//9
f 145//9 120//9 121//9
f 146//9 121//9 244//9
f 146//9 145//9 121//9
f 142//10 245//10 123//10
f 145//10 123//10 120//10
f 145//10 142//10 123//10
f 249//10 247//10 127//10
f 226//10 127//10 42//10
f 226//10 42//10 125//10
f 226//10 249//10 127//10
f 128//8 248//8 250//8
f 41//8 128//8 225//8
f 130//8 41//8 225//8
f 128//8 250//8 225//8
f 252//10 251//10 131//10
f 224//10 131//10 40//10
f 224//10 40//10 129//10
f 224//10 252//10 131//10
f 132//8 254//8 253//8
f 39//8 132//8 223//8
f 134//8 39//8 223//8
f 132//8 253//8 223//8
f 44//1 152//1 175//1
f 151//1 44//1 178//1
f 151//1 152//1 44//1
f 175//8 152//8 45//8
f 179//8 45//8 156//8
f 45//8 152//8 156//8
f 46//10 154//10 176//10
f 157//10 46//10 173//10
f 157//10 154//10 46//10
f 150//9 147//9 234//9
f 150//9 234//9 236//9
f 155//1 257//1 177//1
f 154//1 177//1 176//1
f 154//1 155//1 177//1
f 258//2 238//2 187//2
f 258//2 187//2 185//2
f 259//2 260//2 184//2
f 259//2 184//2 189//2
f 261//2 262//2 263//2
f 264//2 261//2 263//2
f 265//2 266//2 267//2
f 265//2 267//2 268//2
f 150//2 257//2 155//2
f 236//2 257//2 150//2
f 236//2 238//2 258//2
f 236//2 258//2 260//2
f 236//2 260//2 259//2
f 236//2 259//2 261//2
f 236//2 261//2 264//2
f 236//2 264//2 266//2
f 236//2 266//2 265//2
f 236//2 265//2 257//2
f 148//1 149//1 235//1
f 148//1 235//1 233//1
f 188//6 237//6 162//6
f 180//6 188//6 162//6
f 153//6 158//6 149//6
f 149//6 158//6 235//6
f 162//6 237//6 235//6
f 161//12 162//12 235//12
f 163//6 161//6 235//6
f 164//6 163//6 235//6
f 167//6 164//6 235//6
f 168//6 167//6 235//6
f 171//6 168//6 235//6
f 172//6 171//6 235//6
f 177//6 172//6 235//6
f 158//6 177//6 235//6
f 164//8 259//8 189//8
f 159//8 164//8 181//8
f 164//8 189//8 181//8
f 182//9 166//9 27//9
f 181//9 27//9 159//9
f 181//9 182//9 27//9
f 161//9 183//9 160//9
f 185//9 161//9 258//9
f 185//9 183//9 161//9
f 184//10 260//10 163//10
f 183//10 163//10 160//10
f 183//10 184//10 163//10
f 262//10 261//10 167//10
f 230//10 167//10 26//10
f 230//10 26//10 165//10
f 230//10 262//10 167//10
f 168//8 264//8 263//8
f 49//8 168//8 229//8
f 170//8 49//8 229//8
f 168//8 263//8 229//8
f 267//10 266//10 171//10
f 228//10 171//10 48//10
f 228//10 48//10 169//10
f 228//10 267//10 171//10
f 172//8 265//8 268//8
f 47//8 172//8 227//8
f 174//8 47//8 227//8
f 172//8 268//8 227//8
f 188//1 187//1 238//1
f 237//1 188//1 238//1
f 194//10 193//10 231//10
f 240//10 194//10 231//10
f 212//5 211//5 215//5
f 215//5 211//5 216//5
f 208//5 207//5 217//5
f 217//5 207//5 218//5
f 200//5 199//5 219//5
f 219//5 199//5 220//5
f 196//5 195//5 221//5
f 221//5 195//5 222//5
f 263//5 262//5 229//5
f 229//5 262//5 230//5
f 268//5 267//5 227//5
f 227//5 267//5 228//5
f 250//5 249//5 225//5
f 225//5 249//5 226//5
f 253//5 252//5 223//5
f 223//5 252//5 224//5
f 256//5 136//5 139//5
f 254//5 132//5 135//5
f 254//5 135//5 255//5
f 248//5 128//5 131//5
f 248//5 131//5 251//5
f 246//5 124//5 127//5
f 246//5 127//5 247//5
f 244//5 121//5 123//5
f 244//5 123//5 245//5
f 94//5 243//5 242//5
f 90//5 94//5 242//5
f 265//5 172//5 177//5
f 257//5 265//5 177//5
f 264//5 168//5 171//5
f 264//5 171//5 266//5
f 259//5 164//5 167//5
f 259//5 167//5 261//5
f 258//5 161//5 163//5
f 258//5 163//5 260//5
