# Blender 4.0.2
# www.blender.org
o 06cce51ab0604fb79a95e0f30ddc47593680a01dfb18edcde9a7442455ba3bc
v 175.000000 120.000000 1479.629883
v 175.000000 80.000000 1370.370117
v 175.000000 120.000000 1370.370117
v 175.000000 80.000000 1479.629883
v 99.629868 120.000000 1555.000000
v 54.629868 160.000000 1600.000000
v 54.629868 120.000000 1600.000000
v 109.629868 120.000000 1545.000000
v 170.000000 120.000000 1484.629883
v 425.000000 120.000000 1229.629883
v 425.000000 80.000000 1229.629883
v 1025.000000 120.000000 629.629883
v 775.000000 120.000000 879.629883
v 775.000000 80.000000 879.629883
v 1025.000000 80.000000 629.629883
v 1600.000000 80.000000 54.629868
v 1375.000000 120.000000 279.629883
v 1375.000000 80.000000 279.629883
v 1600.000000 160.000000 54.629868
v 430.000000 120.000000 1224.629883
v 499.629883 120.000000 1155.000000
v 509.629883 120.000000 1145.000000
v 599.629883 120.000000 1055.000000
v 609.629883 120.000000 1045.000000
v 699.629883 120.000000 955.000000
v 709.629883 120.000000 945.000000
v 770.000000 120.000000 884.629883
v 1030.000000 120.000000 624.629883
v 1099.629883 120.000000 555.000000
v 1109.629883 120.000000 545.000000
v 1199.629883 120.000000 455.000000
v 1209.629883 120.000000 445.000000
v 1299.629883 120.000000 355.000000
v 1309.629883 120.000000 345.000000
v 1370.000000 120.000000 284.629883
v 170.000000 80.000000 1455.000000
v 170.000000 80.000000 1491.700928
v 170.000000 80.000000 1445.000000
v 93.299065 80.000000 1445.000000
v 170.000000 80.000000 1368.299072
v 430.000000 80.000000 1231.700928
v 430.000000 80.000000 1155.000000
v 425.000000 80.000000 1120.370117
v 430.000000 80.000000 1145.000000
v 430.000000 80.000000 1108.299072
v 506.700928 80.000000 1155.000000
v 83.299065 80.000000 1455.000000
v 516.700928 80.000000 1145.000000
v 700.370117 120.000000 845.000000
v 740.370117 160.000000 805.000000
v 740.370117 120.000000 805.000000
v 690.370117 120.000000 855.000000
v 600.370117 120.000000 945.000000
v 590.370117 120.000000 955.000000
v 425.000000 120.000000 1120.370117
v -54.629868 160.000000 1600.000000
v 100.370132 120.000000 1445.000000
v 90.370132 120.000000 1455.000000
v 0.370132 120.000000 1545.000000
v -9.629868 120.000000 1555.000000
v -54.629868 120.000000 1600.000000
v 500.370117 120.000000 1045.000000
v 490.370117 120.000000 1055.000000
v 430.000000 120.000000 1115.370117
v 170.000000 120.000000 1375.370117
v 170.000000 120.000000 1445.000000
v 170.000000 120.000000 1455.000000
v 1375.000000 80.000000 170.370132
v 1375.000000 120.000000 170.370132
v 1370.000000 120.000000 255.000000
v 1370.000000 120.000000 245.000000
v 1370.000000 120.000000 175.370132
v 1300.370117 120.000000 245.000000
v 1290.370117 120.000000 255.000000
v 1316.700928 120.000000 345.000000
v 1370.000000 120.000000 291.700928
v 1200.370117 120.000000 345.000000
v 1190.370117 120.000000 355.000000
v 1216.700928 120.000000 445.000000
v 1306.700928 120.000000 355.000000
v 1100.370117 120.000000 445.000000
v 1090.370117 120.000000 455.000000
v 1116.700928 120.000000 545.000000
v 1206.700928 120.000000 455.000000
v 1030.000000 120.000000 555.000000
v 1030.000000 120.000000 545.000000
v 1025.000000 120.000000 520.370117
v 1030.000000 120.000000 515.370117
v 1030.000000 120.000000 631.700928
v 1106.700928 120.000000 555.000000
v 1025.000000 80.000000 520.370117
v 770.000000 80.000000 855.000000
v 770.000000 80.000000 891.700928
v 770.000000 80.000000 845.000000
v 693.299072 80.000000 845.000000
v 775.000000 80.000000 805.000000
v 770.000000 80.000000 800.000000
v 790.990234 80.000000 800.000000
v 793.061340 80.000000 805.000000
v 805.000000 80.000000 793.061340
v 800.000000 80.000000 790.990234
v 805.000000 80.000000 740.370117
v 800.000000 80.000000 738.299072
v 1030.000000 80.000000 631.700928
v 1030.000000 80.000000 555.000000
v 1030.000000 80.000000 545.000000
v 1030.000000 80.000000 508.299072
v 1106.700928 80.000000 555.000000
v 683.299072 80.000000 855.000000
v 1116.700928 80.000000 545.000000
v 775.000000 120.000000 805.000000
v 770.000000 120.000000 855.000000
v 770.000000 120.000000 845.000000
v 770.000000 120.000000 805.000000
v 716.700928 120.000000 945.000000
v 770.000000 120.000000 891.700928
v 616.700928 120.000000 1045.000000
v 706.700928 120.000000 955.000000
v 516.700928 120.000000 1145.000000
v 606.700928 120.000000 1055.000000
v 430.000000 120.000000 1155.000000
v 430.000000 120.000000 1145.000000
v 506.700928 120.000000 1155.000000
v 430.000000 120.000000 1231.700928
v 116.700935 120.000000 1545.000000
v 170.000000 120.000000 1491.700928
v 61.700935 120.000000 1600.000000
v 106.700935 120.000000 1555.000000
v 61.700935 160.000000 1600.000000
v 1600.000000 160.000000 61.700935
v 1600.000000 80.000000 61.700935
v 1370.000000 80.000000 255.000000
v 1370.000000 80.000000 291.700928
v 1370.000000 80.000000 245.000000
v 1293.299072 80.000000 245.000000
v 1370.000000 80.000000 168.299057
v 1600.000000 80.000000 -61.700935
v 1600.000000 80.000000 -54.629868
v 1283.299072 80.000000 255.000000
v 93.299065 120.000000 1445.000000
v 170.000000 120.000000 1368.299072
v 693.299072 120.000000 845.000000
v 738.299072 160.000000 800.000000
v 738.299072 120.000000 800.000000
v 683.299072 120.000000 855.000000
v 593.299072 120.000000 945.000000
v 583.299072 120.000000 955.000000
v 593.299072 80.000000 945.000000
v 583.299072 80.000000 955.000000
v 483.299072 120.000000 1055.000000
v 493.299072 120.000000 1045.000000
v 493.299072 80.000000 1045.000000
v 483.299072 80.000000 1055.000000
v 430.000000 120.000000 1108.299072
v 83.299065 120.000000 1455.000000
v -16.700935 120.000000 1555.000000
v -6.700936 120.000000 1545.000000
v -6.700936 80.000000 1545.000000
v -16.700935 80.000000 1555.000000
v -61.700935 160.000000 1600.000000
v -61.700935 120.000000 1600.000000
v 106.700935 80.000000 1555.000000
v 116.700935 80.000000 1545.000000
v 606.700928 80.000000 1055.000000
v 616.700928 80.000000 1045.000000
v 706.700928 80.000000 955.000000
v 716.700928 80.000000 945.000000
v 1206.700928 80.000000 455.000000
v 1216.700928 80.000000 445.000000
v 1306.700928 80.000000 355.000000
v 1316.700928 80.000000 345.000000
v 790.990234 160.000000 800.000000
v 793.061340 160.000000 805.000000
v 800.000000 160.000000 790.990234
v 805.000000 160.000000 793.061340
v 805.000000 160.000000 740.370117
v 800.000000 160.000000 738.299072
v 1600.000000 160.000000 -54.629868
v 1600.000000 160.000000 -61.700935
v 770.000000 120.000000 800.000000
v 1283.299072 120.000000 255.000000
v 1370.000000 120.000000 168.299057
v 1293.299072 120.000000 245.000000
v 1193.299072 80.000000 345.000000
v 1193.299072 120.000000 345.000000
v 1183.299072 80.000000 355.000000
v 1183.299072 120.000000 355.000000
v 1093.299072 80.000000 445.000000
v 1093.299072 120.000000 445.000000
v 1083.299072 80.000000 455.000000
v 1083.299072 120.000000 455.000000
v 1030.000000 120.000000 508.299072
vn 1.0000 -0.0000 -0.0000
vn -0.7071 -0.0000 -0.7071
vn -0.7071 0.0004 -0.7071
vn -0.0000 -1.0000 -0.0000
vn 0.7071 -0.0000 0.7071
vn -0.0000 1.0000 -0.0000
vn -1.0000 -0.0000 -0.0000
vn -0.0000 -0.0000 1.0000
vn -0.0000 -0.0000 -1.0000
vn 0.7071 -0.0001 0.7071
s 0
f 1//1 2//1 3//1
f 4//1 2//1 1//1
f 7//2 6//2 5//2
f 5//2 6//2 8//2
f 8//2 6//2 9//2
f 9//2 6//2 1//2
f 4//2 1//2 10//2
f 11//2 4//2 10//2
f 1//2 6//2 10//2
f 14//2 13//2 12//2
f 15//2 14//2 12//2
f 18//2 17//2 16//2
f 16//2 17//2 19//2
f 10//2 6//2 19//2
f 20//3 10//3 19//3
f 21//2 20//2 19//2
f 22//2 21//2 19//2
f 23//2 22//2 19//2
f 24//2 23//2 19//2
f 25//2 24//2 19//2
f 26//2 25//2 19//2
f 27//2 26//2 19//2
f 13//2 27//2 19//2
f 12//2 13//2 19//2
f 28//2 12//2 19//2
f 29//2 28//2 19//2
f 30//2 29//2 19//2
f 31//2 30//2 19//2
f 32//2 31//2 19//2
f 33//2 32//2 19//2
f 34//2 33//2 19//2
f 35//2 34//2 19//2
f 17//2 35//2 19//2
f 4//4 37//4 36//4
f 36//4 39//4 38//4
f 4//4 36//4 38//4
f 38//4 40//4 2//4
f 37//4 4//4 41//4
f 41//4 11//4 42//4
f 44//4 42//4 43//4
f 44//4 43//4 45//4
f 42//4 44//4 46//4
f 39//4 36//4 47//4
f 46//4 44//4 48//4
f 43//4 40//4 45//4
f 42//4 11//4 43//4
f 41//4 4//4 11//4
f 38//4 2//4 4//4
f 40//4 43//4 2//4
f 51//5 50//5 49//5
f 49//5 50//5 52//5
f 52//5 50//5 53//5
f 53//5 50//5 54//5
f 43//5 55//5 2//5
f 2//5 55//5 3//5
f 58//5 57//5 56//5
f 59//5 58//5 56//5
f 60//5 59//5 56//5
f 61//5 60//5 56//5
f 54//5 50//5 56//5
f 62//5 54//5 56//5
f 63//5 62//5 56//5
f 64//5 63//5 56//5
f 55//5 64//5 56//5
f 3//5 55//5 56//5
f 65//5 3//5 56//5
f 57//5 65//5 56//5
f 3//6 65//6 66//6
f 66//6 57//6 67//6
f 67//6 9//6 1//6
f 66//6 67//6 1//6
f 66//6 1//6 3//6
f 57//6 58//6 67//6
f 18//1 68//1 69//1
f 18//1 69//1 17//1
f 35//6 17//6 70//6
f 70//6 17//6 71//6
f 71//6 69//6 72//6
f 70//6 71//6 73//6
f 73//6 74//6 70//6
f 71//6 17//6 69//6
f 35//4 76//4 75//4
f 35//4 75//4 34//4
f 33//6 34//6 77//6
f 33//6 77//6 78//6
f 33//4 80//4 79//4
f 33//4 79//4 32//4
f 31//6 32//6 81//6
f 31//6 81//6 82//6
f 31//4 84//4 83//4
f 31//4 83//4 30//4
f 12//6 28//6 85//6
f 85//6 29//6 86//6
f 86//6 88//6 87//6
f 85//6 86//6 87//6
f 85//6 87//6 12//6
f 29//6 30//6 86//6
f 29//4 90//4 89//4
f 28//4 29//4 89//4
f 91//7 15//7 12//7
f 91//7 12//7 87//7
f 14//4 93//4 92//4
f 92//4 95//4 94//4
f 94//4 97//4 96//4
f 99//4 96//4 98//4
f 96//4 97//4 98//4
f 98//4 101//4 100//4
f 99//4 98//4 100//4
f 101//4 103//4 102//4
f 100//4 101//4 102//4
f 93//4 14//4 104//4
f 104//4 15//4 105//4
f 106//4 105//4 91//4
f 106//4 91//4 107//4
f 105//4 106//4 108//4
f 95//4 92//4 109//4
f 108//4 106//4 110//4
f 91//4 103//4 107//4
f 103//4 91//4 102//4
f 105//4 15//4 91//4
f 104//4 14//4 15//4
f 94//4 96//4 14//4
f 92//4 94//4 14//4
f 14//1 96//1 111//1
f 14//1 111//1 13//1
f 27//6 13//6 112//6
f 112//6 13//6 113//6
f 113//6 111//6 114//6
f 112//6 113//6 49//6
f 113//6 13//6 111//6
f 49//6 52//6 112//6
f 27//4 116//4 115//4
f 27//4 115//4 26//4
f 25//6 26//6 53//6
f 25//6 53//6 54//6
f 25//4 118//4 117//4
f 25//4 117//4 24//4
f 23//6 24//6 62//6
f 23//6 62//6 63//6
f 23//4 120//4 119//4
f 23//4 119//4 22//4
f 10//6 20//6 121//6
f 121//6 21//6 122//6
f 122//6 64//6 55//6
f 121//6 122//6 55//6
f 21//6 22//6 122//6
f 121//6 55//6 10//6
f 21//4 123//4 20//4
f 20//4 123//4 124//4
f 55//7 11//7 10//7
f 43//7 11//7 55//7
f 125//4 8//4 9//4
f 126//4 125//4 9//4
f 8//6 59//6 5//6
f 59//6 60//6 5//6
f 127//4 7//4 5//4
f 127//4 5//4 128//4
f 7//8 127//8 6//8
f 6//8 127//8 129//8
f 129//6 130//6 19//6
f 6//6 129//6 19//6
f 130//1 131//1 19//1
f 131//1 16//1 19//1
f 18//4 133//4 132//4
f 132//4 135//4 134//4
f 18//4 132//4 134//4
f 134//4 136//4 68//4
f 133//4 18//4 131//4
f 138//4 136//4 137//4
f 135//4 132//4 139//4
f 131//4 18//4 16//4
f 134//4 68//4 18//4
f 136//4 138//4 68//4
f 66//9 38//9 57//9
f 140//9 57//9 39//9
f 57//9 38//9 39//9
f 65//7 38//7 66//7
f 40//7 65//7 141//7
f 40//7 38//7 65//7
f 142//2 143//2 144//2
f 145//2 142//2 95//2
f 145//2 95//2 109//2
f 145//2 143//2 142//2
f 146//2 143//2 145//2
f 147//2 146//2 148//2
f 147//2 148//2 149//2
f 147//2 143//2 146//2
f 150//2 151//2 152//2
f 150//2 152//2 153//2
f 40//2 154//2 45//2
f 141//2 154//2 40//2
f 155//2 140//2 39//2
f 155//2 39//2 47//2
f 156//2 157//2 158//2
f 156//2 158//2 159//2
f 160//2 155//2 157//2
f 160//2 156//2 161//2
f 160//2 140//2 155//2
f 160//2 157//2 156//2
f 160//2 143//2 147//2
f 160//2 147//2 151//2
f 160//2 151//2 150//2
f 160//2 150//2 154//2
f 160//2 154//2 141//2
f 160//2 141//2 140//2
f 58//8 36//8 67//8
f 47//8 58//8 155//8
f 47//8 36//8 58//8
f 45//1 154//1 64//1
f 44//1 64//1 122//1
f 44//1 45//1 64//1
f 37//7 126//7 9//7
f 36//7 9//7 67//7
f 36//7 37//7 9//7
f 22//9 44//9 122//9
f 48//9 22//9 119//9
f 48//9 44//9 22//9
f 128//5 129//5 127//5
f 128//5 162//5 163//5
f 125//5 128//5 163//5
f 125//5 129//5 128//5
f 126//5 129//5 125//5
f 124//5 126//5 37//5
f 124//5 37//5 41//5
f 124//5 129//5 126//5
f 119//5 123//5 46//5
f 119//5 46//5 48//5
f 117//5 120//5 164//5
f 117//5 164//5 165//5
f 115//5 118//5 166//5
f 115//5 166//5 167//5
f 89//5 116//5 93//5
f 89//5 93//5 104//5
f 90//5 108//5 110//5
f 83//5 90//5 110//5
f 79//5 84//5 168//5
f 79//5 168//5 169//5
f 80//5 170//5 171//5
f 75//5 80//5 171//5
f 131//5 76//5 133//5
f 130//5 76//5 131//5
f 130//5 129//5 124//5
f 130//5 124//5 123//5
f 130//5 123//5 119//5
f 130//5 119//5 120//5
f 130//5 120//5 117//5
f 130//5 117//5 118//5
f 130//5 118//5 115//5
f 130//5 115//5 116//5
f 130//5 116//5 89//5
f 130//5 89//5 90//5
f 130//5 90//5 83//5
f 130//5 83//5 84//5
f 130//5 84//5 79//5
f 130//5 79//5 80//5
f 130//5 80//5 75//5
f 130//5 75//5 76//5
f 20//1 42//1 121//1
f 41//1 20//1 124//1
f 41//1 42//1 20//1
f 121//8 42//8 21//8
f 123//8 21//8 46//8
f 21//8 42//8 46//8
f 143//6 160//6 56//6
f 143//6 56//6 50//6
f 172//6 50//6 173//6
f 172//6 143//6 50//6
f 174//6 172//6 173//6
f 175//6 174//6 173//6
f 176//6 177//6 174//6
f 176//6 174//6 175//6
f 178//6 177//6 176//6
f 179//6 177//6 178//6
f 96//8 99//8 111//8
f 114//8 111//8 173//8
f 111//8 99//8 173//8
f 51//8 114//8 50//8
f 114//8 173//8 50//8
f 150//4 63//4 154//4
f 154//4 63//4 64//4
f 147//4 54//4 62//4
f 147//4 62//4 151//4
f 145//4 52//4 53//4
f 145//4 53//4 146//4
f 144//4 180//4 51//4
f 180//4 114//4 51//4
f 144//4 51//4 49//4
f 144//4 49//4 142//4
f 57//4 140//4 141//4
f 65//4 57//4 141//4
f 59//4 157//4 155//4
f 58//4 59//4 155//4
f 61//4 161//4 156//4
f 61//4 156//4 60//4
f 161//8 61//8 56//8
f 160//8 161//8 56//8
f 138//5 178//5 69//5
f 68//5 138//5 69//5
f 91//5 87//5 102//5
f 102//5 87//5 176//5
f 69//5 178//5 176//5
f 72//10 69//10 176//10
f 73//5 72//5 176//5
f 74//5 73//5 176//5
f 77//5 74//5 176//5
f 78//5 77//5 176//5
f 81//5 78//5 176//5
f 82//5 81//5 176//5
f 88//5 82//5 176//5
f 87//10 88//10 176//10
f 74//8 181//8 139//8
f 70//8 74//8 132//8
f 74//8 139//8 132//8
f 133//7 76//7 35//7
f 132//7 35//7 70//7
f 132//7 133//7 35//7
f 72//7 134//7 71//7
f 136//7 72//7 182//7
f 136//7 134//7 72//7
f 135//9 183//9 73//9
f 134//9 73//9 71//9
f 134//9 135//9 73//9
f 184//9 185//9 77//9
f 171//9 77//9 34//9
f 171//9 34//9 75//9
f 171//9 184//9 77//9
f 78//8 187//8 186//8
f 33//8 78//8 170//8
f 80//8 33//8 170//8
f 78//8 186//8 170//8
f 188//9 189//9 81//9
f 169//9 81//9 32//9
f 169//9 32//9 79//9
f 169//9 188//9 81//9
f 82//8 191//8 190//8
f 31//8 82//8 168//8
f 84//8 31//8 168//8
f 82//8 190//8 168//8
f 30//9 106//9 86//9
f 110//9 30//9 83//9
f 110//9 106//9 30//9
f 28//1 105//1 85//1
f 104//1 28//1 89//1
f 104//1 105//1 28//1
f 85//8 105//8 29//8
f 90//8 29//8 108//8
f 29//8 105//8 108//8
f 107//1 192//1 88//1
f 106//1 88//1 86//1
f 106//1 107//1 88//1
f 95//9 142//9 49//9
f 94//9 49//9 113//9
f 94//9 95//9 49//9
f 94//7 113//7 114//7
f 97//7 114//7 180//7
f 97//7 94//7 114//7
f 98//9 97//9 180//9
f 180//9 144//9 143//9
f 180//9 143//9 172//9
f 98//9 180//9 172//9
f 52//8 145//8 109//8
f 112//8 52//8 92//8
f 52//8 109//8 92//8
f 172//2 101//2 98//2
f 172//2 174//2 101//2
f 93//7 116//7 27//7
f 92//7 27//7 112//7
f 92//7 93//7 27//7
f 103//7 101//7 177//7
f 101//7 174//7 177//7
f 182//2 179//2 137//2
f 182//2 137//2 136//2
f 181//2 183//2 135//2
f 181//2 135//2 139//2
f 185//2 184//2 186//2
f 187//2 185//2 186//2
f 191//2 189//2 188//2
f 191//2 188//2 190//2
f 103//2 192//2 107//2
f 177//2 192//2 103//2
f 177//2 179//2 182//2
f 177//2 182//2 183//2
f 177//2 183//2 181//2
f 177//2 181//2 185//2
f 177//2 185//2 187//2
f 177//2 187//2 189//2
f 177//2 189//2 191//2
f 177//2 191//2 192//2
f 102//1 176//1 175//1
f 100//1 102//1 175//1
f 99//5 100//5 175//5
f 99//5 175//5 173//5
f 148//9 146//9 53//9
f 167//9 53//9 26//9
f 167//9 26//9 115//9
f 167//9 148//9 53//9
f 54//8 147//8 149//8
f 25//8 54//8 166//8
f 118//8 25//8 166//8
f 54//8 149//8 166//8
f 152//9 151//9 62//9
f 165//9 62//9 24//9
f 165//9 24//9 117//9
f 165//9 152//9 62//9
f 63//8 150//8 153//8
f 23//8 63//8 164//8
f 120//8 23//8 164//8
f 63//8 153//8 164//8
f 8//9 125//9 163//9
f 8//9 163//9 59//9
f 157//9 59//9 158//9
f 59//9 163//9 158//9
f 162//8 128//8 5//8
f 60//8 162//8 5//8
f 159//8 60//8 156//8
f 159//8 162//8 60//8
f 138//1 137//1 179//1
f 178//1 138//1 179//1
f 159//4 158//4 162//4
f 162//4 158//4 163//4
f 153//4 152//4 164//4
f 164//4 152//4 165//4
f 149//4 148//4 166//4
f 166//4 148//4 167//4
f 186//4 184//4 170//4
f 170//4 184//4 171//4
f 190//4 188//4 168//4
f 168//4 188//4 169//4
f 191//4 82//4 88//4
f 192//4 191//4 88//4
f 187//4 78//4 81//4
f 187//4 81//4 189//4
f 181//4 74//4 77//4
f 181//4 77//4 185//4
f 182//4 72//4 73//4
f 182//4 73//4 183//4
