# Blender 4.0.2
# www.blender.org
o 0b8f8faf690cb813fbd3be14e559668a019dfb25aaefb5b5fd7addf49528cdc
v 1546.625122 315.000000 -1600.000000
v 1546.625122 280.000000 -1600.000000
v 1475.914551 280.000000 -1600.000000
v 1475.914551 315.000000 -1600.000000
v 1600.000000 280.000000 -1475.914551
v 1600.000000 280.000000 -1546.625122
v 1600.000000 315.000000 -1546.625122
v 1600.000000 315.000000 -1475.914551
vn -0.0000 -0.0000 -1.0000
vn -0.0000 -1.0000 -0.0000
vn 0.7071 -0.0000 -0.7071
vn -0.0000 1.0000 -0.0000
vn -0.7071 -0.0000 0.7071
vn 1.0000 -0.0000 -0.0000
s 0
f 1//1 2//1 3//1
f 1//1 3//1 4//1
f 5//2 3//2 2//2
f 5//2 2//2 6//2
f 7//3 6//3 1//3
f 1//3 6//3 2//3
f 1//4 4//4 8//4
f 7//4 1//4 8//4
f 4//5 3//5 5//5
f 8//5 4//5 5//5
f 5//6 6//6 7//6
f 8//6 5//6 7//6
