# Blender 4.0.2
# www.blender.org
o 274c312b3ac3c8d262cabd67e192bfad399119b74b527b679a86b572be420fc
v -1375.000000 80.000000 3.212845
v -1375.000000 80.000000 112.472580
v -1375.000000 120.000000 112.472580
v -1375.000000 120.000000 3.212845
v -1600.000000 160.000000 337.472595
v -1600.000000 80.000000 337.472595
v -805.000000 80.000000 -457.527405
v -1025.000000 120.000000 -237.527420
v -1025.000000 80.000000 -237.527420
v -805.000000 160.000000 -457.527405
v -1370.000000 120.000000 107.472580
v -1317.527466 120.000000 55.000000
v -1307.527466 120.000000 45.000000
v -1217.527466 120.000000 -45.000000
v -1207.527466 120.000000 -55.000000
v -1117.527466 120.000000 -145.000000
v -1107.527466 120.000000 -155.000000
v -1030.000000 120.000000 -232.527420
v -1370.000000 120.000000 45.000000
v -1370.000000 120.000000 -1.787156
v -1370.000000 120.000000 55.000000
v -1600.000000 160.000000 228.212845
v -1600.000000 80.000000 228.212845
v -775.000000 120.000000 -596.787170
v -1025.000000 120.000000 -346.787170
v -1025.000000 80.000000 -346.787170
v -775.000000 80.000000 -596.787170
v -175.000000 80.000000 -1196.787109
v -425.000000 120.000000 -946.787170
v -425.000000 80.000000 -946.787170
v -175.000000 120.000000 -1196.787109
v 228.212845 80.000000 -1600.000000
v 175.000000 120.000000 -1546.787109
v 175.000000 80.000000 -1546.787109
v 228.212845 160.000000 -1600.000000
v -16.787155 120.000000 -1355.000000
v 73.212845 120.000000 -1445.000000
v 83.212845 120.000000 -1455.000000
v 170.000000 120.000000 -1541.787109
v -1326.787109 120.000000 -45.000000
v -1316.787109 120.000000 -55.000000
v -1226.787109 120.000000 -145.000000
v -1216.787109 120.000000 -155.000000
v -1126.787109 120.000000 -245.000000
v -1116.787109 120.000000 -255.000000
v -1030.000000 120.000000 -341.787170
v -770.000000 120.000000 -601.787170
v -726.787170 120.000000 -645.000000
v -716.787170 120.000000 -655.000000
v -626.787170 120.000000 -745.000000
v -616.787170 120.000000 -755.000000
v -526.787170 120.000000 -845.000000
v -516.787170 120.000000 -855.000000
v -430.000000 120.000000 -941.787170
v -170.000000 120.000000 -1201.787109
v -126.787155 120.000000 -1245.000000
v -116.787155 120.000000 -1255.000000
v -26.787155 120.000000 -1345.000000
v -1370.000000 80.000000 114.543648
v -1600.000000 80.000000 344.543640
v -1370.000000 80.000000 55.000000
v -1310.456299 80.000000 55.000000
v -1370.000000 80.000000 45.000000
v -1300.456299 80.000000 45.000000
v -1370.000000 80.000000 -8.858223
v -1600.000000 80.000000 221.141769
v -800.000000 160.000000 -455.456360
v -1600.000000 160.000000 344.543640
v -800.000000 160.000000 -508.147552
v -805.000000 160.000000 -510.218628
v -508.147552 160.000000 -800.000000
v -510.218628 160.000000 -805.000000
v -457.527405 160.000000 -805.000000
v -455.456360 160.000000 -800.000000
v 337.472595 160.000000 -1600.000000
v 344.543640 160.000000 -1600.000000
v -805.000000 80.000000 -510.218628
v -1030.000000 80.000000 -245.000000
v -1030.000000 80.000000 -225.456345
v -1030.000000 80.000000 -255.000000
v -1123.858276 80.000000 -255.000000
v -1033.858276 80.000000 -345.000000
v -1030.000000 80.000000 -345.000000
v -800.000000 80.000000 -455.456360
v -800.000000 80.000000 -508.147552
v -775.000000 80.000000 -540.218628
v -770.000000 80.000000 -538.147522
v -770.000000 80.000000 -545.000000
v -770.000000 80.000000 -555.000000
v -763.147522 80.000000 -545.000000
v -753.147522 80.000000 -555.000000
v -1133.858276 80.000000 -245.000000
v -770.000000 80.000000 -608.858215
v -1030.000000 120.000000 -255.000000
v -1030.000000 120.000000 -245.000000
v -1100.456299 120.000000 -155.000000
v -1030.000000 120.000000 -225.456345
v -1200.456299 120.000000 -55.000000
v -1110.456299 120.000000 -145.000000
v -1300.456299 120.000000 45.000000
v -1210.456299 120.000000 -45.000000
v -1310.456299 120.000000 55.000000
v -1370.000000 120.000000 114.543648
v -1370.000000 120.000000 -8.858223
v -170.000000 120.000000 -1155.000000
v -170.000000 120.000000 -1092.527466
v -175.000000 120.000000 -1087.527466
v -170.000000 120.000000 -1145.000000
v -117.527420 120.000000 -1145.000000
v -107.527420 120.000000 -1155.000000
v -170.000000 120.000000 -1208.858276
v -133.858231 120.000000 -1245.000000
v -17.527420 120.000000 -1245.000000
v -7.527420 120.000000 -1255.000000
v -123.858223 120.000000 -1255.000000
v -33.858223 120.000000 -1345.000000
v 82.472580 120.000000 -1345.000000
v 92.472580 120.000000 -1355.000000
v -23.858223 120.000000 -1355.000000
v 66.141777 120.000000 -1445.000000
v 170.000000 120.000000 -1455.000000
v 170.000000 120.000000 -1445.000000
v 175.000000 120.000000 -1437.527466
v 170.000000 120.000000 -1432.527466
v 76.141777 120.000000 -1455.000000
v 166.141769 120.000000 -1545.000000
v 170.000000 120.000000 -1545.000000
v 175.000000 80.000000 -1437.527466
v 170.000000 80.000000 -1445.000000
v 170.000000 80.000000 -1425.456299
v 170.000000 80.000000 -1455.000000
v 76.141777 80.000000 -1455.000000
v 170.000000 80.000000 -1545.000000
v 166.141769 80.000000 -1545.000000
v 221.141769 80.000000 -1600.000000
v 344.543640 80.000000 -1600.000000
v 337.472595 80.000000 -1600.000000
v 66.141777 80.000000 -1445.000000
v 221.141769 160.000000 -1600.000000
v -1600.000000 160.000000 221.141769
v -1333.858276 120.000000 -45.000000
v -1323.858276 120.000000 -55.000000
v -1233.858276 120.000000 -145.000000
v -1223.858276 120.000000 -155.000000
v -1133.858276 120.000000 -245.000000
v -1033.858276 120.000000 -345.000000
v -1030.000000 120.000000 -345.000000
v -1123.858276 120.000000 -255.000000
v -775.000000 120.000000 -540.218628
v -760.218628 120.000000 -555.000000
v -770.000000 120.000000 -555.000000
v -733.858215 120.000000 -645.000000
v -770.000000 120.000000 -608.858215
v -670.218628 120.000000 -645.000000
v -660.218628 120.000000 -655.000000
v -723.858215 120.000000 -655.000000
v -633.858215 120.000000 -745.000000
v -570.218628 120.000000 -745.000000
v -560.218628 120.000000 -755.000000
v -623.858215 120.000000 -755.000000
v -533.858215 120.000000 -845.000000
v -430.000000 120.000000 -855.000000
v -430.000000 120.000000 -845.000000
v -425.000000 120.000000 -837.527405
v -430.000000 120.000000 -832.527405
v -523.858215 120.000000 -855.000000
v -433.858215 120.000000 -945.000000
v -430.000000 120.000000 -945.000000
v -425.000000 80.000000 -837.527405
v -430.000000 80.000000 -845.000000
v -430.000000 80.000000 -825.456360
v -430.000000 80.000000 -855.000000
v -523.858215 80.000000 -855.000000
v -433.858215 80.000000 -945.000000
v -430.000000 80.000000 -945.000000
v -170.000000 80.000000 -1085.456299
v -170.000000 80.000000 -1145.000000
v -175.000000 80.000000 -1087.527466
v -110.456352 80.000000 -1145.000000
v -170.000000 80.000000 -1155.000000
v -100.456352 80.000000 -1155.000000
v -533.858215 80.000000 -845.000000
v -170.000000 80.000000 -1208.858276
v -23.858223 80.000000 -1355.000000
v -33.858223 80.000000 -1345.000000
v -123.858223 80.000000 -1255.000000
v -133.858231 80.000000 -1245.000000
v -623.858215 80.000000 -755.000000
v -633.858215 80.000000 -745.000000
v -723.858215 80.000000 -655.000000
v -733.858215 80.000000 -645.000000
v -1223.858276 80.000000 -155.000000
v -1233.858276 80.000000 -145.000000
v -1323.858276 80.000000 -55.000000
v -1333.858276 80.000000 -45.000000
v -1210.456299 80.000000 -45.000000
v -1200.456299 80.000000 -55.000000
v -1110.456299 80.000000 -145.000000
v -1100.456299 80.000000 -155.000000
v -510.218628 120.000000 -805.000000
v -457.527405 120.000000 -805.000000
v -455.456360 120.000000 -800.000000
v -430.000000 120.000000 -825.456360
v -170.000000 120.000000 -1085.456299
v -110.456352 120.000000 -1145.000000
v -100.456352 120.000000 -1155.000000
v -10.456351 120.000000 -1245.000000
v -10.456351 80.000000 -1245.000000
v -0.456352 80.000000 -1255.000000
v -0.456352 120.000000 -1255.000000
v 99.543648 120.000000 -1355.000000
v 89.543648 120.000000 -1345.000000
v 89.543648 80.000000 -1345.000000
v 99.543648 80.000000 -1355.000000
v 170.000000 120.000000 -1425.456299
v -508.147552 120.000000 -800.000000
v -770.000000 120.000000 -538.147522
v -763.147522 120.000000 -545.000000
v -753.147522 120.000000 -555.000000
v -663.147522 120.000000 -645.000000
v -663.147522 80.000000 -645.000000
v -653.147522 80.000000 -655.000000
v -653.147522 120.000000 -655.000000
v -563.147522 120.000000 -745.000000
v -563.147522 80.000000 -745.000000
v -553.147522 80.000000 -755.000000
v -553.147522 120.000000 -755.000000
v -770.000000 120.000000 -545.000000
vn -1.0000 -0.0000 -0.0000
vn -0.7071 -0.0000 -0.7071
vn -0.7071 0.0001 -0.7071
vn -0.0000 1.0000 -0.0000
vn 0.7071 -0.0000 0.7071
vn 0.7071 -0.0004 0.7071
vn -0.0000 -1.0000 -0.0000
vn 1.0000 -0.0000 -0.0000
vn -0.0000 -0.0000 -1.0000
vn -0.0000 -0.0000 1.0000
vn -0.7071 -0.0002 -0.7071
s 0
f 1//1 2//1 3//1
f 1//1 3//1 4//1
f 6//2 5//2 3//2
f 2//2 6//2 3//2
f 9//2 8//2 7//2
f 7//2 8//2 10//2
f 3//2 5//2 10//2
f 11//3 3//3 10//3
f 12//2 11//2 10//2
f 13//2 12//2 10//2
f 14//2 13//2 10//2
f 15//2 14//2 10//2
f 16//2 15//2 10//2
f 17//2 16//2 10//2
f 18//2 17//2 10//2
f 8//3 18//3 10//3
f 20//4 4//4 19//4
f 13//4 19//4 12//4
f 19//4 21//4 12//4
f 11//4 21//4 3//4
f 19//4 4//4 3//4
f 21//4 19//4 3//4
f 4//5 22//5 23//5
f 4//5 23//5 1//5
f 20//5 22//5 4//5
f 24//5 25//5 26//5
f 24//5 26//5 27//5
f 28//5 29//5 30//5
f 31//5 29//5 28//5
f 32//5 33//5 34//5
f 35//5 36//5 37//5
f 35//5 37//5 38//5
f 35//5 38//5 39//5
f 35//5 39//5 33//5
f 35//5 33//5 32//5
f 35//5 22//5 20//5
f 35//5 20//5 40//5
f 35//5 40//5 41//5
f 35//5 41//5 42//5
f 35//5 42//5 43//5
f 35//5 43//5 44//5
f 35//5 44//5 45//5
f 35//5 45//5 46//5
f 35//6 46//6 25//6
f 35//5 25//5 24//5
f 35//6 24//6 47//6
f 35//5 47//5 48//5
f 35//5 48//5 49//5
f 35//5 49//5 50//5
f 35//5 50//5 51//5
f 35//5 51//5 52//5
f 35//5 52//5 53//5
f 35//5 53//5 54//5
f 35//5 54//5 29//5
f 35//5 29//5 31//5
f 35//5 31//5 55//5
f 35//5 55//5 56//5
f 35//5 56//5 57//5
f 35//5 57//5 58//5
f 35//5 58//5 36//5
f 60//7 6//7 59//7
f 59//7 2//7 61//7
f 61//7 63//7 62//7
f 62//7 63//7 64//7
f 1//7 66//7 65//7
f 66//7 1//7 23//7
f 61//7 2//7 1//7
f 63//7 61//7 1//7
f 65//7 63//7 1//7
f 59//7 6//7 2//7
f 67//4 10//4 5//4
f 67//4 5//4 68//4
f 69//4 70//4 10//4
f 69//4 10//4 67//4
f 71//4 70//4 69//4
f 72//4 70//4 71//4
f 73//4 71//4 74//4
f 73//4 72//4 71//4
f 75//4 73//4 74//4
f 76//4 75//4 74//4
f 77//1 7//1 10//1
f 77//1 10//1 70//1
f 9//7 79//7 78//7
f 78//7 81//7 80//7
f 9//7 78//7 80//7
f 83//7 82//7 26//7
f 80//7 83//7 26//7
f 9//7 80//7 26//7
f 79//7 9//7 84//7
f 7//7 77//7 85//7
f 84//7 7//7 85//7
f 85//7 77//7 86//7
f 85//7 86//7 87//7
f 87//7 86//7 88//7
f 90//7 88//7 89//7
f 88//7 86//7 89//7
f 90//7 89//7 91//7
f 26//7 82//7 27//7
f 81//7 78//7 92//7
f 27//7 93//7 89//7
f 27//7 82//7 93//7
f 84//7 9//7 7//7
f 89//7 86//7 27//7
f 9//8 26//8 25//8
f 9//8 25//8 8//8
f 25//4 46//4 94//4
f 94//4 45//4 95//4
f 94//4 95//4 8//4
f 8//4 95//4 18//4
f 94//4 8//4 25//4
f 45//4 44//4 95//4
f 96//7 17//7 18//7
f 97//7 96//7 18//7
f 17//4 43//4 16//4
f 43//4 42//4 16//4
f 98//7 15//7 16//7
f 99//7 98//7 16//7
f 41//4 40//4 14//4
f 41//4 14//4 15//4
f 100//7 13//7 14//7
f 101//7 100//7 14//7
f 102//7 11//7 12//7
f 103//7 11//7 102//7
f 6//1 60//1 5//1
f 5//1 60//1 68//1
f 13//9 100//9 64//9
f 19//9 13//9 63//9
f 13//9 64//9 63//9
f 19//8 63//8 20//8
f 104//8 20//8 65//8
f 20//8 63//8 65//8
f 11//8 103//8 59//8
f 21//8 11//8 61//8
f 11//8 59//8 61//8
f 62//10 102//10 12//10
f 61//10 12//10 21//10
f 61//10 62//10 12//10
f 55//4 31//4 105//4
f 108//4 107//4 106//4
f 105//4 108//4 109//4
f 105//4 109//4 110//4
f 105//4 31//4 107//4
f 108//4 105//4 107//4
f 55//7 111//7 112//7
f 56//7 55//7 112//7
f 57//4 56//4 113//4
f 57//4 113//4 114//4
f 57//7 115//7 116//7
f 58//7 57//7 116//7
f 36//4 58//4 117//4
f 36//4 117//4 118//4
f 36//7 119//7 120//7
f 37//7 36//7 120//7
f 33//4 39//4 121//4
f 121//4 38//4 122//4
f 122//4 124//4 123//4
f 121//4 122//4 123//4
f 38//4 37//4 122//4
f 121//4 123//4 33//4
f 38//7 125//7 126//7
f 39//7 126//7 127//7
f 39//7 38//7 126//7
f 123//8 34//8 33//8
f 128//8 34//8 123//8
f 128//7 130//7 129//7
f 129//7 132//7 131//7
f 128//7 129//7 131//7
f 131//7 133//7 34//7
f 133//7 134//7 34//7
f 34//7 134//7 135//7
f 34//7 135//7 32//7
f 128//7 137//7 136//7
f 130//7 128//7 136//7
f 132//7 129//7 138//7
f 131//7 34//7 128//7
f 139//9 32//9 135//9
f 35//9 32//9 139//9
f 139//4 140//4 22//4
f 35//4 139//4 22//4
f 66//1 23//1 22//1
f 140//1 66//1 22//1
f 20//7 104//7 141//7
f 40//7 20//7 141//7
f 41//7 142//7 143//7
f 42//7 41//7 143//7
f 43//7 144//7 145//7
f 44//7 43//7 145//7
f 46//7 146//7 147//7
f 45//7 148//7 146//7
f 45//7 146//7 46//7
f 24//1 86//1 149//1
f 27//1 86//1 24//1
f 151//4 149//4 150//4
f 24//4 151//4 47//4
f 151//4 24//4 149//4
f 47//7 152//7 48//7
f 47//7 153//7 152//7
f 49//4 48//4 154//4
f 155//4 49//4 154//4
f 49//7 156//7 157//7
f 50//7 49//7 157//7
f 51//4 50//4 158//4
f 159//4 51//4 158//4
f 51//7 160//7 161//7
f 52//7 51//7 161//7
f 29//4 54//4 162//4
f 162//4 53//4 163//4
f 163//4 165//4 164//4
f 162//4 163//4 164//4
f 162//4 164//4 29//4
f 53//4 52//4 163//4
f 53//7 166//7 167//7
f 54//7 167//7 168//7
f 54//7 53//7 167//7
f 169//8 29//8 164//8
f 169//8 30//8 29//8
f 169//7 171//7 170//7
f 170//7 173//7 172//7
f 169//7 170//7 172//7
f 175//7 174//7 30//7
f 172//7 175//7 30//7
f 169//7 172//7 30//7
f 171//7 169//7 176//7
f 176//7 178//7 177//7
f 30//7 174//7 28//7
f 177//7 180//7 179//7
f 179//7 180//7 181//7
f 173//7 170//7 182//7
f 28//7 183//7 180//7
f 177//7 28//7 180//7
f 178//7 28//7 177//7
f 28//7 174//7 183//7
f 176//7 169//7 178//7
f 31//1 178//1 107//1
f 28//1 178//1 31//1
f 126//2 139//2 135//2
f 126//2 135//2 134//2
f 125//2 132//2 138//2
f 125//2 139//2 126//2
f 120//2 139//2 125//2
f 120//2 125//2 138//2
f 119//2 139//2 120//2
f 116//2 119//2 184//2
f 116//2 184//2 185//2
f 112//2 115//2 186//2
f 112//2 186//2 187//2
f 174//2 111//2 183//2
f 167//2 111//2 174//2
f 166//2 173//2 182//2
f 161//2 166//2 182//2
f 157//2 160//2 188//2
f 157//2 188//2 189//2
f 152//2 156//2 190//2
f 152//2 190//2 191//2
f 82//2 153//2 93//2
f 146//2 153//2 82//2
f 145//2 148//2 81//2
f 145//2 81//2 92//2
f 143//2 144//2 192//2
f 143//2 192//2 193//2
f 141//2 142//2 194//2
f 141//2 194//2 195//2
f 66//2 104//2 65//2
f 140//2 104//2 66//2
f 140//2 139//2 119//2
f 140//2 119//2 116//2
f 140//2 116//2 115//2
f 140//11 115//11 112//11
f 140//3 112//3 111//3
f 140//2 111//2 167//2
f 140//2 167//2 166//2
f 140//2 166//2 161//2
f 140//2 161//2 160//2
f 140//2 160//2 157//2
f 140//2 157//2 156//2
f 140//2 156//2 152//2
f 140//2 152//2 153//2
f 140//2 153//2 146//2
f 140//2 146//2 148//2
f 140//2 148//2 145//2
f 140//2 145//2 144//2
f 140//2 144//2 143//2
f 140//2 143//2 142//2
f 140//2 142//2 141//2
f 140//2 141//2 104//2
f 103//5 68//5 60//5
f 103//5 60//5 59//5
f 100//5 102//5 62//5
f 100//5 62//5 64//5
f 101//5 196//5 197//5
f 98//5 101//5 197//5
f 99//5 198//5 199//5
f 96//5 99//5 199//5
f 84//5 97//5 79//5
f 67//5 97//5 84//5
f 67//5 68//5 103//5
f 67//5 103//5 102//5
f 67//5 102//5 100//5
f 67//5 100//5 101//5
f 67//5 101//5 98//5
f 67//5 98//5 99//5
f 67//5 99//5 96//5
f 67//5 96//5 97//5
f 77//2 70//2 149//2
f 86//2 77//2 149//2
f 149//2 70//2 150//2
f 150//2 70//2 154//2
f 159//2 158//2 72//2
f 200//2 159//2 72//2
f 154//2 70//2 72//2
f 155//2 154//2 72//2
f 158//2 155//2 72//2
f 200//9 72//9 201//9
f 201//9 72//9 73//9
f 165//2 201//2 73//2
f 165//2 73//2 164//2
f 169//2 164//2 107//2
f 178//2 169//2 107//2
f 164//2 73//2 107//2
f 128//2 123//2 137//2
f 137//2 123//2 75//2
f 107//2 73//2 75//2
f 106//2 107//2 75//2
f 109//2 106//2 75//2
f 110//2 109//2 75//2
f 113//2 110//2 75//2
f 114//2 113//2 75//2
f 117//2 114//2 75//2
f 118//2 117//2 75//2
f 124//2 118//2 75//2
f 123//2 124//2 75//2
f 75//9 136//9 137//9
f 76//9 136//9 75//9
f 74//5 202//5 203//5
f 204//5 203//5 171//5
f 204//5 171//5 176//5
f 204//5 74//5 203//5
f 205//5 179//5 181//5
f 206//5 205//5 181//5
f 207//5 208//5 209//5
f 210//5 207//5 209//5
f 211//5 212//5 213//5
f 211//5 213//5 214//5
f 136//5 215//5 130//5
f 76//5 215//5 136//5
f 76//5 74//5 204//5
f 76//5 204//5 205//5
f 76//5 205//5 206//5
f 76//5 206//5 207//5
f 76//5 207//5 210//5
f 76//5 210//5 212//5
f 76//5 212//5 211//5
f 76//5 211//5 215//5
f 202//10 71//10 216//10
f 74//10 71//10 202//10
f 217//5 69//5 85//5
f 217//5 85//5 87//5
f 218//5 90//5 91//5
f 218//5 69//5 217//5
f 219//5 69//5 218//5
f 219//5 218//5 91//5
f 220//5 221//5 222//5
f 220//5 69//5 219//5
f 223//5 220//5 222//5
f 224//5 225//5 226//5
f 227//5 224//5 226//5
f 71//5 223//5 224//5
f 71//5 227//5 216//5
f 71//5 224//5 227//5
f 71//5 69//5 220//5
f 71//5 220//5 223//5
f 69//8 84//8 85//8
f 69//8 67//8 84//8
f 94//9 80//9 45//9
f 148//9 45//9 81//9
f 45//9 80//9 81//9
f 44//10 78//10 95//10
f 92//10 44//10 145//10
f 92//10 78//10 44//10
f 46//1 147//1 83//1
f 94//1 46//1 80//1
f 46//1 83//1 80//1
f 18//1 95//1 78//1
f 97//1 18//1 79//1
f 18//1 78//1 79//1
f 82//10 147//10 146//10
f 82//10 83//10 147//10
f 151//8 89//8 47//8
f 153//8 47//8 93//8
f 47//8 89//8 93//8
f 150//9 219//9 91//9
f 151//9 150//9 89//9
f 150//9 91//9 89//9
f 217//8 87//8 88//8
f 228//8 217//8 88//8
f 88//10 90//10 218//10
f 88//10 218//10 228//10
f 17//9 96//9 199//9
f 43//9 17//9 192//9
f 144//9 43//9 192//9
f 17//9 199//9 192//9
f 198//10 99//10 16//10
f 193//10 16//10 42//10
f 193//10 42//10 143//10
f 193//10 198//10 16//10
f 15//9 98//9 197//9
f 41//9 15//9 194//9
f 142//9 41//9 194//9
f 15//9 197//9 194//9
f 196//10 101//10 14//10
f 195//10 14//10 40//10
f 195//10 40//10 141//10
f 195//10 196//10 14//10
f 106//8 204//8 176//8
f 108//8 106//8 177//8
f 106//8 176//8 177//8
f 179//10 205//10 109//10
f 177//10 109//10 108//10
f 177//10 179//10 109//10
f 110//9 206//9 181//9
f 105//9 110//9 180//9
f 110//9 181//9 180//9
f 105//8 180//8 55//8
f 111//8 55//8 183//8
f 55//8 180//8 183//8
f 208//10 207//10 113//10
f 56//10 208//10 113//10
f 187//10 56//10 112//10
f 187//10 208//10 56//10
f 114//9 210//9 209//9
f 114//9 209//9 57//9
f 115//9 57//9 186//9
f 57//9 209//9 186//9
f 213//10 212//10 117//10
f 58//10 213//10 117//10
f 185//10 58//10 116//10
f 185//10 213//10 58//10
f 118//9 211//9 214//9
f 118//9 214//9 36//9
f 119//9 36//9 184//9
f 36//9 214//9 184//9
f 37//10 129//10 122//10
f 138//10 37//10 120//10
f 138//10 129//10 37//10
f 130//1 215//1 124//1
f 129//1 124//1 122//1
f 129//1 130//1 124//1
f 39//1 131//1 121//1
f 133//1 39//1 127//1
f 133//1 131//1 39//1
f 121//9 131//9 38//9
f 125//9 38//9 132//9
f 38//9 131//9 132//9
f 133//10 127//10 126//10
f 134//10 133//10 126//10
f 221//10 220//10 154//10
f 191//10 154//10 48//10
f 191//10 48//10 152//10
f 191//10 221//10 154//10
f 155//9 223//9 222//9
f 49//9 155//9 190//9
f 156//9 49//9 190//9
f 155//9 222//9 190//9
f 225//10 224//10 158//10
f 189//10 158//10 50//10
f 189//10 50//10 157//10
f 189//10 225//10 158//10
f 159//9 227//9 226//9
f 51//9 159//9 188//9
f 160//9 51//9 188//9
f 159//9 226//9 188//9
f 52//10 170//10 163//10
f 182//10 52//10 161//10
f 182//10 170//10 52//10
f 54//1 168//1 175//1
f 162//1 54//1 172//1
f 54//1 175//1 172//1
f 162//9 172//9 53//9
f 166//9 53//9 173//9
f 53//9 172//9 173//9
f 165//1 163//1 170//1
f 203//1 165//1 171//1
f 165//1 170//1 171//1
f 174//10 175//10 168//10
f 174//10 168//10 167//10
f 195//7 194//7 196//7
f 196//7 194//7 197//7
f 193//7 192//7 198//7
f 198//7 192//7 199//7
f 191//7 190//7 221//7
f 221//7 190//7 222//7
f 189//7 188//7 225//7
f 225//7 188//7 226//7
f 187//7 186//7 208//7
f 208//7 186//7 209//7
f 185//7 184//7 213//7
f 213//7 184//7 214//7
f 227//7 159//7 200//7
f 227//7 200//7 216//7
f 201//7 216//7 200//7
f 202//7 216//7 201//7
f 203//7 201//7 165//7
f 203//7 202//7 201//7
f 223//7 155//7 158//7
f 224//7 223//7 158//7
f 219//7 150//7 154//7
f 220//7 219//7 154//7
f 211//7 118//7 124//7
f 215//7 211//7 124//7
f 210//7 114//7 117//7
f 210//7 117//7 212//7
f 206//7 110//7 113//7
f 206//7 113//7 207//7
f 204//7 109//7 205//7
f 204//7 106//7 109//7
f 218//7 217//7 228//7
