# Blender 4.0.2
# www.blender.org
o 2c9bea4fbf2b8a0bf78e23687a8104d5a7858bd9fe98233bf28b3eaa654e46e
v -1600.000000 315.000000 -1263.782471
v -800.000000 280.000000 -463.782471
v -800.000000 315.000000 -463.782471
v -1600.000000 280.000000 -1263.782471
v -1600.000000 280.000000 -1193.071777
v -800.000000 280.000000 -393.071777
v -1600.000000 315.000000 -1193.071777
v -800.000000 315.000000 -393.071777
vn 0.7071 -0.0000 -0.7071
vn -0.0000 -1.0000 -0.0000
vn -1.0000 -0.0000 -0.0000
vn -0.0000 1.0000 -0.0000
vn 1.0000 -0.0000 -0.0000
vn -0.7071 -0.0000 0.7071
s 0
f 3//1 2//1 1//1
f 1//1 2//1 4//1
f 5//2 4//2 2//2
f 6//2 5//2 2//2
f 1//3 4//3 5//3
f 1//3 5//3 7//3
f 3//4 1//4 7//4
f 3//4 7//4 8//4
f 6//5 2//5 3//5
f 8//5 6//5 3//5
f 7//6 5//6 8//6
f 8//6 5//6 6//6
