# Blender 4.0.2
# www.blender.org
o 3a6422640ff6b81a32b06d3c1de534b8e04cd909206a5f17c3767f3f96a02c3
v 362.563141 160.000000 1600.000000
v 344.543640 160.000000 1600.000000
v 344.543640 80.000000 1600.000000
v 362.563141 80.000000 1600.000000
v 430.000000 120.000000 1514.543701
v 430.000000 80.000000 1514.543701
v 489.543640 120.000000 1455.000000
v 489.543640 80.000000 1455.000000
v 499.543640 80.000000 1445.000000
v 499.543640 120.000000 1445.000000
v 589.543640 120.000000 1355.000000
v 589.543640 80.000000 1355.000000
v 599.543640 80.000000 1345.000000
v 599.543640 120.000000 1345.000000
v 689.543640 120.000000 1255.000000
v 689.543640 80.000000 1255.000000
v 699.543640 80.000000 1245.000000
v 699.543640 120.000000 1245.000000
v 1030.000000 120.000000 914.543640
v 770.000000 120.000000 1174.543701
v 770.000000 80.000000 1174.543701
v 1030.000000 80.000000 914.543640
v 1089.543701 120.000000 855.000000
v 1089.543701 80.000000 855.000000
v 1099.543701 80.000000 845.000000
v 1099.543701 120.000000 845.000000
v 1199.543701 120.000000 745.000000
v 1189.543701 120.000000 755.000000
v 1189.543701 80.000000 755.000000
v 1199.543701 80.000000 745.000000
v 1299.543701 120.000000 645.000000
v 1289.543701 120.000000 655.000000
v 1289.543701 80.000000 655.000000
v 1299.543701 80.000000 645.000000
v 1600.000000 80.000000 344.543640
v 1370.000000 120.000000 574.543640
v 1370.000000 80.000000 574.543640
v 1600.000000 160.000000 344.543640
v 430.000000 80.000000 1532.563110
v 430.000000 120.000000 1532.563110
v 507.563141 120.000000 1455.000000
v 507.563141 80.000000 1455.000000
v 517.563110 80.000000 1445.000000
v 517.563110 120.000000 1445.000000
v 607.563110 120.000000 1355.000000
v 617.563110 120.000000 1345.000000
v 607.563110 80.000000 1355.000000
v 617.563110 80.000000 1345.000000
v 707.563110 120.000000 1255.000000
v 707.563110 80.000000 1255.000000
v 717.563110 80.000000 1245.000000
v 717.563110 120.000000 1245.000000
v 1030.000000 120.000000 932.563110
v 770.000000 120.000000 1192.563110
v 770.000000 80.000000 1192.563110
v 1030.000000 80.000000 932.563110
v 1107.563110 120.000000 855.000000
v 1107.563110 80.000000 855.000000
v 1117.563110 80.000000 845.000000
v 1117.563110 120.000000 845.000000
v 1217.563110 120.000000 745.000000
v 1207.563110 120.000000 755.000000
v 1207.563110 80.000000 755.000000
v 1217.563110 80.000000 745.000000
v 1307.563110 120.000000 655.000000
v 1307.563110 80.000000 655.000000
v 1317.563110 80.000000 645.000000
v 1317.563110 120.000000 645.000000
v 1600.000000 80.000000 362.563141
v 1370.000000 120.000000 592.563110
v 1370.000000 80.000000 592.563110
v 1600.000000 160.000000 362.563141
vn -0.0000 -0.0000 1.0000
vn -0.7071 -0.0000 -0.7071
vn -0.0000 -1.0000 -0.0000
vn 0.7071 -0.0000 0.7071
vn -0.0000 1.0000 -0.0000
vn 1.0000 -0.0000 -0.0000
vn -1.0000 -0.0000 -0.0000
vn -0.0000 -0.0000 -1.0000
s 0
f 1//1 2//1 3//1
f 1//1 3//1 4//1
f 3//2 2//2 5//2
f 6//2 3//2 5//2
f 9//2 8//2 7//2
f 5//2 2//2 7//2
f 9//2 7//2 10//2
f 7//2 2//2 10//2
f 13//2 12//2 11//2
f 10//2 2//2 11//2
f 13//2 11//2 14//2
f 17//2 16//2 15//2
f 17//2 15//2 18//2
f 21//2 20//2 19//2
f 22//2 21//2 19//2
f 25//2 24//2 23//2
f 25//2 23//2 26//2
f 29//2 28//2 27//2
f 30//2 29//2 27//2
f 33//2 32//2 31//2
f 34//2 33//2 31//2
f 37//2 36//2 35//2
f 35//2 36//2 38//2
f 11//2 2//2 38//2
f 14//2 11//2 38//2
f 15//2 14//2 38//2
f 18//2 15//2 38//2
f 20//2 18//2 38//2
f 19//2 20//2 38//2
f 23//2 19//2 38//2
f 26//2 23//2 38//2
f 28//2 26//2 38//2
f 27//2 28//2 38//2
f 32//2 27//2 38//2
f 31//2 32//2 38//2
f 36//2 31//2 38//2
f 4//3 3//3 6//3
f 39//3 4//3 6//3
f 40//4 1//4 4//4
f 40//4 4//4 39//4
f 41//4 42//4 43//4
f 41//4 1//4 40//4
f 44//4 41//4 43//4
f 44//4 1//4 41//4
f 45//4 1//4 44//4
f 46//4 45//4 47//4
f 46//4 47//4 48//4
f 49//4 50//4 51//4
f 52//4 49//4 51//4
f 53//4 54//4 55//4
f 53//4 55//4 56//4
f 57//4 58//4 59//4
f 60//4 57//4 59//4
f 61//4 62//4 63//4
f 61//4 63//4 64//4
f 65//4 66//4 67//4
f 68//4 65//4 67//4
f 69//4 70//4 71//4
f 72//4 70//4 69//4
f 72//4 1//4 45//4
f 72//4 45//4 46//4
f 72//4 46//4 49//4
f 72//4 49//4 52//4
f 72//4 52//4 54//4
f 72//4 54//4 53//4
f 72//4 53//4 57//4
f 72//4 57//4 60//4
f 72//4 60//4 62//4
f 72//4 62//4 61//4
f 72//4 61//4 65//4
f 72//4 65//4 68//4
f 72//4 68//4 70//4
f 38//5 2//5 1//5
f 38//5 1//5 72//5
f 38//6 69//6 35//6
f 38//6 72//6 69//6
f 71//3 37//3 69//3
f 69//3 37//3 35//3
f 71//7 70//7 36//7
f 37//7 71//7 36//7
f 36//3 70//3 68//3
f 36//3 68//3 31//3
f 67//8 31//8 68//8
f 67//8 34//8 31//8
f 66//3 33//3 34//3
f 66//3 34//3 67//3
f 65//1 32//1 66//1
f 32//1 33//1 66//1
f 32//3 65//3 61//3
f 32//3 61//3 27//3
f 64//8 27//8 61//8
f 64//8 30//8 27//8
f 63//3 29//3 30//3
f 63//3 30//3 64//3
f 62//1 28//1 63//1
f 28//1 29//1 63//1
f 28//3 62//3 60//3
f 28//3 60//3 26//3
f 59//8 26//8 60//8
f 59//8 25//8 26//8
f 58//3 24//3 25//3
f 58//3 25//3 59//3
f 57//1 23//1 58//1
f 23//1 24//1 58//1
f 23//3 57//3 19//3
f 19//3 57//3 53//3
f 56//6 22//6 19//6
f 56//6 19//6 53//6
f 55//3 21//3 56//3
f 56//3 21//3 22//3
f 55//7 54//7 20//7
f 21//7 55//7 20//7
f 54//3 52//3 18//3
f 20//3 54//3 18//3
f 17//8 18//8 52//8
f 51//8 17//8 52//8
f 50//3 16//3 17//3
f 50//3 17//3 51//3
f 49//1 15//1 16//1
f 49//1 16//1 50//1
f 15//3 49//3 46//3
f 15//3 46//3 14//3
f 13//8 14//8 46//8
f 48//8 13//8 46//8
f 47//3 12//3 13//3
f 47//3 13//3 48//3
f 45//1 11//1 12//1
f 45//1 12//1 47//1
f 11//3 45//3 44//3
f 11//3 44//3 10//3
f 9//8 10//8 44//8
f 43//8 9//8 44//8
f 42//3 8//3 9//3
f 42//3 9//3 43//3
f 41//1 7//1 8//1
f 41//1 8//1 42//1
f 7//3 41//3 5//3
f 5//3 41//3 40//3
f 39//6 6//6 5//6
f 39//6 5//6 40//6
