# Blender 4.0.2
# www.blender.org
o 3e4b6f69ded9b9adb40e5d5f0c0c0f5e4c7daabefbef1dc31896be7bce7dd40
v 1030.000000 120.000000 1555.000000
v 1030.000000 80.000000 1600.000000
v 1030.000000 120.000000 1600.000000
v 1030.000000 80.000000 1555.000000
v 1370.000000 80.000000 1555.000000
v 1370.000000 120.000000 1555.000000
v 1350.000000 120.000000 1575.000000
v 1370.000000 120.000000 1600.000000
v 1350.000000 120.000000 1600.000000
v 1050.000000 120.000000 1575.000000
v 1050.000000 120.000000 1600.000000
v 1050.000000 80.000000 1600.000000
v 1050.000000 80.000000 1575.000000
v 1350.000000 80.000000 1575.000000
v 1350.000000 80.000000 1600.000000
v 1370.000000 80.000000 1600.000000
vn -1.0000 -0.0000 -0.0000
vn -0.0000 -0.0000 -1.0000
vn -0.0000 1.0000 -0.0000
vn -0.0000 -0.0000 1.0000
vn -0.0000 -1.0000 -0.0000
vn 1.0000 -0.0000 -0.0000
s 0
f 1//1 2//1 3//1
f 4//1 2//1 1//1
f 5//2 4//2 1//2
f 5//2 1//2 6//2
f 9//3 8//3 7//3
f 7//3 8//3 6//3
f 3//3 11//3 10//3
f 3//3 10//3 1//3
f 7//3 6//3 1//3
f 10//3 7//3 1//3
f 2//4 12//4 11//4
f 3//4 2//4 11//4
f 12//5 2//5 13//5
f 13//5 2//5 4//5
f 16//5 15//5 14//5
f 16//5 14//5 5//5
f 13//5 4//5 5//5
f 14//5 13//5 5//5
f 8//6 5//6 6//6
f 16//6 5//6 8//6
f 12//6 13//6 10//6
f 12//6 10//6 11//6
f 13//4 14//4 7//4
f 13//4 7//4 10//4
f 14//1 15//1 9//1
f 14//1 9//1 7//1
f 9//4 15//4 8//4
f 15//4 16//4 8//4
