# Blender 4.0.2
# www.blender.org
o 54866a1f11b52a7b4ab008ff30fe20b778ae51a6c0601986cc30fccc239aaa7
v 344.543640 315.000000 1600.000000
v -455.456360 280.000000 800.000000
v -455.456360 315.000000 800.000000
v 344.543640 280.000000 1600.000000
v -384.745667 280.000000 800.000000
v 415.254333 280.000000 1600.000000
v 415.254333 315.000000 1600.000000
v -384.745667 315.000000 800.000000
vn -0.7071 -0.0000 0.7071
vn -0.0000 -1.0000 -0.0000
vn -0.0000 -0.0000 1.0000
vn -0.0000 1.0000 -0.0000
vn -0.0000 -0.0000 -1.0000
vn 0.7071 -0.0000 -0.7071
s 0
f 3//1 2//1 1//1
f 1//1 2//1 4//1
f 4//2 2//2 5//2
f 4//2 5//2 6//2
f 4//3 6//3 7//3
f 1//3 4//3 7//3
f 8//4 3//4 1//4
f 7//4 8//4 1//4
f 8//5 5//5 2//5
f 8//5 2//5 3//5
f 7//6 6//6 8//6
f 8//6 6//6 5//6
