# Blender 4.0.2
# www.blender.org
o 565d9f214c4c040ea0d80254d597bc56565c0b55199ce2850532c451db09017
v -1600.000000 160.000000 -1493.933960
v -1600.000000 160.000000 -1475.914551
v -1600.000000 80.000000 -1475.914551
v -1600.000000 80.000000 -1493.933960
v -1475.914551 160.000000 -1600.000000
v -1475.914551 80.000000 -1600.000000
v -1493.933960 160.000000 -1600.000000
v -1493.933960 80.000000 -1600.000000
vn -1.0000 -0.0000 -0.0000
vn 0.7071 -0.0000 0.7071
vn -0.7071 -0.0000 -0.7071
vn -0.0000 -1.0000 -0.0000
vn -0.0000 -0.0000 -1.0000
vn -0.0000 1.0000 -0.0000
s 0
f 3//1 2//1 1//1
f 4//1 3//1 1//1
f 6//2 5//2 3//2
f 3//2 5//2 2//2
f 8//3 4//3 7//3
f 4//3 1//3 7//3
f 3//4 4//4 8//4
f 3//4 8//4 6//4
f 6//5 8//5 5//5
f 8//5 7//5 5//5
f 7//6 1//6 2//6
f 5//6 7//6 2//6
