# Blender 4.0.2
# www.blender.org
o 764718ad80dbe02f607e2da7bbf959c86a83a0f45687b7e9c46fdff6189d033
v -1375.000000 80.000000 -703.893921
v -1375.000000 80.000000 -594.634216
v -1375.000000 120.000000 -594.634216
v -1375.000000 120.000000 -703.893921
v -1600.000000 160.000000 -369.634186
v -1600.000000 80.000000 -369.634186
v -775.000000 80.000000 -1194.634155
v -1025.000000 120.000000 -944.634216
v -1025.000000 80.000000 -944.634216
v -775.000000 120.000000 -1194.634155
v -369.634186 80.000000 -1600.000000
v -425.000000 120.000000 -1544.634155
v -425.000000 80.000000 -1544.634155
v -369.634186 160.000000 -1600.000000
v -614.634216 120.000000 -1355.000000
v -524.634216 120.000000 -1445.000000
v -514.634216 120.000000 -1455.000000
v -430.000000 120.000000 -1539.634155
v -1370.000000 120.000000 -599.634216
v -1324.634155 120.000000 -645.000000
v -1314.634155 120.000000 -655.000000
v -1224.634155 120.000000 -745.000000
v -1214.634155 120.000000 -755.000000
v -1124.634155 120.000000 -845.000000
v -1114.634155 120.000000 -855.000000
v -1030.000000 120.000000 -939.634216
v -770.000000 120.000000 -1199.634155
v -724.634216 120.000000 -1245.000000
v -714.634216 120.000000 -1255.000000
v -624.634216 120.000000 -1345.000000
v -1370.000000 120.000000 -655.000000
v -1370.000000 120.000000 -708.893921
v -1370.000000 120.000000 -645.000000
v -523.893921 120.000000 -1555.000000
v -478.893951 160.000000 -1600.000000
v -478.893951 120.000000 -1600.000000
v -533.893921 120.000000 -1545.000000
v -623.893921 120.000000 -1455.000000
v -633.893921 120.000000 -1445.000000
v -1025.000000 120.000000 -1053.893921
v -775.000000 120.000000 -1303.893921
v -775.000000 80.000000 -1303.893921
v -1025.000000 80.000000 -1053.893921
v -1600.000000 80.000000 -478.893951
v -1600.000000 160.000000 -478.893951
v -723.893921 120.000000 -1355.000000
v -733.893921 120.000000 -1345.000000
v -770.000000 120.000000 -1308.893921
v -1033.893921 120.000000 -1045.000000
v -1123.893921 120.000000 -955.000000
v -1133.893921 120.000000 -945.000000
v -1223.893921 120.000000 -855.000000
v -1233.893921 120.000000 -845.000000
v -1323.893921 120.000000 -755.000000
v -1333.893921 120.000000 -745.000000
v -1370.000000 80.000000 -592.563110
v -1600.000000 80.000000 -362.563141
v -1370.000000 80.000000 -645.000000
v -1317.563110 80.000000 -645.000000
v -1370.000000 80.000000 -655.000000
v -1307.563110 80.000000 -655.000000
v -1370.000000 80.000000 -715.965027
v -1600.000000 80.000000 -485.964996
v -1600.000000 160.000000 -362.563141
v -362.563141 160.000000 -1600.000000
v -362.563141 80.000000 -1600.000000
v -430.000000 80.000000 -1545.000000
v -430.000000 80.000000 -1532.563110
v -430.000000 80.000000 -1555.000000
v -530.965027 80.000000 -1555.000000
v -425.000000 80.000000 -1600.000000
v -430.000000 80.000000 -1600.000000
v -540.965027 80.000000 -1545.000000
v -425.000000 120.000000 -1600.000000
v -430.000000 120.000000 -1555.000000
v -430.000000 120.000000 -1600.000000
v -430.000000 120.000000 -1545.000000
v -507.563141 120.000000 -1455.000000
v -430.000000 120.000000 -1532.563110
v -607.563110 120.000000 -1355.000000
v -517.563110 120.000000 -1445.000000
v -707.563110 120.000000 -1255.000000
v -617.563110 120.000000 -1345.000000
v -770.000000 120.000000 -1255.000000
v -770.000000 120.000000 -1245.000000
v -770.000000 120.000000 -1192.563110
v -717.563110 120.000000 -1245.000000
v -1030.000000 80.000000 -945.000000
v -1030.000000 80.000000 -932.563110
v -1030.000000 80.000000 -955.000000
v -1130.964966 80.000000 -955.000000
v -1030.964966 80.000000 -1055.000000
v -1040.964966 80.000000 -1045.000000
v -1030.000000 80.000000 -1045.000000
v -1030.000000 80.000000 -1055.000000
v -1030.000000 80.000000 -1055.964966
v -770.000000 80.000000 -1192.563110
v -770.000000 80.000000 -1245.000000
v -717.563110 80.000000 -1245.000000
v -770.000000 80.000000 -1255.000000
v -707.563110 80.000000 -1255.000000
v -1140.964966 80.000000 -945.000000
v -770.000000 80.000000 -1315.964966
v -1030.000000 120.000000 -1045.000000
v -1030.000000 120.000000 -955.000000
v -1030.000000 120.000000 -945.000000
v -1107.563110 120.000000 -855.000000
v -1030.000000 120.000000 -932.563110
v -1207.563110 120.000000 -755.000000
v -1117.563110 120.000000 -845.000000
v -1307.563110 120.000000 -655.000000
v -1217.563110 120.000000 -745.000000
v -1317.563110 120.000000 -645.000000
v -1370.000000 120.000000 -592.563110
v -1370.000000 120.000000 -715.965027
v -1340.964966 120.000000 -745.000000
v -1240.964966 120.000000 -845.000000
v -1330.964966 120.000000 -755.000000
v -1230.964966 120.000000 -855.000000
v -1140.964966 120.000000 -945.000000
v -1040.964966 120.000000 -1045.000000
v -1130.964966 120.000000 -955.000000
v -770.000000 120.000000 -1315.964966
v -740.965027 120.000000 -1345.000000
v -640.965027 120.000000 -1445.000000
v -730.965027 120.000000 -1355.000000
v -630.965027 120.000000 -1455.000000
v -540.965027 120.000000 -1545.000000
v -485.964996 120.000000 -1600.000000
v -530.965027 120.000000 -1555.000000
v -485.964996 160.000000 -1600.000000
v -1600.000000 160.000000 -485.964996
v -630.965027 80.000000 -1455.000000
v -640.965027 80.000000 -1445.000000
v -730.965027 80.000000 -1355.000000
v -740.965027 80.000000 -1345.000000
v -1030.000000 120.000000 -1055.964966
v -1030.964966 120.000000 -1055.000000
v -1230.964966 80.000000 -855.000000
v -1240.964966 80.000000 -845.000000
v -1330.964966 80.000000 -755.000000
v -1340.964966 80.000000 -745.000000
v -1217.563110 80.000000 -745.000000
v -1207.563110 80.000000 -755.000000
v -1117.563110 80.000000 -845.000000
v -1107.563110 80.000000 -855.000000
v -617.563110 80.000000 -1345.000000
v -607.563110 80.000000 -1355.000000
v -517.563110 80.000000 -1445.000000
v -507.563141 80.000000 -1455.000000
v -1030.000000 120.000000 -1055.000000
vn -1.0000 -0.0000 -0.0000
vn -0.7071 -0.0000 -0.7071
vn -0.0000 1.0000 -0.0000
vn 0.7071 -0.0000 0.7071
vn 0.7071 -0.0004 0.7071
vn 0.7071 0.0001 0.7071
vn -0.0000 -1.0000 -0.0000
vn -0.0000 -0.0000 -1.0000
vn 1.0000 -0.0000 -0.0000
vn -0.0000 -0.0000 1.0000
vn -0.7071 -0.0001 -0.7071
vn -0.7071 0.0002 -0.7071
vn 0.7071 -0.0001 0.7071
s 0
f 1//1 2//1 3//1
f 1//1 3//1 4//1
f 6//2 5//2 3//2
f 2//2 6//2 3//2
f 9//2 8//2 7//2
f 7//2 8//2 10//2
f 13//2 12//2 11//2
f 16//2 15//2 14//2
f 17//2 16//2 14//2
f 18//2 17//2 14//2
f 12//2 18//2 14//2
f 11//2 12//2 14//2
f 3//2 5//2 14//2
f 19//2 3//2 14//2
f 20//2 19//2 14//2
f 21//2 20//2 14//2
f 22//2 21//2 14//2
f 23//2 22//2 14//2
f 24//2 23//2 14//2
f 25//2 24//2 14//2
f 26//2 25//2 14//2
f 8//2 26//2 14//2
f 10//2 8//2 14//2
f 27//2 10//2 14//2
f 28//2 27//2 14//2
f 29//2 28//2 14//2
f 30//2 29//2 14//2
f 15//2 30//2 14//2
f 32//3 4//3 31//3
f 33//3 3//3 19//3
f 31//3 33//3 20//3
f 31//3 20//3 21//3
f 31//3 4//3 3//3
f 33//3 31//3 3//3
f 36//4 35//4 34//4
f 34//4 35//4 37//4
f 37//4 35//4 38//4
f 38//4 35//4 39//4
f 42//4 41//4 40//4
f 43//4 42//4 40//4
f 1//4 4//4 44//4
f 44//4 4//4 45//4
f 39//4 35//4 45//4
f 46//4 39//4 45//4
f 47//4 46//4 45//4
f 48//4 47//4 45//4
f 41//5 48//5 45//5
f 40//4 41//4 45//4
f 49//4 40//4 45//4
f 50//4 49//4 45//4
f 51//4 50//4 45//4
f 52//4 51//4 45//4
f 53//4 52//4 45//4
f 54//4 53//4 45//4
f 55//4 54//4 45//4
f 32//4 55//4 45//4
f 4//6 32//6 45//6
f 57//7 6//7 56//7
f 56//7 2//7 58//7
f 58//7 60//7 59//7
f 59//7 60//7 61//7
f 1//7 63//7 62//7
f 63//7 1//7 44//7
f 58//7 2//7 1//7
f 60//7 58//7 1//7
f 62//7 60//7 1//7
f 56//7 6//7 2//7
f 14//3 5//3 64//3
f 65//3 14//3 64//3
f 65//8 66//8 11//8
f 65//8 11//8 14//8
f 68//7 67//7 13//7
f 13//7 67//7 69//7
f 67//7 70//7 69//7
f 69//7 72//7 71//7
f 13//7 11//7 66//7
f 68//7 13//7 66//7
f 70//7 67//7 73//7
f 69//7 71//7 13//7
f 13//9 71//9 74//9
f 13//9 74//9 12//9
f 74//3 76//3 75//3
f 75//3 34//3 77//3
f 75//3 77//3 12//3
f 74//3 75//3 12//3
f 12//3 77//3 18//3
f 34//3 37//3 77//3
f 78//7 17//7 18//7
f 79//7 78//7 18//7
f 38//3 39//3 16//3
f 38//3 16//3 17//3
f 80//7 16//7 81//7
f 80//7 15//7 16//7
f 46//3 47//3 30//3
f 46//3 30//3 15//3
f 82//7 30//7 83//7
f 82//7 29//7 30//7
f 48//3 41//3 84//3
f 85//3 10//3 27//3
f 84//3 85//3 28//3
f 84//3 28//3 29//3
f 85//3 41//3 10//3
f 84//3 41//3 85//3
f 86//7 28//7 87//7
f 86//7 27//7 28//7
f 42//1 7//1 10//1
f 42//1 10//1 41//1
f 89//7 88//7 9//7
f 9//7 88//7 90//7
f 88//7 91//7 90//7
f 94//7 93//7 92//7
f 94//7 92//7 95//7
f 95//7 96//7 43//7
f 90//7 94//7 43//7
f 9//7 90//7 43//7
f 94//7 95//7 43//7
f 89//7 9//7 97//7
f 97//7 7//7 98//7
f 98//7 100//7 99//7
f 99//7 100//7 101//7
f 91//7 88//7 102//7
f 42//7 103//7 100//7
f 42//7 96//7 103//7
f 98//7 7//7 42//7
f 100//7 98//7 42//7
f 97//7 9//7 7//7
f 96//7 42//7 43//7
f 9//9 43//9 40//9
f 9//9 40//9 8//9
f 40//3 49//3 104//3
f 40//3 104//3 105//3
f 105//3 50//3 106//3
f 105//3 106//3 8//3
f 40//3 105//3 8//3
f 8//3 106//3 26//3
f 50//3 51//3 106//3
f 107//7 25//7 26//7
f 108//7 107//7 26//7
f 52//3 53//3 24//3
f 52//3 24//3 25//3
f 109//7 23//7 24//7
f 110//7 109//7 24//7
f 54//3 55//3 22//3
f 54//3 22//3 23//3
f 111//7 21//7 22//7
f 112//7 111//7 22//7
f 113//7 19//7 20//7
f 114//7 19//7 113//7
f 6//1 57//1 5//1
f 5//1 57//1 64//1
f 21//8 111//8 61//8
f 31//8 21//8 60//8
f 21//8 61//8 60//8
f 31//9 60//9 32//9
f 115//9 32//9 62//9
f 32//9 60//9 62//9
f 19//9 114//9 56//9
f 33//9 19//9 58//9
f 19//9 56//9 58//9
f 59//10 113//10 20//10
f 58//10 20//10 33//10
f 58//10 59//10 20//10
f 32//7 115//7 116//7
f 55//7 32//7 116//7
f 54//7 117//7 53//7
f 54//7 118//7 117//7
f 52//7 119//7 120//7
f 52//7 120//7 51//7
f 50//7 121//7 49//7
f 50//7 122//7 121//7
f 48//7 123//7 124//7
f 47//7 48//7 124//7
f 46//7 125//7 39//7
f 46//7 126//7 125//7
f 38//7 127//7 128//7
f 38//7 128//7 37//7
f 34//7 129//7 36//7
f 34//7 130//7 129//7
f 131//8 36//8 129//8
f 35//8 36//8 131//8
f 35//3 131//3 132//3
f 35//3 132//3 45//3
f 132//1 63//1 45//1
f 63//1 44//1 45//1
f 130//2 131//2 129//2
f 130//2 70//2 73//2
f 128//2 130//2 73//2
f 128//2 131//2 130//2
f 127//2 131//2 128//2
f 125//2 127//2 133//2
f 125//2 133//2 134//2
f 125//2 131//2 127//2
f 124//2 126//2 135//2
f 124//2 135//2 136//2
f 137//2 123//2 103//2
f 137//2 103//2 96//2
f 138//2 92//2 93//2
f 121//2 138//2 93//2
f 120//2 122//2 91//2
f 120//2 91//2 102//2
f 117//2 119//2 139//2
f 117//2 139//2 140//2
f 116//2 118//2 141//2
f 116//2 141//2 142//2
f 63//2 115//2 62//2
f 132//2 115//2 63//2
f 132//2 131//2 125//2
f 132//2 125//2 126//2
f 132//2 126//2 124//2
f 132//11 124//11 123//11
f 132//2 123//2 137//2
f 132//12 137//12 138//12
f 132//2 138//2 121//2
f 132//2 121//2 122//2
f 132//2 122//2 120//2
f 132//2 120//2 119//2
f 132//2 119//2 117//2
f 132//2 117//2 118//2
f 132//2 118//2 116//2
f 132//2 116//2 115//2
f 114//4 64//4 57//4
f 114//4 57//4 56//4
f 113//4 59//4 61//4
f 111//4 113//4 61//4
f 109//4 112//4 143//4
f 109//4 143//4 144//4
f 107//4 110//4 145//4
f 107//4 145//4 146//4
f 86//4 108//4 89//4
f 86//4 89//4 97//4
f 82//4 87//4 99//4
f 82//4 99//4 101//4
f 80//4 83//4 147//4
f 80//4 147//4 148//4
f 78//4 81//4 149//4
f 78//4 149//4 150//4
f 66//4 79//4 68//4
f 65//4 81//4 78//4
f 65//4 79//4 66//4
f 65//4 80//4 81//4
f 65//4 78//4 79//4
f 65//4 64//4 114//4
f 65//13 114//13 113//13
f 65//4 113//4 111//4
f 65//4 111//4 112//4
f 65//4 112//4 109//4
f 65//4 109//4 110//4
f 65//4 110//4 107//4
f 65//4 107//4 108//4
f 65//4 108//4 86//4
f 65//4 86//4 87//4
f 65//4 87//4 82//4
f 65//4 82//4 83//4
f 65//4 83//4 80//4
f 75//8 69//8 34//8
f 130//8 34//8 70//8
f 34//8 69//8 70//8
f 76//1 72//1 75//1
f 75//1 72//1 69//1
f 76//8 71//8 72//8
f 74//8 71//8 76//8
f 18//1 77//1 67//1
f 79//1 18//1 68//1
f 18//1 67//1 68//1
f 37//10 67//10 77//10
f 73//10 37//10 128//10
f 73//10 67//10 37//10
f 17//8 78//8 150//8
f 38//8 17//8 133//8
f 127//8 38//8 133//8
f 17//8 150//8 133//8
f 149//10 81//10 16//10
f 134//10 16//10 39//10
f 134//10 39//10 125//10
f 134//10 149//10 16//10
f 15//8 80//8 148//8
f 46//8 15//8 135//8
f 126//8 46//8 135//8
f 15//8 148//8 135//8
f 147//10 83//10 30//10
f 136//10 30//10 47//10
f 136//10 47//10 124//10
f 136//10 147//10 30//10
f 29//8 82//8 101//8
f 84//8 29//8 100//8
f 29//8 101//8 100//8
f 84//9 100//9 48//9
f 123//9 48//9 103//9
f 48//9 100//9 103//9
f 27//9 86//9 97//9
f 85//9 27//9 98//9
f 27//9 97//9 98//9
f 99//10 87//10 28//10
f 98//10 28//10 85//10
f 98//10 99//10 28//10
f 105//8 90//8 50//8
f 122//8 50//8 91//8
f 50//8 90//8 91//8
f 51//10 88//10 106//10
f 102//10 51//10 120//10
f 102//10 88//10 51//10
f 104//1 94//1 90//1
f 105//1 104//1 90//1
f 26//1 106//1 88//1
f 108//1 26//1 89//1
f 26//1 88//1 89//1
f 94//10 104//10 49//10
f 93//10 49//10 121//10
f 93//10 94//10 49//10
f 138//8 151//8 92//8
f 151//8 95//8 92//8
f 137//1 96//1 95//1
f 151//1 137//1 95//1
f 25//8 107//8 146//8
f 52//8 25//8 139//8
f 119//8 52//8 139//8
f 25//8 146//8 139//8
f 145//10 110//10 24//10
f 140//10 24//10 53//10
f 140//10 53//10 117//10
f 140//10 145//10 24//10
f 23//8 109//8 144//8
f 54//8 23//8 141//8
f 118//8 54//8 141//8
f 23//8 144//8 141//8
f 143//10 112//10 22//10
f 142//10 22//10 55//10
f 142//10 55//10 116//10
f 142//10 143//10 22//10
f 142//7 141//7 143//7
f 143//7 141//7 144//7
f 140//7 139//7 145//7
f 145//7 139//7 146//7
f 151//7 138//7 137//7
f 136//7 135//7 147//7
f 147//7 135//7 148//7
f 134//7 133//7 149//7
f 149//7 133//7 150//7
