# Blender 4.0.2
# www.blender.org
o 79b2decaaf9298e38558665402f38bbe1d82279cb4425a376395b6c943ee75f
v -1600.000000 280.000000 -980.939758
v -800.000000 280.000000 -180.939758
v -800.000000 315.000000 -180.939758
v -1600.000000 315.000000 -980.939758
v -1600.000000 280.000000 -910.229065
v -800.000000 280.000000 -110.229073
v -1600.000000 315.000000 -910.229065
v -800.000000 315.000000 -110.229073
vn 0.7071 -0.0000 -0.7071
vn -0.0000 -1.0000 -0.0000
vn -1.0000 -0.0000 -0.0000
vn -0.0000 1.0000 -0.0000
vn 1.0000 -0.0000 -0.0000
vn -0.7071 -0.0000 0.7071
s 0
f 3//1 2//1 1//1
f 4//1 3//1 1//1
f 6//2 5//2 2//2
f 2//2 5//2 1//2
f 1//3 5//3 7//3
f 4//3 1//3 7//3
f 3//4 7//4 8//4
f 4//4 7//4 3//4
f 8//5 6//5 2//5
f 8//5 2//5 3//5
f 7//6 5//6 8//6
f 8//6 5//6 6//6
