# Blender 4.0.2
# www.blender.org
o 898cc901a9304731303017e8994778d2dbb736e25eb2e1b42d6b8c031482fa1
v -1281.802002 315.000000 -1600.000000
v -1281.802002 280.000000 -1600.000000
v -1352.512573 280.000000 -1600.000000
v -1352.512573 315.000000 -1600.000000
v 1600.000000 280.000000 1281.802002
v 1600.000000 280.000000 1352.512573
v 1600.000000 315.000000 1281.802002
v 1600.000000 315.000000 1352.512573
vn -0.0000 -0.0000 -1.0000
vn -0.0000 -1.0000 -0.0000
vn 0.7071 -0.0000 -0.7071
vn -0.0000 1.0000 -0.0000
vn -0.7071 -0.0000 0.7071
vn 1.0000 -0.0000 -0.0000
s 0
f 1//1 2//1 3//1
f 1//1 3//1 4//1
f 3//2 2//2 5//2
f 6//2 3//2 5//2
f 7//3 5//3 2//3
f 1//3 7//3 2//3
f 7//4 1//4 4//4
f 7//4 4//4 8//4
f 4//5 3//5 8//5
f 8//5 3//5 6//5
f 6//6 5//6 7//6
f 8//6 6//6 7//6
