# Blender 4.0.2
# www.blender.org
o 8d38e4ee3e9be923f0021167278eda817d711d3608344ce532ee677373e55e1
v 132.411621 315.000000 -1600.000000
v 132.411621 280.000000 -1600.000000
v 61.700935 280.000000 -1600.000000
v 61.700935 315.000000 -1600.000000
v 1600.000000 280.000000 -132.411621
v 1600.000000 280.000000 -61.700935
v 1600.000000 315.000000 -132.411621
v 1600.000000 315.000000 -61.700935
vn -0.0000 -0.0000 -1.0000
vn -0.0000 -1.0000 -0.0000
vn 0.7071 -0.0000 -0.7071
vn -0.0000 1.0000 -0.0000
vn -0.7071 -0.0000 0.7071
vn 1.0000 -0.0000 -0.0000
s 0
f 1//1 2//1 3//1
f 1//1 3//1 4//1
f 3//2 2//2 5//2
f 6//2 3//2 5//2
f 7//3 5//3 1//3
f 1//3 5//3 2//3
f 7//4 1//4 4//4
f 7//4 4//4 8//4
f 4//5 3//5 8//5
f 8//5 3//5 6//5
f 6//6 5//6 7//6
f 8//6 6//6 7//6
