# Blender 4.0.2
# www.blender.org
o 92562656afa65253c08a841ab2564e758208806f2445dabce0e733ca96774c5
v -1600.000000 280.000000 1352.512573
v -1600.000000 280.000000 1281.802002
v -1600.000000 315.000000 1281.802002
v -1600.000000 315.000000 1352.512573
v -1352.512573 315.000000 1600.000000
v -1281.802002 315.000000 1600.000000
v -1281.802002 280.000000 1600.000000
v -1352.512573 280.000000 1600.000000
vn -1.0000 -0.0000 -0.0000
vn -0.0000 1.0000 -0.0000
vn 0.7071 -0.0000 -0.7071
vn -0.0000 -1.0000 -0.0000
vn -0.7071 -0.0000 0.7071
vn -0.0000 -0.0000 1.0000
s 0
f 3//1 2//1 1//1
f 3//1 1//1 4//1
f 3//2 4//2 5//2
f 3//2 5//2 6//2
f 6//3 7//3 2//3
f 3//3 6//3 2//3
f 8//4 1//4 2//4
f 7//4 8//4 2//4
f 4//5 1//5 5//5
f 5//5 1//5 8//5
f 8//6 7//6 6//6
f 5//6 8//6 6//6
