# Blender 4.0.2
# www.blender.org
o b48c334a0e23793dd5c8626137de96fa9a7817de4d6536a5a2dd33994ed1d7b
v 980.939758 315.000000 1600.000000
v 980.939758 280.000000 1600.000000
v 910.229065 280.000000 1600.000000
v 910.229065 315.000000 1600.000000
v 180.939758 280.000000 800.000000
v 110.229073 280.000000 800.000000
v 180.939758 315.000000 800.000000
v 110.229073 315.000000 800.000000
vn -0.0000 -0.0000 1.0000
vn -0.0000 -1.0000 -0.0000
vn 0.7071 -0.0000 -0.7071
vn -0.0000 1.0000 -0.0000
vn -0.7071 -0.0000 0.7071
vn -0.0000 -0.0000 -1.0000
s 0
f 3//1 2//1 1//1
f 4//1 3//1 1//1
f 3//2 6//2 5//2
f 3//2 5//2 2//2
f 1//3 2//3 7//3
f 7//3 2//3 5//3
f 7//4 8//4 4//4
f 1//4 7//4 4//4
f 8//5 6//5 3//5
f 4//5 8//5 3//5
f 7//6 5//6 6//6
f 7//6 6//6 8//6
