# Blender 4.0.2
# www.blender.org
o b7f7f41600671ceaf733f104faeb89c8527f36d87ee359af712eeaed01c218b
v 1025.000000 80.000000 1510.319580
v 1025.000000 80.000000 1600.000000
v 1025.000000 120.000000 1600.000000
v 1025.000000 120.000000 1510.319580
v 1375.000000 120.000000 1160.319580
v 1600.000000 160.000000 935.319641
v 1600.000000 80.000000 935.319641
v 1375.000000 80.000000 1160.319580
v 935.319641 80.000000 1600.000000
v 935.319641 160.000000 1600.000000
v 1080.319580 120.000000 1455.000000
v 1030.000000 120.000000 1505.319580
v 1370.000000 120.000000 1165.319580
v 1290.319580 120.000000 1245.000000
v 1280.319580 120.000000 1255.000000
v 1190.319580 120.000000 1345.000000
v 1180.319580 120.000000 1355.000000
v 1090.319580 120.000000 1445.000000
v 1030.000000 120.000000 1555.000000
v 1030.000000 120.000000 1600.000000
v 1030.000000 120.000000 1545.000000
v 1089.579346 120.000000 1555.000000
v 1099.579346 120.000000 1545.000000
v 1030.000000 80.000000 1600.000000
v 1030.000000 80.000000 1555.000000
v 928.248535 80.000000 1600.000000
v 1030.000000 80.000000 1498.248535
v 1096.650391 80.000000 1555.000000
v 1030.000000 80.000000 1545.000000
v 1106.650391 80.000000 1545.000000
v 1600.000000 160.000000 928.248535
v 928.248535 160.000000 1600.000000
v 1030.000000 120.000000 1498.248535
v 1073.248535 120.000000 1455.000000
v 1199.579346 120.000000 1445.000000
v 1189.579346 120.000000 1455.000000
v 1173.248535 120.000000 1355.000000
v 1083.248535 120.000000 1445.000000
v 1289.579346 120.000000 1355.000000
v 1299.579346 120.000000 1345.000000
v 1273.248535 120.000000 1255.000000
v 1183.248535 120.000000 1345.000000
v 1370.000000 120.000000 1255.000000
v 1375.000000 120.000000 1269.579346
v 1370.000000 120.000000 1274.579346
v 1370.000000 120.000000 1245.000000
v 1370.000000 120.000000 1158.248535
v 1283.248535 120.000000 1245.000000
v 1375.000000 80.000000 1269.579346
v 1370.000000 80.000000 1255.000000
v 1370.000000 80.000000 1281.650391
v 1370.000000 80.000000 1245.000000
v 1283.248535 80.000000 1245.000000
v 1370.000000 80.000000 1158.248535
v 1600.000000 80.000000 1051.650391
v 1600.000000 80.000000 928.248535
v 1600.000000 80.000000 1044.579346
v 1273.248535 80.000000 1255.000000
v 1096.650391 120.000000 1555.000000
v 1044.579346 160.000000 1600.000000
v 1044.579346 120.000000 1600.000000
v 1600.000000 160.000000 1044.579346
v 1106.650391 120.000000 1545.000000
v 1051.650391 160.000000 1600.000000
v 1051.650391 120.000000 1600.000000
v 1196.650391 120.000000 1455.000000
v 1206.650391 120.000000 1445.000000
v 1196.650391 80.000000 1455.000000
v 1206.650391 80.000000 1445.000000
v 1306.650391 120.000000 1345.000000
v 1296.650391 120.000000 1355.000000
v 1296.650391 80.000000 1355.000000
v 1306.650391 80.000000 1345.000000
v 1370.000000 120.000000 1281.650391
v 1600.000000 160.000000 1051.650391
v 1183.248535 80.000000 1345.000000
v 1173.248535 80.000000 1355.000000
v 1083.248535 80.000000 1445.000000
v 1073.248535 80.000000 1455.000000
vn -1.0000 -0.0000 -0.0000
vn 0.7071 -0.0000 0.7071
vn 0.7071 -0.0001 0.7071
vn 0.7071 0.0004 0.7071
vn -0.0000 1.0000 -0.0000
vn -0.0000 -0.0000 1.0000
vn -0.0000 -1.0000 -0.0000
vn 1.0000 -0.0000 -0.0000
vn -0.7071 -0.0000 -0.7071
vn -0.0000 -0.0000 -1.0000
s 0
f 1//1 2//1 3//1
f 1//1 3//1 4//1
f 7//2 6//2 5//2
f 8//2 7//2 5//2
f 1//2 4//2 9//2
f 12//2 11//2 10//2
f 4//3 12//3 10//3
f 9//2 4//2 10//2
f 5//2 6//2 10//2
f 13//4 5//4 10//4
f 14//2 13//2 10//2
f 15//2 14//2 10//2
f 16//2 15//2 10//2
f 17//2 16//2 10//2
f 18//2 17//2 10//2
f 11//2 18//2 10//2
f 3//5 20//5 19//5
f 19//5 22//5 21//5
f 4//5 21//5 12//5
f 21//5 4//5 3//5
f 19//5 21//5 3//5
f 22//5 23//5 21//5
f 2//6 24//6 3//6
f 3//6 24//6 20//6
f 24//7 2//7 25//7
f 9//7 26//7 1//7
f 1//7 26//7 27//7
f 25//7 29//7 28//7
f 1//7 27//7 29//7
f 25//7 2//7 1//7
f 29//7 25//7 1//7
f 28//7 29//7 30//7
f 10//5 6//5 31//5
f 32//5 10//5 31//5
f 26//6 9//6 32//6
f 32//6 9//6 10//6
f 34//7 11//7 33//7
f 33//7 11//7 12//7
f 36//5 35//5 18//5
f 36//5 18//5 11//5
f 37//7 17//7 18//7
f 37//7 18//7 38//7
f 17//5 39//5 16//5
f 39//5 40//5 16//5
f 41//7 15//7 16//7
f 41//7 16//7 42//7
f 45//5 44//5 43//5
f 43//5 44//5 46//5
f 43//5 46//5 14//5
f 13//5 46//5 5//5
f 14//5 15//5 43//5
f 46//5 44//5 5//5
f 47//7 13//7 14//7
f 47//7 14//7 48//7
f 49//8 8//8 5//8
f 49//8 5//8 44//8
f 49//7 51//7 50//7
f 50//7 53//7 52//7
f 49//7 50//7 52//7
f 52//7 54//7 8//7
f 51//7 49//7 55//7
f 7//7 54//7 56//7
f 55//7 49//7 57//7
f 52//7 8//7 49//7
f 54//7 7//7 8//7
f 53//7 50//7 58//7
f 7//8 56//8 31//8
f 6//8 7//8 31//8
f 20//8 24//8 19//8
f 19//8 24//8 25//8
f 19//6 25//6 22//6
f 59//6 22//6 28//6
f 22//6 25//6 28//6
f 61//9 60//9 22//9
f 22//9 60//9 23//9
f 23//9 60//9 36//9
f 49//9 44//9 57//9
f 57//9 44//9 62//9
f 36//9 60//9 62//9
f 35//9 36//9 62//9
f 39//9 35//9 62//9
f 40//9 39//9 62//9
f 45//9 40//9 62//9
f 44//9 45//9 62//9
f 23//10 29//10 21//10
f 30//10 23//10 63//10
f 30//10 29//10 23//10
f 27//8 33//8 12//8
f 29//8 12//8 21//8
f 29//8 27//8 12//8
f 59//2 64//2 65//2
f 63//2 59//2 28//2
f 63//2 28//2 30//2
f 63//2 64//2 59//2
f 66//2 64//2 63//2
f 67//2 66//2 68//2
f 67//2 68//2 69//2
f 70//2 71//2 72//2
f 70//2 72//2 73//2
f 55//2 74//2 51//2
f 75//2 74//2 55//2
f 75//2 64//2 66//2
f 75//2 66//2 67//2
f 75//2 67//2 71//2
f 75//2 71//2 70//2
f 75//2 70//2 74//2
f 47//9 31//9 56//9
f 47//9 56//9 54//9
f 41//9 48//9 53//9
f 41//9 53//9 58//9
f 37//9 42//9 76//9
f 37//9 76//9 77//9
f 38//9 78//9 79//9
f 34//9 38//9 79//9
f 26//9 33//9 27//9
f 32//9 34//9 33//9
f 32//9 33//9 26//9
f 32//9 31//9 47//9
f 32//9 47//9 48//9
f 32//9 48//9 41//9
f 32//9 41//9 42//9
f 32//9 42//9 37//9
f 32//9 37//9 38//9
f 32//9 38//9 34//9
f 11//6 34//6 79//6
f 36//6 11//6 68//6
f 66//6 36//6 68//6
f 11//6 79//6 68//6
f 78//10 38//10 18//10
f 69//10 18//10 35//10
f 69//10 35//10 67//10
f 69//10 78//10 18//10
f 17//6 37//6 77//6
f 39//6 17//6 72//6
f 71//6 39//6 72//6
f 17//6 77//6 72//6
f 76//10 42//10 16//10
f 73//10 16//10 40//10
f 73//10 40//10 70//10
f 73//10 76//10 16//10
f 15//6 41//6 58//6
f 43//6 15//6 50//6
f 15//6 58//6 50//6
f 51//1 74//1 45//1
f 50//1 45//1 43//1
f 50//1 51//1 45//1
f 13//1 52//1 46//1
f 54//1 13//1 47//1
f 54//1 52//1 13//1
f 53//10 48//10 14//10
f 52//10 14//10 46//10
f 52//10 53//10 14//10
f 75//8 55//8 62//8
f 55//8 57//8 62//8
f 22//7 59//7 65//7
f 61//7 22//7 65//7
f 45//7 74//7 70//7
f 45//7 70//7 40//7
f 39//7 71//7 67//7
f 39//7 67//7 35//7
f 36//7 66//7 63//7
f 36//7 63//7 23//7
f 61//6 65//6 64//6
f 60//6 61//6 64//6
f 60//5 64//5 75//5
f 60//5 75//5 62//5
f 77//7 76//7 72//7
f 72//7 76//7 73//7
f 79//7 78//7 68//7
f 68//7 78//7 69//7
