# Blender 4.0.2
# www.blender.org
o c2252aa42c9440dfcf63cc4750b5fa1cba7c0dbf6e88f9c30efad5527dc4ac6
v -1600.000000 280.000000 -61.700935
v -1600.000000 280.000000 -132.411621
v -1600.000000 315.000000 -132.411621
v -1600.000000 315.000000 -61.700935
v -800.000000 315.000000 667.588379
v -800.000000 315.000000 738.299072
v -800.000000 280.000000 667.588379
v -800.000000 280.000000 738.299072
vn -1.0000 -0.0000 -0.0000
vn -0.0000 1.0000 -0.0000
vn 0.7071 -0.0000 -0.7071
vn -0.0000 -1.0000 -0.0000
vn -0.7071 -0.0000 0.7071
vn 1.0000 -0.0000 -0.0000
s 0
f 3//1 2//1 1//1
f 3//1 1//1 4//1
f 5//2 4//2 6//2
f 3//2 4//2 5//2
f 5//3 7//3 3//3
f 3//3 7//3 2//3
f 8//4 1//4 7//4
f 7//4 1//4 2//4
f 4//5 1//5 6//5
f 6//5 1//5 8//5
f 6//6 8//6 7//6
f 6//6 7//6 5//6
