# Blender 4.0.2
# www.blender.org
o c70b32d084f52189a568e3a8a51124a53a99de346a457c084028007f82e1621
v 1600.000000 315.000000 -998.959229
v 998.959229 280.000000 -1600.000000
v 998.959229 315.000000 -1600.000000
v 1600.000000 280.000000 -998.959229
v 1600.000000 280.000000 -1069.669922
v 1069.669922 280.000000 -1600.000000
v 1600.000000 315.000000 -1069.669922
v 1069.669922 315.000000 -1600.000000
vn -0.7071 -0.0000 0.7071
vn -0.0000 -1.0000 -0.0000
vn 1.0000 -0.0000 -0.0000
vn -0.0000 1.0000 -0.0000
vn -0.0000 -0.0000 -1.0000
vn 0.7071 -0.0000 -0.7071
s 0
f 3//1 2//1 1//1
f 1//1 2//1 4//1
f 4//2 2//2 5//2
f 5//2 2//2 6//2
f 4//3 5//3 7//3
f 1//3 4//3 7//3
f 7//4 8//4 3//4
f 7//4 3//4 1//4
f 8//5 6//5 2//5
f 8//5 2//5 3//5
f 7//6 5//6 8//6
f 8//6 5//6 6//6
