# Blender 4.0.2
# www.blender.org
o d6e758f5f789e5d716b36b14f855f5207c3d2b39e41899dab4a9838dd08e097
v -1050.000000 80.000000 25.000000
v -1350.000000 80.000000 25.000000
v -1350.000000 120.000000 25.000000
v -1050.000000 120.000000 25.000000
v -1050.000000 80.000000 -25.000000
v -1050.000000 120.000000 -25.000000
v -1350.000000 80.000000 -25.000000
v -1350.000000 120.000000 -25.000000
vn -0.0000 -0.0000 1.0000
vn 1.0000 -0.0000 -0.0000
vn -0.0000 -0.0000 -1.0000
vn -1.0000 -0.0000 -0.0000
vn -0.0000 -1.0000 -0.0000
vn -0.0000 1.0000 -0.0000
s 0
f 3//1 2//1 1//1
f 4//1 3//1 1//1
f 4//2 1//2 5//2
f 6//2 4//2 5//2
f 6//3 5//3 7//3
f 8//3 6//3 7//3
f 8//4 7//4 2//4
f 3//4 8//4 2//4
f 1//5 2//5 5//5
f 2//5 7//5 5//5
f 6//6 3//6 4//6
f 6//6 8//6 3//6
