# Blender 4.0.2
# www.blender.org
o d70ff5b170dfd9ddd7e68a10207e27322372ef30c8348428624bf00cbc2ac7f
v 425.000000 120.000000 1403.212891
v 425.000000 80.000000 1512.472534
v 425.000000 120.000000 1512.472534
v 425.000000 80.000000 1403.212891
v 1375.000000 120.000000 453.212830
v 1600.000000 160.000000 228.212845
v 1600.000000 80.000000 228.212845
v 1375.000000 80.000000 453.212830
v 775.000000 80.000000 1053.212891
v 1025.000000 120.000000 803.212830
v 1025.000000 80.000000 803.212830
v 775.000000 120.000000 1053.212891
v 228.212845 80.000000 1600.000000
v 228.212845 160.000000 1600.000000
v 430.000000 120.000000 1398.212891
v 1370.000000 120.000000 458.212830
v 1283.212891 120.000000 545.000000
v 1273.212891 120.000000 555.000000
v 1183.212891 120.000000 645.000000
v 1173.212891 120.000000 655.000000
v 1083.212891 120.000000 745.000000
v 1073.212891 120.000000 755.000000
v 1030.000000 120.000000 798.212830
v 770.000000 120.000000 1058.212891
v 683.212830 120.000000 1145.000000
v 673.212830 120.000000 1155.000000
v 583.212830 120.000000 1245.000000
v 573.212830 120.000000 1255.000000
v 483.212830 120.000000 1345.000000
v 473.212830 120.000000 1355.000000
v 337.472595 80.000000 1600.000000
v 344.543640 80.000000 1600.000000
v 430.000000 80.000000 1514.543701
v 430.000000 80.000000 1455.000000
v 221.141769 80.000000 1600.000000
v 489.543640 80.000000 1455.000000
v 430.000000 80.000000 1445.000000
v 499.543640 80.000000 1445.000000
v 430.000000 80.000000 1391.141724
v 337.472595 160.000000 1600.000000
v 430.000000 120.000000 1507.472534
v 482.472595 120.000000 1455.000000
v 492.472595 120.000000 1445.000000
v 582.472595 120.000000 1355.000000
v 1025.000000 120.000000 912.472595
v 775.000000 120.000000 1162.472534
v 775.000000 80.000000 1162.472534
v 1025.000000 80.000000 912.472595
v 1600.000000 80.000000 337.472595
v 1375.000000 120.000000 562.472595
v 1375.000000 80.000000 562.472595
v 1600.000000 160.000000 337.472595
v 592.472595 120.000000 1345.000000
v 682.472595 120.000000 1255.000000
v 692.472595 120.000000 1245.000000
v 770.000000 120.000000 1167.472534
v 1030.000000 120.000000 907.472595
v 1082.472534 120.000000 855.000000
v 1092.472534 120.000000 845.000000
v 1182.472534 120.000000 755.000000
v 1192.472534 120.000000 745.000000
v 1282.472534 120.000000 655.000000
v 1292.472534 120.000000 645.000000
v 1370.000000 120.000000 567.472595
v 430.000000 120.000000 1455.000000
v 430.000000 120.000000 1445.000000
v 1600.000000 160.000000 221.141769
v 221.141769 160.000000 1600.000000
v 430.000000 120.000000 1391.141724
v 466.141785 120.000000 1355.000000
v 566.141785 120.000000 1255.000000
v 476.141785 120.000000 1345.000000
v 666.141785 120.000000 1155.000000
v 576.141785 120.000000 1245.000000
v 770.000000 120.000000 1155.000000
v 770.000000 120.000000 1145.000000
v 766.141785 120.000000 1055.000000
v 770.000000 120.000000 1055.000000
v 676.141785 120.000000 1145.000000
v 770.000000 80.000000 1155.000000
v 770.000000 80.000000 1174.543701
v 770.000000 80.000000 1145.000000
v 676.141785 80.000000 1145.000000
v 766.141785 80.000000 1055.000000
v 770.000000 80.000000 1055.000000
v 1030.000000 80.000000 914.543640
v 1030.000000 80.000000 855.000000
v 1089.543701 80.000000 855.000000
v 1030.000000 80.000000 845.000000
v 1099.543701 80.000000 845.000000
v 666.141785 80.000000 1155.000000
v 1030.000000 80.000000 791.141785
v 1030.000000 120.000000 855.000000
v 1030.000000 120.000000 845.000000
v 1066.141724 120.000000 755.000000
v 1030.000000 120.000000 791.141785
v 1166.141724 120.000000 655.000000
v 1076.141724 120.000000 745.000000
v 1266.141724 120.000000 555.000000
v 1176.141724 120.000000 645.000000
v 1370.000000 120.000000 555.000000
v 1370.000000 120.000000 545.000000
v 1366.141724 120.000000 455.000000
v 1370.000000 120.000000 455.000000
v 1276.141724 120.000000 545.000000
v 1370.000000 80.000000 555.000000
v 1370.000000 80.000000 574.543640
v 1370.000000 80.000000 545.000000
v 1276.141724 80.000000 545.000000
v 1370.000000 80.000000 455.000000
v 1366.141724 80.000000 455.000000
v 1600.000000 80.000000 344.543640
v 1600.000000 80.000000 221.141769
v 1266.141724 80.000000 555.000000
v 466.141785 80.000000 1355.000000
v 476.141785 80.000000 1345.000000
v 566.141785 80.000000 1255.000000
v 576.141785 80.000000 1245.000000
v 1066.141724 80.000000 755.000000
v 1076.141724 80.000000 745.000000
v 1166.141724 80.000000 655.000000
v 1176.141724 80.000000 645.000000
v 499.543640 120.000000 1445.000000
v 430.000000 120.000000 1514.543701
v 344.543640 160.000000 1600.000000
v 489.543640 120.000000 1455.000000
v 589.543640 120.000000 1355.000000
v 589.543640 80.000000 1355.000000
v 599.543640 80.000000 1345.000000
v 599.543640 120.000000 1345.000000
v 689.543640 120.000000 1255.000000
v 689.543640 80.000000 1255.000000
v 699.543640 80.000000 1245.000000
v 699.543640 120.000000 1245.000000
v 1030.000000 120.000000 914.543640
v 770.000000 120.000000 1174.543701
v 1089.543701 120.000000 855.000000
v 1099.543701 120.000000 845.000000
v 1199.543701 120.000000 745.000000
v 1189.543701 120.000000 755.000000
v 1189.543701 80.000000 755.000000
v 1199.543701 80.000000 745.000000
v 1299.543701 120.000000 645.000000
v 1289.543701 120.000000 655.000000
v 1289.543701 80.000000 655.000000
v 1299.543701 80.000000 645.000000
v 1370.000000 120.000000 574.543640
v 1600.000000 160.000000 344.543640
vn -1.0000 -0.0000 -0.0000
vn 0.7071 -0.0000 0.7071
vn 0.7071 0.0009 0.7071
vn 0.7071 0.0001 0.7071
vn -0.0000 -1.0000 -0.0000
vn -0.7071 -0.0000 -0.7071
vn -0.0000 1.0000 -0.0000
vn -0.0000 -0.0000 1.0000
vn 1.0000 -0.0000 -0.0000
vn -0.7071 -0.0002 -0.7071
vn -0.0000 -0.0000 -1.0000
s 0
f 1//1 2//1 3//1
f 4//1 2//1 1//1
f 7//2 6//2 5//2
f 8//2 7//2 5//2
f 11//2 10//2 9//2
f 9//2 10//2 12//2
f 4//2 1//2 13//2
f 1//2 15//2 14//2
f 13//2 1//2 14//2
f 5//2 6//2 14//2
f 16//3 5//3 14//3
f 17//2 16//2 14//2
f 18//2 17//2 14//2
f 19//2 18//2 14//2
f 20//2 19//2 14//2
f 21//2 20//2 14//2
f 22//2 21//2 14//2
f 23//4 22//4 14//4
f 10//2 23//2 14//2
f 12//2 10//2 14//2
f 24//2 12//2 14//2
f 25//2 24//2 14//2
f 26//2 25//2 14//2
f 27//2 26//2 14//2
f 28//2 27//2 14//2
f 29//2 28//2 14//2
f 30//2 29//2 14//2
f 15//2 30//2 14//2
f 32//5 31//5 2//5
f 32//5 2//5 33//5
f 33//5 2//5 34//5
f 13//5 35//5 4//5
f 34//5 37//5 36//5
f 36//5 37//5 38//5
f 4//5 35//5 39//5
f 39//5 2//5 4//5
f 37//5 2//5 39//5
f 34//5 2//5 37//5
f 31//6 40//6 3//6
f 2//6 31//6 3//6
f 3//6 40//6 41//6
f 41//6 40//6 42//6
f 42//6 40//6 43//6
f 43//6 40//6 44//6
f 47//6 46//6 45//6
f 48//6 47//6 45//6
f 51//6 50//6 49//6
f 49//6 50//6 52//6
f 44//6 40//6 52//6
f 53//6 44//6 52//6
f 54//6 53//6 52//6
f 55//6 54//6 52//6
f 56//6 55//6 52//6
f 46//6 56//6 52//6
f 45//6 46//6 52//6
f 57//6 45//6 52//6
f 58//6 57//6 52//6
f 59//6 58//6 52//6
f 60//6 59//6 52//6
f 61//6 60//6 52//6
f 62//6 61//6 52//6
f 63//6 62//6 52//6
f 64//6 63//6 52//6
f 50//6 64//6 52//6
f 3//7 41//7 65//7
f 42//7 43//7 66//7
f 65//7 42//7 66//7
f 66//7 15//7 1//7
f 65//7 1//7 3//7
f 66//7 1//7 65//7
f 14//7 6//7 67//7
f 68//7 14//7 67//7
f 35//8 13//8 68//8
f 68//8 13//8 14//8
f 70//5 30//5 69//5
f 69//5 30//5 15//5
f 44//7 53//7 29//7
f 44//7 29//7 30//7
f 71//5 28//5 29//5
f 71//5 29//5 72//5
f 54//7 55//7 27//7
f 54//7 27//7 28//7
f 73//5 26//5 27//5
f 73//5 27//5 74//5
f 56//7 46//7 75//7
f 75//7 46//7 76//7
f 76//7 46//7 12//7
f 76//7 12//7 24//7
f 75//7 76//7 25//7
f 25//7 26//7 75//7
f 78//5 24//5 77//5
f 77//5 24//5 25//5
f 77//5 25//5 79//5
f 46//9 9//9 12//9
f 47//9 9//9 46//9
f 47//5 81//5 80//5
f 80//5 83//5 82//5
f 47//5 80//5 82//5
f 85//5 84//5 9//5
f 82//5 85//5 9//5
f 47//5 82//5 9//5
f 81//5 47//5 86//5
f 86//5 48//5 87//5
f 9//5 84//5 11//5
f 87//5 89//5 88//5
f 88//5 89//5 90//5
f 83//5 80//5 91//5
f 11//5 92//5 89//5
f 87//5 11//5 89//5
f 48//5 11//5 87//5
f 11//5 84//5 92//5
f 86//5 47//5 48//5
f 11//1 48//1 45//1
f 11//1 45//1 10//1
f 45//7 57//7 93//7
f 58//7 59//7 94//7
f 93//7 58//7 94//7
f 10//7 94//7 23//7
f 94//7 10//7 45//7
f 93//7 94//7 45//7
f 95//5 22//5 23//5
f 96//5 95//5 23//5
f 22//7 60//7 21//7
f 60//7 61//7 21//7
f 97//5 20//5 21//5
f 97//5 21//5 98//5
f 20//7 62//7 19//7
f 62//7 63//7 19//7
f 99//5 18//5 19//5
f 99//5 19//5 100//5
f 64//7 50//7 101//7
f 101//7 50//7 102//7
f 16//7 102//7 5//7
f 102//7 50//7 5//7
f 101//7 102//7 17//7
f 17//7 18//7 101//7
f 104//5 16//5 103//5
f 103//5 16//5 17//5
f 103//5 17//5 105//5
f 51//9 5//9 50//9
f 51//9 8//9 5//9
f 51//5 107//5 106//5
f 106//5 109//5 108//5
f 51//5 106//5 108//5
f 108//5 110//5 8//5
f 110//5 111//5 8//5
f 51//5 108//5 8//5
f 107//5 51//5 112//5
f 7//5 8//5 113//5
f 8//5 111//5 113//5
f 109//5 106//5 114//5
f 112//5 51//5 49//5
f 7//9 113//9 6//9
f 6//9 113//9 67//9
f 35//6 68//6 69//6
f 39//6 35//6 69//6
f 116//6 115//6 70//6
f 116//6 70//6 72//6
f 117//6 71//6 74//6
f 118//6 117//6 74//6
f 91//6 73//6 79//6
f 83//6 91//6 79//6
f 84//6 77//6 96//6
f 92//6 84//6 96//6
f 120//6 119//6 95//6
f 120//6 95//6 98//6
f 122//6 121//6 97//6
f 122//6 97//6 100//6
f 109//6 114//6 99//6
f 109//6 99//6 105//6
f 111//6 103//6 113//6
f 113//6 103//6 67//6
f 69//6 68//6 67//6
f 70//6 69//6 67//6
f 72//6 70//6 67//6
f 71//6 72//6 67//6
f 74//10 71//10 67//10
f 73//6 74//6 67//6
f 79//6 73//6 67//6
f 77//6 79//6 67//6
f 96//6 77//6 67//6
f 95//6 96//6 67//6
f 98//6 95//6 67//6
f 97//6 98//6 67//6
f 100//6 97//6 67//6
f 99//6 100//6 67//6
f 105//6 99//6 67//6
f 103//6 105//6 67//6
f 39//9 69//9 15//9
f 37//9 15//9 66//9
f 37//9 39//9 15//9
f 43//11 37//11 66//11
f 38//11 43//11 123//11
f 38//11 37//11 43//11
f 124//2 125//2 32//2
f 124//2 32//2 33//2
f 126//2 36//2 38//2
f 126//2 125//2 124//2
f 123//2 126//2 38//2
f 123//2 125//2 126//2
f 127//2 128//2 129//2
f 127//2 125//2 123//2
f 130//2 127//2 129//2
f 131//2 132//2 133//2
f 134//2 131//2 133//2
f 135//2 136//2 81//2
f 135//2 81//2 86//2
f 137//2 88//2 90//2
f 138//2 137//2 90//2
f 139//2 140//2 141//2
f 139//2 141//2 142//2
f 143//2 144//2 145//2
f 143//2 145//2 146//2
f 112//2 147//2 107//2
f 148//2 147//2 112//2
f 148//2 125//2 127//2
f 148//2 127//2 130//2
f 148//2 130//2 131//2
f 148//2 131//2 134//2
f 148//2 134//2 136//2
f 148//2 136//2 135//2
f 148//2 135//2 137//2
f 148//2 137//2 138//2
f 148//2 138//2 140//2
f 148//2 140//2 139//2
f 148//2 139//2 144//2
f 148//2 144//2 143//2
f 148//2 143//2 147//2
f 65//8 34//8 42//8
f 126//8 42//8 36//8
f 42//8 34//8 36//8
f 41//9 34//9 65//9
f 33//9 41//9 124//9
f 33//9 34//9 41//9
f 31//8 32//8 125//8
f 40//8 31//8 125//8
f 147//5 143//5 63//5
f 64//5 147//5 63//5
f 62//5 144//5 139//5
f 62//5 139//5 61//5
f 60//5 140//5 138//5
f 60//5 138//5 59//5
f 58//5 137//5 57//5
f 57//5 137//5 135//5
f 136//5 134//5 55//5
f 56//5 136//5 55//5
f 54//5 131//5 130//5
f 54//5 130//5 53//5
f 44//5 127//5 123//5
f 44//5 123//5 43//5
f 42//5 126//5 124//5
f 41//5 42//5 124//5
f 40//7 125//7 148//7
f 40//7 148//7 52//7
f 148//9 112//9 52//9
f 112//9 49//9 52//9
f 30//8 70//8 115//8
f 44//8 30//8 128//8
f 127//8 44//8 128//8
f 30//8 115//8 128//8
f 116//11 72//11 29//11
f 129//11 29//11 53//11
f 129//11 53//11 130//11
f 129//11 116//11 29//11
f 28//8 71//8 117//8
f 54//8 28//8 132//8
f 131//8 54//8 132//8
f 28//8 117//8 132//8
f 118//11 74//11 27//11
f 133//11 27//11 55//11
f 133//11 55//11 134//11
f 133//11 118//11 27//11
f 26//8 73//8 91//8
f 75//8 26//8 80//8
f 26//8 91//8 80//8
f 81//1 136//1 56//1
f 80//1 56//1 75//1
f 80//1 81//1 56//1
f 24//1 82//1 76//1
f 85//1 24//1 78//1
f 85//1 82//1 24//1
f 83//11 79//11 25//11
f 82//11 25//11 76//11
f 82//11 83//11 25//11
f 77//8 84//8 85//8
f 78//8 77//8 85//8
f 92//9 96//9 23//9
f 89//9 23//9 94//9
f 89//9 92//9 23//9
f 59//11 89//11 94//11
f 90//11 59//11 138//11
f 90//11 89//11 59//11
f 57//9 87//9 93//9
f 86//9 57//9 135//9
f 86//9 87//9 57//9
f 93//8 87//8 58//8
f 137//8 58//8 88//8
f 58//8 87//8 88//8
f 22//8 95//8 119//8
f 60//8 22//8 141//8
f 140//8 60//8 141//8
f 22//8 119//8 141//8
f 120//11 98//11 21//11
f 142//11 21//11 61//11
f 142//11 61//11 139//11
f 142//11 120//11 21//11
f 20//8 97//8 121//8
f 62//8 20//8 145//8
f 144//8 62//8 145//8
f 20//8 121//8 145//8
f 122//11 100//11 19//11
f 146//11 19//11 63//11
f 146//11 63//11 143//11
f 146//11 122//11 19//11
f 18//8 99//8 114//8
f 101//8 18//8 106//8
f 18//8 114//8 106//8
f 107//1 147//1 64//1
f 106//1 64//1 101//1
f 106//1 107//1 64//1
f 16//1 108//1 102//1
f 110//1 16//1 104//1
f 110//1 108//1 16//1
f 109//11 105//11 17//11
f 108//11 17//11 102//11
f 108//11 109//11 17//11
f 104//8 103//8 110//8
f 103//8 111//8 110//8
f 121//5 122//5 145//5
f 145//5 122//5 146//5
f 119//5 120//5 141//5
f 141//5 120//5 142//5
f 117//5 118//5 132//5
f 132//5 118//5 133//5
f 115//5 116//5 128//5
f 128//5 116//5 129//5
