# Blender 4.0.2
# www.blender.org
o decf07c0cf8ba8beb11669a06e25b11f252c98e145739b0d4d97b93649788e7
v 750.000000 120.000000 1575.000000
v 450.000000 120.000000 1600.000000
v 750.000000 120.000000 1600.000000
v 450.000000 120.000000 1575.000000
v 750.000000 80.000000 1600.000000
v 450.000000 80.000000 1600.000000
v 450.000000 80.000000 1575.000000
v 750.000000 80.000000 1575.000000
vn -0.0000 1.0000 -0.0000
vn -0.0000 -0.0000 1.0000
vn -1.0000 -0.0000 -0.0000
vn -0.0000 -0.0000 -1.0000
vn 1.0000 -0.0000 -0.0000
vn -0.0000 -1.0000 -0.0000
s 0
f 1//1 2//1 3//1
f 1//1 4//1 2//1
f 6//2 5//2 3//2
f 2//2 6//2 3//2
f 4//3 7//3 6//3
f 2//3 4//3 6//3
f 1//4 8//4 7//4
f 4//4 1//4 7//4
f 3//5 5//5 8//5
f 1//5 3//5 8//5
f 5//6 6//6 8//6
f 6//6 7//6 8//6
