# Blender 4.0.2
# www.blender.org
o e415cf32f04a6efb9a000e3a8417de8aa45ac2b20fa97566f6855cced125283
v -1051.650391 160.000000 1600.000000
v -1051.650391 120.000000 1600.000000
v -1069.669922 120.000000 1600.000000
v -1069.669922 160.000000 1600.000000
v -1030.000000 120.000000 1578.349609
v -1030.000000 120.000000 1560.330078
v -430.000000 120.000000 978.349548
v -251.650436 160.000000 800.000000
v -251.650436 80.000000 800.000000
v -430.000000 80.000000 978.349548
v -506.650421 120.000000 1055.000000
v -496.650421 120.000000 1045.000000
v -496.650421 80.000000 1045.000000
v -506.650421 80.000000 1055.000000
v -606.650452 120.000000 1155.000000
v -596.650452 120.000000 1145.000000
v -596.650452 80.000000 1145.000000
v -606.650452 80.000000 1155.000000
v -706.650452 120.000000 1255.000000
v -696.650452 120.000000 1245.000000
v -696.650452 80.000000 1245.000000
v -706.650452 80.000000 1255.000000
v -1030.000000 80.000000 1578.349609
v -770.000000 120.000000 1318.349609
v -770.000000 80.000000 1318.349609
v 800.000000 160.000000 -251.650436
v -198.959229 160.000000 800.000000
v 800.000000 160.000000 -198.959229
v 1600.000000 160.000000 -1069.669922
v 1600.000000 160.000000 -1051.650391
v -770.000000 120.000000 1300.330078
v -1030.000000 80.000000 1560.330078
v -770.000000 80.000000 1300.330078
v -724.669922 120.000000 1255.000000
v -724.669922 80.000000 1255.000000
v -714.669922 80.000000 1245.000000
v -714.669922 120.000000 1245.000000
v -614.669922 120.000000 1145.000000
v -624.669922 120.000000 1155.000000
v -624.669922 80.000000 1155.000000
v -614.669922 80.000000 1145.000000
v -524.669922 120.000000 1055.000000
v -524.669922 80.000000 1055.000000
v -514.669922 80.000000 1045.000000
v -514.669922 120.000000 1045.000000
v -170.000000 120.000000 700.330078
v -430.000000 120.000000 960.330078
v -430.000000 80.000000 960.330078
v -170.000000 80.000000 700.330078
v -114.669914 120.000000 645.000000
v -124.669914 120.000000 655.000000
v -124.669914 80.000000 655.000000
v -114.669914 80.000000 645.000000
v -24.669914 120.000000 555.000000
v -24.669914 80.000000 555.000000
v -14.669914 80.000000 545.000000
v -14.669914 120.000000 545.000000
v 85.330086 120.000000 445.000000
v 75.330086 120.000000 455.000000
v 75.330086 80.000000 455.000000
v 85.330086 80.000000 445.000000
v 430.000000 120.000000 100.330086
v 170.000000 120.000000 360.330078
v 170.000000 80.000000 360.330078
v 430.000000 80.000000 100.330086
v 475.330078 120.000000 55.000000
v 475.330078 80.000000 55.000000
v 485.330078 80.000000 45.000000
v 485.330078 120.000000 45.000000
v 585.330078 120.000000 -55.000000
v 575.330078 120.000000 -45.000000
v 575.330078 80.000000 -45.000000
v 585.330078 80.000000 -55.000000
v 685.330078 120.000000 -155.000000
v 675.330078 120.000000 -145.000000
v 675.330078 80.000000 -145.000000
v 685.330078 80.000000 -155.000000
v 1030.000000 80.000000 -499.669922
v 770.000000 120.000000 -239.669907
v 770.000000 80.000000 -239.669907
v 1030.000000 120.000000 -499.669922
v 1075.330078 120.000000 -545.000000
v 1075.330078 80.000000 -545.000000
v 1085.330078 80.000000 -555.000000
v 1085.330078 120.000000 -555.000000
v 1185.330078 120.000000 -655.000000
v 1175.330078 120.000000 -645.000000
v 1175.330078 80.000000 -645.000000
v 1185.330078 80.000000 -655.000000
v 1285.330078 120.000000 -755.000000
v 1275.330078 120.000000 -745.000000
v 1275.330078 80.000000 -745.000000
v 1285.330078 80.000000 -755.000000
v 1600.000000 80.000000 -1069.669922
v 1370.000000 120.000000 -839.669922
v 1370.000000 80.000000 -839.669922
v -198.959229 80.000000 800.000000
v -170.000000 80.000000 755.000000
v -170.000000 80.000000 771.040771
v -170.000000 80.000000 745.000000
v -153.959229 80.000000 755.000000
v -143.959229 80.000000 745.000000
v 1600.000000 80.000000 -1051.650391
v 1370.000000 120.000000 -821.650452
v 1370.000000 80.000000 -821.650452
v 1293.349609 120.000000 -745.000000
v 1303.349609 120.000000 -755.000000
v 1303.349609 80.000000 -755.000000
v 1293.349609 80.000000 -745.000000
v 1203.349609 120.000000 -655.000000
v 1203.349609 80.000000 -655.000000
v 1193.349609 80.000000 -645.000000
v 1193.349609 120.000000 -645.000000
v 1093.349609 120.000000 -545.000000
v 1103.349609 120.000000 -555.000000
v 1103.349609 80.000000 -555.000000
v 1093.349609 80.000000 -545.000000
v 800.000000 80.000000 -251.650436
v 1030.000000 120.000000 -481.650421
v 1030.000000 80.000000 -481.650421
v 800.000000 80.000000 -198.959229
v 770.000000 120.000000 -168.959229
v 770.000000 80.000000 -168.959229
v 756.040771 120.000000 -155.000000
v 756.040771 80.000000 -155.000000
v 746.040771 80.000000 -145.000000
v 746.040771 120.000000 -145.000000
v 656.040771 120.000000 -55.000000
v 646.040771 120.000000 -45.000000
v 656.040771 80.000000 -55.000000
v 646.040771 80.000000 -45.000000
v 546.040771 120.000000 55.000000
v 556.040771 120.000000 45.000000
v 556.040771 80.000000 45.000000
v 546.040771 80.000000 55.000000
v 446.040771 120.000000 155.000000
v 456.040771 120.000000 145.000000
v 456.040771 80.000000 145.000000
v 446.040771 80.000000 155.000000
v 170.000000 120.000000 431.040771
v 430.000000 120.000000 171.040771
v 430.000000 80.000000 171.040771
v 170.000000 80.000000 431.040771
v 146.040771 120.000000 455.000000
v 156.040771 120.000000 445.000000
v 156.040771 80.000000 445.000000
v 146.040771 80.000000 455.000000
v 46.040764 120.000000 555.000000
v 56.040764 120.000000 545.000000
v 56.040764 80.000000 545.000000
v 46.040764 80.000000 555.000000
v -53.959236 120.000000 655.000000
v -43.959236 120.000000 645.000000
v -43.959236 80.000000 645.000000
v -53.959236 80.000000 655.000000
v -153.959229 120.000000 755.000000
v -143.959229 120.000000 745.000000
v -170.000000 120.000000 771.040771
v 430.000000 120.000000 145.000000
v 430.000000 80.000000 145.000000
v 430.000000 80.000000 155.000000
v -170.000000 120.000000 745.000000
v -170.000000 120.000000 755.000000
v 430.000000 120.000000 155.000000
vn -0.0000 -0.0000 1.0000
vn -0.0000 -1.0000 -0.0000
vn 0.7071 -0.0000 0.7071
vn -0.0000 1.0000 -0.0000
vn -0.7071 -0.0000 -0.7071
vn -1.0000 -0.0000 -0.0000
vn 1.0000 -0.0000 -0.0000
vn -0.0000 -0.0000 -1.0000
s 0
f 3//1 2//1 1//1
f 4//1 3//1 1//1
f 2//2 3//2 5//2
f 5//2 3//2 6//2
f 9//3 8//3 7//3
f 10//3 9//3 7//3
f 13//3 12//3 11//3
f 14//3 13//3 11//3
f 17//3 16//3 15//3
f 18//3 17//3 15//3
f 21//3 20//3 19//3
f 22//3 21//3 19//3
f 25//3 24//3 23//3
f 23//3 24//3 5//3
f 2//3 5//3 1//3
f 5//3 24//3 1//3
f 7//3 8//3 1//3
f 12//3 7//3 1//3
f 11//3 12//3 1//3
f 16//3 11//3 1//3
f 15//3 16//3 1//3
f 20//3 15//3 1//3
f 19//3 20//3 1//3
f 24//3 19//3 1//3
f 8//4 4//4 1//4
f 26//4 8//4 27//4
f 26//4 27//4 28//4
f 29//4 26//4 30//4
f 29//4 4//4 8//4
f 29//4 8//4 26//4
f 3//5 4//5 6//5
f 32//5 6//5 31//5
f 33//5 32//5 31//5
f 6//5 4//5 31//5
f 36//5 35//5 34//5
f 36//5 34//5 37//5
f 40//5 39//5 38//5
f 41//5 40//5 38//5
f 44//5 43//5 42//5
f 44//5 42//5 45//5
f 48//5 47//5 46//5
f 49//5 48//5 46//5
f 52//5 51//5 50//5
f 53//5 52//5 50//5
f 56//5 55//5 54//5
f 56//5 54//5 57//5
f 60//5 59//5 58//5
f 61//5 60//5 58//5
f 64//5 63//5 62//5
f 65//5 64//5 62//5
f 68//5 67//5 66//5
f 68//5 66//5 69//5
f 72//5 71//5 70//5
f 73//5 72//5 70//5
f 76//5 75//5 74//5
f 77//5 76//5 74//5
f 80//5 79//5 78//5
f 78//5 79//5 81//5
f 84//5 83//5 82//5
f 84//5 82//5 85//5
f 88//5 87//5 86//5
f 89//5 88//5 86//5
f 92//5 91//5 90//5
f 93//5 92//5 90//5
f 96//5 95//5 94//5
f 94//5 95//5 29//5
f 95//5 90//5 29//5
f 31//5 4//5 29//5
f 34//5 31//5 29//5
f 37//5 34//5 29//5
f 39//5 37//5 29//5
f 38//5 39//5 29//5
f 42//5 38//5 29//5
f 45//5 42//5 29//5
f 47//5 45//5 29//5
f 46//5 47//5 29//5
f 51//5 46//5 29//5
f 50//5 51//5 29//5
f 54//5 50//5 29//5
f 57//5 54//5 29//5
f 59//5 57//5 29//5
f 58//5 59//5 29//5
f 63//5 58//5 29//5
f 62//5 63//5 29//5
f 66//5 62//5 29//5
f 69//5 66//5 29//5
f 71//5 69//5 29//5
f 70//5 71//5 29//5
f 75//5 70//5 29//5
f 74//5 75//5 29//5
f 79//5 74//5 29//5
f 81//5 79//5 29//5
f 82//5 81//5 29//5
f 85//5 82//5 29//5
f 87//5 85//5 29//5
f 86//5 87//5 29//5
f 91//5 86//5 29//5
f 90//5 91//5 29//5
f 32//6 23//6 5//6
f 32//6 5//6 6//6
f 27//1 8//1 9//1
f 27//1 9//1 97//1
f 23//2 32//2 25//2
f 25//2 32//2 33//2
f 31//7 24//7 25//7
f 31//7 25//7 33//7
f 24//2 31//2 34//2
f 19//2 24//2 34//2
f 35//1 22//1 19//1
f 35//1 19//1 34//1
f 22//2 35//2 36//2
f 22//2 36//2 21//2
f 37//8 20//8 21//8
f 37//8 21//8 36//8
f 20//2 37//2 39//2
f 20//2 39//2 15//2
f 40//1 18//1 15//1
f 40//1 15//1 39//1
f 18//2 40//2 41//2
f 18//2 41//2 17//2
f 16//8 17//8 41//8
f 38//8 16//8 41//8
f 16//2 38//2 42//2
f 16//2 42//2 11//2
f 43//1 14//1 11//1
f 43//1 11//1 42//1
f 14//2 43//2 44//2
f 14//2 44//2 13//2
f 12//8 13//8 44//8
f 45//8 12//8 44//8
f 7//2 12//2 45//2
f 7//2 45//2 47//2
f 47//6 48//6 10//6
f 7//6 47//6 10//6
f 10//2 48//2 9//2
f 97//2 9//2 98//2
f 99//2 97//2 98//2
f 98//2 9//2 100//2
f 98//2 100//2 101//2
f 101//2 100//2 102//2
f 100//2 9//2 49//2
f 9//2 48//2 49//2
f 29//7 103//7 94//7
f 29//7 30//7 103//7
f 103//3 30//3 104//3
f 105//3 103//3 104//3
f 108//3 107//3 106//3
f 109//3 108//3 106//3
f 112//3 111//3 110//3
f 112//3 110//3 113//3
f 116//3 115//3 114//3
f 117//3 116//3 114//3
f 120//3 119//3 118//3
f 118//3 119//3 26//3
f 104//3 30//3 26//3
f 107//3 104//3 26//3
f 106//3 107//3 26//3
f 110//3 106//3 26//3
f 113//3 110//3 26//3
f 115//3 113//3 26//3
f 114//3 115//3 26//3
f 119//3 114//3 26//3
f 28//7 121//7 118//7
f 26//7 28//7 118//7
f 121//3 28//3 122//3
f 123//3 121//3 122//3
f 126//3 125//3 124//3
f 122//3 28//3 124//3
f 124//3 28//3 127//3
f 126//3 124//3 127//3
f 127//3 28//3 128//3
f 130//3 128//3 129//3
f 131//3 130//3 129//3
f 128//3 28//3 129//3
f 134//3 133//3 132//3
f 135//3 134//3 132//3
f 138//3 137//3 136//3
f 139//3 138//3 136//3
f 142//3 141//3 140//3
f 143//3 142//3 140//3
f 146//3 145//3 144//3
f 147//3 146//3 144//3
f 150//3 149//3 148//3
f 151//3 150//3 148//3
f 154//3 153//3 152//3
f 155//3 154//3 152//3
f 102//3 157//3 156//3
f 101//3 102//3 156//3
f 99//3 158//3 97//3
f 152//3 153//3 27//3
f 156//3 157//3 27//3
f 97//3 158//3 27//3
f 157//3 152//3 27//3
f 158//3 156//3 27//3
f 129//3 28//3 27//3
f 133//3 129//3 27//3
f 132//3 133//3 27//3
f 137//3 132//3 27//3
f 136//3 137//3 27//3
f 141//3 136//3 27//3
f 140//3 141//3 27//3
f 145//3 140//3 27//3
f 144//3 145//3 27//3
f 149//3 144//3 27//3
f 148//3 149//3 27//3
f 153//3 148//3 27//3
f 105//2 96//2 103//2
f 103//2 96//2 94//2
f 96//6 104//6 95//6
f 96//6 105//6 104//6
f 104//2 107//2 90//2
f 95//2 104//2 90//2
f 93//8 90//8 107//8
f 108//8 93//8 107//8
f 109//2 92//2 93//2
f 109//2 93//2 108//2
f 106//1 91//1 109//1
f 91//1 92//1 109//1
f 91//2 106//2 110//2
f 91//2 110//2 86//2
f 111//8 86//8 110//8
f 111//8 89//8 86//8
f 112//2 88//2 89//2
f 112//2 89//2 111//2
f 113//1 87//1 88//1
f 113//1 88//1 112//1
f 87//2 113//2 115//2
f 87//2 115//2 85//2
f 116//8 85//8 115//8
f 116//8 84//8 85//8
f 117//2 83//2 84//2
f 117//2 84//2 116//2
f 114//1 82//1 117//1
f 82//1 83//1 117//1
f 82//2 114//2 119//2
f 81//2 82//2 119//2
f 120//7 78//7 81//7
f 120//7 81//7 119//7
f 121//2 123//2 80//2
f 121//2 80//2 118//2
f 120//2 118//2 78//2
f 118//2 80//2 78//2
f 80//6 122//6 79//6
f 80//6 123//6 122//6
f 122//2 124//2 74//2
f 79//2 122//2 74//2
f 124//8 77//8 74//8
f 125//8 77//8 124//8
f 76//2 77//2 126//2
f 126//2 77//2 125//2
f 75//1 76//1 127//1
f 127//1 76//1 126//1
f 75//2 127//2 128//2
f 75//2 128//2 70//2
f 128//8 73//8 70//8
f 130//8 73//8 128//8
f 72//2 73//2 131//2
f 131//2 73//2 130//2
f 71//1 72//1 129//1
f 129//1 72//1 131//1
f 71//2 129//2 133//2
f 71//2 133//2 69//2
f 133//8 68//8 69//8
f 134//8 68//8 133//8
f 67//2 68//2 135//2
f 135//2 68//2 134//2
f 66//1 67//1 132//1
f 132//1 67//1 135//1
f 66//2 132//2 137//2
f 62//2 66//2 137//2
f 62//2 137//2 159//2
f 160//7 65//7 62//7
f 160//7 62//7 159//7
f 143//2 64//2 142//2
f 142//2 64//2 161//2
f 161//2 64//2 160//2
f 161//2 160//2 139//2
f 139//2 160//2 138//2
f 160//2 64//2 65//2
f 64//6 140//6 63//6
f 64//6 143//6 140//6
f 140//2 145//2 58//2
f 140//2 58//2 63//2
f 145//8 146//8 58//8
f 58//8 146//8 61//8
f 60//2 61//2 147//2
f 147//2 61//2 146//2
f 59//1 147//1 144//1
f 60//1 147//1 59//1
f 149//2 57//2 59//2
f 149//2 59//2 144//2
f 149//8 150//8 57//8
f 57//8 150//8 56//8
f 55//2 56//2 151//2
f 151//2 56//2 150//2
f 54//1 151//1 148//1
f 55//1 151//1 54//1
f 153//2 50//2 54//2
f 153//2 54//2 148//2
f 153//8 154//8 50//8
f 50//8 154//8 53//8
f 52//2 53//2 155//2
f 155//2 53//2 154//2
f 51//1 155//1 152//1
f 52//1 155//1 51//1
f 157//2 162//2 46//2
f 157//2 46//2 51//2
f 152//2 157//2 51//2
f 162//7 100//7 49//7
f 46//7 162//7 49//7
f 162//8 157//8 102//8
f 162//8 102//8 100//8
f 101//1 156//1 163//1
f 98//1 101//1 163//1
f 163//7 158//7 99//7
f 163//7 99//7 98//7
f 156//2 158//2 163//2
f 142//7 161//7 164//7
f 142//7 164//7 141//7
f 164//2 136//2 141//2
f 164//1 161//1 139//1
f 136//1 164//1 139//1
f 138//8 160//8 159//8
f 138//8 159//8 137//8
